<?xml version="1.0" standalone="no"?>
<!DOCTYPE svg PUBLIC "-//W3C//DTD SVG 20010904//EN"
 "http://www.w3.org/TR/2001/REC-SVG-20010904/DTD/svg10.dtd">
<svg version="1.0" xmlns="http://www.w3.org/2000/svg"
 width="400.000000pt" height="400.000000pt" viewBox="0 0 400.000000 400.000000"
 preserveAspectRatio="xMidYMid meet">
<metadata>
Created by potrace 1.11, written by Peter Selinger 2001-2013
</metadata>
<g transform="translate(0.000000,400.000000) scale(0.100000,-0.100000)"
fill="#000000" stroke="none">
<path d="M1957 3944 c-1 -1 -47 -5 -102 -8 -99 -5 -156 -11 -205 -21 -14 -3
-34 -7 -45 -9 -542 -105 -1036 -470 -1299 -961 -65 -120 -152 -345 -171 -438
-2 -10 -6 -26 -9 -35 -3 -9 -8 -33 -11 -52 -3 -19 -8 -48 -11 -63 -30 -145
-34 -469 -9 -592 3 -11 7 -38 10 -60 30 -213 155 -531 292 -740 246 -375 606
-652 1027 -790 258 -85 505 -114 791 -91 69 5 81 7 180 26 28 6 60 12 72 14
110 21 294 90 438 163 477 242 831 686 968 1213 21 82 29 118 43 210 29 185
21 458 -18 650 -6 30 -12 60 -14 65 -36 183 -153 450 -283 647 -133 201 -381
450 -542 543 -10 6 -53 31 -96 57 -150 90 -334 166 -498 207 -77 20 -101 25
-174 37 -18 3 -43 7 -54 10 -11 2 -63 6 -116 10 -53 3 -111 7 -129 8 -18 1
-33 1 -35 0z m198 -68 c39 -3 79 -7 90 -10 11 -2 40 -7 65 -11 226 -35 505
-147 714 -287 325 -217 577 -526 719 -883 34 -85 85 -247 92 -290 1 -11 6 -36
10 -55 4 -19 9 -46 10 -60 2 -14 7 -47 12 -75 9 -64 10 -362 0 -440 -4 -33 -9
-71 -11 -85 -2 -14 -6 -34 -9 -45 -4 -11 -9 -36 -12 -55 -18 -112 -99 -333
-170 -467 -188 -354 -482 -636 -840 -803 -91 -43 -131 -61 -145 -65 -3 -1 -50
-15 -105 -33 -55 -17 -115 -34 -134 -37 -19 -3 -37 -8 -41 -10 -4 -2 -29 -7
-56 -10 -27 -3 -76 -9 -109 -14 -122 -17 -369 -10 -515 15 -19 3 -44 7 -56 9
-31 4 -202 52 -264 73 -129 45 -375 173 -460 239 -241 187 -355 306 -495 513
-136 203 -259 523 -290 755 -3 17 -8 55 -12 85 -9 66 -9 345 0 415 28 225 83
409 182 610 238 488 675 841 1205 975 41 10 95 22 120 25 24 4 47 8 50 10 4 2
46 7 96 10 49 4 90 8 91 9 4 3 198 -2 268 -8z"/>
<path d="M1845 3569 c-365 -36 -694 -193 -955 -458 -446 -451 -574 -1117 -327
-1701 144 -342 400 -615 732 -780 110 -54 243 -105 305 -116 14 -3 41 -9 60
-14 19 -5 53 -12 75 -15 22 -2 63 -8 90 -11 96 -13 307 -7 395 11 14 3 41 8
60 11 75 13 219 57 300 92 192 82 351 190 500 341 202 204 351 474 410 741 31
140 32 148 35 330 4 239 -18 370 -102 588 -135 354 -408 654 -750 826 -124 62
-312 123 -433 140 -25 4 -61 9 -80 12 -59 8 -241 10 -315 3z m342 -132 c11 -3
43 -9 70 -12 74 -11 269 -78 359 -123 305 -153 542 -406 676 -722 191 -450
137 -968 -144 -1378 -55 -80 -219 -252 -298 -313 -194 -150 -434 -251 -675
-284 -96 -13 -333 -14 -400 0 -16 3 -55 10 -85 16 -369 73 -721 325 -922 659
-186 311 -247 676 -172 1037 113 550 559 994 1109 1102 55 11 111 22 125 24
36 5 331 0 357 -6z"/>
<path d="M1280 2834 c-46 -20 -77 -50 -103 -99 -21 -40 -22 -46 -22 -704 0
-453 4 -679 11 -708 21 -82 96 -149 182 -160 86 -12 178 42 215 126 19 43 20
70 20 720 -1 449 -4 685 -11 702 -17 43 -73 101 -117 120 -48 22 -127 24 -175
3z m130 -79 c50 -26 73 -69 68 -126 -6 -57 -34 -94 -82 -106 -48 -12 -58 -11
-98 9 -67 33 -88 115 -45 179 39 57 98 74 157 44z m3 -1269 c118 -50 101 -219
-24 -241 -84 -15 -153 51 -146 138 5 52 26 82 72 103 39 17 58 17 98 0z"/>
<path d="M2541 2830 c-33 -17 -685 -660 -722 -711 -31 -44 -38 -143 -13 -192
22 -42 695 -722 737 -743 51 -27 129 -26 185 2 68 34 105 88 110 163 7 100 -7
119 -287 397 -138 136 -251 252 -251 258 0 5 114 122 253 260 155 153 260 266
271 288 37 81 13 184 -57 245 -61 53 -160 68 -226 33z m132 -74 c89 -37 107
-144 37 -211 -25 -24 -39 -29 -78 -29 -136 0 -184 164 -67 235 36 22 64 24
108 5z m38 -1292 c69 -66 50 -173 -37 -210 -82 -35 -174 32 -174 127 0 40 36
95 70 109 44 17 108 5 141 -26z"/>
</g>
</svg>
