<svg width="483" height="184" viewBox="0 0 483 184" fill="none" xmlns="http://www.w3.org/2000/svg">
<g clip-path="url(#clip0_3311_4107)">
<path d="M43.6411 69.5247C43.6411 74.6657 39.4733 78.8335 34.3322 78.8335C29.1912 78.8335 25.0234 74.6657 25.0234 69.5247C25.0234 64.3836 29.1912 60.2159 34.3322 60.2159C39.4733 60.2159 43.6411 64.3843 43.6411 69.5247ZM155.214 122.786C150.678 122.786 147 126.464 147 131C147 135.536 150.678 139.214 155.214 139.214C159.751 139.214 163.428 135.536 163.428 131C163.428 126.464 159.751 122.786 155.214 122.786ZM439.714 29.2861C435.177 29.2861 431.5 32.9636 431.5 37.5C431.5 42.0365 435.177 45.7139 439.714 45.7139C444.25 45.7139 447.928 42.0365 447.928 37.5C447.928 32.9636 444.25 29.2861 439.714 29.2861Z" fill="#6188E7" fill-opacity="0.99"/>
<path d="M-52.4923 168.06C-52.4923 173.999 -57.3071 178.813 -63.2461 178.813C-69.1851 178.813 -74 173.999 -74 168.06C-74 162.121 -69.1851 157.306 -63.2461 157.306C-57.3065 157.305 -52.4923 162.12 -52.4923 168.06ZM115.212 10.7075C111.284 6.68195 105.772 3.9699 99.6888 3.07098C96.1403 2.54478 92.8243 5.00104 92.2981 8.5582C91.7726 12.1147 94.2288 15.4234 97.7853 15.9489C101.018 16.4266 103.973 17.8298 105.894 19.7977C106.755 20.68 108.153 22.4639 107.852 24.501C107.551 26.538 105.696 27.8409 104.617 28.4362C102.209 29.7656 98.9752 30.2519 95.7416 29.7749C82.5282 27.8242 70.4628 35.11 68.8484 46.0226C67.2352 56.9346 76.6743 67.4021 89.8897 69.3561C89.9588 69.366 90.0266 69.3634 90.0956 69.3714C96.5084 70.3972 100.438 74.6513 99.9599 77.8862C99.6589 79.9226 97.8039 81.2261 96.7249 81.8214C94.3165 83.1502 91.0829 83.6392 87.8493 83.1602C74.6366 81.2082 62.5705 88.4952 60.9561 99.4079C59.3429 110.32 68.782 120.787 81.9974 122.741C82.3196 122.789 82.6405 122.812 82.9574 122.812C86.1305 122.812 88.9097 120.488 89.3881 117.254C89.9136 113.698 87.4574 110.39 83.9008 109.863C77.3659 108.897 73.3503 104.581 73.834 101.312C74.3176 98.0419 79.4082 95.0674 85.9452 96.0381C87.4009 96.2533 88.8566 96.3596 90.2956 96.3596C94.8653 96.3596 99.2689 95.286 103.014 93.2191C108.438 90.226 112.019 85.3314 112.838 79.7897C114.451 68.8777 105.012 58.4102 91.7965 56.4562C91.7095 56.4436 91.6237 56.4403 91.5367 56.431C85.1566 55.3899 81.2493 51.1517 81.7256 47.9268C82.2093 44.6566 87.3012 41.6835 93.8368 42.6528C95.2932 42.8681 96.7482 42.9744 98.1873 42.9744C102.758 42.9744 107.161 41.9007 110.906 39.8338C116.33 36.8407 119.91 31.9461 120.729 26.4044C121.549 20.8627 119.538 15.1417 115.212 10.7075Z" fill="#FF7AC3" fill-opacity="0.99"/>
<path d="M445.535 156.132C445.535 162.071 440.72 166.886 434.781 166.886C428.842 166.886 424.027 162.071 424.027 156.132C424.027 150.193 428.842 145.378 434.781 145.378C440.72 145.378 445.535 150.192 445.535 156.132ZM290.167 25.0528C285.987 20.9873 280.21 18.3271 273.9 17.5631C273.812 17.5524 273.725 17.5518 273.637 17.5445C267.954 16.7598 264.104 13.1442 264.441 10.3584C264.937 6.26773 262.022 2.54979 257.932 2.05415C253.845 1.5625 250.123 4.47321 249.628 8.56321C248.215 20.2293 258.086 30.6988 272.102 32.3976C272.181 32.4069 272.257 32.4049 272.335 32.4116C275.286 32.8135 277.984 34.0187 279.763 35.7488C280.519 36.485 281.76 37.9652 281.562 39.603C281.364 41.2394 279.805 42.3801 278.894 42.9143C276.698 44.2019 273.695 44.7301 270.652 44.3607C264.341 43.5946 258.097 44.7985 253.067 47.7484C247.465 51.0332 243.845 56.2779 243.135 62.1358C241.721 73.8026 251.592 84.2714 265.608 85.9709C265.913 86.0081 266.216 86.026 266.516 86.026C270.235 86.026 273.454 83.2476 273.913 79.4625C274.409 75.3718 271.494 71.6539 267.404 71.1583C261.576 70.452 257.604 66.76 257.947 63.9317C258.146 62.2946 259.704 61.1539 260.615 60.6197C262.811 59.3321 265.816 58.8039 268.857 59.1733C270.097 59.3241 271.334 59.3979 272.561 59.3979C277.575 59.3979 282.401 58.1561 286.442 55.7856C292.045 52.5008 295.664 47.2561 296.374 41.3981C297.085 35.5389 294.822 29.5813 290.167 25.0528ZM525.452 155.277C528.898 153.018 529.859 148.393 527.599 144.947C502.595 106.82 521.765 79.9447 533.218 63.8877C534.611 61.935 535.927 60.09 537 58.4357C539.242 54.9788 538.258 50.3587 534.801 48.1164C531.343 45.874 526.724 46.8586 524.482 50.3155C523.587 51.6941 522.421 53.3292 521.07 55.2234C509.206 71.8564 484.519 106.467 515.121 153.13C515.8 154.167 516.727 155.018 517.817 155.606C518.908 156.194 520.128 156.502 521.367 156.5C522.819 156.501 524.239 156.075 525.452 155.277Z" fill="#B6CBFF" fill-opacity="0.99"/>
<path d="M398.437 93.1452C398.437 97.2598 395.101 100.595 390.987 100.595C386.872 100.595 383.537 97.2598 383.537 93.1452C383.537 89.0306 386.872 85.6954 390.987 85.6954C395.101 85.6954 398.437 89.0306 398.437 93.1452ZM191.768 49.7681C187.774 49.7681 184.536 53.0063 184.536 57C184.536 60.9936 187.774 64.2319 191.768 64.2319C195.762 64.2319 199 60.9936 199 57C199 53.0063 195.762 49.7681 191.768 49.7681ZM313.544 157.498C314.668 156.282 316.015 154.915 317.442 153.468C324.682 146.124 334.598 136.067 338.889 122.313C344.043 105.789 339.618 88.2295 325.734 70.1202C323.324 66.9762 318.823 66.3836 315.68 68.792C312.538 71.2018 311.943 75.7024 314.352 78.8456C325.388 93.2397 328.936 106.061 325.199 118.041C321.944 128.474 313.785 136.75 307.23 143.399C305.719 144.932 304.292 146.379 303.01 147.767C300.323 150.676 300.503 155.213 303.412 157.9C304.735 159.126 306.472 159.806 308.276 159.803C309.266 159.805 310.245 159.601 311.152 159.204C312.059 158.807 312.874 158.226 313.544 157.498Z" fill="#FF7AC3" fill-opacity="0.99"/>
<path d="M41.3446 161.146L20.9999 161.421L25.3998 145L41.8206 149.4L41.3446 161.146Z" fill="#FF7AC3" fill-opacity="0.99"/>
<path d="M218.58 143.469L199 149L199 132L216 132L218.58 143.469Z" fill="#B6CBFF" fill-opacity="0.99"/>
</g>
<defs>
<clipPath id="clip0_3311_4107">
<rect width="483" height="184" fill="white"/>
</clipPath>
</defs>
</svg>
