<!--?xml version="1.0" encoding="UTF-8" standalone="no"?-->

<svg width="100%" height="100%" viewBox="0 0 306 306" version="1.1" xmlns="http://www.w3.org/2000/svg" xmlns:xlink="http://www.w3.org/1999/xlink" xml:space="preserve" xmlns:serif="http://www.serif.com/" style="fill-rule: evenodd; clip-rule: evenodd;">
    <g transform="matrix(0.51,0,0,0.51,0,0)">
        <g id="_019.svg" serif:id="019.svg">
            <g>
                <g>
                    <path id="SvgjsRect1453" width="600" height="600" d="M0 0 L600 0 L600 600 L0 600 Z" class="haYpxQHi_0"></path>
                    <g id="SvgjsG1454">
                        <path id="SvgjsPolyline1455" d="M0.66,103.51L19.66,134.08L34.31,160.26L41.09,173.64L47.45,187.22L56.55,209.43L60.53,220.75L64.08,232.21L67.14,243.81L69.69,255.54L71.68,267.37L73.08,279.29L73.86,291.26L74.02,300.26L73.84,309.25L73.03,321.23L71.61,333.14L69.59,344.97L67.02,356.69L63.93,368.28L60.37,379.74L56.37,391.05L50.83,404.99L46,415.98L34.07,440.19L26.9,453.37L17.86,468.93L0.3,496.87" style="fill:none;fill-rule:nonzero;stroke:rgb(0,187,127);stroke-width:2px;" class="haYpxQHi_1"></path>
                        <path id="SvgjsPolyline1456" d="M0.27,82.25L24.24,116.73L34.03,131.83L43.46,147.17L52.43,162.77L59.51,176L66.16,189.44L72.31,203.12L77.88,217.05L81.85,228.37L85.35,239.85L88.31,251.48L90.69,263.24L92.45,275.11L93.54,287.05L93.94,299.05L93.65,311.04L92.67,323L91.01,334.88L88.73,346.66L85.05,361.2L81.51,372.67L77.49,383.97L71.88,397.88L65.69,411.54L59.01,424.97L50.44,440.8L42.9,453.77L33.45,469.09L21.97,486.67L1.35,516.18" style="fill:none;fill-rule:nonzero;stroke:rgb(0,187,127);stroke-width:2px;" class="haYpxQHi_2"></path>
                        <path id="SvgjsPolyline1457" d="M0.15,125.06L13.28,148.65L25.27,172.84L34.76,194.88L42.87,217.46L46.32,228.96L49.33,240.57L53.4,261.17L54.99,273.06L55.81,282.02L56.47,300.01L55.81,317.99L54.99,326.95L53.4,338.85L51.26,350.65L48.62,362.36L42.86,382.55L34.75,405.13L25.27,427.18L13.27,451.36L0.14,474.95" style="fill:none;fill-rule:nonzero;stroke:rgb(0,187,127);stroke-width:2px;" class="haYpxQHi_3"></path>
                        <path id="SvgjsPolyline1458" d="M0.75,63.37L17.29,84.71L31.65,103.94L43.86,121.02L55.67,138.38L67,156.07L74.71,168.93L83.48,184.65L90.29,198.01L96.57,211.64L102.21,225.53L107.1,239.71L110.39,251.25L113.62,265.9L115.42,277.76L116.47,289.71L116.76,301.71L116.25,313.69L114.98,325.62L112.98,337.45L109.52,352.04L106.06,363.54L100.99,377.65L95.2,391.48L88.79,405.05L81.87,418.35L72.99,434.01L63.6,449.37L53.79,464.46L41.9,481.77L29.63,498.81L17.04,515.62L0.48,536.94" style="fill:none;fill-rule:nonzero;stroke:rgb(0,187,127);stroke-width:2px;" class="haYpxQHi_4"></path>
                        <path id="SvgjsPolyline1459" d="M1.29,151.66L11.46,173.39L19.44,192.82L26.4,212.63L31.41,229.91L35.45,247.45L38.4,265.21L40.17,283.11L40.72,301.1L40.02,319.09L38.1,336.98L35.01,354.71L30.85,372.22L25.72,389.47L18.65,409.24L10.57,428.62L0.3,450.31" style="fill:none;fill-rule:nonzero;stroke:rgb(0,187,127);stroke-width:2px;" class="haYpxQHi_5"></path>
                        <path id="SvgjsPolyline1460" d="M0.48,44.47L19.79,67.43L38.76,90.67L55.44,111.9L69.86,131.08L82.09,148.16L93.83,165.56L103.43,180.79L112.46,196.36L119.45,209.63L125.85,223.2L131.51,237.09L136.29,251.3L140,265.83L142.11,277.64L143.35,289.57L143.69,301.57L143.11,313.55L141.64,325.46L139.32,337.23L135.37,351.69L130.39,365.84L124.57,379.66L118.04,393.16L110.93,406.37L103.36,419.32L92.12,437.06L80.29,454.41L66.22,473.85L51.69,492.95L34.91,514.11L0.38,555.62" style="fill:none;fill-rule:nonzero;stroke:rgb(0,187,127);stroke-width:2px;" class="haYpxQHi_6"></path>
                        <path id="SvgjsPolyline1461" d="M0.96,52.83L17.98,73.79L32.81,92.66L47.29,111.8L61.34,131.26L74.82,151.11L84.46,166.31L93.59,181.82L100.73,195.01L107.34,208.48L113.32,222.23L118.53,236.29L123.01,250.61L125.9,262.25L128.5,277.02L129.68,288.96L130.04,300.95L129.55,312.94L128.23,324.87L126.13,336.68L122.49,351.23L118.86,362.66L113.54,376.69L107.49,390.41L100.83,403.85L92.16,419.63L82.91,435.06L73.18,450.21L61.34,467.55L49.08,484.6L34.65,503.78L18,525.03L1,546" style="fill:none;fill-rule:nonzero;stroke:rgb(0,187,127);stroke-width:2px;" class="haYpxQHi_7"></path>
                        <path id="SvgjsPolyline1462" d="M0.47,178.22L6.9,195.03L11.69,209.24L16.66,226.54L20.09,241.14L22.82,255.89L24.79,270.76L25.97,285.71L26.35,300.7L25.9,315.69L24.64,330.64L22.59,345.5L19.8,360.23L16.3,374.82L12.17,389.23L7.44,403.47L1.07,420.3" style="fill:none;fill-rule:nonzero;stroke:rgb(0,187,127);stroke-width:2px;" class="haYpxQHi_8"></path>
                        <path id="SvgjsPolyline1463" d="M1.54,27.8L47.55,79.22L67.15,101.93L88.28,127.27L105.12,148.38L117.83,165.1L130.07,182.16L140.08,197.12L149.49,212.46L156.73,225.6L163.26,239.1L168.86,253.01L172.51,264.44L175.26,276.12L176.98,287.99L177.57,299.97L176.99,311.95L175.27,323.82L172.53,335.5L168.88,346.93L163.28,360.84L156.76,374.35L149.52,387.49L140.11,402.83L130.11,417.79L117.86,434.85L103.31,453.94L88.32,472.68L67.19,498.02L47.59,520.73L1.58,572.15" style="fill:none;fill-rule:nonzero;stroke:rgb(0,187,127);stroke-width:2px;" class="haYpxQHi_9"></path>
                        <path id="SvgjsPolyline1464" d="M1.04,35.35L24.71,62.47L44.12,85.34L61.28,106.19L76.19,124.99L92.49,146.52L104.69,163.61L114.71,178.57L124.21,193.85L133.09,209.51L139.93,222.86L146.06,236.54L151.3,250.6L155.45,265.01L157.83,276.76L159.29,288.67L159.74,300.66L159.18,312.64L157.61,324.54L155.13,336.28L150.88,350.66L146.69,361.9L140.65,375.63L132.46,391.65L125,404.66L115.46,419.93L103.71,437.33L91.43,454.37L76.92,473.48L62,492.28L42.93,515.44L1.8,563.16" style="fill:none;fill-rule:nonzero;stroke:rgb(0,187,127);stroke-width:2px;" class="haYpxQHi_10"></path>
                        <path id="SvgjsPolyline1465" d="M0.24,212.84L3.4,224.42L6.16,236.1L9.95,256.75L11.49,268.65L12.54,280.6L13.19,301.59L12.31,322.56L9.92,343.43L6.12,364.07L3.36,375.75L0.19,387.33" style="fill:none;fill-rule:nonzero;stroke:rgb(0,187,127);stroke-width:2px;" class="haYpxQHi_11"></path>
                        <path id="SvgjsPolyline1466" d="M2.06,11.09L64.44,75.97L117.74,132.91L135.88,152.91L155.71,175.42L171.2,193.75L184.34,210.13L195.14,224.53L203.64,236.89L211.49,249.67L217.07,260.29L221.75,271.33L224.47,279.91L225.81,285.76L226.72,291.69L227.19,300.67L226.56,309.64L225.55,315.55L224.12,321.38L221.28,329.92L216.48,340.91L210.82,351.49L202.91,364.23L194.35,376.55L183.52,390.92L170.35,407.28L156.79,423.32L120.89,463.65L71.78,516.3L1.13,589.87" style="fill:none;fill-rule:nonzero;stroke:rgb(0,187,127);stroke-width:2px;" class="haYpxQHi_12"></path>
                        <path id="SvgjsPolyline1467" d="M0.91,18.09L58.01,79.69L97.88,124.53L115.38,145.1L130.57,163.67L145.32,182.61L157.74,199.54L167.84,214.44L177.22,229.79L184.28,243.03L189.25,253.95L193.43,265.19L196.63,276.76L198.63,288.58L199.27,300.56L198.5,312.52L196.38,324.33L193.08,335.86L188.82,347.08L183.78,357.97L176.67,371.17L167.23,386.5L157.1,401.37L146.46,415.89L131.71,434.82L116.5,453.39L99,473.94L79.2,496.49L55.1,523.23L2.05,580.41" style="fill:none;fill-rule:nonzero;stroke:rgb(0,187,127);stroke-width:2px;" class="haYpxQHi_13"></path>
                        <path id="SvgjsPolyline1468" d="M0.12,275.67L0.85,287.65L1.11,299.65L0.88,311.65L0.18,323.62" style="fill:none;fill-rule:nonzero;stroke:rgb(0,187,127);stroke-width:2px;" class="haYpxQHi_14"></path>
                        <path id="SvgjsPolyline1469" d="M8.53,0.64L77.57,67.34L136.54,122.87L176.65,159.03L194.86,174.66L211.12,187.94L225.4,198.9L237.65,207.56L250.32,215.59L260.85,221.33L271.83,226.17L280.37,228.99L286.21,230.38L292.13,231.31L301.11,231.75L310.08,231.02L315.97,229.91L321.77,228.37L330.25,225.35L341.14,220.32L351.6,214.45L364.2,206.31L376.39,197.57L390.62,186.56L404.55,175.15L425.03,157.56L467.3,119.32L519.7,69.95L590.92,1.18" style="fill:none;fill-rule:nonzero;stroke:rgb(0,187,127);stroke-width:2px;" class="haYpxQHi_15"></path>
                        <path id="SvgjsPolyline1470" d="M0.34,0.98L169.62,171.11L215.87,218.2L242.86,246.35L261.01,266.34L266.78,273.24L272.23,280.41L275.51,285.43L278.25,290.76L280,296.48L280.31,299.46L280.16,302.46L278.66,308.25L276.05,313.65L272.84,318.71L267.45,325.92L261.71,332.85L245.64,350.67L218.7,378.88L176.7,421.72L1.1,598.25" style="fill:none;fill-rule:nonzero;stroke:rgb(0,187,127);stroke-width:2px;" class="haYpxQHi_16"></path>
                        <path id="SvgjsPolyline1471" d="M1.61,6.12L79.27,85.43L133.34,141.65L172.2,183.35L188.2,201.23L201.89,217.16L213.24,231.13L224.06,245.51L230.82,255.42L236.97,265.73L240.96,273.79L244.18,282.19L246.33,290.92L247.1,299.88L246.37,308.84L244.26,317.58L241.06,325.99L237.09,334.06L230.96,344.37L224.2,354.29L215.2,366.28L203.87,380.27L192.18,393.96L174.22,414.12L131.28,460.22L77.2,516.43L1.66,593.61" style="fill:none;fill-rule:nonzero;stroke:rgb(0,187,127);stroke-width:2px;" class="haYpxQHi_17"></path>
                        <path id="SvgjsPolyline1472" d="M0.83,13.14L56.57,71.91L83.09,100.51L107.27,127.17L125.14,147.42L142.66,167.96L155.95,184.22L170.59,203.23L181.01,217.91L189.16,230.5L196.6,243.52L201.85,254.31L207.25,268.3L210.53,279.84L212.44,291.68L212.83,300.66L212.3,309.64L210.23,321.46L206.81,332.95L202.32,344.08L195.59,357.48L187.96,370.39L179.7,382.91L169.2,397.53L156.37,414.15L143.11,430.44L125.63,451.02L105.81,473.53L61.28,522.24L1.52,585.47" style="fill:none;fill-rule:nonzero;stroke:rgb(0,187,127);stroke-width:2px;" class="haYpxQHi_18"></path>
                        <path id="SvgjsPolyline1473" d="M25.49,0.41L81.28,50.53L103.97,70.16L124.65,87.52L145.65,104.49L162.27,117.32L179.21,129.73L196.56,141.57L211.83,151.09L224.9,158.44L238.35,165.09L252.2,170.83L263.59,174.59L275.24,177.47L287.09,179.3L299.07,179.99L311.05,179.49L322.93,177.82L334.62,175.1L346.05,171.46L359.96,165.85L373.45,159.3L386.57,152.03L401.88,142.58L416.81,132.53L433.84,120.24L452.89,105.64L471.6,90.61L492.33,73.31L519.57,49.78L573.14,1.67" style="fill:none;fill-rule:nonzero;stroke:rgb(0,187,127);stroke-width:2px;" class="haYpxQHi_19"></path>
                        <path id="SvgjsPolyline1474" d="M16.54,0.58L77.98,57.86L104.67,82.02L127.17,101.87L149.99,121.34L168.56,136.54L185.1,149.48L202,161.94L219.4,173.7L232.22,181.47L242.78,187.18L256.41,193.44L267.68,197.53L279.28,200.58L291.15,202.36L300.13,202.76L312.1,202.01L320.98,200.52L332.57,197.45L343.84,193.34L354.77,188.4L368.01,181.34L383.35,171.93L398.22,161.79L415.11,149.32L431.63,136.35L452.46,119.17L470.69,103.56L495.43,81.72L522.1,57.55L583.53,0.26" style="fill:none;fill-rule:nonzero;stroke:rgb(0,187,127);stroke-width:2px;" class="haYpxQHi_20"></path>
                        <path id="SvgjsPolyline1475" d="M5.47,2.07L84.58,79.94L147.03,140.51L186.29,177.58L219.75,207.67L235.86,221.14L247.66,230.4L257.4,237.4L267.55,243.81L275.51,248L283.85,251.37L292.58,253.53L298.54,254.11L304.54,253.9L313.37,252.22L321.84,249.2L329.91,245.24L340.18,239.02L350.01,232.14L359.53,224.85L373.44,213.42L404.86,185.55L450.77,142.41L508.96,86.07L594.52,1.93" style="fill:none;fill-rule:nonzero;stroke:rgb(0,187,127);stroke-width:2px;" class="haYpxQHi_21"></path>
                        <path id="SvgjsPolyline1476" d="M12.92,1.73L78.12,63.77L128.85,110.53L151.28,130.45L171.78,148.03L190.35,163.23L206.99,176.04L221.66,186.47L234.26,194.6L247.32,201.97L258.17,207.1L269.36,211.42L280.89,214.72L286.78,215.85L292.74,216.58L301.73,216.88L310.7,216.21L322.47,213.91L333.89,210.25L344.92,205.53L355.58,200.02L368.45,192.33L380.93,184L395.48,173.42L409.7,162.38L428.26,147.17L448.76,129.6L471.21,109.69L526.36,58.87L587.23,0.98" style="fill:none;fill-rule:nonzero;stroke:rgb(0,187,127);stroke-width:2px;" class="haYpxQHi_22"></path>
                        <path id="SvgjsPolyline1477" d="M2.06,0.94L159.68,157.28L209.12,205.4L237.53,232.12L248.69,242.15L260.13,251.85L269.65,259.15L277.08,264.23L282.23,267.29L287.64,269.89L293.34,271.74L299.28,272.53L305.25,272.04L311.01,270.41L316.49,267.97L321.7,265L329.15,259.95L338.63,252.6L350.07,242.9L361.24,232.89L387.52,208.28L432.76,164.43L496.85,101.25L596.87,1.87" style="fill:none;fill-rule:nonzero;stroke:rgb(0,187,127);stroke-width:2px;" class="haYpxQHi_23"></path>
                        <path id="SvgjsPolyline1478" d="M1.57,3.81L94.38,97.67L148.9,153.45L190.37,196.81L218.72,227.8L230.45,241.45L237.98,250.79L245.12,260.44L250.06,267.96L254.39,275.85L258.02,284.08L260.48,292.72L261.14,298.68L260.88,304.67L260.42,307.63L258.9,313.43L256.75,319.03L252.67,327.05L246.24,337.17L239.14,346.85L229.75,358.54L220,369.94L193.81,398.84L146.22,448.8L81.22,515.31L1.08,596.39" style="fill:none;fill-rule:nonzero;stroke:rgb(0,187,127);stroke-width:2px;" class="haYpxQHi_24"></path>
                        <path id="SvgjsPolyline1479" d="M1.4,1.31L194.52,194.27L264.81,263.98L277.82,276.42L286.87,284.3L294.28,289.39L297.03,290.59L299.98,291.07L302.93,290.6L305.68,289.42L310.66,286.09L319.78,278.3L335.03,263.85L401.15,198.46L598.56,1.3" style="fill:none;fill-rule:nonzero;stroke:rgb(0,187,127);stroke-width:2px;" class="haYpxQHi_25"></path>
                        <path id="SvgjsPolyline1480" d="M0.35,0.35L284.59,284.63L292.99,293.2L294.75,295.62L294.72,298.58L293.61,301.36L290.53,306.5L282.85,315.71L270.44,328.75L211.32,388.42L1.4,598.52" style="fill:none;fill-rule:nonzero;stroke:rgb(0,187,127);stroke-width:2px;" class="haYpxQHi_26"></path>
                        <path id="SvgjsPolyline1481" d="M44.64,1.65L67.56,21.01L88.43,38.14L109.58,54.92L126.28,67.65L145.68,81.78L163,93.66L178.14,103.39L193.61,112.58L206.8,119.74L223.01,127.56L236.87,133.29L251.06,138.13L265.57,141.91L277.38,144.05L289.31,145.33L301.3,145.7L313.28,145.13L325.19,143.66L336.96,141.34L351.42,137.36L365.55,132.35L379.36,126.49L392.84,119.92L406.03,112.78L421.51,103.6L436.66,93.88L453.99,82.01L470.99,69.68L490.1,55.16L508.92,40.28L532.13,21.27L555.05,1.91" style="fill:none;fill-rule:nonzero;stroke:rgb(0,187,127);stroke-width:2px;" class="haYpxQHi_27"></path>
                        <path id="SvgjsPolyline1482" d="M34.76,1.62L57.29,21.42L84.64,44.83L107.76,63.94L126.54,78.89L145.63,93.44L160.2,104L177.54,115.84L192.76,125.46L208.34,134.47L221.62,141.43L235.25,147.71L249.24,153.11L260.7,156.67L275.32,159.97L287.21,161.57L299.19,162.16L311.18,161.71L323.09,160.24L334.84,157.83L349.24,153.63L363.27,148.33L376.93,142.15L390.24,135.25L405.82,126.23L421.01,116.58L438.34,104.71L452.91,94.14L474.36,77.74L497.75,58.95L518.49,41.67L566.05,0.36" style="fill:none;fill-rule:nonzero;stroke:rgb(0,187,127);stroke-width:2px;" class="haYpxQHi_28"></path>
                        <path id="SvgjsPolyline1483" d="M598.58,598.57L314.46,314.17L308.36,307.56L306.77,305.02L306.22,299.1L307.2,296.28L308.79,293.73L312.55,289.07L333.23,267.34L598.14,1.92" style="fill:none;fill-rule:nonzero;stroke:rgb(0,187,127);stroke-width:2px;" class="haYpxQHi_29"></path>
                        <path id="SvgjsPolyline1484" d="M599.56,599.79L419.07,419.66L344.28,345.96L328.96,331.6L317.5,321.93L312.53,318.58L309.86,317.2L307.04,316.19L304.08,315.69L301.09,315.77L295.21,316.94L292.39,317.95L287.09,320.75L282.14,324.14L275.1,329.74L255.04,347.81L229.08,372.75L182.05,419.06L1.41,599.04" style="fill:none;fill-rule:nonzero;stroke:rgb(0,187,127);stroke-width:2px;" class="haYpxQHi_30"></path>
                        <path id="SvgjsPolyline1485" d="M61.54,0.27L80.43,15.07L99.57,29.55L116.56,41.89L136.31,55.53L151.39,65.36L166.74,74.76L179.75,82.21L195.69,90.59L209.25,97L223.08,102.8L237.2,107.86L248.69,111.31L260.35,114.14L275.12,116.72L287.05,117.96L299.04,118.41L311.04,118.08L322.98,116.97L334.84,115.11L349.46,111.8L360.99,108.45L375.14,103.49L389.01,97.78L402.6,91.44L415.93,84.56L431.62,75.73L446.99,66.38L462.1,56.59L481.88,43L498.89,30.69L518.05,16.24L536.97,1.46" style="fill:none;fill-rule:nonzero;stroke:rgb(0,187,127);stroke-width:2px;" class="haYpxQHi_31"></path>
                        <path id="SvgjsPolyline1486" d="M52.57,1.81L73.49,18.87L94.7,35.58L111.42,48.28L128.39,60.65L145.65,72.61L163.26,84.05L178.67,93.35L194.43,102.04L207.86,108.72L221.58,114.78L235.61,120.08L249.9,124.64L264.46,128.23L276.28,130.29L288.21,131.54L300.2,131.95L312.19,131.51L324.12,130.23L335.94,128.15L350.49,124.53L364.76,119.91L378.72,114.43L392.38,108.23L405.76,101.44L421.46,92.65L436.83,83.29L454.4,71.79L469.19,61.53L488.59,47.4L505.31,34.69L524.16,19.84L547.43,0.9" style="fill:none;fill-rule:nonzero;stroke:rgb(0,187,127);stroke-width:2px;" class="haYpxQHi_32"></path>
                        <path id="SvgjsPolyline1487" d="M598.58,581.6L545.45,524.49L523.3,500.03L501.45,475.3L481.95,452.5L468.6,436.29L453.76,417.43L441.28,400.54L431.12,385.68L421.67,370.37L414.54,357.17L409.52,346.28L405.27,335.06L402,323.51L399.94,311.7L399.26,299.73L399.69,290.74L401.48,278.88L404.51,267.27L408.58,255.99L414.79,242.34L421.94,229.16L429.79,216.37L439.86,201.46L452.27,184.52L467.06,165.62L480.38,149.38L499.84,126.55L523.67,99.56L543.8,77.32L598.95,18" style="fill:none;fill-rule:nonzero;stroke:rgb(0,187,127);stroke-width:2px;" class="haYpxQHi_33"></path>
                        <path id="SvgjsPolyline1488" d="M598.34,590.17L529.65,518.88L480.38,466.37L442.3,423.96L426.72,405.71L413.48,389.41L402.58,375.09L393.96,362.81L385.99,350.11L380.3,339.54L375.49,328.55L372.69,320L371.31,314.17L370.37,308.24L369.89,299.26L370.56,290.29L372.3,281.47L376.03,270.07L380.96,259.13L386.74,248.62L394.79,235.97L403.45,223.72L414.4,209.43L425.75,195.46L441.3,177.19L459.19,156.97L479.39,134.78L528.66,82.28L599.44,8.83" style="fill:none;fill-rule:nonzero;stroke:rgb(0,187,127);stroke-width:2px;" class="haYpxQHi_34"></path>
                        <path id="SvgjsPolyline1489" d="M598.17,594.37L526.67,521.63L466.14,459.14L420.96,411.03L393.11,379.59L383.55,368.04L372.52,353.81L365.59,344.02L359.24,333.84L353.84,323.13L350.79,314.67L348.98,305.86L348.62,299.87L349.01,293.89L350.86,285.09L353.94,276.64L357.9,268.56L364.07,258.28L370.9,248.41L379.99,236.48L391.42,222.58L405.19,206.72L421.27,188.9L458.17,149.48L518.59,86.88L598.45,5.53" style="fill:none;fill-rule:nonzero;stroke:rgb(0,187,127);stroke-width:2px;" class="haYpxQHi_35"></path>
                        <path id="SvgjsPolyline1490" d="M598.93,597.36L501.74,499.39L442.86,439.48L397.07,391.95L372.64,365.51L362.76,354.23L353.23,342.64L347.82,335.45L342.82,327.97L337.06,317.45L334.8,311.89L333.26,306.1L332.7,300.13L333.22,294.16L334.71,288.36L336.95,282.79L341.23,274.88L346.19,267.38L353.4,257.78L362.95,246.21L374.83,232.69L405.46,199.73L445.03,158.7L508.09,94.49L598.91,2.88" style="fill:none;fill-rule:nonzero;stroke:rgb(0,187,127);stroke-width:2px;" class="haYpxQHi_36"></path>
                        <path id="SvgjsPolyline1491" d="M599.48,599.1L406.8,405.7L364.77,362.88L344.09,341.15L330.2,325.4L323.14,315.71L320.43,310.36L319.52,307.51L319.04,304.55L319.02,298.56L319.47,295.59L321.47,289.95L324.37,284.7L327.75,279.74L339.11,265.79L355.29,248.06L384.38,217.77L428.55,172.85L599.98,0.62" style="fill:none;fill-rule:nonzero;stroke:rgb(0,187,127);stroke-width:2px;" class="haYpxQHi_37"></path>
                        <path id="SvgjsPolyline1492" d="M582.59,599.8L523.25,544.67L496.52,520.55L473.99,500.74L453.45,483.22L434.9,467.99L418.38,455.03L399.04,440.82L384.11,430.76L371.33,422.92L358.14,415.77L344.5,409.56L333.21,405.48L321.61,402.42L309.76,400.59L300.78,400.12L291.79,400.45L279.91,402.11L268.27,405.02L256.95,408.98L245.95,413.77L232.63,420.67L217.19,429.92L202.23,439.93L185.25,452.28L166.31,467.02L147.74,482.22L127.18,499.72L100.16,523.51L75.68,545.64L18.54,598.73" style="fill:none;fill-rule:nonzero;stroke:rgb(0,187,127);stroke-width:2px;" class="haYpxQHi_38"></path>
                        <path id="SvgjsPolyline1493" d="M591.15,599.58L524.17,535.06L469.49,483.73L447.31,463.54L422.57,441.7L406.56,428.11L390.24,414.89L375.9,404.01L363.61,395.41L350.9,387.45L340.34,381.76L329.36,376.94L320.82,374.1L314.99,372.68L309.08,371.69L300.1,371.11L294.11,371.36L288.15,372.09L279.37,374.05L270.83,376.87L259.84,381.67L249.27,387.35L236.55,395.3L224.26,403.89L209.92,414.77L193.59,427.98L175.32,443.54L155.09,461.42L130.69,483.64L80.37,530.85L9.05,599.51" style="fill:none;fill-rule:nonzero;stroke:rgb(0,187,127);stroke-width:2px;" class="haYpxQHi_39"></path>
                        <path id="SvgjsPolyline1494" d="M595.38,599.46L514,519.62L455.7,463.39L414.07,424.46L382.62,396.62L368.73,385.17L354.45,374.22L344.62,367.34L334.4,361.05L323.66,355.71L315.2,352.67L306.39,350.84L300.41,350.44L294.42,350.74L285.6,352.45L277.1,355.39L268.96,359.22L258.59,365.26L248.65,371.98L236.65,380.98L222.67,392.32L206.75,406.01L191.1,420.01L149.37,458.84L84.55,521.27L5.29,598.99" style="fill:none;fill-rule:nonzero;stroke:rgb(0,187,127);stroke-width:2px;" class="haYpxQHi_40"></path>
                        <path id="SvgjsPolyline1495" d="M596.4,598.29L509.03,511.71L444.79,448.67L397.19,402.96L368.47,376.57L357.15,366.73L345.52,357.26L335.87,350.13L328.29,345.28L320.36,341.03L312.04,337.61L306.22,336.17L300.26,335.63L294.28,336.08L288.44,337.45L280.1,340.81L272.23,345.17L264.73,350.13L255.11,357.31L245.79,364.87L232.16,376.62L201.21,405.01L155.73,448.6L95.71,507.37L4.02,598.12" style="fill:none;fill-rule:nonzero;stroke:rgb(0,187,127);stroke-width:2px;" class="haYpxQHi_41"></path>
                        <path id="SvgjsPolyline1496" d="M80.7,0.1L112.58,22.56L127.6,32.47L142.85,42.04L158.36,51.18L174.15,59.82L187.55,66.56L201.18,72.81L215.06,78.5L226.35,82.57L237.79,86.18L252.31,89.94L264.07,92.3L275.95,94.02L287.9,95.07L299.89,95.43L311.89,95.08L323.84,94.04L335.72,92.33L347.48,89.99L359.12,87.06L373.45,82.64L387.54,77.49L398.62,72.9L412.26,66.65L425.66,59.92L438.85,52.76L454.4,43.7L469.69,34.21L487.24,22.68L519.13,0.22" style="fill:none;fill-rule:nonzero;stroke:rgb(0,187,127);stroke-width:2px;" class="haYpxQHi_42"></path>
                        <path id="SvgjsPolyline1497" d="M599.1,564.64L557.89,516.99L540.66,496.2L523.8,475.11L509.22,456.05L495.15,436.61L485.04,421.72L475.41,406.51L466.41,390.93L459.52,377.6L453.34,363.94L448.04,349.91L443.82,335.52L441.38,323.77L439.87,311.87L439.37,299.88L439.89,287.9L441.42,276L443.88,264.26L448.11,249.87L453.42,235.85L459.62,222.19L466.52,208.87L475.53,193.29L485.16,178.09L497.01,160.75L507.57,146.17L522.1,127.07L538.91,105.95L558.04,82.83L599.25,35.18" style="fill:none;fill-rule:nonzero;stroke:rgb(0,187,127);stroke-width:2px;" class="haYpxQHi_43"></path>
                        <path id="SvgjsPolyline1498" d="M599.02,574.07L574.82,547.41L548.94,518.24L531.29,497.81L512.03,474.81L493.28,451.39L480.58,434.67L470.06,420.06L458.33,402.64L448.86,387.33L441.57,374.23L434.99,360.75L429.34,346.86L425.66,335.44L422.88,323.77L421.14,311.9L420.55,299.92L421.16,287.94L422.91,276.07L425.7,264.41L430.44,250.18L436.31,236.38L443.05,222.98L450.47,209.95L460.06,194.71L471.94,177.4L484.38,160.49L497.24,143.88L514.24,122.9L535.51,97.68L555.21,75.05L599.36,25.99" style="fill:none;fill-rule:nonzero;stroke:rgb(0,187,127);stroke-width:2px;" class="haYpxQHi_44"></path>
                        <path id="SvgjsPolyline1499" d="M599.42,587.59L535.42,520.11L492.82,473.7L474.9,453.5L457.31,433.02L442.07,414.48L429.2,397.89L418.67,383.29L410.41,370.77L402.81,357.84L397.41,347.13L391.71,333.26L388.2,321.79L386.44,312.96L385.75,307.01L385.47,301.01L385.84,292.02L387.73,280.18L391.03,268.65L395.45,257.5L400.71,246.72L408.17,233.7L416.31,221.11L426.73,206.43L439.49,189.76L452.71,173.44L468.21,155.12L487.99,132.56L536.56,79.41L598.44,14.06" style="fill:none;fill-rule:nonzero;stroke:rgb(0,187,127);stroke-width:2px;" class="haYpxQHi_45"></path>
                        <path id="SvgjsPolyline1500" d="M563.45,598.27L538.6,576.57L513.45,555.19L492.61,538.03L473.82,523.1L457.13,510.36L437.7,496.27L420.32,484.49L405.07,474.93L392.07,467.44L378.77,460.51L365.13,454.28L351.12,448.91L336.76,444.61L325.03,442.08L313.14,440.47L301.16,439.86L289.17,440.28L277.26,441.7L265.5,444.05L251.08,448.17L237.02,453.39L223.32,459.5L209.97,466.33L194.35,475.28L179.12,484.86L161.74,496.66L144.73,508.97L125.64,523.52L106.86,538.46L86.02,555.63L63.16,575.05L36.04,598.72" style="fill:none;fill-rule:nonzero;stroke:rgb(0,187,127);stroke-width:2px;" class="haYpxQHi_46"></path>
                        <path id="SvgjsPolyline1501" d="M572.92,598.19L519.3,550.14L496.58,530.54L475.87,513.22L454.82,496.31L435.75,481.75L421.15,471.22L403.74,459.48L388.44,449.99L375.36,442.66L361.9,436.04L348.04,430.31L336.65,426.56L325,423.69L313.14,421.85L301.17,421.14L289.18,421.62L277.3,423.24L265.61,425.92L251.34,430.54L237.5,436.31L224.06,442.97L210.99,450.32L195.71,459.84L180.81,469.94L163.81,482.27L144.78,496.89L126.09,511.94L107.65,527.31L80.38,550.81L26.78,598.87" style="fill:none;fill-rule:nonzero;stroke:rgb(0,187,127);stroke-width:2px;" class="haYpxQHi_47"></path>
                        <path id="SvgjsPolyline1502" d="M586.47,598.58L518.95,534.63L470.25,490.09L447.72,470.27L429.42,454.74L410.78,439.63L396.48,428.7L381.82,418.25L369.24,410.09L356.23,402.63L345.45,397.37L331.51,391.83L319.98,388.54L308.14,386.64L299.15,386.26L293.16,386.53L287.19,387.2L278.37,388.93L266.88,392.4L255.78,396.93L245.04,402.28L232.06,409.8L217.02,419.69L202.43,430.23L188.18,441.22L169.57,456.37L151.28,471.92L128.76,491.74L106.5,511.85L73.46,542.4L14.65,598.1" style="fill:none;fill-rule:nonzero;stroke:rgb(0,187,127);stroke-width:2px;" class="haYpxQHi_48"></path>
                        <path id="SvgjsPolyline1503" d="M102.24,0.81L132.69,20.01L158.8,34.78L172.14,41.64L185.69,48.07L207.84,57.31L219.13,61.37L230.57,65L242.14,68.16L253.85,70.8L265.66,72.88L274.59,74.06L286.54,75.09L298.53,75.49L310.53,75.24L322.5,74.37L334.4,72.87L343.27,71.36L355.01,68.85L366.62,65.82L378.09,62.3L389.42,58.34L403.37,52.84L414.37,48.04L427.92,41.61L441.26,34.75L457.01,26.04L469.93,18.43L497.81,0.78" style="fill:none;fill-rule:nonzero;stroke:rgb(0,187,127);stroke-width:2px;" class="haYpxQHi_49"></path>
                        <path id="SvgjsPolyline1504" d="M598.21,545.48L581.2,524.51L564.54,503.26L551.89,486.5L537.85,467.04L527.67,452.19L516.27,434.55L507.02,419.11L498.36,403.33L491.71,389.89L485.67,376.17L480.36,362.14L476.75,350.7L473.77,339.07L471.06,324.32L469.78,312.39L469.32,300.41L469.72,288.41L470.95,276.48L472.97,264.65L476.53,250.09L481.09,235.8L486.5,221.81L492.64,208.13L499.38,194.73L508.12,178.99L517.43,163.59L527.22,148.48L539.11,131.17L551.41,114.16L567.71,92.63L599.6,52.83" style="fill:none;fill-rule:nonzero;stroke:rgb(0,187,127);stroke-width:2px;" class="haYpxQHi_50"></path>
                        <path id="SvgjsPolyline1505" d="M598.39,555.99L580.96,535.38L561.91,512.2L545.15,491.03L530.65,471.91L518.35,454.89L506.52,437.54L496.85,422.36L487.73,406.84L480.67,393.6L472.97,377.34L467.23,363.48L462.38,349.29L459.24,337.71L456.41,322.98L455.11,311.06L454.72,299.07L455.25,287.08L456.7,275.17L459.68,260.48L462.93,248.93L466.83,237.58L472.51,223.7L478.92,210.14L487.4,194.26L496.56,178.77L506.25,163.6L516.38,148.72L530.41,129.26L543.08,112.51L561.67,88.96L598.13,45.15" style="fill:none;fill-rule:nonzero;stroke:rgb(0,187,127);stroke-width:2px;" class="haYpxQHi_51"></path>
                        <path id="SvgjsPolyline1506" d="M546.53,599.37L525.57,582.36L504.33,565.69L485.16,551.25L468.12,538.98L453.29,528.78L435.66,517.37L420.24,508.09L404.47,499.4L391.05,492.7L377.34,486.62L363.33,481.26L349.03,476.77L334.44,473.29L322.6,471.33L310.66,470.17L298.67,469.84L286.68,470.36L274.76,471.7L262.95,473.83L248.41,477.5L236.98,481.15L222.96,486.49L209.25,492.56L195.82,499.24L180.05,507.92L164.62,517.19L149.49,526.93L132.15,538.78L115.11,551.05L93.56,567.32L53.72,599.16" style="fill:none;fill-rule:nonzero;stroke:rgb(0,187,127);stroke-width:2px;" class="haYpxQHi_52"></path>
                        <path id="SvgjsPolyline1507" d="M557.01,599.56L534.1,580.2L510.89,561.19L489.69,544.47L472.95,531.8L455.93,519.48L438.6,507.64L423.43,497.95L407.92,488.81L392.03,480.36L375.72,472.75L361.82,467.12L350.46,463.26L338.89,460.06L324.19,457.14L312.27,455.75L300.28,455.27L288.29,455.71L276.37,457.05L261.65,459.93L250.08,463.09L235.9,467.98L222.05,473.73L208.52,480.21L195.29,487.27L179.77,496.38L164.57,506.03L144.75,519.56L130.17,530.11L111.02,544.58L87.49,563.19L64.31,582.23L43.69,599.67" style="fill:none;fill-rule:nonzero;stroke:rgb(0,187,127);stroke-width:2px;" class="haYpxQHi_53"></path>
                        <path id="SvgjsPolyline1508" d="M123.76,0.43L149.96,15.06L171.44,25.76L185.12,31.9L196.22,36.46L207.45,40.68L218.82,44.52L239.03,50.21L259.6,54.41L271.48,56.09L280.44,56.97L289.42,57.53L301.42,57.76L310.41,57.54L322.39,56.73L331.33,55.74L343.19,53.94L363.72,49.52L383.88,43.65L406.42,35.42L428.41,25.83L452.55,13.73L476.09,0.52" style="fill:none;fill-rule:nonzero;stroke:rgb(0,187,127);stroke-width:2px;" class="haYpxQHi_54"></path>
                        <path id="SvgjsPolyline1509" d="M599.92,528.62L587.32,511.82L573.29,492.35L561.4,475.05L551.55,459.97L542.1,444.66L533.12,429.06L526.06,415.83L519.46,402.35L513.41,388.63L507.99,374.65L503.31,360.4L500.18,348.82L497.64,337.09L495.77,325.24L494.59,313.3L494.14,301.31L494.43,289.31L495.45,277.36L497.18,265.48L499.57,253.73L502.58,242.11L507.12,227.82L512.42,213.79L518.37,200.02L524.87,186.5L531.86,173.23L540.77,157.59L550.16,142.23L561.61,124.63L573.51,107.33L598.34,73.46" style="fill:none;fill-rule:nonzero;stroke:rgb(0,187,127);stroke-width:2px;" class="haYpxQHi_55"></path>
                        <path id="SvgjsPolyline1510" d="M598.9,538.77L571.41,503.15L557.3,483.74L545.35,466.47L533.88,448.88L524.52,433.5L515.69,417.82L508.83,404.48L502.51,390.88L496.84,377L491.92,362.83L488.62,351.29L485.96,339.59L483.47,324.8L482.24,312.87L481.79,300.88L482.13,288.88L483.64,273.96L485.69,262.14L488.42,250.46L491.77,238.94L496.73,224.78L502.44,210.91L508.78,197.32L515.65,183.99L524.48,168.3L533.83,152.92L545.29,135.32L557.21,118.04L569.52,101.02L583.96,81.86L598.74,62.94" style="fill:none;fill-rule:nonzero;stroke:rgb(0,187,127);stroke-width:2px;" class="haYpxQHi_56"></path>
                        <path id="SvgjsPolyline1511" d="M527.36,599.2L510.54,586.63L491.05,572.63L461.15,552.58L445.85,543.11L430.27,534.09L417.05,527L400.88,519.1L387.13,513.12L373.11,507.78L358.83,503.2L347.22,500.15L335.48,497.71L323.61,495.93L311.66,494.85L299.67,494.5L287.68,494.89L275.73,496.01L263.87,497.83L252.13,500.3L237.66,504.24L226.27,508.01L212.26,513.37L198.52,519.38L185.03,525.94L171.77,532.96L156.16,541.91L140.82,551.33L125.73,561.15L108.41,573.01L88.92,587.02L72.11,599.61" style="fill:none;fill-rule:nonzero;stroke:rgb(0,187,127);stroke-width:2px;" class="haYpxQHi_57"></path>
                        <path id="SvgjsPolyline1512" d="M537.73,598.27L516.44,581.66L499.65,569.04L480.18,555.02L462.84,543.17L445.17,531.82L432.31,524.09L416.6,515.32L403.23,508.51L389.6,502.26L375.69,496.65L361.49,491.82L349.93,488.6L338.22,486.02L323.4,483.69L311.46,482.55L299.46,482.19L287.47,482.62L272.57,484.24L260.76,486.37L249.09,489.17L237.59,492.58L223.46,497.62L209.61,503.38L196.04,509.76L182.73,516.67L167.06,525.54L151.7,534.92L134.11,546.4L116.84,558.34L99.84,570.66L83.06,583.29L61.78,599.91" style="fill:none;fill-rule:nonzero;stroke:rgb(0,187,127);stroke-width:2px;" class="haYpxQHi_58"></path>
                        <path id="SvgjsPolyline1513" d="M147.78,0.27L169.41,10.66L185.96,17.74L205.63,25.09L225.68,31.32L243.16,35.62L263.83,39.28L281.73,41.16L299.71,41.8L317.7,41.2L335.6,39.36L353.34,36.35L373.77,31.47L390.99,26.24L410.72,19.06L430.06,10.89L451.71,0.53" style="fill:none;fill-rule:nonzero;stroke:rgb(0,187,127);stroke-width:2px;" class="haYpxQHi_59"></path>
                        <path id="SvgjsPolyline1514" d="M598.75,507.09L578.81,477.12L569.34,461.81L561.77,448.86L554.53,435.72L546.35,419.69L541.26,408.82L535.36,395.03L530.06,381L526.3,369.61L523.02,358.07L520.27,346.39L518.09,334.59L516.52,322.69L515.76,313.73L515.33,301.73L515.57,289.74L516.47,277.77L518.01,265.88L520.17,254.07L522.9,242.39L526.16,230.84L529.9,219.44L535.19,205.4L539.85,194.35L546.15,180.73L552.91,167.34L561.54,151.55L569.1,138.6L578.56,123.28L598.48,93.3" style="fill:none;fill-rule:nonzero;stroke:rgb(0,187,127);stroke-width:2px;" class="haYpxQHi_60"></path>
                        <path id="SvgjsPolyline1515" d="M508.22,599.83L478.27,579.86L460.4,568.83L447.43,561.3L431.61,552.71L420.9,547.31L407.31,540.95L396.27,536.25L382.26,530.89L370.88,527.09L359.35,523.76L347.69,520.95L335.9,518.71L324.01,517.07L312.05,516.08L300.06,515.74L288.07,516.07L276.11,517.06L264.22,518.69L252.43,520.92L240.77,523.73L229.24,527.05L217.86,530.85L203.84,536.2L192.8,540.91L179.21,547.25L165.84,554.05L150.07,562.72L137.13,570.31L119.31,581.41L91.88,599.76" style="fill:none;fill-rule:nonzero;stroke:rgb(0,187,127);stroke-width:2px;" class="haYpxQHi_61"></path>
                        <path id="SvgjsPolyline1516" d="M177.02,0.91L193.8,7.41L208,12.26L225.27,17.31L239.86,20.81L254.59,23.61L269.45,25.66L284.39,26.92L299.38,27.37L314.38,26.99L329.33,25.79L344.19,23.81L358.94,21.07L373.54,17.62L390.83,12.63L407.86,6.81L424.62,0.24" style="fill:none;fill-rule:nonzero;stroke:rgb(0,187,127);stroke-width:2px;" class="haYpxQHi_62"></path>
                        <path id="SvgjsPolyline1517" d="M598.62,485.55L581.84,457.14L569.26,433.25L562.82,419.71L558,408.72L549.39,386.32L545.67,374.91L542.4,363.36L539.62,351.69L537.35,339.91L536.02,331.01L534.75,319.08L534.19,310.1L533.98,298.1L534.38,286.11L535.09,277.14L536.12,268.2L538.01,256.35L542.6,235.86L545.91,224.32L549.65,212.92L558.31,190.54L563.15,179.56L569.61,166.03L582.23,142.16L599.04,113.77" style="fill:none;fill-rule:nonzero;stroke:rgb(0,187,127);stroke-width:2px;" class="haYpxQHi_63"></path>
                        <path id="SvgjsPolyline1518" d="M486.68,599.68L460.9,584.34L447.76,577.11L434.43,570.24L409.92,558.92L387.54,550.24L376.15,546.49L364.62,543.17L344.14,538.55L335.26,537.07L323.35,535.59L311.39,534.71L299.39,534.43L287.4,534.77L278.42,535.42L266.5,536.81L257.62,538.23L245.85,540.6L237.11,542.72L225.55,545.97L214.14,549.66L191.72,558.23L180.73,563.03L167.17,569.45L153.81,576.28L140.65,583.46L114.83,598.74" style="fill:none;fill-rule:nonzero;stroke:rgb(0,187,127);stroke-width:2px;" class="haYpxQHi_64"></path>
                        <path id="SvgjsPolyline1519" d="M211.65,0.83L223.21,4.04L234.88,6.85L246.64,9.24L258.48,11.18L279.35,13.43L300.34,14.17L321.32,13.38L333.26,12.25L345.15,10.63L365.78,6.7L377.44,3.87L388.99,0.64" style="fill:none;fill-rule:nonzero;stroke:rgb(0,187,127);stroke-width:2px;" class="haYpxQHi_65"></path>
                        <path id="SvgjsPolyline1520" d="M599.64,464.07L587.22,440.1L577.23,418.28L569.48,398.76L562.84,378.84L557.48,358.54L554.05,340.88L552.77,331.97L551.53,320.03L550.74,302.06L551.24,284.07L552.28,272.11L553.42,263.19L557.24,242.54L562.52,222.22L569.1,202.28L576.8,182.74L586.73,160.9L599.11,136.91" style="fill:none;fill-rule:nonzero;stroke:rgb(0,187,127);stroke-width:2px;" class="haYpxQHi_66"></path>
                        <path id="SvgjsPolyline1521" d="M462.65,599.19L441.34,588.16L419.54,578.11L397.23,569.28L377.28,562.73L359.88,558.15L339.26,554.16L321.4,552.02L312.42,551.42L300.42,551.11L282.44,551.72L264.54,553.6L243.87,557.31L223.53,562.5L203.56,568.99L181.23,577.78L159.42,587.78L138.09,598.78" style="fill:none;fill-rule:nonzero;stroke:rgb(0,187,127);stroke-width:2px;" class="haYpxQHi_67"></path>
                        <path id="SvgjsPolyline1522" d="M265.9,0.06L283.83,1.57L298.82,2L313.82,1.69L331.76,0.32" style="fill:none;fill-rule:nonzero;stroke:rgb(0,187,127);stroke-width:2px;" class="haYpxQHi_68"></path>
                        <path id="SvgjsPolyline1523" d="M599.3,437.47L590.95,418.2L584.54,401.38L578.9,384.29L574.16,366.93L570.4,349.33L567.72,331.53L566.21,313.6L565.86,298.6L566.37,283.61L568.06,265.7L570.91,247.93L574.11,233.27L578.84,215.91L584.47,198.81L590.87,181.99L599.21,162.72" style="fill:none;fill-rule:nonzero;stroke:rgb(0,187,127);stroke-width:2px;" class="haYpxQHi_69"></path>
                        <path id="SvgjsPolyline1524" d="M436.05,598.93L416.76,590.65L399.91,584.31L382.79,578.75L365.41,574.09L347.79,570.43L332.96,568.21L318.03,566.78L300.04,566.17L285.05,566.59L267.12,568.2L252.29,570.41L234.67,574.07L217.28,578.73L200.16,584.28L183.32,590.62L164.02,598.9" style="fill:none;fill-rule:nonzero;stroke:rgb(0,187,127);stroke-width:2px;" class="haYpxQHi_70"></path>
                        <path id="SvgjsPolyline1525" d="M599.91,408.26L595.08,394.06L590.82,379.68L587.17,365.14L584.74,353.39L582.76,341.55L580.96,326.66L580.08,314.69L579.7,302.7L579.84,290.7L580.74,275.73L582.02,263.8L584.31,248.98L586.65,237.21L590.19,222.63L594.36,208.23L599.1,194" style="fill:none;fill-rule:nonzero;stroke:rgb(0,187,127);stroke-width:2px;" class="haYpxQHi_71"></path>
                        <path id="SvgjsPolyline1526" d="M406.86,599.65L392.64,594.88L378.24,590.68L363.67,587.1L351.91,584.73L337.09,582.4L325.17,581.08L313.2,580.26L298.2,579.96L286.21,580.29L274.24,581.14L262.31,582.48L247.5,584.83L232.82,587.9L218.29,591.63L206.79,595.06L192.58,599.85" style="fill:none;fill-rule:nonzero;stroke:rgb(0,187,127);stroke-width:2px;" class="haYpxQHi_72"></path>
                        <path id="SvgjsPolyline1527" d="M599.53,365.3L596.18,347.61L594.15,332.75L592.7,314.81L592.32,299.82L592.89,281.83L594.19,266.89L596.23,252.03L599.61,234.35" style="fill:none;fill-rule:nonzero;stroke:rgb(0,187,127);stroke-width:2px;" class="haYpxQHi_73"></path>
                        <path id="SvgjsPolyline1528" d="M363.89,599.46L349.16,596.66L331.32,594.23L316.37,593.02L301.38,592.56L283.39,593.03L268.44,594.26L253.57,596.22L235.88,599.51" style="fill:none;fill-rule:nonzero;stroke:rgb(0,187,127);stroke-width:2px;" class="haYpxQHi_74"></path>
                    </g>
                </g>
            </g>
        </g>
    </g>
    <g id="kodadot_logo_2x" transform="matrix(0.398923,0,0,0.398923,93.1616,93.1616)">
        <g transform="matrix(2.50675,0,0,2.50675,-242.855,-247.839)">
            <path d="M99.02699999999999,158.707A57.692,57.692 0,1,1 214.411,158.707A57.692,57.692 0,1,1 99.02699999999999,158.707" class="haYpxQHi_75"></path>
        </g>
        <path d="M104,78.547C94.913,78.547 87.547,85.913 87.547,95L87.547,205C87.547,214.087 94.913,221.453 104,221.453C113.087,221.453 120.453,214.087 120.453,205L120.453,95C120.453,85.913 113.087,78.547 104,78.547ZM104,81.453C111.482,81.453 117.547,87.518 117.547,95L117.547,205C117.547,212.482 111.482,218.547 104,218.547C96.518,218.547 90.453,212.482 90.453,205L90.453,95C90.453,87.518 96.518,81.453 104,81.453ZM104,194.547C98.227,194.547 93.547,199.227 93.547,205C93.547,210.773 98.227,215.453 104,215.453C109.773,215.453 114.453,210.773 114.453,205C114.453,199.227 109.773,194.547 104,194.547ZM104,197.453C108.168,197.453 111.547,200.832 111.547,205C111.547,209.168 108.168,212.547 104,212.547C99.832,212.547 96.453,209.168 96.453,205C96.453,200.832 99.832,197.453 104,197.453ZM104,84.547C98.227,84.547 93.547,89.227 93.547,95C93.547,100.773 98.227,105.453 104,105.453C109.773,105.453 114.453,100.773 114.453,95C114.453,89.227 109.773,84.547 104,84.547ZM104,87.453C108.168,87.453 111.547,90.832 111.547,95C111.547,99.168 108.168,102.547 104,102.547C99.832,102.547 96.453,99.168 96.453,95C96.453,90.832 99.832,87.453 104,87.453Z" style="fill:none;stroke:rgb(0,187,127);stroke-width:1.88px;stroke-linejoin:round;stroke-miterlimit:2;" class="haYpxQHi_76"></path>
        <path d="M207.976,106.248L207.994,106.229C208.027,106.194 208.227,105.977 208.227,105.977L208.226,105.977L208.245,105.957C214.242,99.293 213.79,89.079 207.155,82.964C200.437,76.772 189.912,77.136 183.647,83.776L133.238,137.208L133.21,137.238L132.861,137.621C132.861,137.621 132.36,138.209 132.14,138.498C129.293,141.451 127.547,145.452 127.547,149.855C127.547,153.762 128.922,157.351 131.22,160.175C131.791,161.093 132.464,161.971 133.238,162.792L183.647,216.224C189.912,222.864 200.437,223.228 207.155,217.036C213.887,210.831 214.255,200.407 207.977,193.753L166.699,150L207.977,106.248L207.976,106.248ZM206.087,104.009L205.857,104.259L163.643,149.002C163.115,149.562 163.115,150.437 163.643,150.997L205.863,195.747C211.026,201.22 210.722,209.795 205.185,214.898C199.634,220.015 190.938,219.715 185.762,214.229L135.353,160.797C134.694,160.1 134.125,159.352 133.643,158.567C133.608,158.509 133.569,158.454 133.526,158.402C131.605,156.071 130.453,153.096 130.453,149.855C130.453,146.207 131.913,142.896 134.286,140.46C134.328,140.417 134.367,140.371 134.403,140.324C134.596,140.069 134.8,139.819 135.014,139.575L135.36,139.195L185.762,85.771C190.938,80.285 199.634,79.985 205.185,85.102C210.641,90.13 211.017,98.528 206.087,104.009ZM196,194.547C190.227,194.547 185.547,199.227 185.547,205C185.547,210.773 190.227,215.453 196,215.453C201.773,215.453 206.453,210.773 206.453,205C206.453,199.227 201.773,194.547 196,194.547ZM196,197.453C200.168,197.453 203.547,200.832 203.547,205C203.547,209.168 200.168,212.547 196,212.547C191.832,212.547 188.453,209.168 188.453,205C188.453,200.832 191.832,197.453 196,197.453ZM134.962,139.63L134.952,139.64L134.967,139.626L134.987,139.603L134.962,139.63ZM195.826,83.851C189.986,83.851 185.26,88.539 185.26,94.311C185.26,100.084 189.986,104.772 195.826,104.772C201.666,104.772 206.392,100.084 206.392,94.311C206.392,88.539 201.666,83.851 195.826,83.851ZM195.826,86.757C200.052,86.757 203.485,90.135 203.485,94.311C203.485,98.488 200.052,101.865 195.826,101.865C191.601,101.865 188.167,98.488 188.167,94.311C188.167,90.135 191.601,86.757 195.826,86.757Z" style="fill:none;stroke:rgb(0,187,127);stroke-width:1.88px;stroke-linejoin:round;stroke-miterlimit:2;" class="haYpxQHi_77"></path>
    </g>
    <g transform="matrix(0.66129,0,0,1,51.3905,-0.678793)">
        <path d="M258.866,239.943C258.866,237.227 255.532,235.022 251.424,235.022L55.882,235.022C51.775,235.022 48.44,237.227 48.44,239.943L48.44,249.786C48.44,252.502 51.775,254.707 55.882,254.707L251.424,254.707C255.532,254.707 258.866,252.502 258.866,249.786L258.866,239.943Z" style="fill:none;stroke:rgb(0,187,127);stroke-width:2.36px;stroke-linecap:round;stroke-linejoin:round;stroke-miterlimit:1.5;" class="haYpxQHi_78"></path>
        <path d="M258.866,239.943C258.866,237.227 255.532,235.022 251.424,235.022L55.882,235.022C51.775,235.022 48.44,237.227 48.44,239.943L48.44,249.786C48.44,252.502 51.775,254.707 55.882,254.707L251.424,254.707C255.532,254.707 258.866,252.502 258.866,249.786L258.866,239.943Z" class="haYpxQHi_79"></path>
    </g>
    <g transform="matrix(1,0,0,1,94.5116,249.704)">
        <g>
            <path d="M5.253,-1.322L7.638,-1.322C7.821,-1.322 7.98,-1.257 8.114,-1.129C8.248,-1 8.315,-0.844 8.315,-0.661C8.315,-0.477 8.248,-0.321 8.114,-0.193C7.98,-0.064 7.822,0 7.638,0L5.168,0C4.853,0 4.528,-0.1 4.193,-0.299C3.857,-0.498 3.624,-0.721 3.493,-0.968L1.967,-3.917C1.762,-4.342 1.66,-4.777 1.66,-5.223C1.66,-5.716 1.757,-6.144 1.951,-6.505L3.493,-9.424C3.639,-9.696 3.868,-9.936 4.177,-10.143C4.486,-10.351 4.785,-10.454 5.074,-10.454L7.685,-10.454C7.869,-10.454 8.025,-10.389 8.153,-10.258C8.282,-10.126 8.346,-9.972 8.346,-9.793C8.346,-9.61 8.282,-9.451 8.153,-9.318C8.025,-9.184 7.869,-9.117 7.686,-9.117L5.17,-9.117C4.96,-9.116 4.789,-8.993 4.658,-8.747L3.192,-6.011C3.077,-5.796 3.02,-5.541 3.021,-5.247C3.02,-4.937 3.082,-4.664 3.208,-4.428L4.607,-1.737C4.738,-1.459 4.953,-1.321 5.253,-1.322Z" style="fill:none;fill-rule:nonzero;stroke:rgb(0,187,127);stroke-width:1px;stroke-linejoin:round;stroke-miterlimit:2;" class="haYpxQHi_80"></path>
            <path d="M11.343,-0.661L11.343,-9.793C11.343,-9.972 11.407,-10.124 11.536,-10.25C11.664,-10.376 11.82,-10.438 12.004,-10.438C12.187,-10.438 12.343,-10.374 12.472,-10.246C12.6,-10.117 12.665,-9.961 12.665,-9.778L12.665,-6.442L13.727,-7.135C14.209,-7.439 14.639,-7.591 15.017,-7.591L15.835,-7.591C16.375,-7.591 16.839,-7.398 17.227,-7.013C17.615,-6.627 17.817,-6.159 17.833,-5.609L17.998,-0.661C18.003,-0.477 17.94,-0.321 17.809,-0.193C17.678,-0.064 17.521,0 17.337,0C17.154,0 16.999,-0.067 16.873,-0.201C16.747,-0.334 16.682,-0.488 16.676,-0.661L16.511,-5.624C16.506,-5.803 16.438,-5.957 16.307,-6.088C16.176,-6.22 16.018,-6.285 15.835,-6.285L15.095,-6.285C14.927,-6.285 14.744,-6.22 14.545,-6.088L12.665,-4.861L12.665,-0.661C12.665,-0.477 12.6,-0.321 12.472,-0.193C12.343,-0.064 12.187,0 12.004,0C11.82,0 11.664,-0.064 11.536,-0.193C11.407,-0.321 11.343,-0.477 11.343,-0.661Z" style="fill:none;fill-rule:nonzero;stroke:rgb(0,187,127);stroke-width:1px;stroke-linejoin:round;stroke-miterlimit:2;" class="haYpxQHi_81"></path>
            <path d="M23.059,-4.767L25.65,-4.767C25.792,-4.767 25.997,-4.736 26.265,-4.673L26.25,-5.609C26.25,-5.792 26.185,-5.948 26.056,-6.077C25.928,-6.205 25.771,-6.269 25.587,-6.269L23.073,-6.269C22.894,-6.269 22.739,-6.335 22.608,-6.466C22.477,-6.597 22.411,-6.752 22.411,-6.93C22.411,-7.114 22.475,-7.27 22.604,-7.398C22.733,-7.527 22.889,-7.591 23.073,-7.591L25.586,-7.591C26.132,-7.591 26.598,-7.399 26.984,-7.017C27.37,-6.634 27.571,-6.164 27.587,-5.609L27.752,-0.661C27.752,-0.477 27.686,-0.321 27.555,-0.193C27.424,-0.064 27.27,0 27.091,0C26.902,0 26.742,-0.064 26.611,-0.193C26.48,-0.321 26.415,-0.477 26.415,-0.661L25.296,0L23.059,0C22.502,0 22.029,-0.194 21.641,-0.582C21.252,-0.97 21.058,-1.442 21.058,-1.998L21.058,-2.769C21.058,-3.32 21.253,-3.79 21.645,-4.181C22.036,-4.572 22.507,-4.767 23.059,-4.767ZM26.363,-2.195L26.324,-2.753C26.319,-2.942 26.253,-3.099 26.127,-3.225C26.001,-3.351 25.846,-3.414 25.663,-3.414L23.056,-3.414C22.873,-3.414 22.717,-3.35 22.588,-3.221C22.459,-3.093 22.395,-2.937 22.395,-2.753L22.395,-2.014C22.395,-1.835 22.461,-1.681 22.592,-1.55C22.723,-1.419 22.878,-1.353 23.056,-1.353L24.923,-1.353L26.363,-2.195Z" style="fill:none;fill-rule:nonzero;stroke:rgb(0,187,127);stroke-width:1px;stroke-linejoin:round;stroke-miterlimit:2;" class="haYpxQHi_82"></path>
            <path d="M37.475,-5.207L37.475,-2.415C37.475,-1.822 37.195,-1.274 36.637,-0.771C36.078,-0.267 35.503,-0.016 34.91,-0.016L33.361,-0.016C32.758,-0.016 32.181,-0.271 31.63,-0.783C31.079,-1.294 30.804,-1.838 30.804,-2.415L30.804,-5.207C30.804,-5.784 31.073,-6.328 31.61,-6.84C32.148,-7.351 32.731,-7.607 33.361,-7.607L34.91,-7.607C35.503,-7.617 36.078,-7.371 36.637,-6.867C37.195,-6.364 37.475,-5.811 37.475,-5.207ZM32.141,-5.152L32.141,-2.478C32.141,-2.237 32.228,-2.045 32.401,-1.904L32.896,-1.479C33.007,-1.384 33.161,-1.337 33.361,-1.337L34.895,-1.337C35.12,-1.337 35.325,-1.419 35.508,-1.581L35.909,-1.935C36.072,-2.061 36.153,-2.237 36.153,-2.462L36.153,-5.137C36.153,-5.399 36.072,-5.593 35.909,-5.719L35.445,-6.088C35.288,-6.22 35.104,-6.285 34.895,-6.285L33.526,-6.285C33.227,-6.285 32.996,-6.214 32.834,-6.073L32.385,-5.687C32.223,-5.551 32.141,-5.373 32.141,-5.152Z" style="fill:none;fill-rule:nonzero;stroke:rgb(0,187,127);stroke-width:1px;stroke-linejoin:round;stroke-miterlimit:2;" class="haYpxQHi_83"></path>
            <path d="M42.399,-7.591L45.427,-7.591C45.899,-7.591 46.316,-7.451 46.678,-7.17C47.04,-6.889 47.221,-6.615 47.221,-6.348C47.221,-6.159 47.154,-6.005 47.02,-5.884C46.887,-5.763 46.738,-5.703 46.576,-5.703C46.366,-5.703 46.175,-5.797 46.002,-5.986C45.829,-6.175 45.648,-6.269 45.459,-6.269L42.47,-6.269C42.176,-6.269 42.029,-6.147 42.029,-5.903C42.029,-5.731 42.127,-5.601 42.323,-5.513L45.836,-3.949C46.193,-3.792 46.485,-3.538 46.713,-3.19C46.942,-2.841 47.056,-2.454 47.056,-2.029C47.056,-1.463 46.855,-0.983 46.454,-0.59C46.053,-0.197 45.598,0 45.089,0L42.415,0C41.953,0 41.524,-0.139 41.128,-0.417C40.733,-0.695 40.535,-0.965 40.535,-1.227C40.535,-1.4 40.599,-1.554 40.727,-1.687C40.856,-1.821 41.022,-1.888 41.227,-1.888C41.395,-1.888 41.574,-1.793 41.766,-1.605C41.957,-1.416 42.234,-1.322 42.596,-1.322L45.058,-1.322C45.252,-1.322 45.414,-1.396 45.545,-1.546C45.676,-1.695 45.742,-1.867 45.742,-2.061C45.742,-2.36 45.595,-2.575 45.302,-2.706L41.754,-4.303C41.413,-4.455 41.151,-4.675 40.967,-4.964C40.784,-5.252 40.692,-5.546 40.692,-5.845C40.692,-6.317 40.856,-6.726 41.184,-7.072C41.511,-7.418 41.916,-7.591 42.399,-7.591Z" style="fill:none;fill-rule:nonzero;stroke:rgb(0,187,127);stroke-width:1px;stroke-linejoin:round;stroke-miterlimit:2;" class="haYpxQHi_84"></path>
            <path d="M62.654,-11.036L63.347,-11.036C63.53,-11.036 63.686,-10.972 63.815,-10.844C63.943,-10.715 64.007,-10.559 64.007,-10.376L64.007,-9.809C64.007,-9.626 63.943,-9.467 63.815,-9.333C63.686,-9.2 63.53,-9.133 63.347,-9.133L62.639,-9.133C62.45,-9.133 62.291,-9.201 62.163,-9.337C62.034,-9.474 61.973,-9.626 61.978,-9.793L61.994,-10.376C61.994,-10.559 62.058,-10.715 62.186,-10.844C62.315,-10.972 62.471,-11.036 62.654,-11.036ZM65.345,-0.016L61.317,-0.016C61.134,-0.016 60.978,-0.08 60.849,-0.208C60.721,-0.337 60.656,-0.493 60.656,-0.676C60.656,-0.855 60.721,-1.009 60.849,-1.141C60.978,-1.272 61.134,-1.337 61.317,-1.337L62.67,-1.337L62.67,-6.269L61.333,-6.269C61.149,-6.269 60.993,-6.335 60.865,-6.466C60.736,-6.597 60.672,-6.752 60.672,-6.93C60.672,-7.114 60.736,-7.272 60.865,-7.406C60.993,-7.54 61.149,-7.607 61.333,-7.607L63.347,-7.607C63.53,-7.607 63.686,-7.54 63.815,-7.406C63.943,-7.272 64.007,-7.114 64.007,-6.93L64.007,-1.337L65.329,-1.337C65.512,-1.337 65.671,-1.273 65.805,-1.145C65.939,-1.016 66.005,-0.86 66.005,-0.676C66.005,-0.493 65.94,-0.337 65.809,-0.208C65.678,-0.08 65.523,-0.016 65.345,-0.016Z" style="fill:none;fill-rule:nonzero;stroke:rgb(0,187,127);stroke-width:1px;stroke-linejoin:round;stroke-miterlimit:2;" class="haYpxQHi_85"></path>
            <path d="M72.868,-6.057L71.063,-4.885L71.063,-0.661C71.063,-0.482 70.998,-0.328 70.867,-0.197C70.736,-0.066 70.581,0 70.403,0C70.224,0 70.07,-0.066 69.938,-0.197C69.807,-0.328 69.742,-0.482 69.742,-0.661L69.742,-6.93C69.742,-7.114 69.806,-7.272 69.935,-7.406C70.063,-7.54 70.219,-7.607 70.403,-7.607C70.581,-7.607 70.736,-7.54 70.867,-7.406C70.998,-7.272 71.063,-7.114 71.063,-6.93L71.063,-6.49L72.269,-7.221C72.674,-7.478 73.131,-7.607 73.64,-7.607L74.254,-7.607C74.779,-7.607 75.234,-7.42 75.617,-7.048C76,-6.676 76.203,-6.217 76.224,-5.672L76.405,-0.661C76.41,-0.482 76.347,-0.328 76.216,-0.197C76.085,-0.066 75.927,0 75.744,0C75.571,0 75.419,-0.059 75.288,-0.177C75.156,-0.295 75.088,-0.456 75.083,-0.661L74.886,-5.593C74.871,-6.054 74.629,-6.285 74.161,-6.285L73.515,-6.285C73.315,-6.285 73.1,-6.209 72.868,-6.057Z" style="fill:none;fill-rule:nonzero;stroke:rgb(0,187,127);stroke-width:1px;stroke-linejoin:round;stroke-miterlimit:2;" class="haYpxQHi_86"></path>
            <path d="M95.858,-9.778L95.858,0L94.085,0L90.524,-8.118L90.524,-0.661C90.524,-0.477 90.46,-0.321 90.332,-0.193C90.203,-0.064 90.047,0 89.864,0C89.68,0 89.524,-0.064 89.396,-0.193C89.267,-0.321 89.203,-0.477 89.203,-0.661L89.203,-10.454L90.949,-10.454L94.52,-2.352L94.52,-9.778C94.52,-9.961 94.587,-10.12 94.721,-10.254C94.855,-10.387 95.013,-10.454 95.197,-10.454C95.38,-10.454 95.536,-10.389 95.665,-10.258C95.793,-10.126 95.858,-9.966 95.858,-9.778Z" style="fill:none;fill-rule:nonzero;stroke:rgb(0,187,127);stroke-width:1px;stroke-linejoin:round;stroke-miterlimit:2;" class="haYpxQHi_87"></path>
            <path d="M98.933,-0.661L98.933,-10.454L104.927,-10.454C105.1,-10.454 105.254,-10.389 105.388,-10.258C105.521,-10.126 105.588,-9.972 105.588,-9.793C105.588,-9.61 105.523,-9.451 105.391,-9.318C105.26,-9.184 105.106,-9.117 104.927,-9.117L100.255,-9.117L100.255,-7.04L103.606,-7.04C103.789,-7.04 103.945,-6.976 104.074,-6.848C104.202,-6.719 104.267,-6.563 104.267,-6.379C104.267,-6.196 104.202,-6.04 104.074,-5.911C103.945,-5.783 103.789,-5.719 103.606,-5.719L100.255,-5.719L100.255,-0.661C100.255,-0.477 100.191,-0.321 100.062,-0.193C99.934,-0.064 99.778,0 99.594,0C99.411,0 99.255,-0.064 99.126,-0.193C98.998,-0.321 98.933,-0.477 98.933,-0.661Z" style="fill:none;fill-rule:nonzero;stroke:rgb(0,187,127);stroke-width:1px;stroke-linejoin:round;stroke-miterlimit:2;" class="haYpxQHi_88"></path>
            <path d="M108.648,-8.653L108.648,-10.438L115.319,-10.438L115.319,-8.637C115.319,-8.454 115.253,-8.298 115.122,-8.169C114.991,-8.041 114.836,-7.976 114.658,-7.976C114.474,-7.976 114.316,-8.042 114.182,-8.173C114.048,-8.304 113.981,-8.459 113.981,-8.637L113.981,-9.117L112.644,-9.117L112.644,-0.661C112.644,-0.477 112.579,-0.321 112.447,-0.193C112.316,-0.064 112.162,0 111.983,0C111.795,0 111.635,-0.064 111.504,-0.193C111.372,-0.321 111.307,-0.477 111.307,-0.661L111.307,-9.117L109.97,-9.117L109.97,-8.653C109.97,-8.469 109.905,-8.313 109.777,-8.185C109.648,-8.056 109.492,-7.992 109.309,-7.992C109.125,-7.992 108.969,-8.056 108.841,-8.185C108.712,-8.313 108.648,-8.469 108.648,-8.653Z" style="fill:none;fill-rule:nonzero;stroke:rgb(0,187,127);stroke-width:1px;stroke-linejoin:round;stroke-miterlimit:2;" class="haYpxQHi_89"></path>
        </g>
    </g>
    <g id="Layer1">
        <g transform="matrix(1.13815,0,0,1.13815,-25.9573,-29.484)">
            <path style="fill:none;stroke:rgb(0,187,127);stroke-width:0.88px;stroke-linecap:round;stroke-linejoin:round;stroke-miterlimit:1.5;" d="M104.15100000000001,160.334A53.084,53.084 0,1,1 210.31900000000002,160.334A53.084,53.084 0,1,1 104.15100000000001,160.334" class="haYpxQHi_90"></path>
        </g>
        <g transform="matrix(1.0868,0,0,1.0868,-17.883,-21.2508)">
            <path style="fill:none;stroke:rgb(0,187,127);stroke-width:0.92px;stroke-linecap:round;stroke-linejoin:round;stroke-miterlimit:1.5;" d="M104.15100000000001,160.334A53.084,53.084 0,1,1 210.31900000000002,160.334A53.084,53.084 0,1,1 104.15100000000001,160.334" class="haYpxQHi_91"></path>
        </g>
        <g transform="matrix(0.92022,0,0,0.92022,8.30916,5.45777)">
            <path style="fill:none;stroke:rgb(0,187,127);stroke-width:1.09px;stroke-linecap:round;stroke-linejoin:round;stroke-miterlimit:1.5;" d="M104.15100000000001,160.334A53.084,53.084 0,1,1 210.31900000000002,160.334A53.084,53.084 0,1,1 104.15100000000001,160.334" class="haYpxQHi_92"></path>
        </g>
        <g transform="matrix(0.823325,0,0,0.819396,23.6835,21.6927)">
            <path style="fill:none;stroke:rgb(0,187,127);stroke-width:1.22px;stroke-linecap:round;stroke-linejoin:round;stroke-miterlimit:1.5;" d="M104.15100000000001,160.334A53.084,53.084 0,1,1 210.31900000000002,160.334A53.084,53.084 0,1,1 104.15100000000001,160.334" class="haYpxQHi_93"></path>
        </g>
    </g>
<style data-made-with="vivus-instant">.haYpxQHi_0{stroke-dasharray:2400 2402;stroke-dashoffset:2401;animation:haYpxQHi_draw_0 7300ms ease-in 0ms infinite,haYpxQHi_fade 7300ms linear 0ms infinite;}.haYpxQHi_1{stroke-dasharray:426 428;stroke-dashoffset:427;animation:haYpxQHi_draw_1 7300ms ease-in 0ms infinite,haYpxQHi_fade 7300ms linear 0ms infinite;}.haYpxQHi_2{stroke-dasharray:480 482;stroke-dashoffset:481;animation:haYpxQHi_draw_2 7300ms ease-in 0ms infinite,haYpxQHi_fade 7300ms linear 0ms infinite;}.haYpxQHi_3{stroke-dasharray:372 374;stroke-dashoffset:373;animation:haYpxQHi_draw_3 7300ms ease-in 0ms infinite,haYpxQHi_fade 7300ms linear 0ms infinite;}.haYpxQHi_4{stroke-dasharray:537 539;stroke-dashoffset:538;animation:haYpxQHi_draw_4 7300ms ease-in 0ms infinite,haYpxQHi_fade 7300ms linear 0ms infinite;}.haYpxQHi_5{stroke-dasharray:312 314;stroke-dashoffset:313;animation:haYpxQHi_draw_5 7300ms ease-in 0ms infinite,haYpxQHi_fade 7300ms linear 0ms infinite;}.haYpxQHi_6{stroke-dasharray:597 599;stroke-dashoffset:598;animation:haYpxQHi_draw_6 7300ms ease-in 0ms infinite,haYpxQHi_fade 7300ms linear 0ms infinite;}.haYpxQHi_7{stroke-dasharray:567 569;stroke-dashoffset:568;animation:haYpxQHi_draw_7 7300ms ease-in 0ms infinite,haYpxQHi_fade 7300ms linear 0ms infinite;}.haYpxQHi_8{stroke-dasharray:249 251;stroke-dashoffset:250;animation:haYpxQHi_draw_8 7300ms ease-in 0ms infinite,haYpxQHi_fade 7300ms linear 0ms infinite;}.haYpxQHi_9{stroke-dasharray:660 662;stroke-dashoffset:661;animation:haYpxQHi_draw_9 7300ms ease-in 0ms infinite,haYpxQHi_fade 7300ms linear 0ms infinite;}.haYpxQHi_10{stroke-dasharray:627 629;stroke-dashoffset:628;animation:haYpxQHi_draw_10 7300ms ease-in 0ms infinite,haYpxQHi_fade 7300ms linear 0ms infinite;}.haYpxQHi_11{stroke-dasharray:177 179;stroke-dashoffset:178;animation:haYpxQHi_draw_11 7300ms ease-in 0ms infinite,haYpxQHi_fade 7300ms linear 0ms infinite;}.haYpxQHi_12{stroke-dasharray:744 746;stroke-dashoffset:745;animation:haYpxQHi_draw_12 7300ms ease-in 0ms infinite,haYpxQHi_fade 7300ms linear 0ms infinite;}.haYpxQHi_13{stroke-dasharray:699 701;stroke-dashoffset:700;animation:haYpxQHi_draw_13 7300ms ease-in 0ms infinite,haYpxQHi_fade 7300ms linear 0ms infinite;}.haYpxQHi_14{stroke-dasharray:48 50;stroke-dashoffset:49;animation:haYpxQHi_draw_14 7300ms ease-in 0ms infinite,haYpxQHi_fade 7300ms linear 0ms infinite;}.haYpxQHi_15{stroke-dasharray:753 755;stroke-dashoffset:754;animation:haYpxQHi_draw_15 7300ms ease-in 0ms infinite,haYpxQHi_fade 7300ms linear 0ms infinite;}.haYpxQHi_16{stroke-dasharray:822 824;stroke-dashoffset:823;animation:haYpxQHi_draw_16 7300ms ease-in 0ms infinite,haYpxQHi_fade 7300ms linear 0ms infinite;}.haYpxQHi_17{stroke-dasharray:774 776;stroke-dashoffset:775;animation:haYpxQHi_draw_17 7300ms ease-in 0ms infinite,haYpxQHi_fade 7300ms linear 0ms infinite;}.haYpxQHi_18{stroke-dasharray:723 725;stroke-dashoffset:724;animation:haYpxQHi_draw_18 7300ms ease-in 0ms infinite,haYpxQHi_fade 7300ms linear 0ms infinite;}.haYpxQHi_19{stroke-dasharray:666 668;stroke-dashoffset:667;animation:haYpxQHi_draw_19 7300ms ease-in 0ms infinite,haYpxQHi_fade 7300ms linear 0ms infinite;}.haYpxQHi_20{stroke-dasharray:708 710;stroke-dashoffset:709;animation:haYpxQHi_draw_20 7300ms ease-in 0ms infinite,haYpxQHi_fade 7300ms linear 0ms infinite;}.haYpxQHi_21{stroke-dasharray:783 785;stroke-dashoffset:784;animation:haYpxQHi_draw_21 7300ms ease-in 0ms infinite,haYpxQHi_fade 7300ms linear 0ms infinite;}.haYpxQHi_22{stroke-dasharray:729 731;stroke-dashoffset:730;animation:haYpxQHi_draw_22 7300ms ease-in 0ms infinite,haYpxQHi_fade 7300ms linear 0ms infinite;}.haYpxQHi_23{stroke-dasharray:810 812;stroke-dashoffset:811;animation:haYpxQHi_draw_23 7300ms ease-in 0ms infinite,haYpxQHi_fade 7300ms linear 0ms infinite;}.haYpxQHi_24{stroke-dasharray:795 797;stroke-dashoffset:796;animation:haYpxQHi_draw_24 7300ms ease-in 0ms infinite,haYpxQHi_fade 7300ms linear 0ms infinite;}.haYpxQHi_25{stroke-dasharray:834 836;stroke-dashoffset:835;animation:haYpxQHi_draw_25 7300ms ease-in 0ms infinite,haYpxQHi_fade 7300ms linear 0ms infinite;}.haYpxQHi_26{stroke-dasharray:840 842;stroke-dashoffset:841;animation:haYpxQHi_draw_26 7300ms ease-in 0ms infinite,haYpxQHi_fade 7300ms linear 0ms infinite;}.haYpxQHi_27{stroke-dasharray:597 599;stroke-dashoffset:598;animation:haYpxQHi_draw_27 7300ms ease-in 0ms infinite,haYpxQHi_fade 7300ms linear 0ms infinite;}.haYpxQHi_28{stroke-dasharray:633 635;stroke-dashoffset:634;animation:haYpxQHi_draw_28 7300ms ease-in 0ms infinite,haYpxQHi_fade 7300ms linear 0ms infinite;}.haYpxQHi_29{stroke-dasharray:837 839;stroke-dashoffset:838;animation:haYpxQHi_draw_29 7300ms ease-in 0ms infinite,haYpxQHi_fade 7300ms linear 0ms infinite;}.haYpxQHi_30{stroke-dasharray:828 830;stroke-dashoffset:829;animation:haYpxQHi_draw_30 7300ms ease-in 0ms infinite,haYpxQHi_fade 7300ms linear 0ms infinite;}.haYpxQHi_31{stroke-dasharray:540 542;stroke-dashoffset:541;animation:haYpxQHi_draw_31 7300ms ease-in 0ms infinite,haYpxQHi_fade 7300ms linear 0ms infinite;}.haYpxQHi_32{stroke-dasharray:570 572;stroke-dashoffset:571;animation:haYpxQHi_draw_32 7300ms ease-in 0ms infinite,haYpxQHi_fade 7300ms linear 0ms infinite;}.haYpxQHi_33{stroke-dasharray:702 704;stroke-dashoffset:703;animation:haYpxQHi_draw_33 7300ms ease-in 0ms infinite,haYpxQHi_fade 7300ms linear 0ms infinite;}.haYpxQHi_34{stroke-dasharray:750 752;stroke-dashoffset:751;animation:haYpxQHi_draw_34 7300ms ease-in 0ms infinite,haYpxQHi_fade 7300ms linear 0ms infinite;}.haYpxQHi_35{stroke-dasharray:780 782;stroke-dashoffset:781;animation:haYpxQHi_draw_35 7300ms ease-in 0ms infinite,haYpxQHi_fade 7300ms linear 0ms infinite;}.haYpxQHi_36{stroke-dasharray:804 806;stroke-dashoffset:805;animation:haYpxQHi_draw_36 7300ms ease-in 0ms infinite,haYpxQHi_fade 7300ms linear 0ms infinite;}.haYpxQHi_37{stroke-dasharray:825 827;stroke-dashoffset:826;animation:haYpxQHi_draw_37 7300ms ease-in 0ms infinite,haYpxQHi_fade 7300ms linear 0ms infinite;}.haYpxQHi_38{stroke-dasharray:702 704;stroke-dashoffset:703;animation:haYpxQHi_draw_38 7300ms ease-in 0ms infinite,haYpxQHi_fade 7300ms linear 0ms infinite;}.haYpxQHi_39{stroke-dasharray:750 752;stroke-dashoffset:751;animation:haYpxQHi_draw_39 7300ms ease-in 0ms infinite,haYpxQHi_fade 7300ms linear 0ms infinite;}.haYpxQHi_40{stroke-dasharray:780 782;stroke-dashoffset:781;animation:haYpxQHi_draw_40 7300ms ease-in 0ms infinite,haYpxQHi_fade 7300ms linear 0ms infinite;}.haYpxQHi_41{stroke-dasharray:798 800;stroke-dashoffset:799;animation:haYpxQHi_draw_41 7300ms ease-in 0ms infinite,haYpxQHi_fade 7300ms linear 0ms infinite;}.haYpxQHi_42{stroke-dasharray:486 488;stroke-dashoffset:487;animation:haYpxQHi_draw_42 7300ms ease-in 0ms infinite,haYpxQHi_fade 7300ms linear 0ms infinite;}.haYpxQHi_43{stroke-dasharray:630 632;stroke-dashoffset:631;animation:haYpxQHi_draw_43 7300ms ease-in 0ms infinite,haYpxQHi_fade 7300ms linear 0ms infinite;}.haYpxQHi_44{stroke-dasharray:666 668;stroke-dashoffset:667;animation:haYpxQHi_draw_44 7300ms ease-in 0ms infinite,haYpxQHi_fade 7300ms linear 0ms infinite;}.haYpxQHi_45{stroke-dasharray:726 728;stroke-dashoffset:727;animation:haYpxQHi_draw_45 7300ms ease-in 0ms infinite,haYpxQHi_fade 7300ms linear 0ms infinite;}.haYpxQHi_46{stroke-dasharray:627 629;stroke-dashoffset:628;animation:haYpxQHi_draw_46 7300ms ease-in 0ms infinite,haYpxQHi_fade 7300ms linear 0ms infinite;}.haYpxQHi_47{stroke-dasharray:663 665;stroke-dashoffset:664;animation:haYpxQHi_draw_47 7300ms ease-in 0ms infinite,haYpxQHi_fade 7300ms linear 0ms infinite;}.haYpxQHi_48{stroke-dasharray:723 725;stroke-dashoffset:724;animation:haYpxQHi_draw_48 7300ms ease-in 0ms infinite,haYpxQHi_fade 7300ms linear 0ms infinite;}.haYpxQHi_49{stroke-dasharray:429 431;stroke-dashoffset:430;animation:haYpxQHi_draw_49 7300ms ease-in 0ms infinite,haYpxQHi_fade 7300ms linear 0ms infinite;}.haYpxQHi_50{stroke-dasharray:567 569;stroke-dashoffset:568;animation:haYpxQHi_draw_50 7300ms ease-in 0ms infinite,haYpxQHi_fade 7300ms linear 0ms infinite;}.haYpxQHi_51{stroke-dasharray:597 599;stroke-dashoffset:598;animation:haYpxQHi_draw_51 7300ms ease-in 0ms infinite,haYpxQHi_fade 7300ms linear 0ms infinite;}.haYpxQHi_52{stroke-dasharray:567 569;stroke-dashoffset:568;animation:haYpxQHi_draw_52 7300ms ease-in 0ms infinite,haYpxQHi_fade 7300ms linear 0ms infinite;}.haYpxQHi_53{stroke-dasharray:600 602;stroke-dashoffset:601;animation:haYpxQHi_draw_53 7300ms ease-in 0ms infinite,haYpxQHi_fade 7300ms linear 0ms infinite;}.haYpxQHi_54{stroke-dasharray:375 377;stroke-dashoffset:376;animation:haYpxQHi_draw_54 7300ms ease-in 0ms infinite,haYpxQHi_fade 7300ms linear 0ms infinite;}.haYpxQHi_55{stroke-dasharray:510 512;stroke-dashoffset:511;animation:haYpxQHi_draw_55 7300ms ease-in 0ms infinite,haYpxQHi_fade 7300ms linear 0ms infinite;}.haYpxQHi_56{stroke-dasharray:540 542;stroke-dashoffset:541;animation:haYpxQHi_draw_56 7300ms ease-in 0ms infinite,haYpxQHi_fade 7300ms linear 0ms infinite;}.haYpxQHi_57{stroke-dasharray:510 512;stroke-dashoffset:511;animation:haYpxQHi_draw_57 7300ms ease-in 0ms infinite,haYpxQHi_fade 7300ms linear 0ms infinite;}.haYpxQHi_58{stroke-dasharray:540 542;stroke-dashoffset:541;animation:haYpxQHi_draw_58 7300ms ease-in 0ms infinite,haYpxQHi_fade 7300ms linear 0ms infinite;}.haYpxQHi_59{stroke-dasharray:318 320;stroke-dashoffset:319;animation:haYpxQHi_draw_59 7300ms ease-in 0ms infinite,haYpxQHi_fade 7300ms linear 0ms infinite;}.haYpxQHi_60{stroke-dasharray:453 455;stroke-dashoffset:454;animation:haYpxQHi_draw_60 7300ms ease-in 0ms infinite,haYpxQHi_fade 7300ms linear 0ms infinite;}.haYpxQHi_61{stroke-dasharray:456 458;stroke-dashoffset:457;animation:haYpxQHi_draw_61 7300ms ease-in 0ms infinite,haYpxQHi_fade 7300ms linear 0ms infinite;}.haYpxQHi_62{stroke-dasharray:255 257;stroke-dashoffset:256;animation:haYpxQHi_draw_62 7300ms ease-in 0ms infinite,haYpxQHi_fade 7300ms linear 0ms infinite;}.haYpxQHi_63{stroke-dasharray:399 401;stroke-dashoffset:400;animation:haYpxQHi_draw_63 7300ms ease-in 0ms infinite,haYpxQHi_fade 7300ms linear 0ms infinite;}.haYpxQHi_64{stroke-dasharray:399 401;stroke-dashoffset:400;animation:haYpxQHi_draw_64 7300ms ease-in 0ms infinite,haYpxQHi_fade 7300ms linear 0ms infinite;}.haYpxQHi_65{stroke-dasharray:180 182;stroke-dashoffset:181;animation:haYpxQHi_draw_65 7300ms ease-in 0ms infinite,haYpxQHi_fade 7300ms linear 0ms infinite;}.haYpxQHi_66{stroke-dasharray:345 347;stroke-dashoffset:346;animation:haYpxQHi_draw_66 7300ms ease-in 0ms infinite,haYpxQHi_fade 7300ms linear 0ms infinite;}.haYpxQHi_67{stroke-dasharray:342 344;stroke-dashoffset:343;animation:haYpxQHi_draw_67 7300ms ease-in 0ms infinite,haYpxQHi_fade 7300ms linear 0ms infinite;}.haYpxQHi_68{stroke-dasharray:66 68;stroke-dashoffset:67;animation:haYpxQHi_draw_68 7300ms ease-in 0ms infinite,haYpxQHi_fade 7300ms linear 0ms infinite;}.haYpxQHi_69{stroke-dasharray:285 287;stroke-dashoffset:286;animation:haYpxQHi_draw_69 7300ms ease-in 0ms infinite,haYpxQHi_fade 7300ms linear 0ms infinite;}.haYpxQHi_70{stroke-dasharray:282 284;stroke-dashoffset:283;animation:haYpxQHi_draw_70 7300ms ease-in 0ms infinite,haYpxQHi_fade 7300ms linear 0ms infinite;}.haYpxQHi_71{stroke-dasharray:219 221;stroke-dashoffset:220;animation:haYpxQHi_draw_71 7300ms ease-in 0ms infinite,haYpxQHi_fade 7300ms linear 0ms infinite;}.haYpxQHi_72{stroke-dasharray:219 221;stroke-dashoffset:220;animation:haYpxQHi_draw_72 7300ms ease-in 0ms infinite,haYpxQHi_fade 7300ms linear 0ms infinite;}.haYpxQHi_73{stroke-dasharray:132 134;stroke-dashoffset:133;animation:haYpxQHi_draw_73 7300ms ease-in 0ms infinite,haYpxQHi_fade 7300ms linear 0ms infinite;}.haYpxQHi_74{stroke-dasharray:129 131;stroke-dashoffset:130;animation:haYpxQHi_draw_74 7300ms ease-in 0ms infinite,haYpxQHi_fade 7300ms linear 0ms infinite;}.haYpxQHi_75{stroke-dasharray:363 365;stroke-dashoffset:364;animation:haYpxQHi_draw_75 7300ms ease-in 0ms infinite,haYpxQHi_fade 7300ms linear 0ms infinite;}.haYpxQHi_76{stroke-dasharray:855 857;stroke-dashoffset:856;animation:haYpxQHi_draw_76 7300ms ease-in 0ms infinite,haYpxQHi_fade 7300ms linear 0ms infinite;}.haYpxQHi_77{stroke-dasharray:1010 1012;stroke-dashoffset:1011;animation:haYpxQHi_draw_77 7300ms ease-in 0ms infinite,haYpxQHi_fade 7300ms linear 0ms infinite;}.haYpxQHi_78{stroke-dasharray:451 453;stroke-dashoffset:452;animation:haYpxQHi_draw_78 7300ms ease-in 0ms infinite,haYpxQHi_fade 7300ms linear 0ms infinite;}.haYpxQHi_79{stroke-dasharray:451 453;stroke-dashoffset:452;animation:haYpxQHi_draw_79 7300ms ease-in 0ms infinite,haYpxQHi_fade 7300ms linear 0ms infinite;}.haYpxQHi_80{stroke-dasharray:37 39;stroke-dashoffset:38;animation:haYpxQHi_draw_80 7300ms ease-in 0ms infinite,haYpxQHi_fade 7300ms linear 0ms infinite;}.haYpxQHi_81{stroke-dasharray:45 47;stroke-dashoffset:46;animation:haYpxQHi_draw_81 7300ms ease-in 0ms infinite,haYpxQHi_fade 7300ms linear 0ms infinite;}.haYpxQHi_82{stroke-dasharray:44 46;stroke-dashoffset:45;animation:haYpxQHi_draw_82 7300ms ease-in 0ms infinite,haYpxQHi_fade 7300ms linear 0ms infinite;}.haYpxQHi_83{stroke-dasharray:40 42;stroke-dashoffset:41;animation:haYpxQHi_draw_83 7300ms ease-in 0ms infinite,haYpxQHi_fade 7300ms linear 0ms infinite;}.haYpxQHi_84{stroke-dasharray:42 44;stroke-dashoffset:43;animation:haYpxQHi_draw_84 7300ms ease-in 0ms infinite,haYpxQHi_fade 7300ms linear 0ms infinite;}.haYpxQHi_85{stroke-dasharray:35 37;stroke-dashoffset:36;animation:haYpxQHi_draw_85 7300ms ease-in 0ms infinite,haYpxQHi_fade 7300ms linear 0ms infinite;}.haYpxQHi_86{stroke-dasharray:39 41;stroke-dashoffset:40;animation:haYpxQHi_draw_86 7300ms ease-in 0ms infinite,haYpxQHi_fade 7300ms linear 0ms infinite;}.haYpxQHi_87{stroke-dasharray:60 62;stroke-dashoffset:61;animation:haYpxQHi_draw_87 7300ms ease-in 0ms infinite,haYpxQHi_fade 7300ms linear 0ms infinite;}.haYpxQHi_88{stroke-dasharray:41 43;stroke-dashoffset:42;animation:haYpxQHi_draw_88 7300ms ease-in 0ms infinite,haYpxQHi_fade 7300ms linear 0ms infinite;}.haYpxQHi_89{stroke-dasharray:38 40;stroke-dashoffset:39;animation:haYpxQHi_draw_89 7300ms ease-in 0ms infinite,haYpxQHi_fade 7300ms linear 0ms infinite;}.haYpxQHi_90{stroke-dasharray:334 336;stroke-dashoffset:335;animation:haYpxQHi_draw_90 7300ms ease-in 0ms infinite,haYpxQHi_fade 7300ms linear 0ms infinite;}.haYpxQHi_91{stroke-dasharray:334 336;stroke-dashoffset:335;animation:haYpxQHi_draw_91 7300ms ease-in 0ms infinite,haYpxQHi_fade 7300ms linear 0ms infinite;}.haYpxQHi_92{stroke-dasharray:334 336;stroke-dashoffset:335;animation:haYpxQHi_draw_92 7300ms ease-in 0ms infinite,haYpxQHi_fade 7300ms linear 0ms infinite;}.haYpxQHi_93{stroke-dasharray:334 336;stroke-dashoffset:335;animation:haYpxQHi_draw_93 7300ms ease-in 0ms infinite,haYpxQHi_fade 7300ms linear 0ms infinite;}@keyframes haYpxQHi_draw{100%{stroke-dashoffset:0;}}@keyframes haYpxQHi_fade{0%{stroke-opacity:1;}93.15068493150685%{stroke-opacity:1;}100%{stroke-opacity:0;}}@keyframes haYpxQHi_draw_0{10.95890410958904%{stroke-dashoffset: 2401}52.054794520547944%{ stroke-dashoffset: 0;}100%{ stroke-dashoffset: 0;}}@keyframes haYpxQHi_draw_1{10.95890410958904%{stroke-dashoffset: 427}52.054794520547944%{ stroke-dashoffset: 0;}100%{ stroke-dashoffset: 0;}}@keyframes haYpxQHi_draw_2{10.95890410958904%{stroke-dashoffset: 481}52.054794520547944%{ stroke-dashoffset: 0;}100%{ stroke-dashoffset: 0;}}@keyframes haYpxQHi_draw_3{10.95890410958904%{stroke-dashoffset: 373}52.054794520547944%{ stroke-dashoffset: 0;}100%{ stroke-dashoffset: 0;}}@keyframes haYpxQHi_draw_4{10.95890410958904%{stroke-dashoffset: 538}52.054794520547944%{ stroke-dashoffset: 0;}100%{ stroke-dashoffset: 0;}}@keyframes haYpxQHi_draw_5{10.95890410958904%{stroke-dashoffset: 313}52.054794520547944%{ stroke-dashoffset: 0;}100%{ stroke-dashoffset: 0;}}@keyframes haYpxQHi_draw_6{10.95890410958904%{stroke-dashoffset: 598}52.054794520547944%{ stroke-dashoffset: 0;}100%{ stroke-dashoffset: 0;}}@keyframes haYpxQHi_draw_7{10.95890410958904%{stroke-dashoffset: 568}52.054794520547944%{ stroke-dashoffset: 0;}100%{ stroke-dashoffset: 0;}}@keyframes haYpxQHi_draw_8{10.95890410958904%{stroke-dashoffset: 250}52.054794520547944%{ stroke-dashoffset: 0;}100%{ stroke-dashoffset: 0;}}@keyframes haYpxQHi_draw_9{10.95890410958904%{stroke-dashoffset: 661}52.054794520547944%{ stroke-dashoffset: 0;}100%{ stroke-dashoffset: 0;}}@keyframes haYpxQHi_draw_10{10.95890410958904%{stroke-dashoffset: 628}52.054794520547944%{ stroke-dashoffset: 0;}100%{ stroke-dashoffset: 0;}}@keyframes haYpxQHi_draw_11{10.95890410958904%{stroke-dashoffset: 178}52.054794520547944%{ stroke-dashoffset: 0;}100%{ stroke-dashoffset: 0;}}@keyframes haYpxQHi_draw_12{10.95890410958904%{stroke-dashoffset: 745}52.054794520547944%{ stroke-dashoffset: 0;}100%{ stroke-dashoffset: 0;}}@keyframes haYpxQHi_draw_13{10.95890410958904%{stroke-dashoffset: 700}52.054794520547944%{ stroke-dashoffset: 0;}100%{ stroke-dashoffset: 0;}}@keyframes haYpxQHi_draw_14{10.95890410958904%{stroke-dashoffset: 49}52.054794520547944%{ stroke-dashoffset: 0;}100%{ stroke-dashoffset: 0;}}@keyframes haYpxQHi_draw_15{10.95890410958904%{stroke-dashoffset: 754}52.054794520547944%{ stroke-dashoffset: 0;}100%{ stroke-dashoffset: 0;}}@keyframes haYpxQHi_draw_16{10.95890410958904%{stroke-dashoffset: 823}52.054794520547944%{ stroke-dashoffset: 0;}100%{ stroke-dashoffset: 0;}}@keyframes haYpxQHi_draw_17{10.95890410958904%{stroke-dashoffset: 775}52.054794520547944%{ stroke-dashoffset: 0;}100%{ stroke-dashoffset: 0;}}@keyframes haYpxQHi_draw_18{10.95890410958904%{stroke-dashoffset: 724}52.054794520547944%{ stroke-dashoffset: 0;}100%{ stroke-dashoffset: 0;}}@keyframes haYpxQHi_draw_19{10.95890410958904%{stroke-dashoffset: 667}52.054794520547944%{ stroke-dashoffset: 0;}100%{ stroke-dashoffset: 0;}}@keyframes haYpxQHi_draw_20{10.95890410958904%{stroke-dashoffset: 709}52.054794520547944%{ stroke-dashoffset: 0;}100%{ stroke-dashoffset: 0;}}@keyframes haYpxQHi_draw_21{10.95890410958904%{stroke-dashoffset: 784}52.054794520547944%{ stroke-dashoffset: 0;}100%{ stroke-dashoffset: 0;}}@keyframes haYpxQHi_draw_22{10.95890410958904%{stroke-dashoffset: 730}52.054794520547944%{ stroke-dashoffset: 0;}100%{ stroke-dashoffset: 0;}}@keyframes haYpxQHi_draw_23{10.95890410958904%{stroke-dashoffset: 811}52.054794520547944%{ stroke-dashoffset: 0;}100%{ stroke-dashoffset: 0;}}@keyframes haYpxQHi_draw_24{10.95890410958904%{stroke-dashoffset: 796}52.054794520547944%{ stroke-dashoffset: 0;}100%{ stroke-dashoffset: 0;}}@keyframes haYpxQHi_draw_25{10.95890410958904%{stroke-dashoffset: 835}52.054794520547944%{ stroke-dashoffset: 0;}100%{ stroke-dashoffset: 0;}}@keyframes haYpxQHi_draw_26{10.95890410958904%{stroke-dashoffset: 841}52.054794520547944%{ stroke-dashoffset: 0;}100%{ stroke-dashoffset: 0;}}@keyframes haYpxQHi_draw_27{10.95890410958904%{stroke-dashoffset: 598}52.054794520547944%{ stroke-dashoffset: 0;}100%{ stroke-dashoffset: 0;}}@keyframes haYpxQHi_draw_28{10.95890410958904%{stroke-dashoffset: 634}52.054794520547944%{ stroke-dashoffset: 0;}100%{ stroke-dashoffset: 0;}}@keyframes haYpxQHi_draw_29{10.95890410958904%{stroke-dashoffset: 838}52.054794520547944%{ stroke-dashoffset: 0;}100%{ stroke-dashoffset: 0;}}@keyframes haYpxQHi_draw_30{10.95890410958904%{stroke-dashoffset: 829}52.054794520547944%{ stroke-dashoffset: 0;}100%{ stroke-dashoffset: 0;}}@keyframes haYpxQHi_draw_31{10.95890410958904%{stroke-dashoffset: 541}52.054794520547944%{ stroke-dashoffset: 0;}100%{ stroke-dashoffset: 0;}}@keyframes haYpxQHi_draw_32{10.95890410958904%{stroke-dashoffset: 571}52.054794520547944%{ stroke-dashoffset: 0;}100%{ stroke-dashoffset: 0;}}@keyframes haYpxQHi_draw_33{10.95890410958904%{stroke-dashoffset: 703}52.054794520547944%{ stroke-dashoffset: 0;}100%{ stroke-dashoffset: 0;}}@keyframes haYpxQHi_draw_34{10.95890410958904%{stroke-dashoffset: 751}52.054794520547944%{ stroke-dashoffset: 0;}100%{ stroke-dashoffset: 0;}}@keyframes haYpxQHi_draw_35{10.95890410958904%{stroke-dashoffset: 781}52.054794520547944%{ stroke-dashoffset: 0;}100%{ stroke-dashoffset: 0;}}@keyframes haYpxQHi_draw_36{10.95890410958904%{stroke-dashoffset: 805}52.054794520547944%{ stroke-dashoffset: 0;}100%{ stroke-dashoffset: 0;}}@keyframes haYpxQHi_draw_37{10.95890410958904%{stroke-dashoffset: 826}52.054794520547944%{ stroke-dashoffset: 0;}100%{ stroke-dashoffset: 0;}}@keyframes haYpxQHi_draw_38{10.95890410958904%{stroke-dashoffset: 703}52.054794520547944%{ stroke-dashoffset: 0;}100%{ stroke-dashoffset: 0;}}@keyframes haYpxQHi_draw_39{10.95890410958904%{stroke-dashoffset: 751}52.054794520547944%{ stroke-dashoffset: 0;}100%{ stroke-dashoffset: 0;}}@keyframes haYpxQHi_draw_40{10.95890410958904%{stroke-dashoffset: 781}52.054794520547944%{ stroke-dashoffset: 0;}100%{ stroke-dashoffset: 0;}}@keyframes haYpxQHi_draw_41{10.95890410958904%{stroke-dashoffset: 799}52.054794520547944%{ stroke-dashoffset: 0;}100%{ stroke-dashoffset: 0;}}@keyframes haYpxQHi_draw_42{10.95890410958904%{stroke-dashoffset: 487}52.054794520547944%{ stroke-dashoffset: 0;}100%{ stroke-dashoffset: 0;}}@keyframes haYpxQHi_draw_43{10.95890410958904%{stroke-dashoffset: 631}52.054794520547944%{ stroke-dashoffset: 0;}100%{ stroke-dashoffset: 0;}}@keyframes haYpxQHi_draw_44{10.95890410958904%{stroke-dashoffset: 667}52.054794520547944%{ stroke-dashoffset: 0;}100%{ stroke-dashoffset: 0;}}@keyframes haYpxQHi_draw_45{10.95890410958904%{stroke-dashoffset: 727}52.054794520547944%{ stroke-dashoffset: 0;}100%{ stroke-dashoffset: 0;}}@keyframes haYpxQHi_draw_46{10.95890410958904%{stroke-dashoffset: 628}52.054794520547944%{ stroke-dashoffset: 0;}100%{ stroke-dashoffset: 0;}}@keyframes haYpxQHi_draw_47{10.95890410958904%{stroke-dashoffset: 664}52.054794520547944%{ stroke-dashoffset: 0;}100%{ stroke-dashoffset: 0;}}@keyframes haYpxQHi_draw_48{10.95890410958904%{stroke-dashoffset: 724}52.054794520547944%{ stroke-dashoffset: 0;}100%{ stroke-dashoffset: 0;}}@keyframes haYpxQHi_draw_49{10.95890410958904%{stroke-dashoffset: 430}52.054794520547944%{ stroke-dashoffset: 0;}100%{ stroke-dashoffset: 0;}}@keyframes haYpxQHi_draw_50{10.95890410958904%{stroke-dashoffset: 568}52.054794520547944%{ stroke-dashoffset: 0;}100%{ stroke-dashoffset: 0;}}@keyframes haYpxQHi_draw_51{10.95890410958904%{stroke-dashoffset: 598}52.054794520547944%{ stroke-dashoffset: 0;}100%{ stroke-dashoffset: 0;}}@keyframes haYpxQHi_draw_52{10.95890410958904%{stroke-dashoffset: 568}52.054794520547944%{ stroke-dashoffset: 0;}100%{ stroke-dashoffset: 0;}}@keyframes haYpxQHi_draw_53{10.95890410958904%{stroke-dashoffset: 601}52.054794520547944%{ stroke-dashoffset: 0;}100%{ stroke-dashoffset: 0;}}@keyframes haYpxQHi_draw_54{10.95890410958904%{stroke-dashoffset: 376}52.054794520547944%{ stroke-dashoffset: 0;}100%{ stroke-dashoffset: 0;}}@keyframes haYpxQHi_draw_55{10.95890410958904%{stroke-dashoffset: 511}52.054794520547944%{ stroke-dashoffset: 0;}100%{ stroke-dashoffset: 0;}}@keyframes haYpxQHi_draw_56{10.95890410958904%{stroke-dashoffset: 541}52.054794520547944%{ stroke-dashoffset: 0;}100%{ stroke-dashoffset: 0;}}@keyframes haYpxQHi_draw_57{10.95890410958904%{stroke-dashoffset: 511}52.054794520547944%{ stroke-dashoffset: 0;}100%{ stroke-dashoffset: 0;}}@keyframes haYpxQHi_draw_58{10.95890410958904%{stroke-dashoffset: 541}52.054794520547944%{ stroke-dashoffset: 0;}100%{ stroke-dashoffset: 0;}}@keyframes haYpxQHi_draw_59{10.95890410958904%{stroke-dashoffset: 319}52.054794520547944%{ stroke-dashoffset: 0;}100%{ stroke-dashoffset: 0;}}@keyframes haYpxQHi_draw_60{10.95890410958904%{stroke-dashoffset: 454}52.054794520547944%{ stroke-dashoffset: 0;}100%{ stroke-dashoffset: 0;}}@keyframes haYpxQHi_draw_61{10.95890410958904%{stroke-dashoffset: 457}52.054794520547944%{ stroke-dashoffset: 0;}100%{ stroke-dashoffset: 0;}}@keyframes haYpxQHi_draw_62{10.95890410958904%{stroke-dashoffset: 256}52.054794520547944%{ stroke-dashoffset: 0;}100%{ stroke-dashoffset: 0;}}@keyframes haYpxQHi_draw_63{10.95890410958904%{stroke-dashoffset: 400}52.054794520547944%{ stroke-dashoffset: 0;}100%{ stroke-dashoffset: 0;}}@keyframes haYpxQHi_draw_64{10.95890410958904%{stroke-dashoffset: 400}52.054794520547944%{ stroke-dashoffset: 0;}100%{ stroke-dashoffset: 0;}}@keyframes haYpxQHi_draw_65{10.95890410958904%{stroke-dashoffset: 181}52.054794520547944%{ stroke-dashoffset: 0;}100%{ stroke-dashoffset: 0;}}@keyframes haYpxQHi_draw_66{10.95890410958904%{stroke-dashoffset: 346}52.054794520547944%{ stroke-dashoffset: 0;}100%{ stroke-dashoffset: 0;}}@keyframes haYpxQHi_draw_67{10.95890410958904%{stroke-dashoffset: 343}52.054794520547944%{ stroke-dashoffset: 0;}100%{ stroke-dashoffset: 0;}}@keyframes haYpxQHi_draw_68{10.95890410958904%{stroke-dashoffset: 67}52.054794520547944%{ stroke-dashoffset: 0;}100%{ stroke-dashoffset: 0;}}@keyframes haYpxQHi_draw_69{10.95890410958904%{stroke-dashoffset: 286}52.054794520547944%{ stroke-dashoffset: 0;}100%{ stroke-dashoffset: 0;}}@keyframes haYpxQHi_draw_70{10.95890410958904%{stroke-dashoffset: 283}52.054794520547944%{ stroke-dashoffset: 0;}100%{ stroke-dashoffset: 0;}}@keyframes haYpxQHi_draw_71{10.95890410958904%{stroke-dashoffset: 220}52.054794520547944%{ stroke-dashoffset: 0;}100%{ stroke-dashoffset: 0;}}@keyframes haYpxQHi_draw_72{10.95890410958904%{stroke-dashoffset: 220}52.054794520547944%{ stroke-dashoffset: 0;}100%{ stroke-dashoffset: 0;}}@keyframes haYpxQHi_draw_73{10.95890410958904%{stroke-dashoffset: 133}52.054794520547944%{ stroke-dashoffset: 0;}100%{ stroke-dashoffset: 0;}}@keyframes haYpxQHi_draw_74{10.95890410958904%{stroke-dashoffset: 130}52.054794520547944%{ stroke-dashoffset: 0;}100%{ stroke-dashoffset: 0;}}@keyframes haYpxQHi_draw_75{10.95890410958904%{stroke-dashoffset: 364}52.054794520547944%{ stroke-dashoffset: 0;}100%{ stroke-dashoffset: 0;}}@keyframes haYpxQHi_draw_76{10.95890410958904%{stroke-dashoffset: 856}52.054794520547944%{ stroke-dashoffset: 0;}100%{ stroke-dashoffset: 0;}}@keyframes haYpxQHi_draw_77{10.95890410958904%{stroke-dashoffset: 1011}52.054794520547944%{ stroke-dashoffset: 0;}100%{ stroke-dashoffset: 0;}}@keyframes haYpxQHi_draw_78{10.95890410958904%{stroke-dashoffset: 452}52.054794520547944%{ stroke-dashoffset: 0;}100%{ stroke-dashoffset: 0;}}@keyframes haYpxQHi_draw_79{10.95890410958904%{stroke-dashoffset: 452}52.054794520547944%{ stroke-dashoffset: 0;}100%{ stroke-dashoffset: 0;}}@keyframes haYpxQHi_draw_80{10.95890410958904%{stroke-dashoffset: 38}52.054794520547944%{ stroke-dashoffset: 0;}100%{ stroke-dashoffset: 0;}}@keyframes haYpxQHi_draw_81{10.95890410958904%{stroke-dashoffset: 46}52.054794520547944%{ stroke-dashoffset: 0;}100%{ stroke-dashoffset: 0;}}@keyframes haYpxQHi_draw_82{10.95890410958904%{stroke-dashoffset: 45}52.054794520547944%{ stroke-dashoffset: 0;}100%{ stroke-dashoffset: 0;}}@keyframes haYpxQHi_draw_83{10.95890410958904%{stroke-dashoffset: 41}52.054794520547944%{ stroke-dashoffset: 0;}100%{ stroke-dashoffset: 0;}}@keyframes haYpxQHi_draw_84{10.95890410958904%{stroke-dashoffset: 43}52.054794520547944%{ stroke-dashoffset: 0;}100%{ stroke-dashoffset: 0;}}@keyframes haYpxQHi_draw_85{10.95890410958904%{stroke-dashoffset: 36}52.054794520547944%{ stroke-dashoffset: 0;}100%{ stroke-dashoffset: 0;}}@keyframes haYpxQHi_draw_86{10.95890410958904%{stroke-dashoffset: 40}52.054794520547944%{ stroke-dashoffset: 0;}100%{ stroke-dashoffset: 0;}}@keyframes haYpxQHi_draw_87{10.95890410958904%{stroke-dashoffset: 61}52.054794520547944%{ stroke-dashoffset: 0;}100%{ stroke-dashoffset: 0;}}@keyframes haYpxQHi_draw_88{10.95890410958904%{stroke-dashoffset: 42}52.054794520547944%{ stroke-dashoffset: 0;}100%{ stroke-dashoffset: 0;}}@keyframes haYpxQHi_draw_89{10.95890410958904%{stroke-dashoffset: 39}52.054794520547944%{ stroke-dashoffset: 0;}100%{ stroke-dashoffset: 0;}}@keyframes haYpxQHi_draw_90{10.95890410958904%{stroke-dashoffset: 335}52.054794520547944%{ stroke-dashoffset: 0;}100%{ stroke-dashoffset: 0;}}@keyframes haYpxQHi_draw_91{10.95890410958904%{stroke-dashoffset: 335}52.054794520547944%{ stroke-dashoffset: 0;}100%{ stroke-dashoffset: 0;}}@keyframes haYpxQHi_draw_92{10.95890410958904%{stroke-dashoffset: 335}52.054794520547944%{ stroke-dashoffset: 0;}100%{ stroke-dashoffset: 0;}}@keyframes haYpxQHi_draw_93{10.95890410958904%{stroke-dashoffset: 335}52.054794520547944%{ stroke-dashoffset: 0;}100%{ stroke-dashoffset: 0;}}</style></svg>
