<svg xmlns="http://www.w3.org/2000/svg" width="533.333" height="533.333" version="1.0" viewBox="0 0 400 400"><path d="M195.7 5.6c-.1.1-4.7.5-10.2.8-9.9.5-15.6 1.1-20.5 2.1-1.4.3-3.4.7-4.5.9-54.2 10.5-103.6 47-129.9 96.1-6.5 12-15.2 34.5-17.1 43.8-.2 1-.6 2.6-.9 3.5-.3.9-.8 3.3-1.1 5.2-.3 1.9-.8 4.8-1.1 6.3-3 14.5-3.4 46.9-.9 59.2.3 1.1.7 3.8 1 6 3 21.3 15.5 53.1 29.2 74 24.6 37.5 60.6 65.2 102.7 79 25.8 8.5 50.5 11.4 79.1 9.1 6.9-.5 8.1-.7 18-2.6 2.8-.6 6-1.2 7.2-1.4 11-2.1 29.4-9 43.8-16.3 47.7-24.2 83.1-68.6 96.8-121.3 2.1-8.2 2.9-11.8 4.3-21 2.9-18.5 2.1-45.8-1.8-65-.6-3-1.2-6-1.4-6.5-3.6-18.3-15.3-45-28.3-64.7-13.3-20.1-38.1-45-54.2-54.3-1-.6-5.3-3.1-9.6-5.7-15-9-33.4-16.6-49.8-20.7-7.7-2-10.1-2.5-17.4-3.7-1.8-.3-4.3-.7-5.4-1-1.1-.2-6.3-.6-11.6-1-5.3-.3-11.1-.7-12.9-.8-1.8-.1-3.3-.1-3.5 0zm19.8 6.8c3.9.3 7.9.7 9 1 1.1.2 4 .7 6.5 1.1 22.6 3.5 50.5 14.7 71.4 28.7 32.5 21.7 57.7 52.6 71.9 88.3 3.4 8.5 8.5 24.7 9.2 29 .1 1.1.6 3.6 1 5.5s.9 4.6 1 6c.2 1.4.7 4.7 1.2 7.5.9 6.4 1 36.2 0 44-.4 3.3-.9 7.1-1.1 8.5-.2 1.4-.6 3.4-.9 4.5-.4 1.1-.9 3.6-1.2 5.5-1.8 11.2-9.9 33.3-17 46.7-18.8 35.4-48.2 63.6-84 80.3-9.1 4.3-13.1 6.1-14.5 6.5-.3.1-5 1.5-10.5 3.3-5.5 1.7-11.5 3.4-13.4 3.7-1.9.3-3.7.8-4.1 1-.4.2-2.9.7-5.6 1-2.7.3-7.6.9-10.9 1.4-12.2 1.7-36.9 1-51.5-1.5-1.9-.3-4.4-.7-5.6-.9-3.1-.4-20.2-5.2-26.4-7.3-12.9-4.5-37.5-17.3-46-23.9-24.1-18.7-35.5-30.6-49.5-51.3-13.6-20.3-25.9-52.3-29-75.5-.3-1.7-.8-5.5-1.2-8.5-.9-6.6-.9-34.5 0-41.5 2.8-22.5 8.3-40.9 18.2-61C56.3 65.7 100 30.4 153 17c4.1-1 9.5-2.2 12-2.5 2.4-.4 4.7-.8 5-1 .4-.2 4.6-.7 9.6-1 4.9-.4 9-.8 9.1-.9.4-.3 19.8.2 26.8.8z"/><path d="M184.5 43.1C148 46.7 115.1 62.4 89 88.9A154.96 154.96 0 0056.3 259c14.4 34.2 40 61.5 73.2 78 11 5.4 24.3 10.5 30.5 11.6 1.4.3 4.1.9 6 1.4 1.9.5 5.3 1.2 7.5 1.5 2.2.2 6.3.8 9 1.1 9.6 1.3 30.7.7 39.5-1.1 1.4-.3 4.1-.8 6-1.1 7.5-1.3 21.9-5.7 30-9.2 19.2-8.2 35.1-19 50-34.1 20.2-20.4 35.1-47.4 41-74.1 3.1-14 3.2-14.8 3.5-33 .4-23.9-1.8-37-10.2-58.8-13.5-35.4-40.8-65.4-75-82.6-12.4-6.2-31.2-12.3-43.3-14-2.5-.4-6.1-.9-8-1.2-5.9-.8-24.1-1-31.5-.3zm34.2 13.2c1.1.3 4.3.9 7 1.2 7.4 1.1 26.9 7.8 35.9 12.3 30.5 15.3 54.2 40.6 67.6 72.2 19.1 45 13.7 96.8-14.4 137.8-5.5 8-21.9 25.2-29.8 31.3-19.4 15-43.4 25.1-67.5 28.4-9.6 1.3-33.3 1.4-40 0-1.6-.3-5.5-1-8.5-1.6-36.9-7.3-72.1-32.5-92.2-65.9-18.6-31.1-24.7-67.6-17.2-103.7 11.3-55 55.9-99.4 110.9-110.2 5.5-1.1 11.1-2.2 12.5-2.4 3.6-.5 33.1 0 35.7.6z"/><path d="M128 116.6c-4.6 2-7.7 5-10.3 9.9-2.1 4-2.2 4.6-2.2 70.4 0 45.3.4 67.9 1.1 70.8 2.1 8.2 9.6 14.9 18.2 16 8.6 1.2 17.8-4.2 21.5-12.6 1.9-4.3 2-7 2-72-.1-44.9-.4-68.5-1.1-70.2-1.7-4.3-7.3-10.1-11.7-12-4.8-2.2-12.7-2.4-17.5-.3zm13 7.9c5 2.6 7.3 6.9 6.8 12.6-.6 5.7-3.4 9.4-8.2 10.6-4.8 1.2-5.8 1.1-9.8-.9-6.7-3.3-8.8-11.5-4.5-17.9 3.9-5.7 9.8-7.4 15.7-4.4zm.3 126.9c11.8 5 10.1 21.9-2.4 24.1-8.4 1.5-15.3-5.1-14.6-13.8.5-5.2 2.6-8.2 7.2-10.3 3.9-1.7 5.8-1.7 9.8 0zM254.1 117c-3.3 1.7-68.5 66-72.2 71.1-3.1 4.4-3.8 14.3-1.3 19.2 2.2 4.2 69.5 72.2 73.7 74.3 5.1 2.7 12.9 2.6 18.5-.2 6.8-3.4 10.5-8.8 11-16.3.7-10-.7-11.9-28.7-39.7-13.8-13.6-25.1-25.2-25.1-25.8 0-.5 11.4-12.2 25.3-26 15.5-15.3 26-26.6 27.1-28.8 3.7-8.1 1.3-18.4-5.7-24.5-6.1-5.3-16-6.8-22.6-3.3zm13.2 7.4c8.9 3.7 10.7 14.4 3.7 21.1-2.5 2.4-3.9 2.9-7.8 2.9-13.6 0-18.4-16.4-6.7-23.5 3.6-2.2 6.4-2.4 10.8-.5zm3.8 129.2c6.9 6.6 5 17.3-3.7 21-8.2 3.5-17.4-3.2-17.4-12.7 0-4 3.6-9.5 7-10.9 4.4-1.7 10.8-.5 14.1 2.6z"/></svg>