<svg width="20" height="20" viewBox="0 0 20 20" fill="none" xmlns="http://www.w3.org/2000/svg">
<path fill-rule="evenodd" clip-rule="evenodd" d="M13.844 2.09758C13.844 3.25603 12.2293 4.19515 10.2375 4.19515C8.2456 4.19515 6.63088 3.25603 6.63088 2.09758C6.63088 0.939116 8.2456 0 10.2375 0C12.2293 0 13.844 0.939116 13.844 2.09758ZM13.844 17.9024C13.844 19.0609 12.2293 20 10.2375 20C8.2456 20 6.63088 19.0609 6.63088 17.9024C6.63088 16.744 8.2456 15.8048 10.2375 15.8048C12.2293 15.8048 13.844 16.744 13.844 17.9024ZM5.21145 7.09868C6.20738 5.37373 6.20091 3.50551 5.19701 2.92589C4.19311 2.34627 2.57192 3.27474 1.57599 4.99969C0.580061 6.72464 0.586525 8.59286 1.59043 9.17249C2.59433 9.75211 4.21552 8.82363 5.21145 7.09868ZM18.8842 10.8281C19.8874 11.4073 19.8933 13.2752 18.8974 15.0002C17.9014 16.7251 16.2808 17.6539 15.2776 17.0747C14.2744 16.4955 14.2684 14.6275 15.2644 12.9026C16.2603 11.1776 17.8809 10.2489 18.8842 10.8281ZM5.19751 17.0742C6.20141 16.4946 6.20788 14.6263 5.21195 12.9014C4.21602 11.1764 2.59483 10.248 1.59093 10.8276C0.587025 11.4072 0.580561 13.2754 1.57649 15.0004C2.57242 16.7253 4.19361 17.6538 5.19751 17.0742ZM18.8982 5.00087C19.8941 6.72582 19.8882 8.59373 18.885 9.17296C17.8818 9.75219 16.2611 8.8234 15.2652 7.09845C14.2693 5.3735 14.2752 3.50559 15.2784 2.92636C16.2817 2.34713 17.9023 3.27592 18.8982 5.00087Z" fill="#E6007A"/>
</svg>
