<svg width="520" height="481" viewBox="0 0 520 481" fill="none" xmlns="http://www.w3.org/2000/svg">
<rect x="91.6221" y="278.509" width="69.4112" height="90.0625" transform="rotate(-23.6883 91.6221 278.509)" fill="#191718" stroke="white" stroke-width="0.573647"/>
<rect x="92" y="278.656" width="68.8376" height="68.8376" transform="rotate(-23.6883 92 278.656)" fill="#E99FC2"/>
<rect opacity="0.54" x="125.472" y="343.527" width="24.0932" height="6.31011" transform="rotate(-23.6883 125.472 343.527)" fill="#6B6B6B"/>
<rect opacity="0.54" x="128.929" y="351.407" width="24.0932" height="2.86823" transform="rotate(-23.6883 128.929 351.407)" fill="#6B6B6B"/>
<g style="mix-blend-mode:overlay">
<rect x="112.213" y="290.46" width="18.3567" height="18.3567" rx="9.17835" transform="rotate(-23.6883 112.213 290.46)" fill="black"/>
</g>
<g style="mix-blend-mode:overlay">
<rect x="123.153" y="292.551" width="31.5506" height="31.5506" rx="15.7753" transform="rotate(-23.6883 123.153 292.551)" fill="black"/>
</g>
<g filter="url(#filter0_f_4518_16331)">
<circle cx="204.319" cy="204.319" r="53.2586" transform="rotate(-135 204.319 204.319)" fill="#6188E7"/>
</g>
<g filter="url(#filter1_f_4518_16331)">
<path d="M178.15 237.266C148.651 292.787 275.467 269.226 279.483 266.594C280.31 285.33 284.454 326.843 294.419 343.01C306.874 363.22 363.649 295.926 359.639 271.146C355.629 246.366 302.339 201.938 281.994 172.454C261.649 142.971 207.65 181.745 178.15 237.266Z" fill="#FF7AC3"/>
<path d="M178.15 237.266C148.651 292.787 275.467 269.226 279.483 266.594C280.31 285.33 284.454 326.843 294.419 343.01C306.874 363.22 363.649 295.926 359.639 271.146C355.629 246.366 302.339 201.938 281.994 172.454C261.649 142.971 207.65 181.745 178.15 237.266Z" stroke="#FF7AC3" stroke-width="0.427851"/>
</g>
<path d="M233.848 235.454V250.701H230.337V243.701L230.452 239.012H230.406L226.641 250.701H223.43L219.664 239.012H219.618L219.733 243.701V250.701H216.199V235.454H221.859L224.261 243.216L225.116 246.45H225.162L226.04 243.239L228.419 235.454H233.848ZM238.911 237.81C238.11 237.81 237.525 237.664 237.155 237.372C236.801 237.064 236.624 236.586 236.624 235.939C236.624 235.277 236.801 234.8 237.155 234.507C237.525 234.199 238.11 234.045 238.911 234.045C239.696 234.045 240.274 234.199 240.643 234.507C241.013 234.8 241.198 235.277 241.198 235.939C241.198 236.586 241.013 237.064 240.643 237.372C240.274 237.664 239.696 237.81 238.911 237.81ZM240.874 239.15V250.701H236.947V239.15H240.874ZM254.851 236.055L255.174 238.688C255.082 238.657 254.989 238.642 254.897 238.642C254.804 238.627 254.712 238.619 254.62 238.619C253.942 238.619 253.434 238.788 253.095 239.127C252.772 239.451 252.61 239.859 252.61 240.352L251.224 239.843C251.224 239.212 251.339 238.604 251.57 238.018C251.801 237.433 252.155 236.956 252.633 236.586C253.126 236.217 253.742 236.032 254.481 236.032C254.527 236.032 254.581 236.032 254.643 236.032C254.72 236.032 254.789 236.039 254.851 236.055ZM250.877 248.137C252.217 248.137 253.241 248.421 253.95 248.991C254.673 249.546 255.035 250.346 255.035 251.394C255.035 252.349 254.774 253.142 254.25 253.773C253.726 254.405 252.987 254.874 252.032 255.182C251.093 255.506 249.976 255.667 248.683 255.667C246.588 255.667 245.079 255.406 244.155 254.882C243.231 254.358 242.769 253.65 242.769 252.757C242.769 252.11 243.031 251.586 243.554 251.186C244.078 250.785 244.948 250.57 246.165 250.539L246.072 250.909C245.133 250.785 244.432 250.508 243.97 250.077C243.508 249.646 243.277 249.061 243.277 248.321C243.277 247.582 243.57 246.981 244.155 246.519C244.74 246.057 245.518 245.803 246.488 245.757L247.92 246.427H247.551C246.95 246.458 246.527 246.558 246.28 246.727C246.034 246.897 245.911 247.105 245.911 247.351C245.911 247.613 246.018 247.813 246.234 247.952C246.45 248.075 246.773 248.137 247.204 248.137H250.877ZM248.706 253.126C249.445 253.126 250.053 253.072 250.531 252.965C251.024 252.872 251.393 252.734 251.64 252.549C251.886 252.379 252.009 252.179 252.009 251.948C252.009 251.717 251.924 251.532 251.755 251.394C251.586 251.271 251.278 251.209 250.831 251.209H246.696C246.403 251.209 246.165 251.286 245.98 251.44C245.81 251.594 245.726 251.786 245.726 252.017C245.726 252.372 245.988 252.641 246.511 252.826C247.035 253.026 247.766 253.126 248.706 253.126ZM248.844 238.919C250.015 238.919 251.016 239.073 251.847 239.381C252.679 239.689 253.311 240.136 253.742 240.721C254.188 241.291 254.412 241.999 254.412 242.846C254.412 243.678 254.188 244.386 253.742 244.972C253.311 245.557 252.679 246.004 251.847 246.312C251.016 246.604 250.015 246.75 248.844 246.75C247.012 246.75 245.618 246.412 244.663 245.734C243.724 245.056 243.254 244.094 243.254 242.846C243.254 241.999 243.47 241.291 243.901 240.721C244.347 240.136 244.987 239.689 245.818 239.381C246.65 239.073 247.659 238.919 248.844 238.919ZM248.844 241.16C248.336 241.16 247.92 241.306 247.597 241.599C247.289 241.892 247.135 242.307 247.135 242.846C247.135 243.37 247.289 243.778 247.597 244.071C247.92 244.363 248.336 244.51 248.844 244.51C249.337 244.51 249.745 244.363 250.069 244.071C250.392 243.778 250.554 243.37 250.554 242.846C250.554 242.307 250.392 241.892 250.069 241.599C249.745 241.306 249.337 241.16 248.844 241.16ZM256.596 250.701V239.15H260.061L260.223 241.645C260.516 240.783 260.947 240.113 261.517 239.635C262.102 239.158 262.841 238.919 263.734 238.919C264.027 238.919 264.273 238.942 264.474 238.989C264.689 239.035 264.859 239.096 264.982 239.173L264.589 242.408C264.435 242.346 264.235 242.3 263.989 242.269C263.758 242.223 263.473 242.2 263.134 242.2C262.672 242.2 262.241 242.3 261.84 242.5C261.44 242.7 261.116 243 260.87 243.401C260.639 243.786 260.523 244.279 260.523 244.879V250.701H256.596ZM272.855 243.378C272.855 242.839 272.701 242.415 272.393 242.107C272.1 241.784 271.7 241.622 271.191 241.622C270.683 241.622 270.244 241.753 269.875 242.015C269.521 242.261 269.274 242.708 269.135 243.355L265.809 242.569C266.025 241.46 266.594 240.575 267.518 239.913C268.442 239.25 269.744 238.919 271.422 238.919C272.547 238.919 273.502 239.089 274.287 239.428C275.088 239.751 275.696 240.244 276.112 240.906C276.543 241.553 276.759 242.354 276.759 243.308V247.536C276.759 248.137 277.028 248.437 277.567 248.437C277.844 248.437 278.068 248.406 278.237 248.344L278.006 250.585C277.544 250.801 276.982 250.909 276.32 250.909C275.719 250.909 275.188 250.816 274.726 250.631C274.264 250.431 273.902 250.139 273.64 249.754C273.378 249.353 273.247 248.853 273.247 248.252V248.113L273.686 247.952C273.686 248.614 273.486 249.168 273.086 249.615C272.701 250.062 272.192 250.393 271.561 250.608C270.945 250.824 270.298 250.932 269.621 250.932C268.835 250.932 268.15 250.808 267.565 250.562C266.979 250.316 266.525 249.961 266.202 249.499C265.894 249.022 265.74 248.437 265.74 247.744C265.74 246.912 265.986 246.227 266.479 245.688C266.987 245.133 267.78 244.748 268.858 244.533L273.224 243.632L273.201 245.711L270.984 246.173C270.522 246.265 270.175 246.404 269.944 246.589C269.728 246.758 269.621 247.02 269.621 247.374C269.621 247.713 269.744 247.967 269.99 248.137C270.237 248.306 270.529 248.391 270.868 248.391C271.13 248.391 271.376 248.352 271.607 248.275C271.854 248.198 272.069 248.083 272.254 247.929C272.439 247.759 272.585 247.551 272.693 247.305C272.801 247.058 272.855 246.766 272.855 246.427V243.378ZM284.164 235.477V246.589C284.164 247.143 284.295 247.544 284.557 247.79C284.834 248.021 285.211 248.137 285.689 248.137C286.058 248.137 286.374 248.098 286.636 248.021C286.913 247.929 287.16 247.798 287.375 247.628L287.791 250.054C287.406 250.331 286.921 250.547 286.336 250.701C285.75 250.855 285.15 250.932 284.534 250.932C283.656 250.932 282.894 250.808 282.247 250.562C281.615 250.316 281.123 249.923 280.768 249.384C280.43 248.845 280.252 248.129 280.237 247.236V236.563L284.164 235.477ZM287.606 239.15V241.946H278.25V239.15H287.606ZM291.384 237.81C290.583 237.81 289.998 237.664 289.628 237.372C289.274 237.064 289.097 236.586 289.097 235.939C289.097 235.277 289.274 234.8 289.628 234.507C289.998 234.199 290.583 234.045 291.384 234.045C292.169 234.045 292.747 234.199 293.116 234.507C293.486 234.8 293.671 235.277 293.671 235.939C293.671 236.586 293.486 237.064 293.116 237.372C292.747 237.664 292.169 237.81 291.384 237.81ZM293.347 239.15V250.701H289.42V239.15H293.347ZM301.641 238.919C302.857 238.919 303.92 239.158 304.829 239.635C305.753 240.097 306.469 240.783 306.977 241.691C307.501 242.585 307.762 243.663 307.762 244.925C307.762 246.188 307.501 247.274 306.977 248.183C306.469 249.076 305.753 249.761 304.829 250.239C303.92 250.701 302.857 250.932 301.641 250.932C300.455 250.932 299.4 250.701 298.476 250.239C297.552 249.761 296.828 249.076 296.304 248.183C295.796 247.274 295.542 246.188 295.542 244.925C295.542 243.663 295.796 242.585 296.304 241.691C296.828 240.783 297.552 240.097 298.476 239.635C299.4 239.158 300.455 238.919 301.641 238.919ZM301.641 241.714C301.194 241.714 300.809 241.822 300.486 242.038C300.162 242.254 299.916 242.6 299.747 243.077C299.577 243.555 299.492 244.171 299.492 244.925C299.492 245.68 299.577 246.296 299.747 246.774C299.916 247.236 300.162 247.582 300.486 247.813C300.809 248.029 301.194 248.137 301.641 248.137C302.103 248.137 302.495 248.029 302.819 247.813C303.142 247.582 303.389 247.236 303.558 246.774C303.728 246.296 303.812 245.68 303.812 244.925C303.812 244.171 303.728 243.555 303.558 243.077C303.389 242.6 303.142 242.254 302.819 242.038C302.495 241.822 302.103 241.714 301.641 241.714ZM309.972 250.701V239.15H313.483L313.691 243.124L313.252 242.685C313.406 241.853 313.675 241.16 314.06 240.606C314.461 240.051 314.954 239.635 315.539 239.358C316.14 239.066 316.809 238.919 317.549 238.919C318.35 238.919 319.043 239.073 319.628 239.381C320.228 239.689 320.698 240.144 321.037 240.744C321.376 241.345 321.545 242.1 321.545 243.008V250.701H317.618V244.048C317.618 243.247 317.464 242.692 317.156 242.384C316.848 242.076 316.455 241.922 315.978 241.922C315.608 241.922 315.262 242.015 314.938 242.2C314.615 242.369 314.361 242.646 314.176 243.031C313.991 243.416 313.899 243.932 313.899 244.579V250.701H309.972Z" fill="black"/>
<path d="M156.866 245.395C157.303 244.958 157.303 244.251 156.866 243.814L149.753 236.701C149.316 236.264 148.609 236.264 148.172 236.701C147.736 237.137 147.736 237.845 148.172 238.281L154.495 244.604L148.172 250.928C147.736 251.364 147.736 252.072 148.172 252.508C148.609 252.945 149.316 252.945 149.753 252.508L156.866 245.395ZM93.4805 245.722H156.076V243.487H93.4805V245.722Z" fill="black"/>
<path d="M422.152 245.395C422.588 244.958 422.588 244.251 422.152 243.814L415.038 236.701C414.602 236.264 413.894 236.264 413.457 236.701C413.021 237.137 413.021 237.845 413.457 238.281L419.78 244.604L413.457 250.928C413.021 251.364 413.021 252.072 413.457 252.508C413.894 252.945 414.602 252.945 415.038 252.508L422.152 245.395ZM358.766 245.722H421.361V243.487H358.766V245.722Z" fill="black"/>
<rect x="158.702" y="104.434" width="61.4828" height="79.7753" transform="rotate(-11 158.702 104.434)" fill="#191718" stroke="white" stroke-width="0.508123"/>
<rect x="159" y="104.635" width="60.9747" height="60.9747" transform="rotate(-11 159 104.635)" fill="#A6B7F4"/>
<rect opacity="0.54" x="175.304" y="167.205" width="21.3411" height="5.58935" transform="rotate(-11 175.304 167.205)" fill="#6B6B6B"/>
<rect opacity="0.54" x="176.758" y="174.687" width="21.3411" height="2.54061" transform="rotate(-11 176.758 174.687)" fill="#6B6B6B"/>
<g style="mix-blend-mode:overlay">
<rect x="174.17" y="118.768" width="16.2599" height="16.2599" rx="8.12996" transform="rotate(-11 174.17 118.768)" fill="black"/>
</g>
<g style="mix-blend-mode:overlay">
<rect x="183.217" y="122.703" width="27.9467" height="27.9467" rx="13.9734" transform="rotate(-11 183.217 122.703)" fill="black"/>
</g>
<rect x="173.723" y="111.434" width="61.4828" height="79.7753" transform="rotate(-11 173.723 111.434)" fill="#191718" stroke="white" stroke-width="0.508123"/>
<rect x="174.021" y="111.635" width="60.9747" height="60.9747" transform="rotate(-11 174.021 111.635)" fill="#F4A6E7"/>
<rect opacity="0.54" x="190.324" y="174.205" width="21.3411" height="5.58935" transform="rotate(-11 190.324 174.205)" fill="#6B6B6B"/>
<rect opacity="0.54" x="191.778" y="181.687" width="21.3411" height="2.54061" transform="rotate(-11 191.778 181.687)" fill="#6B6B6B"/>
<g style="mix-blend-mode:overlay">
<rect x="189.191" y="125.768" width="16.2599" height="16.2599" rx="8.12996" transform="rotate(-11 189.191 125.768)" fill="black"/>
</g>
<g style="mix-blend-mode:overlay">
<rect x="198.238" y="129.703" width="27.9467" height="27.9467" rx="13.9734" transform="rotate(-11 198.238 129.703)" fill="black"/>
</g>
<rect x="356.378" y="130.686" width="63.8054" height="82.7888" transform="rotate(12.3389 356.378 130.686)" fill="#191718" stroke="white" stroke-width="0.527317"/>
<rect x="356.579" y="131" width="63.2781" height="63.2781" transform="rotate(12.3389 356.579 131)" fill="#FEF7BE"/>
<rect opacity="0.54" x="346.389" y="197.324" width="22.1473" height="5.80049" transform="rotate(12.3389 346.389 197.324)" fill="#6B6B6B"/>
<rect opacity="0.54" x="344.699" y="205.051" width="22.1473" height="2.63659" transform="rotate(12.3389 344.699 205.051)" fill="#6B6B6B"/>
<g style="mix-blend-mode:overlay">
<rect x="365.224" y="150.704" width="16.8742" height="16.8742" rx="8.43708" transform="rotate(12.3389 365.224 150.704)" fill="black"/>
</g>
<g style="mix-blend-mode:overlay">
<rect x="372.227" y="158.173" width="29.0025" height="29.0025" rx="14.5012" transform="rotate(12.3389 372.227 158.173)" fill="black"/>
</g>
<g filter="url(#filter2_d_4518_16331)">
<rect x="13" y="215.542" width="503" height="58.1244" rx="29.0622" fill="#191718"/>
<rect x="13.7452" y="216.287" width="501.51" height="56.6341" rx="28.317" stroke="white" stroke-width="1.49037"/>
</g>
<path d="M232.678 254V241.016C232.678 240.712 232.678 240.39 232.678 240.05C232.695 239.692 232.713 239.326 232.731 238.95C232.123 239.54 231.417 240.059 230.612 240.506C229.807 240.935 228.984 241.248 228.144 241.445L227.581 239.487C227.902 239.451 228.305 239.335 228.788 239.138C229.289 238.923 229.807 238.664 230.344 238.36C230.898 238.038 231.408 237.698 231.873 237.341C232.338 236.983 232.695 236.634 232.946 236.294H234.824V254H232.678ZM245.894 254.268C243.891 254.268 242.29 253.49 241.092 251.934C239.893 250.378 239.294 248.116 239.294 245.147C239.294 242.178 239.893 239.916 241.092 238.36C242.29 236.804 243.891 236.026 245.894 236.026C247.915 236.026 249.515 236.804 250.696 238.36C251.894 239.916 252.493 242.178 252.493 245.147C252.493 248.116 251.894 250.378 250.696 251.934C249.515 253.49 247.915 254.268 245.894 254.268ZM245.894 252.337C246.842 252.337 247.637 252.068 248.281 251.532C248.943 250.978 249.435 250.164 249.757 249.091C250.097 248.018 250.266 246.703 250.266 245.147C250.266 243.591 250.097 242.277 249.757 241.204C249.435 240.131 248.943 239.326 248.281 238.789C247.637 238.235 246.842 237.958 245.894 237.958C244.946 237.958 244.141 238.235 243.479 238.789C242.835 239.326 242.344 240.131 242.004 241.204C241.682 242.277 241.521 243.591 241.521 245.147C241.521 246.703 241.682 248.018 242.004 249.091C242.344 250.164 242.835 250.978 243.479 251.532C244.141 252.068 244.946 252.337 245.894 252.337ZM262.582 254.268C260.579 254.268 258.978 253.49 257.78 251.934C256.582 250.378 255.982 248.116 255.982 245.147C255.982 242.178 256.582 239.916 257.78 238.36C258.978 236.804 260.579 236.026 262.582 236.026C264.603 236.026 266.203 236.804 267.384 238.36C268.582 239.916 269.181 242.178 269.181 245.147C269.181 248.116 268.582 250.378 267.384 251.934C266.203 253.49 264.603 254.268 262.582 254.268ZM262.582 252.337C263.53 252.337 264.326 252.068 264.969 251.532C265.631 250.978 266.123 250.164 266.445 249.091C266.785 248.018 266.955 246.703 266.955 245.147C266.955 243.591 266.785 242.277 266.445 241.204C266.123 240.131 265.631 239.326 264.969 238.789C264.326 238.235 263.53 237.958 262.582 237.958C261.634 237.958 260.829 238.235 260.167 238.789C259.524 239.326 259.032 240.131 258.692 241.204C258.37 242.277 258.209 243.591 258.209 245.147C258.209 246.703 258.37 248.018 258.692 249.091C259.032 250.164 259.524 250.978 260.167 251.532C260.829 252.068 261.634 252.337 262.582 252.337ZM275.756 254L287.023 236.294H289.062L277.794 254H275.756ZM276.265 236.026C277.142 236.026 277.893 236.232 278.519 236.643C279.163 237.037 279.654 237.6 279.994 238.333C280.352 239.066 280.531 239.925 280.531 240.909C280.531 241.892 280.352 242.751 279.994 243.484C279.654 244.217 279.163 244.79 278.519 245.201C277.893 245.594 277.142 245.791 276.265 245.791C275.407 245.791 274.656 245.594 274.012 245.201C273.368 244.79 272.867 244.217 272.51 243.484C272.17 242.751 272 241.892 272 240.909C272 239.925 272.17 239.066 272.51 238.333C272.867 237.6 273.368 237.037 274.012 236.643C274.656 236.232 275.407 236.026 276.265 236.026ZM276.265 237.716C275.765 237.716 275.335 237.841 274.978 238.092C274.62 238.342 274.352 238.709 274.173 239.192C273.994 239.657 273.905 240.229 273.905 240.909C273.905 241.57 273.994 242.143 274.173 242.625C274.352 243.108 274.62 243.475 274.978 243.725C275.335 243.976 275.765 244.101 276.265 244.101C276.784 244.101 277.213 243.976 277.553 243.725C277.911 243.475 278.179 243.108 278.358 242.625C278.537 242.143 278.626 241.57 278.626 240.909C278.626 240.229 278.537 239.657 278.358 239.192C278.179 238.709 277.911 238.342 277.553 238.092C277.213 237.841 276.784 237.716 276.265 237.716ZM288.552 244.503C289.428 244.503 290.179 244.709 290.805 245.12C291.449 245.514 291.941 246.077 292.281 246.81C292.638 247.544 292.817 248.402 292.817 249.386C292.817 250.369 292.638 251.228 292.281 251.961C291.941 252.694 291.449 253.267 290.805 253.678C290.179 254.072 289.428 254.268 288.552 254.268C287.693 254.268 286.942 254.072 286.298 253.678C285.655 253.267 285.154 252.694 284.796 251.961C284.456 251.228 284.286 250.369 284.286 249.386C284.286 248.402 284.456 247.544 284.796 246.81C285.154 246.077 285.655 245.514 286.298 245.12C286.942 244.709 287.693 244.503 288.552 244.503ZM288.552 246.193C288.051 246.193 287.622 246.319 287.264 246.569C286.907 246.819 286.638 247.186 286.459 247.669C286.281 248.134 286.191 248.706 286.191 249.386C286.191 250.048 286.281 250.62 286.459 251.103C286.638 251.586 286.907 251.952 287.264 252.203C287.622 252.453 288.051 252.578 288.552 252.578C289.071 252.578 289.5 252.453 289.84 252.203C290.197 251.952 290.466 251.586 290.644 251.103C290.823 250.62 290.913 250.048 290.913 249.386C290.913 248.706 290.823 248.134 290.644 247.669C290.466 247.186 290.197 246.819 289.84 246.569C289.5 246.319 289.071 246.193 288.552 246.193Z" fill="white"/>
<path fill-rule="evenodd" clip-rule="evenodd" d="M44 252.801L54.75 244.856L44 236.912V231L62.75 244.856L44 258.713V252.801Z" fill="white"/>
<path fill-rule="evenodd" clip-rule="evenodd" d="M486 236.912L475.25 244.856L486 252.801L486 258.713L467.25 244.856L486 231L486 236.912Z" fill="white"/>
<rect x="361.413" y="260.613" width="75.4388" height="97.8834" transform="rotate(16.5 361.413 260.613)" fill="#191718" stroke="white" stroke-width="0.623461"/>
<rect x="361.623" y="261" width="74.8154" height="74.8154" transform="rotate(16.5 361.623 261)" fill="#DAFEBE"/>
<rect opacity="0.54" x="343.917" y="338.336" width="26.1854" height="6.85807" transform="rotate(16.5 343.917 338.336)" fill="#6B6B6B"/>
<rect opacity="0.54" x="341.261" y="347.302" width="26.1854" height="3.11731" transform="rotate(16.5 341.261 347.302)" fill="#6B6B6B"/>
<g style="mix-blend-mode:overlay">
<rect x="370.126" y="284.977" width="19.9508" height="19.9508" rx="9.97538" transform="rotate(16.5 370.126 284.977)" fill="black"/>
</g>
<g style="mix-blend-mode:overlay">
<rect x="377.743" y="294.386" width="34.2904" height="34.2904" rx="17.1452" transform="rotate(16.5 377.743 294.386)" fill="black"/>
</g>
<rect x="387.203" y="256.613" width="75.4388" height="97.8834" transform="rotate(16.5 387.203 256.613)" fill="#191718" stroke="white" stroke-width="0.623461"/>
<rect x="387.413" y="257" width="74.8154" height="74.8154" transform="rotate(16.5 387.413 257)" fill="#BEFEDF"/>
<rect opacity="0.54" x="369.707" y="334.336" width="26.1854" height="6.85807" transform="rotate(16.5 369.707 334.336)" fill="#6B6B6B"/>
<rect opacity="0.54" x="367.051" y="343.302" width="26.1854" height="3.11731" transform="rotate(16.5 367.051 343.302)" fill="#6B6B6B"/>
<g style="mix-blend-mode:overlay">
<rect x="395.917" y="280.977" width="19.9508" height="19.9508" rx="9.97538" transform="rotate(16.5 395.917 280.977)" fill="black"/>
</g>
<g style="mix-blend-mode:overlay">
<rect x="403.533" y="290.386" width="34.2904" height="34.2904" rx="17.1452" transform="rotate(16.5 403.533 290.386)" fill="black"/>
</g>
<defs>
<filter id="filter0_f_4518_16331" x="0.918503" y="0.918503" width="406.802" height="406.801" filterUnits="userSpaceOnUse" color-interpolation-filters="sRGB">
<feFlood flood-opacity="0" result="BackgroundImageFix"/>
<feBlend mode="normal" in="SourceGraphic" in2="BackgroundImageFix" result="shape"/>
<feGaussianBlur stdDeviation="75.071" result="effect1_foregroundBlur_4518_16331"/>
</filter>
<filter id="filter1_f_4518_16331" x="39.7453" y="28.3484" width="454.055" height="452.354" filterUnits="userSpaceOnUse" color-interpolation-filters="sRGB">
<feFlood flood-opacity="0" result="BackgroundImageFix"/>
<feBlend mode="normal" in="SourceGraphic" in2="BackgroundImageFix" result="shape"/>
<feGaussianBlur stdDeviation="66.8727" result="effect1_foregroundBlur_4518_16331"/>
</filter>
<filter id="filter2_d_4518_16331" x="13" y="215.542" width="507" height="62.1245" filterUnits="userSpaceOnUse" color-interpolation-filters="sRGB">
<feFlood flood-opacity="0" result="BackgroundImageFix"/>
<feColorMatrix in="SourceAlpha" type="matrix" values="0 0 0 0 0 0 0 0 0 0 0 0 0 0 0 0 0 0 127 0" result="hardAlpha"/>
<feOffset dx="4" dy="4"/>
<feComposite in2="hardAlpha" operator="out"/>
<feColorMatrix type="matrix" values="0 0 0 0 1 0 0 0 0 1 0 0 0 0 1 0 0 0 1 0"/>
<feBlend mode="normal" in2="BackgroundImageFix" result="effect1_dropShadow_4518_16331"/>
<feBlend mode="normal" in="SourceGraphic" in2="effect1_dropShadow_4518_16331" result="shape"/>
</filter>
</defs>
</svg>
