<svg width="20" height="20" viewBox="0 0 20 20" fill="none" xmlns="http://www.w3.org/2000/svg">
<circle cx="10" cy="10" r="10" fill="white"/>
<path d="M15.8873 6.27856C15.6866 6.1167 15.4474 5.89561 15.0115 5.84034C14.6025 5.78507 14.1859 6.06537 13.9042 6.25093C13.6226 6.43648 13.0902 6.9813 12.8703 7.14712C12.6504 7.31293 12.0871 7.4669 11.1805 8.02356C10.2738 8.58022 6.71674 10.9174 6.71674 10.9174L7.64267 10.9293L3.51458 13.1046H3.92739L3.33325 13.5665C3.33325 13.5665 3.85794 13.7086 4.29776 13.4244V13.5547C4.29776 13.5547 9.21288 11.5728 10.162 12.086L9.58325 12.2597C9.63341 12.2597 10.567 12.3229 10.567 12.3229C10.5897 12.5207 10.6547 12.711 10.7574 12.8803C10.8601 13.0495 10.9979 13.1935 11.1612 13.302C11.7245 13.681 11.736 13.8902 11.736 13.8902C11.736 13.8902 11.4428 14.0126 11.4428 14.1666C11.4428 14.1666 11.8749 14.0324 12.2762 14.0442C12.5308 14.0541 12.7834 14.0952 13.0285 14.1666C13.0285 14.1666 12.9976 14.0008 12.6079 13.8902C12.2183 13.7797 11.8325 13.3454 11.6434 13.1085C11.5276 12.9578 11.4522 12.7787 11.4244 12.5891C11.3967 12.3994 11.4177 12.2057 11.4853 12.0268C11.6203 11.6675 12.091 11.4701 13.0632 10.9569C14.209 10.3489 14.4714 9.89884 14.6334 9.54747C14.7954 9.19611 15.0346 8.49732 15.1697 8.16964C15.3394 7.74721 15.5478 7.52217 15.7214 7.38794C15.895 7.25371 16.6666 6.95761 16.6666 6.95761C16.6666 6.95761 16.0763 6.43253 15.8873 6.27856Z" fill="black"/>
</svg>
