<svg width="20" height="20" viewBox="0 0 20 20" fill="none" xmlns="http://www.w3.org/2000/svg">
<circle cx="9.99992" cy="9.99992" r="9.16667" fill="black"/>
<path d="M9.9994 1.65705e-08C11.9773 -0.000113819 13.9108 0.586293 15.5553 1.68506C17.1999 2.78383 18.4817 4.34561 19.2387 6.17289C19.9956 8.00018 20.1937 10.0109 19.8079 11.9507C19.4221 13.8906 18.4696 15.6725 17.071 17.0711C15.6725 18.4696 13.8906 19.422 11.9508 19.8079C10.0109 20.1937 8.00017 19.9956 6.1729 19.2387C4.34561 18.4817 2.78384 17.1999 1.68506 15.5554C0.586294 13.9107 -0.000113403 11.9772 1.64495e-08 9.9994C1.64495e-08 8.68628 0.258645 7.38599 0.761161 6.17282C1.26368 4.95962 2.00023 3.85729 2.92876 2.92876C3.85729 2.00023 4.95962 1.26368 6.17281 0.761159C7.38599 0.258645 8.68629 1.65705e-08 9.9994 1.65705e-08ZM6.73698 9.9994C6.73698 14.8319 9.9994 18.7493 9.9994 18.7493C9.9994 18.7493 13.2618 14.8319 13.2618 9.9994C13.2618 5.16687 9.9994 1.25014 9.9994 1.25014C9.9994 1.25014 6.73698 5.16745 6.73698 9.9994Z" fill="#4FFFB0"/>
</svg>
