<svg width="53" height="53" viewBox="0 0 53 53" fill="none" xmlns="http://www.w3.org/2000/svg">
<g filter="url(#filter0_d_10894_11088)">
<rect width="49" height="49" rx="24.5" fill="#E6007A"/>
<rect x="0.5" y="0.5" width="48" height="48" rx="24" stroke="black"/>
<path d="M25.0004 16.4114C28.0459 16.4114 30.5148 14.9762 30.5148 13.2057C30.5148 11.4352 28.0459 10 25.0004 10C21.9549 10 19.486 11.4352 19.486 13.2057C19.486 14.9762 21.9549 16.4114 25.0004 16.4114Z" fill="white"/>
<path d="M25.0004 40.5637C28.0459 40.5637 30.5148 39.1285 30.5148 37.358C30.5148 35.5876 28.0459 34.1523 25.0004 34.1523C21.9549 34.1523 19.486 35.5876 19.486 37.358C19.486 39.1285 21.9549 40.5637 25.0004 40.5637Z" fill="white"/>
<path d="M17.3158 20.8486C18.8386 18.2124 18.8287 15.3572 17.2937 14.4714C15.7588 13.5856 13.28 15.0045 11.7572 17.6408C10.2344 20.277 10.2443 23.1322 11.7793 24.018C13.3143 24.9038 15.793 23.4848 17.3158 20.8486Z" fill="white"/>
<path d="M38.2411 32.9246C39.7639 30.2884 39.7548 27.4337 38.2209 26.5484C36.687 25.6632 34.2091 27.0827 32.6863 29.7189C31.1635 32.3551 31.1726 35.2098 32.7065 36.095C34.2404 36.9803 36.7184 35.5608 38.2411 32.9246Z" fill="white"/>
<path d="M17.2946 36.095C18.8295 35.2092 18.8394 32.354 17.3167 29.7178C15.7939 27.0816 13.3151 25.6626 11.7801 26.5484C10.2452 27.4342 10.2353 30.2894 11.7581 32.9256C13.2808 35.5619 15.7596 36.9808 17.2946 36.095Z" fill="white"/>
<path d="M38.2226 24.018C39.7566 23.1327 39.7656 20.278 38.2428 17.6418C36.7201 15.0056 34.2421 13.5861 32.7082 14.4714C31.1743 15.3566 31.1652 18.2113 32.688 20.8475C34.2108 23.4837 36.6887 24.9032 38.2226 24.018Z" fill="white"/>
</g>
<defs>
<filter id="filter0_d_10894_11088" x="0" y="0" width="53" height="53" filterUnits="userSpaceOnUse" color-interpolation-filters="sRGB">
<feFlood flood-opacity="0" result="BackgroundImageFix"/>
<feColorMatrix in="SourceAlpha" type="matrix" values="0 0 0 0 0 0 0 0 0 0 0 0 0 0 0 0 0 0 127 0" result="hardAlpha"/>
<feOffset dx="4" dy="4"/>
<feComposite in2="hardAlpha" operator="out"/>
<feColorMatrix type="matrix" values="0 0 0 0 0 0 0 0 0 0 0 0 0 0 0 0 0 0 1 0"/>
<feBlend mode="normal" in2="BackgroundImageFix" result="effect1_dropShadow_10894_11088"/>
<feBlend mode="normal" in="SourceGraphic" in2="effect1_dropShadow_10894_11088" result="shape"/>
</filter>
</defs>
</svg>
