<svg width="53" height="53" viewBox="0 0 53 53" fill="none" xmlns="http://www.w3.org/2000/svg">
<g filter="url(#filter0_d_10974_5526)">
<rect width="49" height="49" rx="24.5" fill="#E6007A"/>
<rect x="0.5" y="0.5" width="48" height="48" rx="24" stroke="white"/>
<path d="M25.0003 16.4114C28.0458 16.4114 30.5147 14.9762 30.5147 13.2057C30.5147 11.4352 28.0458 10 25.0003 10C21.9547 10 19.4858 11.4352 19.4858 13.2057C19.4858 14.9762 21.9547 16.4114 25.0003 16.4114Z" fill="white"/>
<path d="M25.0003 40.5637C28.0458 40.5637 30.5147 39.1285 30.5147 37.358C30.5147 35.5876 28.0458 34.1523 25.0003 34.1523C21.9547 34.1523 19.4858 35.5876 19.4858 37.358C19.4858 39.1285 21.9547 40.5637 25.0003 40.5637Z" fill="white"/>
<path d="M17.3158 20.8486C18.8386 18.2124 18.8287 15.3572 17.2937 14.4714C15.7588 13.5856 13.28 15.0045 11.7572 17.6408C10.2344 20.277 10.2443 23.1322 11.7793 24.018C13.3143 24.9038 15.793 23.4848 17.3158 20.8486Z" fill="white"/>
<path d="M38.2412 32.9246C39.764 30.2884 39.755 27.4337 38.221 26.5484C36.6871 25.6632 34.2092 27.0827 32.6864 29.7189C31.1636 32.3551 31.1727 35.2098 32.7066 36.095C34.2405 36.9803 36.7185 35.5608 38.2412 32.9246Z" fill="white"/>
<path d="M17.2947 36.095C18.8297 35.2092 18.8395 32.354 17.3168 29.7178C15.794 27.0816 13.3152 25.6626 11.7803 26.5484C10.2453 27.4342 10.2354 30.2894 11.7582 32.9256C13.281 35.5619 15.7597 36.9808 17.2947 36.095Z" fill="white"/>
<path d="M38.2225 24.018C39.7564 23.1327 39.7655 20.278 38.2427 17.6418C36.7199 15.0056 34.242 13.5861 32.7081 14.4714C31.1742 15.3566 31.1651 18.2113 32.6879 20.8475C34.2106 23.4837 36.6886 24.9032 38.2225 24.018Z" fill="white"/>
</g>
<defs>
<filter id="filter0_d_10974_5526" x="0" y="0" width="53" height="53" filterUnits="userSpaceOnUse" color-interpolation-filters="sRGB">
<feFlood flood-opacity="0" result="BackgroundImageFix"/>
<feColorMatrix in="SourceAlpha" type="matrix" values="0 0 0 0 0 0 0 0 0 0 0 0 0 0 0 0 0 0 127 0" result="hardAlpha"/>
<feOffset dx="4" dy="4"/>
<feComposite in2="hardAlpha" operator="out"/>
<feColorMatrix type="matrix" values="0 0 0 0 1 0 0 0 0 1 0 0 0 0 1 0 0 0 1 0"/>
<feBlend mode="normal" in2="BackgroundImageFix" result="effect1_dropShadow_10974_5526"/>
<feBlend mode="normal" in="SourceGraphic" in2="effect1_dropShadow_10974_5526" result="shape"/>
</filter>
</defs>
</svg>
