<svg width="636" height="635" viewBox="0 0 636 635" fill="none" xmlns="http://www.w3.org/2000/svg">
<path fill-rule="evenodd" clip-rule="evenodd" d="M318 634.6C493.3 634.6 635.3 492.5 635.3 317.3C635.3 142.1 493.2 0.100006 318 0.100006C142.8 0.100006 0.700012 142 0.700012 317.3C0.700012 492.6 142.7 634.6 318 634.6ZM374.6 390.4H442.2L361.2 206.1H276.7L195.8 390.4H263.4L276.1 359.4H361.9L374.6 390.4ZM296.7 309L319.1 254L341.4 309H296.7ZM319 167C344.902 167 365.9 146.002 365.9 120.1C365.9 94.1979 344.902 73.2 319 73.2C293.098 73.2 272.1 94.1979 272.1 120.1C272.1 146.002 293.098 167 319 167ZM365.9 515.1C365.9 541.002 344.902 562 319 562C293.098 562 272.1 541.002 272.1 515.1C272.1 489.198 293.098 468.2 319 468.2C344.902 468.2 365.9 489.198 365.9 515.1ZM145.8 260.9C171.702 260.9 192.7 239.902 192.7 214C192.7 188.098 171.702 167.1 145.8 167.1C119.898 167.1 98.9 188.098 98.9 214C98.9 239.902 119.898 260.9 145.8 260.9ZM539.2 214C539.2 239.902 518.202 260.9 492.3 260.9C466.398 260.9 445.4 239.902 445.4 214C445.4 188.098 466.398 167.1 492.3 167.1C518.202 167.1 539.2 188.098 539.2 214ZM145.8 469.7C171.702 469.7 192.7 448.702 192.7 422.8C192.7 396.898 171.702 375.9 145.8 375.9C119.898 375.9 98.9 396.898 98.9 422.8C98.9 448.702 119.898 469.7 145.8 469.7ZM539.2 422.8C539.2 448.702 518.202 469.7 492.3 469.7C466.398 469.7 445.4 448.702 445.4 422.8C445.4 396.898 466.398 375.9 492.3 375.9C518.202 375.9 539.2 396.898 539.2 422.8Z" fill="white"/>
</svg>
