<svg width="14" height="15" viewBox="0 0 14 15" fill="none" xmlns="http://www.w3.org/2000/svg">
<path fill-rule="evenodd" clip-rule="evenodd" d="M9.68453 1.56068C9.68453 2.42262 8.48256 3.12136 6.99985 3.12136C5.51715 3.12136 4.31518 2.42262 4.31518 1.56068C4.31518 0.698739 5.51715 0 6.99985 0C8.48256 0 9.68453 0.698739 9.68453 1.56068ZM9.68453 13.3201C9.68453 14.182 8.48256 14.8808 6.99985 14.8808C5.51715 14.8808 4.31518 14.182 4.31518 13.3201C4.31518 12.4581 5.51715 11.7594 6.99985 11.7594C8.48256 11.7594 9.68453 12.4581 9.68453 13.3201ZM3.25905 5.28166C4.0004 3.99823 3.99559 2.6082 3.2483 2.17694C2.50101 1.74568 1.29423 2.4365 0.552882 3.71993C-0.188471 5.00336 -0.183659 6.39339 0.563629 6.82465C1.31092 7.25591 2.5177 6.56509 3.25905 5.28166ZM13.437 8.0566C14.1838 8.48757 14.1882 9.87736 13.4469 11.1608C12.7055 12.4442 11.4991 13.1353 10.7523 12.7043C10.0056 12.2733 10.0012 10.8835 10.7425 9.60012C11.4839 8.31669 12.6902 7.62563 13.437 8.0566ZM3.2483 12.7039C3.99559 12.2727 4.0004 10.8826 3.25905 9.5992C2.5177 8.31577 1.31092 7.62495 0.563629 8.05621C-0.183659 8.48747 -0.188471 9.8775 0.552882 11.1609C1.29423 12.4444 2.50101 13.1352 3.2483 12.7039ZM13.4469 3.72085C14.1882 5.00428 14.1838 6.39408 13.437 6.82505C12.6902 7.25602 11.4839 6.56496 10.7425 5.28153C10.0012 3.9981 10.0056 2.6083 10.7523 2.17733C11.4991 1.74636 12.7055 2.43742 13.4469 3.72085Z" fill="black"/>
</svg>
