<svg width="14" height="15" viewBox="0 0 14 15" fill="none" xmlns="http://www.w3.org/2000/svg">
<path fill-rule="evenodd" clip-rule="evenodd" d="M9.68448 1.56084C9.68448 2.42278 8.48252 3.12152 6.99981 3.12152C5.51711 3.12152 4.31514 2.42278 4.31514 1.56084C4.31514 0.698903 5.51711 0.000163757 6.99981 0.000163757C8.48252 0.000163757 9.68448 0.698903 9.68448 1.56084ZM9.68448 13.3202C9.68448 14.1822 8.48252 14.8809 6.99981 14.8809C5.51711 14.8809 4.31514 14.1822 4.31514 13.3202C4.31514 12.4583 5.51711 11.7596 6.99981 11.7596C8.48252 11.7596 9.68448 12.4583 9.68448 13.3202ZM3.25901 5.28182C4.00036 3.99839 3.99555 2.60836 3.24826 2.1771C2.50097 1.74584 1.29419 2.43666 0.552839 3.72009C-0.188513 5.00352 -0.183702 6.39355 0.563586 6.82481C1.31087 7.25608 2.51765 6.56526 3.25901 5.28182ZM13.437 8.05676C14.1838 8.48773 14.1882 9.87753 13.4468 11.161C12.7055 12.4444 11.4991 13.1354 10.7523 12.7045C10.0055 12.2735 10.0011 10.8837 10.7425 9.60028C11.4838 8.31685 12.6902 7.62579 13.437 8.05676ZM3.24826 12.7041C3.99555 12.2728 4.00036 10.8828 3.25901 9.59936C2.51765 8.31593 1.31087 7.62511 0.563586 8.05637C-0.183702 8.48763 -0.188514 9.87767 0.552839 11.1611C1.29419 12.4445 2.50097 13.1353 3.24826 12.7041ZM13.4468 3.72101C14.1882 5.00445 14.1838 6.39424 13.437 6.82521C12.6902 7.25618 11.4838 6.56512 10.7425 5.28169C10.0011 3.99826 10.0055 2.60847 10.7523 2.1775C11.4991 1.74653 12.7055 2.43758 13.4468 3.72101Z" fill="white"/>
</svg>
