<svg width="512" height="512" viewBox="0 0 512 512" fill="none" xmlns="http://www.w3.org/2000/svg">
<path fill-rule="evenodd" clip-rule="evenodd" d="M512 256C512 397.385 397.385 512 256 512C114.615 512 0 397.385 0 256C0 114.615 114.615 0 256 0C397.385 0 512 114.615 512 256ZM286.61 60.3496L276.433 125.861H276.446C280.96 126.574 285.448 127.498 289.87 128.673L272.578 193.801C267.206 192.376 261.635 191.65 255.999 191.65H255.841V58H255.999C266.255 58 276.551 58.792 286.61 60.3496ZM190.514 142.981L223.778 200.283C228.635 197.471 233.836 195.293 239.235 193.841L222.022 129.861C226.405 128.686 230.853 127.709 235.328 126.996L224.755 60.4551C214.525 62.0787 204.361 64.5339 194.527 67.7415L215.092 130.771C208.545 132.91 202.183 135.563 196.045 138.691L165.817 79.6875C156.63 84.3999 147.733 89.8779 139.377 95.9762L179.096 150.4C182.752 147.733 186.58 145.265 190.501 142.981H190.514ZM139.497 196.852L79.4504 166.281C74.7512 175.508 70.7516 185.184 67.5704 195.031L131.683 215.768C133.782 209.287 136.408 202.924 139.497 196.852ZM311.691 223.739L368.979 190.448L368.966 190.435C366.695 186.515 364.214 182.687 361.548 179.03L415.958 139.285C422.069 147.641 427.547 156.524 432.26 165.712L373.269 195.979C376.411 202.117 379.064 208.48 381.202 215.027L444.219 194.422C447.44 204.256 449.895 214.42 451.519 224.65L384.977 235.249C384.265 230.788 383.288 226.339 382.113 221.957L318.133 239.196C316.681 233.797 314.516 228.596 311.691 223.739ZM345.615 79.3975L345.609 79.3948L345.615 79.3843V79.3975ZM345.609 79.3948L315.083 139.457C308.998 136.369 302.635 133.742 296.154 131.656L316.852 67.5307C326.697 70.7113 336.371 74.6968 345.609 79.3948ZM288.048 200.192L321.695 141.808C325.668 144.092 329.51 146.586 333.219 149.279L372.132 95.6212C380.488 101.68 388.447 108.452 395.76 115.751L301.407 210.422C297.407 206.435 292.919 203.003 288.048 200.192ZM141.846 190.238L200.217 223.912C203.028 219.041 206.474 214.553 210.46 210.553L115.816 116.173C108.516 123.486 101.745 131.432 95.6728 139.788L149.318 178.728C146.625 182.437 144.13 186.278 141.833 190.238H141.846ZM193.815 239.396L128.699 222.064C127.524 226.486 126.587 230.975 125.888 235.489L60.376 225.285C58.8052 235.383 58 245.719 58 256.002H191.65C191.65 250.352 192.376 244.768 193.801 239.396H193.815ZM432.549 345.719L372.503 315.148C375.591 309.076 378.218 302.714 380.317 296.232L444.429 316.969C441.248 326.817 437.249 336.492 432.549 345.719ZM321.484 369.019L288.22 311.717C283.362 314.529 278.162 316.707 272.763 318.159L289.976 382.139C285.593 383.314 281.145 384.291 276.67 385.004L287.243 451.558C297.473 449.934 307.637 447.479 317.471 444.272L296.906 381.242C303.453 379.103 309.815 376.45 315.953 373.322L346.181 432.326C355.368 427.613 364.265 422.135 372.621 416.037L332.902 361.613C329.246 364.28 325.418 366.748 321.497 369.032L321.484 369.019ZM200.309 288.261L143.021 321.551V321.564C145.292 325.485 147.773 329.313 150.44 332.969L96.0293 372.714C89.9177 364.359 84.4397 355.475 79.7273 346.288L138.718 316.02C135.576 309.882 132.923 303.52 130.785 296.973L67.7681 317.578C64.5474 307.744 62.0922 297.58 60.4686 287.35L127.023 276.75C127.736 281.212 128.712 285.66 129.887 290.043L193.868 272.803C195.32 278.202 197.484 283.403 200.309 288.261ZM166.384 432.602L166.389 432.605L166.384 432.615V432.602ZM166.389 432.605L196.915 372.542C203.001 375.631 209.363 378.257 215.844 380.343L195.147 444.469C185.301 441.288 175.628 437.303 166.389 432.605ZM190.306 370.187L190.303 370.192H190.316L190.306 370.187ZM223.95 311.809L190.306 370.187C186.336 367.905 182.499 365.412 178.792 362.721L139.879 416.379C131.523 410.32 123.564 403.549 116.251 396.249L210.591 301.579C214.591 305.565 219.079 308.997 223.95 311.809ZM370.166 321.761L311.796 288.088C308.984 292.959 305.539 297.447 301.553 301.446L396.183 395.839C403.483 388.527 410.255 380.58 416.327 372.225L362.682 333.285C365.375 329.576 367.869 325.734 370.166 321.774V321.761ZM239.42 318.202V318.198H239.407L239.42 318.202ZM222.128 383.327L239.42 318.202C244.788 319.625 250.354 320.35 255.986 320.35H256.145V454H255.986C245.73 454 235.434 453.208 225.376 451.65L235.553 386.139C231.038 385.426 226.55 384.502 222.128 383.327ZM320.349 256.013C320.348 261.658 319.622 267.237 318.198 272.605L383.313 289.937C384.488 285.515 385.425 281.027 386.125 276.512L451.623 286.729C453.194 276.631 453.999 266.296 453.999 256.013H320.349Z" fill="black"/>
</svg>
