<svg width="129" height="32" viewBox="0 0 129 32" fill="none" xmlns="http://www.w3.org/2000/svg">
<path d="M31.0278 18.3514L25.5699 23.9024C25.1075 24.3727 25.108 25.1371 25.5708 25.6068L29.7415 29.8393C30.4524 30.5502 31.6146 30.5502 32.3254 29.8393L45.1088 17.0537C45.8198 16.3427 45.8198 15.1803 45.1088 14.4694L32.3254 1.69507C31.6146 0.984129 30.4524 0.984129 29.7415 1.69507L25.5708 5.92756C25.108 6.39728 25.1075 7.16173 25.5699 7.63197L31.0278 13.183C32.4495 14.6048 32.4495 16.9295 31.0278 18.3514Z" fill="#0A6E5C"/>
<path d="M14.6141 18.3514L20.0721 23.9024C20.5345 24.3727 20.5341 25.1371 20.0713 25.6068L15.9004 29.8393C15.1896 30.5502 14.0275 30.5502 13.3166 29.8393L0.533117 17.0537C-0.177706 16.3427 -0.177706 15.1803 0.533117 14.4694L13.3166 1.69507C14.0275 0.984129 15.1896 0.984129 15.9004 1.69507L20.0713 5.92756C20.5341 6.39728 20.5345 7.16173 20.0721 7.63197L14.6141 13.183C13.1926 14.6048 13.1926 16.9295 14.6141 18.3514Z" fill="#21BF73"/>
<path d="M16.046 16.8232C15.4704 16.2399 15.4704 15.2941 16.046 14.7109L21.7785 8.90185C22.3541 8.31852 23.2875 8.31852 23.8631 8.90185L29.5956 14.7109C30.1712 15.2941 30.1712 16.2399 29.5956 16.8232L23.8631 22.6322C23.2875 23.2155 22.3541 23.2155 21.7785 22.6322L16.046 16.8232Z" fill="#21BF73"/>
<path d="M69.8058 24.5307H65.6778L63.4013 18.5752C63.2178 18.1061 62.9343 17.7794 62.5506 17.5952C62.1837 17.4109 61.7167 17.3188 61.1496 17.3188H58.6228V24.5307H54.77V6.63892H62.7008C64.7688 6.63892 66.3366 7.09123 67.4041 7.99587C68.4715 8.90052 69.0052 10.1988 69.0052 11.8909C69.0052 13.0803 68.6884 14.1022 68.0546 14.9566C67.4374 15.8109 66.5451 16.4225 65.3775 16.791C66.4283 17.0087 67.1873 17.7376 67.6543 18.9773L69.8058 24.5307ZM62.1253 14.3283C63.2427 14.3283 64.06 14.1441 64.577 13.7755C65.094 13.3902 65.3526 12.7955 65.3526 11.9914C65.3526 11.1873 65.094 10.6009 64.577 10.2324C64.06 9.84705 63.2427 9.65439 62.1253 9.65439H58.5727V14.3283H62.1253Z" fill="white"/>
<path d="M84.941 11.7906V24.5309H81.2133V22.6462C80.8298 23.2995 80.2878 23.8105 79.5872 24.179C78.8868 24.5477 78.0946 24.732 77.2106 24.732C76.1098 24.732 75.134 24.4638 74.2835 23.9279C73.4495 23.3917 72.7906 22.6294 72.307 21.6412C71.8401 20.636 71.6066 19.48 71.6066 18.1732C71.6066 16.8666 71.8401 15.7023 72.307 14.6803C72.7906 13.6584 73.4579 12.8711 74.3084 12.3183C75.1591 11.7487 76.1264 11.4639 77.2106 11.4639C78.0946 11.4639 78.8868 11.6565 79.5872 12.0418C80.2878 12.4271 80.8298 12.9465 81.2133 13.5998V11.7906H84.941ZM78.3113 21.8421C79.2454 21.8421 79.9626 21.5238 80.4628 20.8872C80.9632 20.2505 81.2133 19.3292 81.2133 18.123C81.2133 16.9169 80.9632 15.9954 80.4628 15.3589C79.9626 14.7056 79.2454 14.3788 78.3113 14.3788C77.3773 14.3788 76.6518 14.7139 76.1348 15.3839C75.6177 16.054 75.3592 16.9838 75.3592 18.1732C75.3592 19.3627 75.6094 20.2758 76.1098 20.9123C76.6268 21.5322 77.3607 21.8421 78.3113 21.8421Z" fill="white"/>
<path d="M103.501 11.4639C104.953 11.4639 106.028 11.9078 106.729 12.7957C107.446 13.6668 107.804 15.007 107.804 16.8163V24.5309H104.027V16.942C104.027 16.054 103.885 15.4175 103.602 15.0321C103.318 14.6302 102.851 14.4291 102.201 14.4291C101.434 14.4291 100.842 14.6971 100.424 15.2332C100.007 15.7692 99.799 16.5232 99.799 17.4948V24.5309H96.0208V16.942C96.0208 16.0708 95.8711 15.4343 95.5707 15.0321C95.2878 14.6302 94.8287 14.4291 94.1951 14.4291C93.4274 14.4291 92.8277 14.6971 92.3931 15.2332C91.9769 15.7692 91.7679 16.5232 91.7679 17.4948V24.5309H87.9905V15.4343C87.9905 14.0773 87.9237 12.8627 87.7903 11.7906H91.3425L91.568 13.7003C91.9514 12.98 92.4853 12.4271 93.1692 12.0418C93.8692 11.6565 94.6707 11.4639 95.5707 11.4639C97.4557 11.4639 98.7063 12.2512 99.3235 13.826C99.7406 13.1056 100.316 12.536 101.05 12.1172C101.8 11.6817 102.618 11.4639 103.501 11.4639Z" fill="white"/>
<path d="M118.541 11.4639C119.625 11.4639 120.593 11.7487 121.444 12.3183C122.293 12.8711 122.952 13.6584 123.42 14.6803C123.904 15.7023 124.145 16.8666 124.145 18.1732C124.145 19.48 123.912 20.636 123.444 21.6412C122.978 22.6294 122.319 23.3917 121.468 23.9279C120.617 24.4638 119.642 24.732 118.541 24.732C117.657 24.732 116.865 24.5477 116.165 24.179C115.464 23.8105 114.93 23.2995 114.564 22.6462V30.3727H110.785V15.4343C110.785 14.0773 110.719 12.8627 110.585 11.7906H114.138L114.388 13.9014C114.721 13.1475 115.255 12.5528 115.989 12.1172C116.74 11.6817 117.59 11.4639 118.541 11.4639ZM117.465 21.8421C118.399 21.8421 119.117 21.5322 119.617 20.9123C120.117 20.2758 120.367 19.3627 120.367 18.1732C120.367 16.9838 120.109 16.054 119.591 15.3839C119.091 14.7139 118.383 14.3788 117.465 14.3788C116.532 14.3788 115.806 14.7056 115.288 15.3589C114.788 15.9954 114.538 16.9169 114.538 18.123C114.538 19.3292 114.788 20.2505 115.288 20.8872C115.806 21.5238 116.532 21.8421 117.465 21.8421Z" fill="white"/>
</svg>
