<svg width="172" height="56" viewBox="0 0 172 56" fill="none" xmlns="http://www.w3.org/2000/svg">
<g clip-path="url(#clip0_3446_2439)">
<path d="M28.0914 55.3162C43.0972 55.3162 55.2617 43.1516 55.2617 28.1459C55.2617 13.1401 43.0972 0.975586 28.0914 0.975586C13.0857 0.975586 0.921143 13.1401 0.921143 28.1459C0.921143 43.1516 13.0857 55.3162 28.0914 55.3162Z" fill="url(#paint0_linear_3446_2439)"/>
<path d="M45.2479 26.485L37.5736 18.8106L37.5597 18.7967L37.5293 18.7701C37.4796 18.7252 37.4277 18.683 37.3736 18.6435C37.3356 18.6131 37.2976 18.584 37.2571 18.5574C37.2394 18.5448 37.2217 18.5347 37.2027 18.5233C36.7652 18.2367 36.2359 18.1252 35.7199 18.2108C35.204 18.2964 34.7391 18.5729 34.4175 18.9853L22.4819 30.9222V20.288C22.4819 19.729 22.2599 19.1928 21.8646 18.7975C21.4693 18.4023 20.9331 18.1802 20.3741 18.1802C19.8151 18.1802 19.2789 18.4023 18.8836 18.7975C18.4883 19.1928 18.2663 19.729 18.2663 20.288V30.9222L13.9088 26.5647C13.5105 26.1849 12.9794 25.976 12.4291 25.9825C11.8788 25.989 11.3528 26.2106 10.9637 26.5997C10.5745 26.9889 10.353 27.5148 10.3465 28.0651C10.3399 28.6155 10.5489 29.1465 10.9287 29.5448L18.884 37.5002C18.934 37.5508 18.9869 37.5986 19.0423 37.6432C19.0955 37.6863 19.1512 37.7281 19.2069 37.7698C19.4943 37.9561 19.8228 38.0695 20.1639 38.1003H20.1728C20.2412 38.1066 20.3095 38.1104 20.3779 38.1104H20.4095C20.4669 38.1104 20.5239 38.1078 20.5804 38.1028H20.6222C20.6767 38.0965 20.7311 38.0901 20.7843 38.0787H20.8083C20.8678 38.0661 20.9273 38.0521 20.9856 38.0344H20.9957C21.0592 38.0153 21.1218 37.9929 21.183 37.9673C21.2704 37.9312 21.355 37.8889 21.4362 37.8407L21.4844 37.8129C21.564 37.7642 21.6401 37.7101 21.7122 37.6508L21.7337 37.6318C21.7781 37.5939 21.8224 37.5559 21.8603 37.5128L33.963 25.4025V36.0038C33.963 36.5628 34.1851 37.099 34.5804 37.4943C34.9757 37.8896 35.5119 38.1116 36.0709 38.1116C36.6299 38.1116 37.1661 37.8896 37.5614 37.4943C37.9567 37.099 38.1787 36.5628 38.1787 36.0038V25.3696L42.2678 29.4663C42.6648 29.8538 43.1984 30.0692 43.7531 30.0658C44.3078 30.0624 44.8388 29.8404 45.231 29.4481C45.6231 29.0558 45.8448 28.5247 45.848 27.97C45.8512 27.4153 45.6356 26.8817 45.2479 26.485Z" fill="white"/>
<path d="M64.754 21.8033H71.0079V38.1395H74.754V21.8033H81.0079V18.3042H64.754V21.8033Z" fill="white"/>
<path d="M89.2164 23.2288C88.7729 23.2595 88.334 23.338 87.9073 23.463C87.4965 23.5825 87.1031 23.7558 86.7376 23.9782C86.2777 24.2466 85.8751 24.6028 85.5526 25.0264C85.4005 25.2276 85.2626 25.4391 85.1399 25.6594V23.2629H81.8345V38.1394H85.6147V30.536C85.6046 30.0142 85.6812 29.4945 85.8413 28.9978C85.9862 28.5582 86.2218 28.154 86.5328 27.8112C86.8437 27.4684 87.2232 27.1947 87.6465 27.0077C88.1118 26.7899 88.6138 26.6611 89.1265 26.6279C89.6104 26.58 90.099 26.6229 90.5671 26.7545V23.2629C90.1191 23.2073 89.6667 23.1959 89.2164 23.2288Z" fill="white"/>
<path d="M104.782 25.5492C104.294 24.5904 103.47 23.8453 102.467 23.4565C101.449 23.0514 100.282 22.8489 98.9682 22.8489C97.1781 22.8489 95.764 23.235 94.7259 24.0072C93.7088 24.7485 92.9637 25.8036 92.6054 27.0101L95.9931 28.0837C96.2328 27.4034 96.6506 26.9308 97.2465 26.6658C97.7856 26.4121 98.3724 26.2758 98.9682 26.2657C99.9607 26.2657 100.668 26.4725 101.09 26.8861C101.42 27.2089 101.618 27.6811 101.689 28.2913C101.056 28.3862 100.454 28.4761 99.8911 28.5584C98.9281 28.701 98.0651 28.8504 97.3021 29.0066C96.6334 29.1376 95.9751 29.317 95.3323 29.5433C94.631 29.7827 93.983 30.1564 93.4245 30.6435C92.9666 31.0573 92.6146 31.5747 92.3978 32.1525C92.1811 32.7575 92.0739 33.3962 92.0813 34.0388C92.0725 34.831 92.2697 35.6119 92.6535 36.3049C93.0446 37.0028 93.6276 37.574 94.3334 37.9507C95.0728 38.36 95.975 38.5642 97.0401 38.5634C98.3263 38.5634 99.3893 38.3406 100.229 37.895C100.95 37.4929 101.588 36.9572 102.109 36.3163V38.1507H105.388V29.0471C105.391 28.4312 105.363 27.8156 105.304 27.2026C105.241 26.6224 105.063 26.0605 104.782 25.5492ZM101.282 33.621C101.128 33.907 100.936 34.1709 100.711 34.4059C100.389 34.7501 100.006 35.0325 99.5822 35.2389C99.0385 35.498 98.4408 35.623 97.8389 35.6035C97.4582 35.613 97.0792 35.5476 96.7236 35.4111C96.4333 35.3003 96.1819 35.1066 96.0007 34.8541C95.8267 34.5963 95.7381 34.2902 95.7475 33.9793C95.7444 33.7447 95.7992 33.5129 95.9071 33.3045C96.0284 33.0839 96.1975 32.8931 96.4021 32.7462C96.6756 32.5503 96.9735 32.3907 97.2882 32.2715C97.653 32.139 98.0255 32.0287 98.4036 31.9411C98.8255 31.8398 99.3813 31.7271 100.071 31.6031C100.51 31.5246 101.047 31.4309 101.66 31.3271C101.652 31.5917 101.641 31.8765 101.62 32.2133C101.6 32.7 101.485 33.1782 101.282 33.621Z" fill="white"/>
<path d="M122.536 26.8102C122.353 26.1328 122.058 25.4908 121.662 24.9113C121.221 24.2783 120.632 23.7629 119.947 23.4098C119.212 23.0157 118.262 22.8186 117.096 22.8186C115.636 22.8186 114.426 23.1351 113.466 23.7681C113.026 24.059 112.626 24.4058 112.275 24.7999V23.263H108.942V38.1394H112.739V30.5917C112.739 29.6633 112.842 28.9193 113.048 28.3598C113.254 27.8002 113.52 27.3757 113.846 27.0862C114.139 26.8123 114.493 26.6115 114.879 26.5001C115.215 26.4033 115.562 26.3522 115.912 26.3481C116.71 26.3481 117.328 26.5275 117.764 26.8862C118.195 27.2363 118.522 27.6984 118.709 28.2218C118.897 28.7336 119.013 29.2692 119.053 29.8131C119.09 30.3406 119.108 30.7744 119.107 31.1145V38.1394H122.905V29.7916C122.905 29.5384 122.887 29.1497 122.851 28.6066C122.803 27.9992 122.698 27.3976 122.536 26.8102Z" fill="white"/>
<path d="M136.565 30.2637C135.88 29.8754 134.973 29.5336 133.844 29.2382C132.687 28.9445 131.826 28.7057 131.262 28.5217C130.697 28.3377 130.325 28.1588 130.147 27.9849C130.059 27.9017 129.99 27.801 129.943 27.6894C129.897 27.5777 129.874 27.4576 129.877 27.3367C129.877 26.905 130.086 26.5771 130.504 26.3455C130.921 26.1138 131.476 26.0252 132.163 26.0708C132.87 26.1256 133.431 26.3138 133.844 26.6354C134.048 26.7924 134.216 26.9897 134.34 27.215C134.463 27.4402 134.538 27.6886 134.561 27.9444L138.391 27.2544C138.278 26.3921 137.922 25.5797 137.364 24.9124C136.775 24.2284 136.024 23.7031 135.18 23.3844C134.191 23.0099 133.139 22.8273 132.081 22.8463C130.878 22.8463 129.834 23.0371 128.948 23.4185C128.119 23.7534 127.403 24.3183 126.885 25.0466C126.39 25.7796 126.135 26.6486 126.156 27.5329C126.136 28.2141 126.302 28.8878 126.637 29.4813C126.959 30.0197 127.483 30.4814 128.208 30.8663C128.934 31.2511 129.905 31.6001 131.12 31.9132C132.194 32.1985 132.985 32.428 133.495 32.6019C134.001 32.7766 134.333 32.9526 134.48 33.1323C134.635 33.3352 134.713 33.5864 134.7 33.8413C134.709 34.0555 134.663 34.2684 134.566 34.4599C134.47 34.6514 134.327 34.8154 134.15 34.9364C133.78 35.1971 133.257 35.3275 132.582 35.3275C131.755 35.3275 131.073 35.1301 130.536 34.7351C129.996 34.3362 129.625 33.7488 129.497 33.0893L125.662 33.6818C125.911 35.2339 126.611 36.4348 127.763 37.2847C128.915 38.1346 130.428 38.5591 132.301 38.5583C134.248 38.5583 135.773 38.122 136.874 37.2493C137.975 36.3766 138.528 35.1765 138.532 33.6489C138.553 32.96 138.391 32.278 138.064 31.6714C137.749 31.1262 137.249 30.6569 136.565 30.2637Z" fill="white"/>
<path d="M153.432 25.5492C152.944 24.5907 152.12 23.8456 151.117 23.4565C150.098 23.0514 148.932 22.8489 147.618 22.8489C145.828 22.8489 144.414 23.235 143.376 24.0072C142.359 24.7487 141.613 25.8038 141.254 27.0101L144.643 28.0837C144.883 27.4034 145.301 26.9308 145.897 26.6658C146.436 26.4121 147.023 26.2758 147.618 26.2657C148.611 26.2657 149.318 26.4725 149.74 26.8861C150.07 27.2089 150.267 27.6811 150.339 28.2913C149.706 28.3862 149.105 28.4761 148.541 28.5584C147.578 28.7011 146.715 28.8504 145.952 29.0066C145.283 29.1376 144.625 29.317 143.982 29.5433C143.184 29.8387 142.548 30.2038 142.075 30.6384C141.617 31.0522 141.265 31.5697 141.048 32.1474C140.831 32.7523 140.723 33.3911 140.731 34.0337C140.723 34.8259 140.92 35.6068 141.304 36.2998C141.694 36.998 142.278 37.5692 142.984 37.9456C143.723 38.3549 144.625 38.5592 145.69 38.5583C146.976 38.5583 148.039 38.3355 148.879 37.8899C149.6 37.4879 150.238 36.9521 150.759 36.3112V38.1456H154.038V29.0471C154.041 28.4312 154.013 27.8156 153.954 27.2026C153.891 26.6224 153.713 26.0605 153.432 25.5492ZM149.932 33.621C149.778 33.907 149.586 34.1709 149.362 34.4059C149.039 34.7501 148.656 35.0325 148.232 35.2389C147.689 35.498 147.091 35.623 146.489 35.6036C146.108 35.613 145.729 35.5476 145.374 35.4111C145.083 35.3003 144.832 35.1066 144.651 34.8541C144.477 34.5963 144.388 34.2902 144.398 33.9793C144.395 33.7447 144.449 33.5129 144.557 33.3045C144.678 33.0836 144.847 32.8928 145.052 32.7462C145.326 32.5503 145.624 32.3907 145.938 32.2715C146.303 32.1389 146.676 32.0285 147.054 31.9411C147.476 31.8398 148.031 31.7271 148.721 31.6031C149.16 31.5246 149.697 31.4309 150.31 31.3271C150.302 31.5917 150.289 31.8765 150.27 32.2133C150.249 32.6999 150.134 33.1778 149.932 33.621Z" fill="white"/>
<path d="M165.718 30.7006L171.089 23.263H166.461L161.42 30.4259V18.3042H157.618L157.59 38.1395H161.42V30.9766L166.571 38.1395H171.448L165.718 30.7006Z" fill="white"/>
</g>
<defs>
<linearGradient id="paint0_linear_3446_2439" x1="4.55702" y1="14.5582" x2="51.6259" y2="41.7323" gradientUnits="userSpaceOnUse">
<stop offset="0.13" stop-color="#348BED"/>
<stop offset="0.31" stop-color="#2B80E8"/>
<stop offset="0.64" stop-color="#1461DB"/>
<stop offset="0.72" stop-color="#0E57D7"/>
</linearGradient>
<clipPath id="clip0_3446_2439">
<rect width="170.526" height="54.3406" fill="white" transform="translate(0.921143 0.975586)"/>
</clipPath>
</defs>
</svg>
