<svg width="21" height="13" viewBox="0 0 21 13" fill="none" xmlns="http://www.w3.org/2000/svg">
<path fill-rule="evenodd" clip-rule="evenodd" d="M1.89079 11.525C1.89089 5.853 5.68999 2.85666 9.37106 2.71093C11.2229 2.63762 13.0539 3.28087 14.425 4.68069C15.2359 5.50855 15.9119 6.62837 16.3278 8.0746C16.0436 7.73258 15.7669 7.41722 15.501 7.13025C15.0316 6.62379 14.5877 6.19728 14.1874 5.86587C13.8014 5.54634 13.4044 5.27164 13.0316 5.12249C12.5468 4.92858 11.9966 5.16438 11.8027 5.64916C11.6088 6.13394 11.8446 6.68414 12.3294 6.87805C12.4292 6.91798 12.6467 7.04507 12.9816 7.32232C13.3022 7.58769 13.6855 7.95296 14.1142 8.41553C14.9709 9.33985 15.9778 10.6192 16.9917 12.1862C17.178 12.4741 17.5056 12.6386 17.8477 12.616C18.1899 12.5934 18.493 12.3873 18.6398 12.0774C20.3857 8.3921 20.7991 6.57651 20.9976 3.79867C21.0348 3.27787 20.6427 2.82552 20.1219 2.78832C19.6011 2.75112 19.1488 3.14316 19.1116 3.66396C18.9975 5.26057 18.8178 6.48337 18.2782 8.05788C17.8077 6.10899 16.9325 4.53851 15.7758 3.35764C14.0014 1.54607 11.6385 0.728899 9.29627 0.82162C4.58924 1.00796 0.000112978 4.84947 0 11.5249L1.89079 11.525Z" fill="#FF7AC3"/>
</svg>
