<svg width="316" height="112" viewBox="0 0 316 112" fill="none" xmlns="http://www.w3.org/2000/svg">
<path d="M233.007 37.9745C233.007 35.7615 232.356 33.6009 231.969 31.4383C231.387 28.1823 231.543 24.9195 232.523 21.7517C233.043 20.0686 233.965 18.571 235.633 17.8271C236.386 17.4914 237.276 17.2751 238.093 17.1688C238.534 17.1114 239.035 17.1064 239.453 17.2773C240.849 17.8482 242.45 18.4395 243.179 19.8599C244.475 22.388 244.892 25.4174 244.662 28.2082C244.441 30.8743 244.597 33.5455 244.597 36.2165" stroke="black" stroke-width="1.5" stroke-linecap="round"/>
<path d="M234.049 38.6255C237.187 38.6255 240.323 38.6244 243.461 38.5604C244.078 38.5478 244.698 38.4302 245.313 38.4302" stroke="black" stroke-width="1.5" stroke-linecap="round"/>
<path d="M248.764 38.105C250.129 38.105 251.493 38.155 252.858 38.1665C257.691 38.2073 262.525 38.1012 267.356 38.3039C270.253 38.4255 273.145 38.4305 276.044 38.4305" stroke="black" stroke-width="1.5" stroke-linecap="round"/>
<path d="M243.946 16.4888C245.389 16.7489 246.804 16.9567 248.272 16.9952C250.512 17.0538 252.751 17.0693 254.989 17.2086C259.154 17.4679 262.678 17.439 266.854 17.5C267.444 17.5086 268.742 17.8324 269.331 17.9356C270.401 18.1234 271.588 18.3656 272.593 18.7676" stroke="black" stroke-width="1.5" stroke-linecap="round"/>
<path d="M273.354 20.5C273.354 20.7036 273.202 20.4956 273.32 20.6417C273.843 21.2877 274.31 21.9688 274.597 22.754C275.01 23.8843 275.192 25.0753 275.469 26.241C275.742 27.3915 276.108 28.5235 276.304 29.6917C276.463 30.6342 276.615 31.5992 276.72 32.5492C276.786 33.1386 276.838 33.8339 276.731 34.4229C276.619 35.0403 276.435 35.6481 276.435 36.2821" stroke="black" stroke-width="1.5" stroke-linecap="round"/>
<path d="M248.286 27.439C248.286 22.9724 248.749 18.5085 248.764 14.0371C248.77 12.2548 248.589 10.5676 248.286 8.81438C248.255 8.63893 248.291 8.08244 248.126 8" stroke="black" stroke-width="1.5" stroke-linecap="round"/>
<path d="M248.684 8.23893C249.837 8.23893 250.984 8.29264 252.136 8.31417C252.824 8.32703 253.582 8.36674 254.261 8.22122C254.384 8.19482 254.528 8.18227 254.58 8.07959" stroke="black" stroke-width="1.5" stroke-linecap="round"/>
<path d="M254.101 8.47803C254.101 9.06226 254.101 9.64649 254.101 10.2307C254.101 11.3462 253.96 12.4607 254.42 13.4971" stroke="black" stroke-width="1.5" stroke-linecap="round"/>
<path d="M254.42 13.4972C253.625 13.4972 252.845 13.4275 252.057 13.3202C251.124 13.1932 250.191 13.0918 249.251 13.0369C248.913 13.0172 248.6 12.9942 248.286 13.0989" stroke="black" stroke-width="1.5" stroke-linecap="round"/>
<path d="M233.136 39.9043C232.27 40.5358 231.262 41.2659 230.553 42.0686C230.074 42.6103 229.698 43.2277 229.325 43.8429C228.843 44.6355 228.212 45.2677 227.56 45.9195C226.891 46.5881 225.831 47.4552 225.854 48.4835C225.869 49.1605 226.005 50.8546 226.731 51.2522C227.722 51.794 229.302 51.7179 230.377 51.6227C232.984 51.392 235.858 50.6134 238.04 49.1269C239.86 47.8874 241.358 46.4237 242.905 44.8763C243.999 43.7824 245.042 42.7063 246.385 41.9224" stroke="black" stroke-width="1.5" stroke-linecap="round"/>
<path d="M196.906 34.4604C197.075 34.8818 198.782 35.1765 199.161 35.3406C199.545 35.5067 202.675 36.5292 202.636 36.8204C202.549 37.4656 201.125 38.6753 200.745 39.1159C199.915 40.0771 198.999 40.9662 198.115 41.8708" stroke="black" stroke-width="1.5" stroke-linecap="round"/>
<path d="M246.875 97.4302C235.938 100.647 251.958 103.864 255.101 103.864C261.039 103.864 265.928 103.12 269.072 101.291" stroke="black" stroke-width="1.5" stroke-linecap="round"/>
<path d="M253.599 38.4116C253.599 46.7328 253.43 55.0621 253.43 63.3739C253.43 67.0079 253.708 70.6709 253.975 74.2949C254.245 77.9664 254.206 81.4594 254.106 85.1031C254.025 88.0834 253.599 91.0149 253.599 93.994C253.599 95.3206 253.26 96.716 253.26 97.9602" stroke="black" stroke-width="1.5" stroke-linecap="round"/>
<path d="M258.925 38.4448C258.517 42.1115 258.189 45.3978 258.452 49.1471C258.73 53.1263 258.8 57.1684 259.094 61.1327C259.649 68.6251 260.786 76.1011 260.786 83.6137C260.786 87.4239 260.999 91.3858 260.147 95.1174C259.827 96.5166 259.905 97.9285 259.432 99.3467" stroke="black" stroke-width="1.5" stroke-linecap="round"/>
<path d="M237.824 19.2607C236.586 19.6892 235.892 20.7946 235.139 21.7926C233.717 23.6759 233.567 26.2312 233.567 28.4908C233.567 30.7138 233.674 32.8326 234.123 35.0152C234.257 35.6652 234.443 36.5059 234.443 37.1644" stroke="black" stroke-width="1.5" stroke-linecap="round"/>
<path d="M40 65.0617C40.6609 62.0876 43.1354 59.6882 45.1226 57.4802C48.6559 53.5544 52.6948 50.8573 57.6071 48.9182C68.725 44.5295 81.5845 44.2584 92.3969 49.6646C97.1761 52.0542 101.884 53.7734 107.121 54.9921C112.916 56.3408 118.661 57.8219 124.655 57.8022C128.951 57.7881 134.432 57.9922 138.53 56.3533C142.332 54.8325 147.854 50.7714 144.852 46.2691C143.456 44.1746 140.333 42.7665 137.944 43.898C134.131 45.7042 129.492 50.7223 135.398 53.0016C139.438 54.5609 143.462 55.1117 147.78 55.2556C155.061 55.4983 161.995 54.9486 168.885 52.4455C176.014 49.8553 182.883 46.9499 189.375 42.9906C191.75 41.542 194.111 40.073 196.649 38.9218C197.489 38.5408 198.492 38.2933 199.123 37.6631" stroke="black" stroke-width="1.5" stroke-linecap="round"/>
</svg>
