<svg width="316" height="111" viewBox="0 0 316 111" fill="none" xmlns="http://www.w3.org/2000/svg">
<path d="M233.007 37.7581C233.007 35.5452 232.356 33.3846 231.969 31.222C231.387 27.966 231.543 24.7032 232.523 21.5354C233.043 19.8523 233.965 18.3547 235.633 17.6108C236.386 17.2751 237.276 17.0588 238.093 16.9525C238.534 16.8951 239.035 16.8901 239.453 17.061C240.849 17.6319 242.45 18.2232 243.179 19.6436C244.475 22.1717 244.892 25.2011 244.662 27.9919C244.441 30.658 244.597 33.3291 244.597 36.0002" stroke="white" stroke-width="1.5" stroke-linecap="round"/>
<path d="M234.049 38.4092C237.187 38.4092 240.323 38.4081 243.461 38.3441C244.078 38.3315 244.698 38.2139 245.313 38.2139" stroke="white" stroke-width="1.5" stroke-linecap="round"/>
<path d="M248.764 37.8887C250.129 37.8887 251.493 37.9386 252.858 37.9502C257.691 37.9909 262.525 37.8849 267.356 38.0876C270.253 38.2092 273.145 38.2142 276.044 38.2142" stroke="white" stroke-width="1.5" stroke-linecap="round"/>
<path d="M243.946 16.2725C245.389 16.5326 246.804 16.7404 248.272 16.7789C250.512 16.8375 252.751 16.853 254.989 16.9923C259.154 17.2516 262.678 17.2227 266.854 17.2837C267.444 17.2923 268.742 17.6161 269.331 17.7193C270.401 17.9071 271.588 18.1493 272.593 18.5512" stroke="white" stroke-width="1.5" stroke-linecap="round"/>
<path d="M273.354 20.2837C273.354 20.4873 273.202 20.2792 273.32 20.4253C273.843 21.0714 274.31 21.7524 274.597 22.5377C275.01 23.668 275.192 24.8589 275.469 26.0246C275.742 27.1752 276.108 28.3072 276.304 29.4754C276.463 30.4179 276.615 31.3829 276.72 32.3329C276.786 32.9223 276.838 33.6176 276.731 34.2066C276.619 34.824 276.435 35.4318 276.435 36.0658" stroke="white" stroke-width="1.5" stroke-linecap="round"/>
<path d="M248.286 27.2226C248.286 22.7561 248.749 18.2921 248.764 13.8207C248.77 12.0385 248.589 10.3513 248.286 8.59807C248.255 8.42263 248.291 7.86613 248.126 7.78369" stroke="white" stroke-width="1.5" stroke-linecap="round"/>
<path d="M248.684 8.02262C249.837 8.02262 250.984 8.07633 252.136 8.09786C252.824 8.11072 253.582 8.15043 254.261 8.00491C254.384 7.97852 254.528 7.96596 254.58 7.86328" stroke="white" stroke-width="1.5" stroke-linecap="round"/>
<path d="M254.101 8.26172C254.101 8.84595 254.101 9.43018 254.101 10.0144C254.101 11.1299 253.96 12.2444 254.42 13.2808" stroke="white" stroke-width="1.5" stroke-linecap="round"/>
<path d="M254.42 13.2809C253.625 13.2809 252.845 13.2112 252.057 13.1039C251.124 12.9769 250.191 12.8755 249.251 12.8206C248.913 12.8009 248.6 12.7779 248.286 12.8826" stroke="white" stroke-width="1.5" stroke-linecap="round"/>
<path d="M233.136 39.688C232.27 40.3195 231.262 41.0496 230.553 41.8523C230.074 42.394 229.698 43.0114 229.325 43.6266C228.843 44.4192 228.212 45.0514 227.56 45.7032C226.891 46.3718 225.831 47.2389 225.854 48.2672C225.869 48.9442 226.005 50.6383 226.731 51.0359C227.722 51.5777 229.302 51.5015 230.377 51.4064C232.984 51.1757 235.858 50.3971 238.04 48.9106C239.86 47.6711 241.358 46.2074 242.905 44.66C243.999 43.5661 245.042 42.49 246.385 41.706" stroke="white" stroke-width="1.5" stroke-linecap="round"/>
<path d="M196.906 34.2441C197.075 34.6655 198.782 34.9602 199.161 35.1243C199.545 35.2904 202.675 36.3128 202.636 36.6041C202.549 37.2493 201.125 38.459 200.745 38.8995C199.915 39.8608 198.999 40.7499 198.115 41.6545" stroke="white" stroke-width="1.5" stroke-linecap="round"/>
<path d="M246.875 97.2139C235.938 100.431 251.958 103.648 255.101 103.648C261.039 103.648 265.928 102.903 269.072 101.074" stroke="white" stroke-width="1.5" stroke-linecap="round"/>
<path d="M253.599 38.1953C253.599 46.5165 253.43 54.8458 253.43 63.1576C253.43 66.7915 253.708 70.4545 253.975 74.0786C254.245 77.7501 254.206 81.2431 254.106 84.8868C254.025 87.8671 253.599 90.7986 253.599 93.7777C253.599 95.1043 253.26 96.4997 253.26 97.7438" stroke="white" stroke-width="1.5" stroke-linecap="round"/>
<path d="M258.925 38.2285C258.517 41.8952 258.189 45.1815 258.452 48.9308C258.73 52.91 258.8 56.9521 259.094 60.9164C259.649 68.4088 260.786 75.8848 260.786 83.3974C260.786 87.2075 260.999 91.1695 260.147 94.9011C259.827 96.3003 259.905 97.7122 259.432 99.1304" stroke="white" stroke-width="1.5" stroke-linecap="round"/>
<path d="M237.824 19.0444C236.586 19.4729 235.892 20.5783 235.139 21.5763C233.717 23.4596 233.567 26.0149 233.567 28.2745C233.567 30.4975 233.674 32.6163 234.123 34.7989C234.257 35.4489 234.443 36.2896 234.443 36.9481" stroke="white" stroke-width="1.5" stroke-linecap="round"/>
<path d="M40 64.8454C40.6609 61.8713 43.1354 59.4719 45.1226 57.2639C48.6559 53.3381 52.6948 50.641 57.6071 48.7019C68.725 44.3132 81.5845 44.0421 92.3969 49.4483C97.1761 51.8379 101.884 53.5571 107.121 54.7758C112.916 56.1245 118.661 57.6056 124.655 57.5859C128.951 57.5718 134.432 57.7759 138.53 56.137C142.332 54.6162 147.854 50.5551 144.852 46.0528C143.456 43.9583 140.333 42.5502 137.944 43.6817C134.131 45.4879 129.492 50.5059 135.398 52.7853C139.438 54.3446 143.462 54.8954 147.78 55.0393C155.061 55.282 161.995 54.7323 168.885 52.2291C176.014 49.639 182.883 46.7336 189.375 42.7743C191.75 41.3257 194.111 39.8567 196.649 38.7055C197.489 38.3245 198.492 38.077 199.123 37.4468" stroke="white" stroke-width="1.5" stroke-linecap="round"/>
</svg>
