<svg width="24" height="24" viewBox="0 0 24 24" fill="none" xmlns="http://www.w3.org/2000/svg">
<g clip-path="url(#clip0_8757_7676)">
<rect x="2.57031" y="2.57129" width="18.8571" height="18.8571" fill="#805DC3"/>
<path d="M18.24 0.240234H5.76C4.23235 0.240234 2.76727 0.84709 1.68706 1.9273C0.606855 3.00751 0 4.47259 0 6.00023L0 18.0002C0 19.5279 0.606855 20.993 1.68706 22.0732C2.76727 23.1534 4.23235 23.7602 5.76 23.7602H18.24C19.7676 23.7602 21.2327 23.1534 22.3129 22.0732C23.3931 20.993 24 19.5279 24 18.0002V6.00023C24 4.47259 23.3931 3.00751 22.3129 1.9273C21.2327 0.84709 19.7676 0.240234 18.24 0.240234ZM19.056 17.4062V17.9102C19.1238 17.9028 19.1924 17.9097 19.2575 17.9304C19.3225 17.951 19.3825 17.985 19.4336 18.0302C19.4847 18.0754 19.5258 18.1308 19.5543 18.1928C19.5828 18.2548 19.598 18.322 19.599 18.3902V18.9582H14.456V18.3892C14.4571 18.321 14.4725 18.2538 14.5011 18.1918C14.5297 18.1299 14.5709 18.0746 14.6221 18.0295C14.6733 17.9844 14.7334 17.9505 14.7985 17.93C14.8635 17.9094 14.9322 17.9027 15 17.9102V17.4062C15 17.1862 15.153 17.0042 15.358 16.9482L15.348 12.5842C15.19 10.8472 13.708 9.48623 11.905 9.48623C10.101 9.48623 8.62 10.8472 8.462 12.5842L8.452 16.9422C8.68 16.9842 8.984 17.1502 8.992 17.4062V17.9102C9.05982 17.9028 9.12844 17.9097 9.19346 17.9304C9.25848 17.951 9.31847 17.985 9.36958 18.0302C9.4207 18.0754 9.46181 18.1308 9.4903 18.1928C9.51878 18.2548 9.53401 18.322 9.535 18.3902V18.9582H4.392V18.3892C4.39313 18.3211 4.40846 18.254 4.437 18.1921C4.46555 18.1302 4.50668 18.075 4.55778 18.0299C4.60888 17.9848 4.66882 17.9509 4.73377 17.9303C4.79873 17.9097 4.86726 17.9029 4.935 17.9102V17.4062C4.935 17.1532 5.136 16.9522 5.389 16.9342V9.03923H4.899L4.289 7.00823H6.93V5.04223H16.88V7.00823H19.702L19.092 9.03823H18.602V16.9342C18.854 16.9512 19.056 17.1542 19.056 17.4062Z" fill="white"/>
</g>
<defs>
<clipPath id="clip0_8757_7676">
<rect width="24" height="24" rx="6.11765" fill="white"/>
</clipPath>
</defs>
</svg>
