<svg width="319" height="263" viewBox="0 0 319 263" fill="none" xmlns="http://www.w3.org/2000/svg">
<path d="M196.217 35.3567C191.27 42.4546 185.463 50.9506 178.795 60.8446C172.343 70.7386 166.105 81.1703 160.083 92.1398C154.275 103.109 149.328 114.079 145.242 125.048C141.155 136.018 139.112 146.019 139.112 155.053C139.112 163.226 140.832 169.786 144.274 174.733C147.93 179.465 152.447 183.229 157.824 186.025C163.417 188.821 169.547 190.65 176.214 191.51C183.097 192.37 189.765 192.801 196.217 192.801V253.455C184.818 253.455 173.633 252.487 162.664 250.552C151.909 248.616 141.8 245.389 132.336 240.873C122.873 236.356 114.269 230.441 106.526 223.128C98.7829 215.815 92.3303 206.674 87.1682 195.704V253.455H26.5136V35.3567H87.1682V107.949C91.2548 95.0435 96.5245 82.5684 102.977 70.5235C109.645 58.4786 116.528 46.7564 123.625 35.3567H196.217Z" fill="black"/>
<path d="M310.157 192.801V253.455H249.502V192.801H310.157Z" fill="black"/>
<path fill-rule="evenodd" clip-rule="evenodd" d="M213.153 26.5175L203.469 40.4109C198.566 47.4465 192.798 55.8838 186.163 65.7288C179.864 75.3908 173.764 85.5917 167.864 96.3344C162.239 106.965 157.463 117.565 153.525 128.134C149.703 138.393 147.951 147.333 147.951 155.053C147.951 161.919 149.374 166.49 151.413 169.514C154.234 173.112 157.684 175.979 161.841 178.151C166.462 180.452 171.603 182.001 177.33 182.741C183.869 183.558 190.163 183.961 196.218 183.961H205.057V262.294H196.218C184.315 262.294 172.616 261.284 161.128 259.256L161.113 259.254L161.098 259.251C149.601 257.181 138.734 253.72 128.53 248.85C118.223 243.931 108.858 237.489 100.457 229.554C98.9245 228.107 97.4415 226.599 96.0078 225.032V262.294H17.6748V26.5175H96.0078V64.8661C102.509 53.1748 109.213 41.7809 116.122 30.6847L118.717 26.5175H213.153ZM96.0078 84.7227C92.6177 92.3033 89.6709 100.045 87.1682 107.949V35.3567H26.5136V253.455H87.1682V195.704C89.7833 201.262 92.7301 206.35 96.0078 210.968C99.1998 215.467 102.706 219.52 106.526 223.128C114.269 230.441 122.873 236.356 132.336 240.873C141.8 245.389 151.909 248.616 162.664 250.552C170.784 251.984 179.023 252.887 187.379 253.259C190.31 253.39 193.256 253.455 196.217 253.455V192.801C189.765 192.801 183.097 192.37 176.214 191.51C169.547 190.65 163.417 188.821 157.824 186.025C152.447 183.229 147.93 179.465 144.274 174.733C140.832 169.786 139.112 163.226 139.112 155.053C139.112 146.019 141.155 136.018 145.242 125.048C149.328 114.079 154.275 103.109 160.083 92.1398C166.105 81.1703 172.343 70.7386 178.795 60.8446C182.891 54.7676 186.662 49.2181 190.108 44.1959C192.273 41.0415 194.309 38.0951 196.217 35.3567H123.625C116.528 46.7564 109.645 58.4786 102.977 70.5235C100.476 75.1919 98.1533 79.925 96.0078 84.7227ZM318.996 183.961V262.294H240.663V183.961H318.996ZM310.157 192.801H249.502V253.455H310.157V192.801Z" fill="black"/>
<path d="M178.539 8.8392C173.592 15.9371 167.784 24.433 161.117 34.327C154.664 44.2211 148.427 54.6528 142.404 65.6222C136.597 76.5917 131.65 87.5611 127.563 98.5306C123.476 109.5 121.433 119.502 121.433 128.535C121.433 136.709 123.154 143.269 126.595 148.216C130.252 152.948 134.768 156.712 140.146 159.508C145.738 162.304 151.868 164.132 158.536 164.993C165.418 165.853 172.086 166.283 178.539 166.283V226.938C167.139 226.938 155.955 225.97 144.985 224.034C134.231 222.098 124.122 218.872 114.658 214.355C105.194 209.838 96.5905 203.923 88.8474 196.61C81.1042 189.297 74.6516 180.156 69.4895 169.187V226.938H8.83489V8.8392H69.4895V81.4312C73.5761 68.5259 78.8458 56.0508 85.2984 44.006C91.9661 31.9611 98.8489 20.2388 105.947 8.8392H178.539Z" fill="white"/>
<path d="M292.478 166.283V226.938H231.823V166.283H292.478Z" fill="white"/>
<path fill-rule="evenodd" clip-rule="evenodd" d="M195.474 0L185.791 13.8934C180.887 20.929 175.12 29.3662 168.485 39.2113C162.185 48.8733 156.085 59.0742 150.185 69.8168C144.56 80.4474 139.784 91.0471 135.846 101.616C132.024 111.876 130.273 120.815 130.273 128.535C130.273 135.402 131.695 139.973 133.734 142.996C136.556 146.595 140.006 149.461 144.163 151.633C148.784 153.935 153.924 155.483 159.651 156.224C166.19 157.041 172.485 157.444 178.539 157.444H187.378V235.777H178.539C166.637 235.777 154.938 234.766 143.449 232.739L143.434 232.736L143.42 232.733C131.922 230.664 121.056 227.203 110.851 222.332C100.544 217.413 91.1797 210.971 82.7785 203.037C81.2459 201.589 79.7629 200.081 78.3291 198.515V235.777H-0.00390625V0H78.3291V38.3486C84.8299 26.6573 91.5347 15.2633 98.4436 4.16717L101.038 0H195.474ZM78.3291 58.2052C74.939 65.7858 71.9922 73.5278 69.4895 81.4312V8.8392H8.83489V226.938H69.4895V169.187C72.1047 174.744 75.0515 179.832 78.3291 184.451C81.5212 188.949 85.027 193.002 88.8474 196.61C96.5905 203.923 105.194 209.838 114.658 214.355C124.122 218.872 134.231 222.098 144.985 224.034C153.105 225.467 161.344 226.37 169.7 226.742C172.632 226.872 175.578 226.938 178.539 226.938V166.283C172.086 166.283 165.418 165.853 158.536 164.993C151.868 164.132 145.738 162.304 140.146 159.508C134.768 156.712 130.252 152.948 126.595 148.216C123.154 143.269 121.433 136.709 121.433 128.535C121.433 119.502 123.476 109.5 127.563 98.5306C131.65 87.5611 136.597 76.5917 142.404 65.6222C148.427 54.6528 154.664 44.2211 161.117 34.327C165.212 28.2501 168.983 22.7005 172.429 17.6784C174.594 14.5239 176.63 11.5775 178.539 8.8392H105.947C98.8489 20.2388 91.9661 31.9611 85.2984 44.006C82.7975 48.6744 80.4746 53.4075 78.3291 58.2052ZM301.317 157.444V235.777H222.984V157.444H301.317ZM292.478 166.283H231.823V226.938H292.478V166.283Z" fill="black"/>
<path d="M17.6805 262.283L0.000389642 235.763L1.29515 233.873L24.8091 231.09L27.1308 253.666L17.6805 262.283Z" fill="black"/>
<path d="M240.676 262.283L222.996 235.763L224.291 233.873L247.805 231.09L250.126 253.666L240.676 262.283Z" fill="black"/>
<path d="M318.986 183.973L301.306 157.452L297.779 166.397L298.657 187.351L318.986 183.973Z" fill="black"/>
<path d="M205.033 183.973L187.353 157.452L183.826 166.397L184.704 187.351L205.033 183.973Z" fill="black"/>
<path d="M95.0833 25.5955L78.2663 0.0426233L74.7392 8.98686L75.6173 29.9411L95.0833 25.5955Z" fill="black"/>
<path d="M213.144 26.5182L195.464 0.0128877L184.481 7.40937L172.903 30.3429L212.861 26.8754L213.144 26.5182Z" fill="black"/>
<path d="M69.2363 108.091C69.2363 108.57 77.0746 45.6751 110.52 8.80601L101.606 7.37866L85.4936 23.0553L69.4784 8.80601C69.4784 52.0346 69.2363 66.0451 69.2363 108.091Z" fill="black"/>
</svg>
