<svg width="220" height="270" viewBox="0 0 220 270" fill="none" xmlns="http://www.w3.org/2000/svg">
<path d="M201.769 36.3571C196.682 43.6558 190.711 52.3922 183.854 62.5661C177.219 72.7401 170.805 83.467 164.612 94.7468C158.641 106.027 153.554 117.306 149.351 128.586C145.149 139.866 143.048 150.151 143.048 159.44C143.048 167.844 144.817 174.59 148.356 179.677C152.116 184.543 156.761 188.414 162.29 191.289C168.04 194.164 182.669 196.044 189.525 196.929C196.603 197.813 203.459 198.256 210.094 198.256V260.626C198.372 260.626 178.546 259.631 167.266 257.641C156.208 255.65 145.813 252.333 136.081 247.688C126.349 243.043 117.502 236.961 109.54 229.441C101.578 221.921 94.9428 212.521 89.6346 201.242V260.626H27.2638V36.3571H89.6346V111.003C93.8369 97.7326 99.2557 84.9046 105.891 72.5189C112.747 60.1332 119.825 48.0793 127.123 36.3571H201.769Z" fill="white"/>
<path fill-rule="evenodd" clip-rule="evenodd" d="M219.184 27.2678L209.227 41.5543C204.184 48.789 198.253 57.465 191.431 67.5886C184.953 77.5239 178.68 88.0134 172.614 99.0601C166.83 109.991 161.918 120.891 157.869 131.759C153.939 142.309 152.138 151.501 152.138 159.44C152.138 166.501 153.6 171.201 155.697 174.31C158.598 178.011 162.146 180.958 166.421 183.192C171.173 185.558 184.783 187.15 190.672 187.912C197.396 188.752 203.869 189.166 210.094 189.166H219.184V269.716H210.094C197.855 269.716 177.501 268.676 165.687 266.592L165.672 266.589L165.657 266.586C153.834 264.458 142.66 260.899 132.166 255.891C121.568 250.832 111.939 244.208 103.3 236.049C101.724 234.561 100.199 233.01 98.7243 231.399V269.716H18.175V27.2678H98.7243V66.7015C105.409 54.6794 112.304 42.963 119.408 31.5529L122.076 27.2678H219.184ZM98.7243 87.1199C95.2383 94.915 92.2082 102.876 89.6346 111.003V36.3571H27.2638V260.626H89.6346V201.242C92.3238 206.956 95.354 212.188 98.7243 216.938C102.007 221.563 105.612 225.731 109.54 229.441C117.502 236.961 126.349 243.043 136.081 247.688C145.813 252.333 156.208 255.65 167.266 257.641C175.616 259.114 192.413 260.042 201.005 260.425C204.02 260.559 207.049 260.626 210.094 260.626V198.256C203.459 198.256 196.603 197.813 189.525 196.929C182.669 196.044 168.04 194.164 162.29 191.289C156.761 188.414 152.116 184.543 148.356 179.677C144.817 174.59 143.048 167.844 143.048 159.44C143.048 150.151 145.149 139.866 149.351 128.586C153.554 117.306 158.641 106.027 164.612 94.7468C170.805 83.467 177.219 72.7401 183.854 62.5661C188.066 56.3172 191.943 50.6107 195.487 45.4464C197.713 42.2027 199.807 39.1729 201.769 36.3571H127.123C119.825 48.0793 112.747 60.1332 105.891 72.5189C103.319 77.3194 100.931 82.1864 98.7243 87.1199Z" fill="white"/>
<path d="M183.59 9.0893C178.503 16.388 172.532 25.1243 165.675 35.2983C159.04 45.4723 152.626 56.1992 146.433 67.479C140.462 78.7588 135.375 90.0386 131.172 101.318C126.97 112.598 124.869 122.883 124.869 132.172C124.869 140.577 126.638 147.322 130.177 152.409C133.937 157.275 138.582 161.146 144.111 164.021C149.862 166.896 156.165 168.776 163.021 169.661C170.099 170.546 185.28 170.988 191.915 170.988V233.359C180.193 233.359 160.367 232.363 149.087 230.373C138.029 228.382 127.634 225.065 117.902 220.42C108.17 215.775 99.3235 209.693 91.3613 202.173C83.3991 194.653 76.7639 185.254 71.4557 173.974V233.359H9.08498V9.0893H71.4557V83.7352C75.658 70.4648 81.0768 57.6368 87.712 45.2511C94.5683 32.8654 101.646 20.8115 108.945 9.0893H183.59Z" fill="black"/>
<path fill-rule="evenodd" clip-rule="evenodd" d="M201.005 0L191.048 14.2865C186.005 21.5212 180.075 30.1971 173.252 40.3208C166.774 50.2561 160.501 60.7456 154.435 71.7923C148.651 82.7236 143.739 93.6232 139.69 104.492C135.76 115.041 133.959 124.234 133.959 132.172C133.959 139.233 135.421 143.933 137.518 147.042C140.42 150.743 143.967 153.69 148.242 155.924C152.994 158.29 158.279 159.883 164.168 160.644C170.892 161.484 185.69 161.899 191.916 161.899H201.005V242.448H191.916C179.676 242.448 159.322 241.409 147.508 239.324L147.493 239.321L147.478 239.318C135.655 237.19 124.481 233.631 113.987 228.623C103.389 223.565 93.7597 216.94 85.1208 208.781C83.5448 207.293 82.0198 205.743 80.5455 204.131V242.448H-0.00390625V0H80.5455V39.4336C87.2302 27.4115 94.1247 15.6952 101.229 4.28507L103.897 0H201.005ZM80.5455 59.852C77.0595 67.6472 74.0293 75.6082 71.4557 83.7352V9.0893H9.08498V233.359H71.4557V173.974C74.1449 179.688 77.1751 184.92 80.5455 189.67C83.8278 194.295 87.4329 198.463 91.3613 202.173C99.3235 209.693 108.17 215.775 117.902 220.42C127.634 225.065 138.029 228.382 149.087 230.373C157.437 231.846 165.909 232.775 174.502 233.157C177.516 233.292 188.871 233.359 191.915 233.359V170.988C185.28 170.988 170.099 170.546 163.021 169.661C156.165 168.776 149.862 166.896 144.111 164.021C138.582 161.146 133.937 157.275 130.177 152.409C126.638 147.322 124.869 140.577 124.869 132.172C124.869 122.883 126.97 112.598 131.172 101.318C135.375 90.0386 140.462 78.7588 146.433 67.479C152.626 56.1992 159.04 45.4723 165.675 35.2983C169.887 29.0494 173.765 23.3428 177.308 18.1786C179.534 14.9349 181.628 11.9051 183.59 9.0893H108.945C101.646 20.8115 94.5683 32.8654 87.712 45.2511C85.1403 50.0516 82.7517 54.9186 80.5455 59.852Z" fill="white"/>
<path d="M18.1809 269.704L0.00051119 242.434L1.3319 240.49L25.5112 237.628L27.8985 260.844L18.1809 269.704Z" fill="white"/>
<path d="M219.159 189.178L200.979 161.907L197.352 171.105L198.255 192.652L219.159 189.178Z" fill="white"/>
<path d="M97.7737 26.3197L80.4809 0.0438293L76.854 9.24114L77.7569 30.7883L97.7737 26.3197Z" fill="white"/>
<path d="M219.175 27.2685L200.995 0.0132523L189.701 7.61902L177.795 31.2015L218.884 27.6358L219.175 27.2685Z" fill="white"/>
<path d="M71.1963 111.148C71.1963 111.64 79.2564 46.966 113.648 9.05367L104.481 7.58594L87.9135 23.7061L71.4452 9.05367C71.4452 53.5053 71.1963 67.9122 71.1963 111.148Z" fill="white"/>
</svg>
