<svg width="191" height="60" viewBox="0 0 191 60" fill="none" xmlns="http://www.w3.org/2000/svg">
<path d="M42.894 10.6216C41.826 12.154 40.5722 13.9881 39.1327 16.1242C37.7397 18.2602 36.3931 20.5123 35.0929 22.8805C33.8391 25.2487 32.7711 27.6169 31.8888 29.9851C31.0066 32.3533 30.5654 34.5125 30.5654 36.4628C30.5654 38.2273 30.9369 39.6436 31.6799 40.7116C32.4693 41.7332 33.4444 42.5458 34.6053 43.1495C35.8126 43.7531 37.136 44.1478 38.5755 44.3336C40.0614 44.5193 41.5009 44.6122 42.894 44.6122V57.7069C40.4329 57.7069 38.0183 57.498 35.6501 57.08C33.3283 56.6621 31.1459 55.9656 29.1027 54.9905C27.0596 54.0153 25.2022 52.7383 23.5305 51.1595C21.8588 49.5808 20.4658 47.6073 19.3513 45.2391V57.7069H6.25659V10.6216H19.3513V26.2935C20.2336 23.5074 21.3713 20.8141 22.7643 18.2138C24.2038 15.6134 25.6897 13.0827 27.2221 10.6216H42.894Z" fill="black"/>
<path d="M69.3904 44.6122V23.7163H58.9424V44.6122H69.3904ZM82.4851 57.7069H45.8477V10.6216H82.4851V57.7069Z" fill="black"/>
<path d="M125.761 40.7116C125.761 43.0334 125.297 45.2391 124.368 47.3286C123.486 49.3718 122.279 51.1595 120.746 52.6919C119.214 54.2243 117.403 55.4548 115.313 56.3835C113.27 57.2658 111.088 57.7069 108.766 57.7069H104.517V44.6122C105.399 44.6122 106.305 44.6586 107.234 44.7515C108.209 44.7979 109.091 44.7283 109.88 44.5425C110.716 44.3568 111.39 43.9853 111.9 43.4281C112.411 42.8709 112.667 41.9654 112.667 40.7116V23.7163H102.219V57.7069H89.1239V23.7163H85.2233V10.6216H125.761V40.7116Z" fill="black"/>
<path d="M144.159 10.6912V8.04443H157.254V10.6912H172.926V23.7163H168.956V42.035C168.956 42.7316 169.049 43.2656 169.234 43.637C169.467 44.0085 169.768 44.2871 170.14 44.4729C170.511 44.6122 170.929 44.6818 171.394 44.6818C171.858 44.6818 172.369 44.6818 172.926 44.6818V57.7069H167.702C165.009 57.7069 162.873 57.1961 161.294 56.1746C159.762 55.153 158.578 53.8528 157.742 52.274C156.952 50.6488 156.442 48.8378 156.209 46.8411C156.024 44.7979 155.931 42.7548 155.931 40.7116H145.483V46.0052C145.483 47.6305 145.158 49.1628 144.508 50.6023C143.904 51.9954 143.068 53.2259 142 54.2939C140.932 55.3619 139.678 56.1978 138.239 56.8014C136.799 57.4051 135.29 57.7069 133.712 57.7069H128.418V44.6818C128.975 44.6818 129.486 44.6818 129.95 44.6818C130.415 44.6818 130.833 44.6122 131.204 44.4729C131.575 44.2871 131.854 44.0085 132.04 43.637C132.272 43.2656 132.388 42.7316 132.388 42.035V23.7163H128.418V10.6912H144.159ZM155.931 27.6865V23.7163H145.483V27.6865H155.931Z" fill="black"/>
<path d="M188.511 44.6122V57.7069H175.417V44.6122H188.511Z" fill="black"/>
<path fill-rule="evenodd" clip-rule="evenodd" d="M26.1613 8.71326L25.6011 9.61291C24.1096 12.0085 22.6621 14.4683 21.2586 16.9924V8.71326H4.34729V59.6152H21.2586V51.5706C21.5682 51.9089 21.8883 52.2344 22.2192 52.5469C24.0329 54.2599 26.0546 55.6506 28.2798 56.7126C30.4829 57.7641 32.8288 58.5113 35.311 58.9581L35.3175 58.9593C37.7977 59.397 40.3233 59.6152 42.893 59.6152H84.3924V25.6246H87.2146V59.6152H108.765C111.335 59.6152 113.777 59.1253 116.069 58.1354L116.078 58.1314L116.087 58.1273C118.379 57.1088 120.388 55.7482 122.095 54.0413C123.8 52.3362 125.14 50.349 126.115 48.0946C126.256 47.7775 126.387 47.4579 126.509 47.1359V59.6152H133.711C135.54 59.6152 137.3 59.264 138.976 58.5612C140.636 57.865 142.099 56.8924 143.349 55.6433C144.584 54.4079 145.554 52.9811 146.252 51.3742C147.013 49.6846 147.39 47.8882 147.39 46.0052V42.6199H154.048C154.088 44.0847 154.175 45.5494 154.308 47.0138L154.31 47.0377L154.313 47.0615C154.567 49.2474 155.131 51.2691 156.024 53.1077L156.039 53.1375L156.054 53.1668C157.043 55.0347 158.447 56.5705 160.234 57.7623L160.245 57.7696L160.256 57.7767C162.25 59.0669 164.791 59.6152 167.701 59.6152H190.419V42.7039H173.507V42.7735H171.393C171.196 42.7735 171.045 42.7524 170.929 42.7233C170.927 42.7211 170.924 42.7187 170.922 42.7163C170.917 42.6937 170.911 42.6655 170.905 42.6309C170.881 42.4973 170.863 42.3029 170.863 42.035V25.6246H174.833V8.78292H159.161V6.13611H142.25V8.78292H127.669V8.71326H26.1613ZM127.669 25.6246V40.7116C127.669 41.4073 127.631 42.0947 127.556 42.7735H129.949C130.115 42.7735 130.249 42.7585 130.356 42.7363L130.373 42.7025L130.411 42.6417C130.415 42.6304 130.424 42.6023 130.435 42.5525C130.458 42.4492 130.479 42.2822 130.479 42.035V25.6246H127.669ZM132.387 23.7163V42.035C132.387 42.7315 132.271 43.2655 132.039 43.637C131.853 44.0085 131.574 44.2871 131.203 44.4729C130.832 44.6122 130.414 44.6818 129.949 44.6818H128.417V57.7069H133.711C135.289 57.7069 136.798 57.4051 138.238 56.8014C139.677 56.1978 140.931 55.3619 141.999 54.2939C143.067 53.2259 143.903 51.9954 144.507 50.6023C145.157 49.1628 145.482 47.6304 145.482 46.0052V40.7116H155.93C155.93 42.7548 156.023 44.7979 156.208 46.8411C156.441 48.8378 156.951 50.6487 157.741 52.274C158.577 53.8528 159.761 55.153 161.293 56.1745C162.872 57.1961 165.008 57.7069 167.701 57.7069H172.925V44.6818H171.393C170.928 44.6818 170.51 44.6122 170.139 44.4729C169.767 44.2871 169.466 44.0085 169.233 43.637C169.048 43.2655 168.955 42.7315 168.955 42.035V23.7163H172.925V10.6912H157.253V8.04441H144.158V10.6912H128.417V23.7163H132.387ZM104.126 42.7039H104.516C105.449 42.7039 106.4 42.7521 107.37 42.8475C108.182 42.8826 108.868 42.8201 109.442 42.6849L109.454 42.6822L109.465 42.6797C109.972 42.5671 110.28 42.3701 110.493 42.1386C110.526 42.1025 110.757 41.7821 110.757 40.7116V25.6246H104.126V42.7039ZM102.218 23.7163H112.666V40.7116C112.666 41.9654 112.41 42.8708 111.899 43.4281C111.389 43.9853 110.715 44.3568 109.879 44.5425C109.09 44.7282 108.208 44.7979 107.233 44.7515C106.961 44.7243 106.692 44.7012 106.424 44.6819C105.777 44.6354 105.141 44.6122 104.516 44.6122V57.7069H108.765C111.087 57.7069 113.269 57.2658 115.312 56.3835C117.402 55.4548 119.213 54.2243 120.745 52.6919C122.278 51.1595 123.485 49.3718 124.367 47.3286C125.296 45.239 125.76 43.0334 125.76 40.7116V10.6216H85.2223V23.7163H89.1229V57.7069H102.218V23.7163ZM43.9384 42.7039V12.4617C42.9984 13.8197 41.9266 15.3917 40.7223 17.1786C39.3624 19.2645 38.0454 21.4668 36.7717 23.786C35.5573 26.0811 34.5262 28.3695 33.6761 30.6513C32.8509 32.8662 32.4727 34.7961 32.4727 36.4628C32.4727 37.9452 32.7798 38.932 33.22 39.5848C33.8292 40.3617 34.574 40.9805 35.4714 41.4494C36.4691 41.9463 37.5789 42.2806 38.8153 42.4405C40.227 42.6168 41.5859 42.7039 42.893 42.7039H43.9384ZM38.5745 44.3336C37.135 44.1478 35.8116 43.7531 34.6043 43.1495C33.4434 42.5458 32.4683 41.7332 31.6789 40.7116C30.9359 39.6436 30.5644 38.2273 30.5644 36.4628C30.5644 34.5125 31.0056 32.3533 31.8878 29.9851C32.7701 27.6169 33.8381 25.2487 35.0919 22.8805C36.3921 20.5123 37.7387 18.2602 39.1317 16.1241C40.0159 14.8122 40.83 13.6141 41.574 12.5299C42.0413 11.8488 42.481 11.2127 42.893 10.6216H27.2211C25.6887 13.0826 24.2028 15.6134 22.7633 18.2137C22.2234 19.2216 21.7218 20.2434 21.2586 21.2792C20.5267 22.9158 19.8906 24.5872 19.3503 26.2935V10.6216H6.25559V57.7069H19.3503V45.239C19.9149 46.4388 20.551 47.5372 21.2586 48.5344C21.9478 49.5055 22.7047 50.3806 23.5295 51.1595C25.2012 52.7383 27.0586 54.0153 29.1017 54.9904C31.1449 55.9656 33.3273 56.6621 35.6491 57.08C37.4022 57.3894 39.1807 57.5843 40.9847 57.6646C41.6177 57.6928 42.2538 57.7069 42.893 57.7069V44.6122C41.4999 44.6122 40.0604 44.5193 38.5745 44.3336ZM69.3894 23.7163V44.6122H58.9414V23.7163H69.3894ZM60.8497 25.6246V42.7039H67.4811V25.6246H60.8497ZM155.93 23.7163V27.6865H145.482V23.7163H155.93ZM147.39 25.6246V25.7782H154.021V25.6246H147.39ZM82.4841 57.7069V10.6216H45.8467V57.7069H82.4841ZM188.51 44.6122H175.416V57.7069H188.51V44.6122Z" fill="black"/>
<path d="M39.0771 4.89674C38.0091 6.4291 36.7553 8.26329 35.3158 10.3993C33.9228 12.5353 32.5762 14.7874 31.276 17.1556C30.0222 19.5238 28.9542 21.892 28.0719 24.2602C27.1897 26.6284 26.7485 28.7877 26.7485 30.7379C26.7485 32.5025 27.12 33.9188 27.863 34.9868C28.6524 36.0083 29.6275 36.821 30.7884 37.4246C31.9957 38.0283 33.3191 38.423 34.7586 38.6087C36.2445 38.7945 37.684 38.8873 39.0771 38.8873V51.9821C36.616 51.9821 34.2014 51.7731 31.8332 51.3552C29.5114 50.9373 27.329 50.2407 25.2858 49.2656C23.2427 48.2905 21.3853 47.0135 19.7136 45.4347C18.0419 43.8559 16.6489 41.8824 15.5344 39.5142V51.9821H2.4397V4.89674H15.5344V20.5686C16.4167 17.7825 17.5544 15.0893 18.9474 12.4889C20.3869 9.88852 21.8728 7.3578 23.4052 4.89674H39.0771Z" fill="white"/>
<path d="M65.5735 38.8873V17.9915H55.1255V38.8873H65.5735ZM78.6682 51.9821H42.0308V4.89674H78.6682V51.9821Z" fill="white"/>
<path d="M121.944 34.9868C121.944 37.3085 121.48 39.5142 120.551 41.6038C119.669 43.6469 118.462 45.4347 116.929 46.9671C115.397 48.4994 113.586 49.7299 111.496 50.6587C109.453 51.5409 107.271 51.9821 104.949 51.9821H100.7V38.8873C101.583 38.8873 102.488 38.9338 103.417 39.0266C104.392 39.0731 105.274 39.0034 106.064 38.8177C106.899 38.6319 107.573 38.2605 108.083 37.7032C108.594 37.146 108.85 36.2405 108.85 34.9868V17.9915H98.4017V51.9821H85.307V17.9915H81.4064V4.89674H121.944V34.9868Z" fill="white"/>
<path d="M140.343 4.96639V2.31958H153.437V4.96639H169.109V17.9915H165.139V36.3102C165.139 37.0067 165.232 37.5407 165.418 37.9122C165.65 38.2837 165.952 38.5623 166.323 38.748C166.695 38.8873 167.112 38.957 167.577 38.957C168.041 38.957 168.552 38.957 169.109 38.957V51.9821H163.885C161.192 51.9821 159.056 51.4713 157.477 50.4497C155.945 49.4281 154.761 48.1279 153.925 46.5491C153.135 44.9239 152.625 43.1129 152.392 41.1162C152.207 39.0731 152.114 37.0299 152.114 34.9868H141.666V40.2804C141.666 41.9056 141.341 43.438 140.691 44.8775C140.087 46.2705 139.251 47.5011 138.183 48.5691C137.115 49.6371 135.862 50.4729 134.422 51.0766C132.983 51.6802 131.473 51.9821 129.895 51.9821H124.601V38.957C125.158 38.957 125.669 38.957 126.133 38.957C126.598 38.957 127.016 38.8873 127.387 38.748C127.759 38.5623 128.037 38.2837 128.223 37.9122C128.455 37.5407 128.571 37.0067 128.571 36.3102V17.9915H124.601V4.96639H140.343ZM152.114 21.9617V17.9915H141.666V21.9617H152.114Z" fill="white"/>
<path d="M184.695 38.8873V51.9821H171.6V38.8873H184.695Z" fill="white"/>
<path fill-rule="evenodd" clip-rule="evenodd" d="M22.3448 2.98841L21.7846 3.88806C20.293 6.28361 18.8456 8.74346 17.4421 11.2675V2.98841H0.530762V53.8903H17.4421V45.8458C17.7516 46.184 18.0718 46.5095 18.4027 46.822C20.2164 48.535 22.2381 49.9258 24.4632 50.9878C26.6664 52.0393 29.0123 52.7865 31.4945 53.2333L31.5009 53.2344C33.9811 53.6721 36.5068 53.8903 39.0765 53.8903H80.5759V19.8997H83.3981V53.8903H104.948C107.519 53.8903 109.96 53.4004 112.252 52.4106L112.262 52.4066L112.271 52.4025C114.563 51.3839 116.571 50.0234 118.278 48.3164C119.983 46.6114 121.324 44.6242 122.299 42.3698C122.439 42.0526 122.57 41.7331 122.692 41.4111V53.8903H129.894C131.723 53.8903 133.483 53.5392 135.159 52.8364C136.82 52.1402 138.283 51.1675 139.532 49.9184C140.767 48.683 141.737 47.2562 142.435 45.6493C143.196 43.9597 143.574 42.1633 143.574 40.2804V36.895H150.231C150.272 38.3599 150.358 39.8245 150.491 41.289L150.494 41.3128L150.496 41.3366C150.75 43.5226 151.315 45.5443 152.208 47.3829L152.222 47.4127L152.238 47.442C153.227 49.3099 154.63 50.8457 156.418 52.0375L156.429 52.0447L156.44 52.0518C158.434 53.3421 160.975 53.8903 163.885 53.8903H186.602V36.979H169.691V37.0487H167.576C167.38 37.0487 167.228 37.0276 167.113 36.9985C167.11 36.9962 167.108 36.9939 167.105 36.9914C167.1 36.9689 167.094 36.9406 167.088 36.9061C167.065 36.7725 167.047 36.578 167.047 36.3101V19.8997H171.017V3.05807H155.345V0.411255H138.434V3.05807H123.852V2.98841H22.3448ZM123.852 19.8997V34.9867C123.852 35.6825 123.814 36.3699 123.739 37.0487H126.133C126.298 37.0487 126.432 37.0337 126.539 37.0115L126.556 36.9777L126.594 36.9168C126.598 36.9056 126.608 36.8774 126.619 36.8277C126.641 36.7243 126.662 36.5573 126.662 36.3101V19.8997H123.852ZM128.571 17.9914V36.3101C128.571 37.0067 128.454 37.5407 128.222 37.9122C128.037 38.2836 127.758 38.5623 127.386 38.748C127.015 38.8873 126.597 38.957 126.133 38.957H124.6V51.982H129.894C131.473 51.982 132.982 51.6802 134.421 51.0766C135.861 50.4729 137.115 49.6371 138.183 48.5691C139.251 47.501 140.087 46.2705 140.69 44.8775C141.34 43.438 141.665 41.9056 141.665 40.2804V34.9867H152.113C152.113 37.0299 152.206 39.073 152.392 41.1162C152.624 43.1129 153.135 44.9239 153.924 46.5491C154.76 48.1279 155.944 49.4281 157.476 50.4497C159.055 51.4713 161.191 51.982 163.885 51.982H169.109V38.957H167.576C167.112 38.957 166.694 38.8873 166.322 38.748C165.951 38.5623 165.649 38.2836 165.417 37.9122C165.231 37.5407 165.138 37.0067 165.138 36.3101V17.9914H169.109V4.96636H153.437V2.31955H140.342V4.96636H124.6V17.9914H128.571ZM100.309 36.979H100.7C101.632 36.979 102.584 37.0272 103.554 37.1226C104.366 37.1578 105.051 37.0953 105.626 36.9601L105.637 36.9574L105.649 36.9548C106.156 36.8422 106.464 36.6453 106.676 36.4137C106.709 36.3776 106.941 36.0573 106.941 34.9867V19.8997H100.309V36.979ZM98.4011 17.9914H108.849V34.9867C108.849 36.2405 108.594 37.146 108.083 37.7032C107.572 38.2604 106.899 38.6319 106.063 38.8176C105.378 39.0168 104.509 39.0434 104.103 39.0434C103.314 39.0434 102.875 38.9763 102.608 38.9571C101.96 38.9106 101.324 38.8873 100.7 38.8873V51.982H104.948C107.27 51.982 109.453 51.5409 111.496 50.6586C113.585 49.7299 115.396 48.4994 116.929 46.967C118.461 45.4347 119.668 43.6469 120.551 41.6038C121.479 39.5142 121.944 37.3085 121.944 34.9867V4.89671H81.4058V17.9914H85.3064V51.982H98.4011V17.9914ZM40.1219 36.979V6.73682C39.1819 8.09484 38.11 9.66687 36.9058 11.4537C35.5459 13.5396 34.2289 15.7419 32.9551 18.0612C31.7408 20.3562 30.7096 22.6446 29.8595 24.9264C29.0344 27.1413 28.6562 29.0712 28.6562 30.7379C28.6562 32.2204 28.9633 33.2072 29.4035 33.86C30.0127 34.6368 30.7574 35.2557 31.6549 35.7246C32.6526 36.2214 33.7623 36.5557 34.9988 36.7156C36.4105 36.8919 37.7694 36.979 39.0765 36.979H40.1219ZM34.758 38.6087C33.3185 38.423 31.9951 38.0283 30.7878 37.4246C29.6269 36.8209 28.6517 36.0083 27.8623 34.9867C27.1194 33.9187 26.7479 32.5025 26.7479 30.7379C26.7479 28.7876 27.189 26.6284 28.0713 24.2602C28.9536 21.892 30.0216 19.5238 31.2753 17.1556C32.5755 14.7874 33.9221 12.5353 35.3152 10.3993C36.1993 9.08733 37.0134 7.88923 37.7574 6.805C38.2247 6.12398 38.6644 5.48788 39.0765 4.89671H23.4046C21.8722 7.35778 20.3863 9.8885 18.9468 12.4889C18.4069 13.4967 17.9053 14.5186 17.4421 15.5543C16.7102 17.1909 16.0741 18.8623 15.5338 20.5686V4.89671H2.43906V51.982H15.5338V39.5142C16.0984 40.7139 16.7345 41.8124 17.4421 42.8095C18.1312 43.7807 18.8882 44.6557 19.713 45.4347C21.3846 47.0135 23.242 48.2904 25.2852 49.2656C27.3283 50.2407 29.5108 50.9372 31.8326 51.3552C33.5856 51.6645 35.3642 51.8594 37.1682 51.9398C37.8011 51.9679 38.4372 51.982 39.0765 51.982V38.8873C37.6834 38.8873 36.2439 38.7944 34.758 38.6087ZM65.5728 17.9914V38.8873H55.1249V17.9914H65.5728ZM57.0332 19.8997V36.979H63.6645V19.8997H57.0332ZM152.113 17.9914V21.9617H141.665V17.9914H152.113ZM143.574 19.8997V20.0534H150.205V19.8997H143.574ZM78.6676 51.982V4.89671H42.0302V51.982H78.6676ZM184.694 38.8873H171.599V51.982H184.694V38.8873Z" fill="black"/>
<path d="M4.34762 59.6139L0.530762 53.8903H8.13237L10.5177 57.7069L4.34762 59.6139Z" fill="black"/>
<path d="M97.3461 38.624L100.84 38.9029L101.64 51.9821H97.3461V38.624Z" fill="white"/>
<path d="M41.0509 5.22893C39.9377 6.18308 37.616 8.28221 37.2343 9.04553L40.0968 10.9538L41.0509 5.22893Z" fill="black"/>
<path d="M122.693 53.8868L126.511 59.6139L128.356 57.23L126.792 53.5224L122.693 53.8868Z" fill="black"/>
<path d="M169.384 39.1012L171.292 41.0095H170.815V44.8261L169.384 39.1012Z" fill="black"/>
<path d="M170.995 3.06265L174.808 8.78185L170.423 9.09958L170.995 3.06265Z" fill="black"/>
<path d="M84.5786 53.8905L84.3584 53.4134L88.7583 53.8905L88.2668 55.7209L89.1292 57.23L87.2209 59.6154L83.4043 53.8905H84.5786Z" fill="black"/>
<path d="M20.5826 7.56553L17.4421 2.98802L16.3395 9.86013H18.8854L20.5826 7.56553Z" fill="black"/>
<path d="M158.622 4.73696L155.344 0.411011L154.379 4.17122L157.067 4.59552L158.622 4.73696Z" fill="black"/>
<path d="M98.4034 37.6998H104.149V39.0434H98.4034V37.6998Z" fill="black"/>
<path d="M156.874 54.5092C154.263 51.1731 152.274 47.5107 152.274 47.5107L155.959 50.3078L159.253 53.8754C159.253 53.8754 157.467 55.2665 156.874 54.5092Z" fill="black"/>
<path d="M190.42 42.7058L186.599 36.9787L185.826 43.3948L188.688 45.3031L190.42 42.7058Z" fill="black"/>
<path d="M170.886 8.24072H174.013V24.978H170.886V8.24072Z" fill="black"/>
<path d="M3.93079 56.1526H20.6301V58.9232H3.93079V56.1526Z" fill="black"/>
<path d="M19.8407 46.6643V57.9288H17.0702V46.6643H19.8407Z" fill="black"/>
<path d="M36.3731 55.1354H83.7156V58.9231H36.3731V55.1354Z" fill="black"/>
<path d="M81.3625 56.9496V18.7385H83.7004V56.9496H81.3625Z" fill="black"/>
<path d="M100.574 22.0328H103.254V37.6998H100.574V22.0328Z" fill="black"/>
<path d="M57.4977 22.0328H60.1771V37.6998H57.4977V22.0328Z" fill="black"/>
<path d="M107.565 22.0328V24.7655H102.1V22.0328H107.565Z" fill="black"/>
<path d="M64.4886 22.0328V24.7655H59.0233V22.0328H64.4886Z" fill="black"/>
<path d="M87.7766 52.3345H111.474V58.9232H87.7766V52.3345Z" fill="black"/>
<path d="M161.96 52.7368H189.741V58.9687H165.075C163.355 58.9687 161.96 57.5736 161.96 55.8528V52.7368Z" fill="black"/>
<path d="M166.909 20.287H170.522V38.4209H166.909V20.287Z" fill="black"/>
<path d="M15.4797 26.2971C15.4797 26.4003 17.1701 12.8367 24.3827 4.8857L22.4604 4.57788L18.9857 7.95863L15.5319 4.8857C15.5319 14.2082 15.4797 17.2296 15.4797 26.2971Z" fill="black"/>
<rect x="141.663" y="21.4033" width="10.4448" height="2.28513" rx="0.0417376" fill="black"/>
</svg>
