<svg width="1576" height="442" viewBox="0 0 1576 442" fill="none" xmlns="http://www.w3.org/2000/svg">
<path fill-rule="evenodd" clip-rule="evenodd" d="M974.942 23.1696H1094.5L1094.5 23.168L1094.5 23.1696H1094.5V23.1737L1108.68 41.8819H1205.3V42.142L1232.1 82.3479L1231.99 82.356H1232.28V201.423H1204.21V281.695H1209.3L1209.3 281.694L1209.3 281.695H1209.42V281.872L1236.31 322.17H1236.4V441.729H1181.86C1161.29 441.729 1143.32 437.853 1129.23 428.731L1129.15 428.681L1129.07 428.63C1119.65 422.35 1111.74 414.719 1105.43 405.772C1105.39 405.726 1105.35 405.679 1105.31 405.63C1090 386.064 1077.71 364.911 1073.97 358.269C1073.65 357.708 1073.33 357.143 1073.02 356.574C1072.87 356.297 1072.79 356.152 1072.79 356.152L1072.8 356.157C1072.71 355.994 1072.62 355.83 1072.53 355.666L1072.42 355.459L1072.32 355.248C1067.26 344.833 1063.7 333.586 1061.55 321.576H1038.26V345.509C1038.26 358.822 1035.6 371.521 1030.22 383.467C1025.28 394.827 1018.43 404.914 1009.69 413.648C1000.86 422.479 990.515 429.356 978.778 434.278C966.93 439.246 954.485 441.729 941.552 441.729H890.637V441.692L863.679 401.255H863.653V397.903C862.283 399.405 860.875 400.878 859.431 402.322C847.363 414.39 833.163 424.009 816.961 431.21L816.896 431.239L816.83 431.267C800.624 438.266 783.366 441.729 765.193 441.729H612.881L612.88 441.73L612.879 441.729H612.837V441.666L592.885 411.737V441.729H299.493C281.326 441.729 263.47 440.186 245.936 437.092L245.89 437.084C228.341 433.925 211.756 428.642 196.181 421.208C180.449 413.7 166.157 403.868 153.334 391.758C150.995 389.548 148.731 387.247 146.543 384.856V441.729H26.9833V441.718L0 401.255V41.3895H119.559L119.559 41.3869L137.877 68.0868C141.956 61.2365 146.084 54.4575 150.26 47.7498L154.22 41.3895H871.854V41.8819H974.942V23.1696ZM592.885 401.255H594.199L594.2 401.256H592.885V401.255ZM320.381 401.255V410.058H320.375V401.255H320.381ZM106.068 81.8635V54.8807H13.4912V387.764H26.9833V81.8635H106.068ZM40.4807 387.764H40.4745V95.3548H40.4807V387.764ZM320.381 387.764H320.375V95.3548L320.381 95.3547V387.764ZM599.345 201.423V387.764H612.837V201.423H599.345ZM626.328 387.764V187.932L626.334 187.932V387.764H626.328ZM858.363 81.8635H571.769V54.8807H858.363V81.8635ZM898.838 292.986C900.49 291.77 901.795 290.205 902.751 288.293C904.392 285.666 905.213 281.891 905.213 276.967V201.423H918.705V317.441C918.705 319.188 918.556 320.369 918.398 321.1C918.321 321.452 918.253 321.65 918.223 321.73L917.954 322.16L917.834 322.399C917.077 322.556 916.133 322.662 914.961 322.662H898.04C898.572 317.863 898.838 313.003 898.838 308.085V292.986ZM877.144 380.387V387.764H890.637V353.503C889.777 355.78 888.85 358.039 887.855 360.281C884.794 367.359 881.224 374.064 877.144 380.387ZM904.134 387.764H904.128V336.153L904.134 336.153V387.764ZM1075.28 321.576C1077.25 331.56 1080.31 340.819 1084.46 349.354C1085.37 351.081 1086.35 352.762 1087.38 354.395C1087.32 353.923 1087.26 353.451 1087.21 352.977L1087.19 352.809L1087.17 352.64C1086.23 342.287 1085.62 331.932 1085.33 321.576H1075.28ZM1105.19 373.797C1103.05 366.746 1101.52 359.286 1100.61 351.419C1099.29 336.974 1098.64 322.529 1098.64 308.085L1098.64 308.085C1098.64 322.529 1099.3 336.974 1100.61 351.418C1101.53 359.288 1103.06 366.75 1105.2 373.803L1105.19 373.797ZM1191.81 82.356H1121.49V63.6436H1001.93V82.356H898.838V81.8635H877.144V55.3732H988.434V36.6608H1081.01V55.3732H1191.81V82.356ZM932.196 187.932L932.203 187.932V317.441C932.203 322.365 931.382 326.14 929.74 328.767C928.427 331.393 926.458 333.363 923.831 334.676C922.904 335.024 921.935 335.31 920.925 335.535C921.933 335.31 922.899 335.023 923.825 334.676C926.451 333.363 928.421 331.393 929.734 328.767C931.376 326.14 932.196 322.365 932.196 317.441V187.932ZM904.128 147.458V95.8472L904.134 95.8472V147.458H904.128ZM735.161 387.764H735.155V335.661L735.161 335.661V387.764ZM732.396 296.29V322.17H735.155C741.747 322.17 748.474 322.51 755.333 323.185C761.074 323.433 765.92 322.992 769.982 322.036L770.064 322.017L770.146 321.998C773.727 321.202 775.907 319.81 777.408 318.173C777.642 317.918 779.278 315.653 779.278 308.085V201.423H765.786V267.611C765.786 276.474 763.98 282.876 760.369 286.815C756.758 290.755 751.998 293.381 746.089 294.694C741.339 296.077 735.331 296.283 732.396 296.29ZM732.396 282.772V201.423H752.295V267.611C752.295 275.179 750.658 277.444 750.424 277.699C748.924 279.336 746.744 280.728 743.162 281.524L743.08 281.542L742.999 281.562C739.928 282.284 736.41 282.713 732.396 282.772ZM792.769 187.932V308.085C792.769 316.948 790.964 323.35 787.353 327.289C783.742 331.229 778.981 333.855 773.072 335.168C771.681 335.496 770.249 335.773 768.777 335.998C770.251 335.773 771.685 335.496 773.078 335.168C778.988 333.855 783.748 331.229 787.359 327.289C790.97 323.35 792.776 316.948 792.776 308.085V187.932L792.769 187.932ZM598.752 147.458V95.3548L598.758 95.3547V147.458H598.752ZM552.41 81.8635H293.392V54.8807H552.41V81.8635ZM293.392 128.049C298.251 120.901 302.748 114.339 306.884 108.364V322.17H299.493C297.477 322.17 295.443 322.14 293.392 322.081V128.049ZM225.868 275.396C226.238 264.23 228.93 251.459 234.331 236.96C240.341 220.828 247.631 204.65 256.217 188.425C263.889 174.453 271.785 161.082 279.9 148.309V281.695H272.51C263.269 281.695 253.662 281.08 243.681 279.834C237.276 279.005 231.352 277.515 225.868 275.396ZM227.002 290.041C231.779 291.486 236.772 292.545 241.979 293.217C252.484 294.53 262.661 295.187 272.51 295.187V320.531C271.896 320.459 271.281 320.385 270.664 320.308C261.923 319.177 254.077 316.814 247.024 313.301C240.679 309.986 235.414 305.611 231.107 300.118C229.378 297.554 227.939 294.26 227.002 290.041ZM168.24 102.921C160.849 115.181 153.617 127.673 146.543 140.395V91.1364L168.24 102.921ZM180.107 109.366C172.288 122.322 164.646 135.543 157.18 149.03C153.363 156.155 149.817 163.379 146.543 170.702C141.371 182.266 136.876 194.076 133.058 206.132V206.152C139.295 186.454 147.338 167.414 157.187 149.03C164.652 135.544 172.293 122.324 180.112 109.369L180.107 109.366ZM174.198 54.8807H272.51C269.597 59.0602 266.488 63.5573 263.184 68.372C260.268 72.6217 257.2 77.1189 253.979 81.8635H223.879L174.198 54.8807ZM426.443 295.187V322.17H473.325V201.423H459.833V295.187H426.443ZM426.443 281.695H446.342V201.423H426.443V281.695ZM486.816 187.932V335.661L486.823 335.661V187.932L486.816 187.932ZM1015.42 77.1349L1015.42 77.1348V95.8472L1015.42 95.8472V77.1349ZM1098.64 187.932V216L1098.64 216V187.932H1024.78L1098.64 187.932ZM1038.26 201.423V202.509H1085.15V201.423H1038.26Z" fill="black"/>
<path fill-rule="evenodd" clip-rule="evenodd" d="M988.44 55.3733V36.6609H1081.02V55.3733H1191.81V147.458H1163.75V276.967C1163.75 281.891 1164.4 285.666 1165.72 288.293C1167.36 290.919 1169.49 292.889 1172.12 294.202C1174.74 295.187 1177.7 295.679 1180.98 295.679H1191.81V387.764H1154.88C1135.84 387.764 1120.74 384.152 1109.58 376.93C1098.74 369.708 1090.37 360.516 1084.46 349.354C1078.88 337.864 1075.27 325.061 1073.63 310.945C1072.32 296.5 1071.66 282.055 1071.66 267.611H997.797V305.035C997.797 316.525 995.499 327.359 990.903 337.536C986.635 347.384 980.726 356.084 973.175 363.635C965.625 371.185 956.761 377.094 946.584 381.362C936.407 385.63 925.738 387.764 914.576 387.764H877.151V295.679H887.985C891.268 295.679 894.222 295.187 896.849 294.202C899.475 292.889 901.445 290.919 902.758 288.293C904.399 285.666 905.22 281.891 905.22 276.967V147.458H877.151V55.3733H988.44ZM1071.66 175.526V147.458H997.797V171.762C997.782 171.797 997.774 171.835 997.774 171.875V187.44C997.774 187.603 997.907 187.735 998.07 187.735H1071.32C1071.48 187.735 1071.62 187.603 1071.62 187.44V175.526H1071.66Z" fill="white"/>
<path d="M272.516 54.8808C264.966 65.7143 256.102 78.6816 245.925 93.7828C236.076 108.884 226.556 124.806 217.364 141.549C208.5 158.291 200.95 175.034 194.712 191.776C188.475 208.519 185.356 223.784 185.356 237.572C185.356 250.047 187.982 260.06 193.235 267.611C198.816 274.833 205.71 280.578 213.917 284.846C222.453 289.113 231.809 291.904 241.986 293.217C252.491 294.53 262.668 295.187 272.516 295.187V387.764C255.117 387.764 238.046 386.286 221.304 383.332C204.889 380.377 189.46 375.453 175.015 368.559C160.57 361.665 147.439 352.637 135.621 341.475C123.802 330.313 113.954 316.361 106.075 299.619V387.764H13.498V54.8808H106.056C106.056 88.0196 105.963 109.893 105.87 131.615V131.616C105.778 153.055 105.687 174.347 105.687 206.177C105.687 206.212 105.714 206.027 105.772 205.637C106.916 197.853 120.057 108.42 168.559 54.8808H272.516Z" fill="white"/>
<path fill-rule="evenodd" clip-rule="evenodd" d="M552.417 387.764H293.398V54.8808H552.417V387.764ZM459.84 295.187V147.458H385.975V295.187H459.84Z" fill="white"/>
<path fill-rule="evenodd" clip-rule="evenodd" d="M848.521 314.392C855.087 299.619 858.37 284.025 858.37 267.611V54.8808H571.775V147.458H599.352V387.764H684.463V387.764H714.818V387.764H738.217C754.631 387.764 770.061 384.645 784.505 378.408C799.278 371.842 812.081 363.142 822.915 352.309C833.748 341.475 842.284 328.836 848.521 314.392ZM710.213 296.29H732.561V296.262C737.436 296.193 741.947 295.671 746.096 294.694C752.005 293.381 756.765 290.755 760.376 286.815C763.987 282.876 765.793 276.474 765.793 267.611V147.458H691.928V296.286H710.213L710.213 296.29Z" fill="white"/>
<path d="M1325.88 111.711V33.0205H1353.9C1363.19 33.0205 1369.99 34.9679 1374.28 38.8627C1378.58 42.7574 1380.72 48.0432 1380.72 54.72C1380.72 58.6942 1379.57 62.3108 1377.26 65.5697C1374.96 68.7491 1371.7 70.776 1367.49 71.6503V71.7696C1372.18 72.6439 1375.87 74.79 1378.58 78.2079C1381.36 81.5463 1382.75 85.3616 1382.75 89.6538C1382.75 96.3305 1380.24 101.696 1375.24 105.75C1370.23 109.724 1363.08 111.711 1353.78 111.711H1325.88ZM1335.41 102.769H1356.04C1361.68 102.769 1365.86 101.616 1368.56 99.3112C1371.34 97.0062 1372.73 93.787 1372.73 89.6538C1372.73 85.441 1371.34 82.2219 1368.56 79.9963C1365.86 77.6912 1361.68 76.5387 1356.04 76.5387H1335.41V102.769ZM1335.41 67.5966H1354.01C1365.14 67.5966 1370.71 63.3044 1370.71 54.72C1370.71 46.215 1365.14 41.9626 1354.01 41.9626H1335.41V67.5966ZM1426.9 112.903C1421.26 112.903 1416.21 111.671 1411.76 109.207C1407.39 106.743 1403.97 103.206 1401.51 98.5959C1399.04 93.9062 1397.81 88.3423 1397.81 81.9039C1397.81 75.4656 1399.04 69.9414 1401.51 65.3313C1403.97 60.6416 1407.35 57.0648 1411.64 54.6007C1415.93 52.1367 1420.82 50.9047 1426.3 50.9047C1431.87 50.9047 1436.6 52.097 1440.49 54.4815C1444.47 56.8661 1447.49 60.125 1449.55 64.2582C1451.62 68.312 1452.65 72.8824 1452.65 77.9694C1452.65 79.3207 1452.61 80.5527 1452.53 81.6655C1452.46 82.7783 1452.34 83.7719 1452.18 84.6462H1404.01V76.181H1448L1443.12 77.1348C1443.12 71.4119 1441.53 67.0005 1438.35 63.9005C1435.25 60.8006 1431.15 59.2506 1426.07 59.2506C1422.17 59.2506 1418.79 60.1647 1415.93 61.9929C1413.15 63.7416 1410.96 66.3248 1409.37 69.7427C1407.86 73.0811 1407.11 77.1348 1407.11 81.9039C1407.11 86.5936 1407.9 90.6473 1409.49 94.0652C1411.08 97.4831 1413.31 100.106 1416.17 101.934C1419.11 103.683 1422.61 104.557 1426.66 104.557C1431.03 104.557 1434.57 103.723 1437.27 102.053C1440.06 100.384 1442.28 98.119 1443.95 95.2575L1451.46 99.6689C1449.95 102.371 1448 104.716 1445.62 106.703C1443.31 108.69 1440.57 110.24 1437.39 111.353C1434.29 112.387 1430.8 112.903 1426.9 112.903ZM1483.12 35.1666V95.2575C1483.12 98.1984 1483.95 100.384 1485.62 101.815C1487.29 103.246 1489.44 103.961 1492.06 103.961C1494.36 103.961 1496.35 103.564 1498.02 102.769C1499.69 101.974 1501.2 100.901 1502.55 99.5497L1505.89 107.538C1504.06 109.207 1501.88 110.519 1499.33 111.472C1496.87 112.426 1494.01 112.903 1490.75 112.903C1487.73 112.903 1484.91 112.387 1482.28 111.353C1479.66 110.24 1477.55 108.532 1475.96 106.226C1474.45 103.842 1473.66 100.742 1473.58 96.9267V37.7896L1483.12 35.1666ZM1504.82 52.097V60.3237H1461.66V52.097H1504.82ZM1553.81 73.2003C1553.81 68.7491 1552.62 65.3313 1550.24 62.9467C1547.85 60.4827 1544.47 59.2506 1540.1 59.2506C1535.97 59.2506 1532.47 60.1647 1529.61 61.9929C1526.75 63.7416 1524.64 66.603 1523.29 70.5773L1515.54 65.8082C1517.13 61.357 1520.07 57.7802 1524.36 55.0777C1528.66 52.2957 1533.98 50.9047 1540.34 50.9047C1544.63 50.9047 1548.53 51.6598 1552.02 53.17C1555.52 54.6007 1558.26 56.8263 1560.25 59.8468C1562.32 62.7877 1563.35 66.603 1563.35 71.2927V100.146C1563.35 103.007 1564.86 104.438 1567.88 104.438C1569.39 104.438 1570.86 104.239 1572.29 103.842L1571.82 111.353C1570.23 112.148 1568.16 112.546 1565.62 112.546C1563.31 112.546 1561.24 112.108 1559.42 111.234C1557.59 110.36 1556.16 109.048 1555.12 107.3C1554.09 105.471 1553.57 103.206 1553.57 100.504V99.3112L1555.96 99.6689C1555 102.769 1553.38 105.312 1551.07 107.3C1548.77 109.207 1546.18 110.638 1543.32 111.592C1540.46 112.466 1537.64 112.903 1534.86 112.903C1531.36 112.903 1528.1 112.307 1525.08 111.115C1522.06 109.923 1519.63 108.134 1517.81 105.75C1516.06 103.285 1515.18 100.265 1515.18 96.6882C1515.18 92.237 1516.65 88.5807 1519.59 85.7192C1522.61 82.7783 1526.79 80.7912 1532.11 79.7578L1555.72 75.108V82.977L1536.52 86.9115C1532.63 87.7064 1529.73 88.8192 1527.82 90.2499C1525.91 91.6806 1524.96 93.6678 1524.96 96.2113C1524.96 98.6753 1525.91 100.702 1527.82 102.292C1529.81 103.802 1532.59 104.557 1536.17 104.557C1538.47 104.557 1540.66 104.279 1542.72 103.723C1544.87 103.087 1546.78 102.173 1548.45 100.98C1550.12 99.7087 1551.43 98.1587 1552.38 96.3305C1553.34 94.4229 1553.81 92.1973 1553.81 89.6538V73.2003Z" fill="#999999"/>
</svg>
