<svg width="166" height="47" viewBox="0 0 166 47" fill="none" xmlns="http://www.w3.org/2000/svg">
<path d="M139.296 11V3.08H142.116C143.052 3.08 143.736 3.276 144.168 3.668C144.6 4.06 144.816 4.592 144.816 5.264C144.816 5.664 144.7 6.028 144.468 6.356C144.236 6.676 143.908 6.88 143.484 6.968V6.98C143.956 7.068 144.328 7.284 144.6 7.628C144.88 7.964 145.02 8.348 145.02 8.78C145.02 9.452 144.768 9.992 144.264 10.4C143.76 10.8 143.04 11 142.104 11H139.296ZM140.256 10.1H142.332C142.9 10.1 143.32 9.984 143.592 9.752C143.872 9.52 144.012 9.196 144.012 8.78C144.012 8.356 143.872 8.032 143.592 7.808C143.32 7.576 142.9 7.46 142.332 7.46H140.256V10.1ZM140.256 6.56H142.128C143.248 6.56 143.808 6.128 143.808 5.264C143.808 4.408 143.248 3.98 142.128 3.98H140.256V6.56ZM149.704 11.12C149.136 11.12 148.628 10.996 148.18 10.748C147.74 10.5 147.396 10.144 147.148 9.68C146.9 9.208 146.776 8.648 146.776 8C146.776 7.352 146.9 6.796 147.148 6.332C147.396 5.86 147.736 5.5 148.168 5.252C148.6 5.004 149.092 4.88 149.644 4.88C150.204 4.88 150.68 5 151.072 5.24C151.472 5.48 151.776 5.808 151.984 6.224C152.192 6.632 152.296 7.092 152.296 7.604C152.296 7.74 152.292 7.864 152.284 7.976C152.276 8.088 152.264 8.188 152.248 8.276H147.4V7.424H151.828L151.336 7.52C151.336 6.944 151.176 6.5 150.856 6.188C150.544 5.876 150.132 5.72 149.62 5.72C149.228 5.72 148.888 5.812 148.6 5.996C148.32 6.172 148.1 6.432 147.94 6.776C147.788 7.112 147.712 7.52 147.712 8C147.712 8.472 147.792 8.88 147.952 9.224C148.112 9.568 148.336 9.832 148.624 10.016C148.92 10.192 149.272 10.28 149.68 10.28C150.12 10.28 150.476 10.196 150.748 10.028C151.028 9.86 151.252 9.632 151.42 9.344L152.176 9.788C152.024 10.06 151.828 10.296 151.588 10.496C151.356 10.696 151.08 10.852 150.76 10.964C150.448 11.068 150.096 11.12 149.704 11.12ZM155.602 3.296V9.344C155.602 9.64 155.686 9.86 155.854 10.004C156.022 10.148 156.238 10.22 156.502 10.22C156.734 10.22 156.934 10.18 157.102 10.1C157.27 10.02 157.422 9.912 157.558 9.776L157.894 10.58C157.71 10.748 157.49 10.88 157.234 10.976C156.986 11.072 156.698 11.12 156.37 11.12C156.066 11.12 155.782 11.068 155.518 10.964C155.254 10.852 155.042 10.68 154.882 10.448C154.73 10.208 154.65 9.896 154.642 9.512V3.56L155.602 3.296ZM157.786 5V5.828H153.442V5H157.786ZM162.957 7.124C162.957 6.676 162.837 6.332 162.597 6.092C162.357 5.844 162.017 5.72 161.577 5.72C161.161 5.72 160.809 5.812 160.521 5.996C160.233 6.172 160.021 6.46 159.885 6.86L159.105 6.38C159.265 5.932 159.561 5.572 159.993 5.3C160.425 5.02 160.961 4.88 161.601 4.88C162.033 4.88 162.425 4.956 162.777 5.108C163.129 5.252 163.405 5.476 163.605 5.78C163.813 6.076 163.917 6.46 163.917 6.932V9.836C163.917 10.124 164.069 10.268 164.373 10.268C164.525 10.268 164.673 10.248 164.817 10.208L164.769 10.964C164.609 11.044 164.401 11.084 164.145 11.084C163.913 11.084 163.705 11.04 163.521 10.952C163.337 10.864 163.193 10.732 163.089 10.556C162.985 10.372 162.933 10.144 162.933 9.872V9.752L163.173 9.788C163.077 10.1 162.913 10.356 162.681 10.556C162.449 10.748 162.189 10.892 161.901 10.988C161.613 11.076 161.329 11.12 161.049 11.12C160.697 11.12 160.369 11.06 160.065 10.94C159.761 10.82 159.517 10.64 159.333 10.4C159.157 10.152 159.069 9.848 159.069 9.488C159.069 9.04 159.217 8.672 159.513 8.384C159.817 8.088 160.237 7.888 160.773 7.784L163.149 7.316V8.108L161.217 8.504C160.825 8.584 160.533 8.696 160.341 8.84C160.149 8.984 160.053 9.184 160.053 9.44C160.053 9.688 160.149 9.892 160.341 10.052C160.541 10.204 160.821 10.28 161.181 10.28C161.413 10.28 161.633 10.252 161.841 10.196C162.057 10.132 162.249 10.04 162.417 9.92C162.585 9.792 162.717 9.636 162.813 9.452C162.909 9.26 162.957 9.036 162.957 8.78V7.124Z" fill="#999999"/>
<path d="M30.7915 11.3889C30.0158 12.5019 29.1051 13.8341 28.0596 15.3855C27.0478 16.937 26.0697 18.5727 25.1254 20.2928C24.2148 22.0128 23.4391 23.7329 22.7983 25.4529C22.1575 27.173 21.8371 28.7413 21.8371 30.1578C21.8371 31.4394 22.1069 32.4681 22.6465 33.2438C23.2198 33.9858 23.9281 34.576 24.7713 35.0144C25.6482 35.4529 26.6094 35.7396 27.6549 35.8745C28.7342 36.0094 29.7797 36.0768 30.7915 36.0768V45.5877C29.004 45.5877 27.2502 45.436 25.5301 45.1324C23.8438 44.8289 22.2586 44.323 20.7747 43.6147C19.2907 42.9065 17.9416 41.979 16.7275 40.8323C15.5133 39.6856 14.5015 38.2522 13.6921 36.5321V45.5877H4.18115V11.3889H13.6921V22.7717C14.3329 20.7481 15.1592 18.7919 16.171 16.9032C17.2165 15.0145 18.2958 13.1764 19.4087 11.3889H30.7915Z" fill="white"/>
<path d="M50.0362 36.0768V20.8998H42.4477V36.0768H50.0362ZM59.5471 45.5877H32.9368V11.3889H59.5471V45.5877Z" fill="white"/>
<path d="M90.9793 33.2438C90.9793 34.9301 90.642 36.5321 89.9675 38.0498C89.3267 39.5338 88.4498 40.8323 87.3368 41.9453C86.2239 43.0582 84.9085 43.952 83.3908 44.6265C81.9068 45.2673 80.3217 45.5877 78.6354 45.5877H75.5494V36.0768C76.1902 36.0768 76.8478 36.1106 77.5224 36.178C78.2306 36.2117 78.8714 36.1611 79.4448 36.0262C80.0519 35.8913 80.5409 35.6215 80.9119 35.2168C81.2829 34.8121 81.4684 34.1544 81.4684 33.2438V20.8998H73.8799V45.5877H64.369V20.8998H61.536V11.3889H90.9793V33.2438Z" fill="white"/>
<path d="M104.342 11.4395V9.51709H113.853V11.4395H125.236V20.8998H122.352V34.205C122.352 34.7109 122.42 35.0988 122.555 35.3686C122.723 35.6384 122.942 35.8407 123.212 35.9756C123.482 36.0768 123.786 36.1274 124.123 36.1274C124.46 36.1274 124.831 36.1274 125.236 36.1274V45.5877H121.442C119.485 45.5877 117.934 45.2167 116.787 44.4748C115.674 43.7328 114.814 42.7884 114.207 41.6417C113.634 40.4613 113.263 39.1459 113.094 37.6957C112.959 36.2117 112.892 34.7278 112.892 33.2438H105.303V37.0886C105.303 38.2691 105.067 39.382 104.595 40.4276C104.157 41.4394 103.55 42.3331 102.774 43.1088C101.998 43.8845 101.088 44.4916 100.042 44.9301C98.9965 45.3685 97.9004 45.5877 96.7537 45.5877H92.9088V36.1274C93.3136 36.1274 93.6845 36.1274 94.0218 36.1274C94.3591 36.1274 94.6626 36.0768 94.9324 35.9756C95.2023 35.8407 95.4046 35.6384 95.5395 35.3686C95.7081 35.0988 95.7925 34.7109 95.7925 34.205V20.8998H92.9088V11.4395H104.342ZM112.892 23.7835V20.8998H105.303V23.7835H112.892Z" fill="white"/>
<path d="M136.556 36.0768V45.5877H127.045V36.0768H136.556Z" fill="white"/>
<path fill-rule="evenodd" clip-rule="evenodd" d="M18.6383 10.0029L18.2314 10.6563C17.1481 12.3962 16.0968 14.1829 15.0774 16.0161V10.0029H2.79443V46.9737H15.0774V41.1309C15.3022 41.3765 15.5348 41.6129 15.7751 41.8399C17.0924 43.0841 18.5608 44.0942 20.177 44.8656C21.7771 45.6293 23.481 46.172 25.2839 46.4965L25.2886 46.4973C27.09 46.8152 28.9244 46.9737 30.7908 46.9737H60.9325V22.2858H62.9823V46.9737H78.6347C80.5016 46.9737 82.2746 46.6179 83.9396 45.899L83.9463 45.8961L83.953 45.8931C85.6175 45.1533 87.0764 44.1651 88.3162 42.9253C89.5546 41.6869 90.5283 40.2436 91.2363 38.6062C91.3385 38.3758 91.4338 38.1437 91.5221 37.9099V46.9737H96.753C98.0816 46.9737 99.3601 46.7187 100.577 46.2082C101.783 45.7026 102.846 44.9961 103.753 44.0889C104.651 43.1916 105.355 42.1553 105.862 40.9882C106.415 39.761 106.689 38.4562 106.689 37.0886V34.6298H111.524C111.554 35.6937 111.617 36.7575 111.713 37.8212L111.715 37.8385L111.717 37.8558C111.901 39.4435 112.311 40.9119 112.96 42.2473L112.97 42.2689L112.982 42.2902C113.7 43.6469 114.719 44.7624 116.018 45.628L116.026 45.6332L116.034 45.6384C117.482 46.5755 119.328 46.9737 121.441 46.9737H137.941V34.6908H125.658V34.7414H124.122C123.979 34.7414 123.87 34.7261 123.786 34.7049C123.784 34.7033 123.782 34.7016 123.78 34.6998C123.776 34.6834 123.772 34.6629 123.768 34.6378C123.751 34.5408 123.738 34.3995 123.738 34.205V22.2858H126.621V10.0535H115.238V8.13104H102.955V10.0535H92.3646V10.0029H18.6383ZM92.3646 22.2858V33.2438C92.3646 33.7491 92.3373 34.2484 92.2827 34.7414H94.0211C94.1415 34.7414 94.2385 34.7305 94.3163 34.7144L94.3286 34.6898L94.3562 34.6456C94.3593 34.6374 94.3663 34.617 94.3741 34.5809C94.3905 34.5058 94.4057 34.3845 94.4057 34.205V22.2858H92.3646ZM95.7918 20.8998V34.205C95.7918 34.7109 95.7075 35.0987 95.5388 35.3685C95.4039 35.6384 95.2016 35.8407 94.9317 35.9756C94.6619 36.0768 94.3584 36.1274 94.0211 36.1274H92.9081V45.5877H96.753C97.8997 45.5877 98.9958 45.3685 100.041 44.93C101.087 44.4916 101.997 43.8845 102.773 43.1088C103.549 42.3331 104.156 41.4393 104.594 40.4275C105.067 39.382 105.303 38.269 105.303 37.0886V33.2438H112.891C112.891 34.7277 112.959 36.2117 113.094 37.6957C113.262 39.1459 113.633 40.4613 114.207 41.6417C114.814 42.7884 115.674 43.7328 116.787 44.4747C117.933 45.2167 119.485 45.5877 121.441 45.5877H125.235V36.1274H124.122C123.785 36.1274 123.481 36.0768 123.212 35.9756C122.942 35.8407 122.723 35.6384 122.554 35.3685C122.419 35.0987 122.352 34.7109 122.352 34.205V20.8998H125.235V11.4395H113.852V9.51707H104.341V11.4395H92.9081V20.8998H95.7918ZM75.2652 34.6908H75.5487C76.2259 34.6908 76.917 34.7258 77.6216 34.7951C78.2115 34.8206 78.7093 34.7752 79.1266 34.677L79.135 34.6751L79.1434 34.6732C79.5114 34.5914 79.7353 34.4484 79.8895 34.2802C79.9135 34.254 80.0817 34.0213 80.0817 33.2438V22.2858H75.2652V34.6908ZM73.8792 20.8998H81.4677V33.2438C81.4677 34.1544 81.2822 34.8121 80.9112 35.2168C80.5402 35.6215 80.0512 35.8913 79.4441 36.0262C78.8707 36.1611 78.2299 36.2117 77.5217 36.178C77.3246 36.1583 77.1289 36.1414 76.9347 36.1275C76.4642 36.0937 76.0022 36.0768 75.5487 36.0768V45.5877H78.6347C80.321 45.5877 81.9061 45.2673 83.3901 44.6265C84.9078 43.952 86.2232 43.0582 87.3361 41.9452C88.4491 40.8323 89.326 39.5338 89.9668 38.0498C90.6413 36.5321 90.9786 34.9301 90.9786 33.2438V11.3889H61.5353V20.8998H64.3683V45.5877H73.8792V20.8998ZM31.5501 34.6908V12.7254C30.8674 13.7118 30.0889 14.8535 29.2142 16.1513C28.2265 17.6664 27.2699 19.266 26.3448 20.9505C25.4628 22.6174 24.7138 24.2795 24.0964 25.9368C23.4971 27.5455 23.2224 28.9472 23.2224 30.1578C23.2224 31.2345 23.4454 31.9512 23.7652 32.4254C24.2076 32.9896 24.7485 33.4391 25.4004 33.7797C26.125 34.1406 26.9311 34.3834 27.8291 34.4995C28.8545 34.6275 29.8415 34.6908 30.7908 34.6908H31.5501ZM27.6542 35.8744C26.6087 35.7395 25.6475 35.4529 24.7706 35.0144C23.9274 34.576 23.2192 33.9858 22.6458 33.2438C22.1062 32.4681 21.8364 31.4394 21.8364 30.1578C21.8364 28.7413 22.1568 27.173 22.7976 25.4529C23.4384 23.7329 24.2141 22.0128 25.1247 20.2927C26.0691 18.5727 27.0471 16.9369 28.0589 15.3855C28.7011 14.4326 29.2924 13.5624 29.8328 12.7749C30.1722 12.2803 30.4915 11.8183 30.7908 11.3889H19.408C18.2951 13.1764 17.2158 15.0145 16.1703 16.9032C15.7781 17.6352 15.4138 18.3774 15.0774 19.1297C14.5458 20.3184 14.0838 21.5324 13.6914 22.7716V11.3889H4.18046V45.5877H13.6914V36.5321C14.1014 37.4035 14.5635 38.2013 15.0774 38.9256C15.5779 39.6309 16.1277 40.2665 16.7268 40.8323C17.9409 41.979 19.29 42.9065 20.774 43.6147C22.2579 44.323 23.8431 44.8289 25.5294 45.1324C26.8027 45.3571 28.0945 45.4986 29.4048 45.557C29.8645 45.5775 30.3265 45.5877 30.7908 45.5877V36.0768C29.779 36.0768 28.7335 36.0094 27.6542 35.8744ZM50.0355 20.8998V36.0768H42.447V20.8998H50.0355ZM43.8331 22.2858V34.6908H48.6495V22.2858H43.8331ZM112.891 20.8998V23.7834H105.303V20.8998H112.891ZM106.689 22.2858V22.3974H111.505V22.2858H106.689ZM59.5464 45.5877V11.3889H32.9361V45.5877H59.5464ZM136.555 36.0768H127.044V45.5877H136.555V36.0768Z" fill="white"/>
<path d="M28.019 7.23084C27.2433 8.34382 26.3327 9.67602 25.2872 11.2274C24.2754 12.7789 23.2973 14.4146 22.3529 16.1347C21.4423 17.8547 20.6666 19.5748 20.0258 21.2948C19.385 23.0149 19.0646 24.5832 19.0646 25.9997C19.0646 27.2813 19.3344 28.31 19.874 29.0857C20.4474 29.8277 21.1556 30.4179 21.9988 30.8564C22.8757 31.2948 23.8369 31.5815 24.8824 31.7164C25.9617 31.8513 27.0072 31.9187 28.019 31.9187V41.4297C26.2315 41.4297 24.4777 41.2779 22.7577 40.9743C21.0713 40.6708 19.4862 40.1649 18.0022 39.4566C16.5182 38.7484 15.1692 37.8209 13.955 36.6742C12.7408 35.5275 11.729 34.0941 10.9196 32.3741V41.4297H1.40869V7.23084H10.9196V18.6136C11.5604 16.59 12.3867 14.6338 13.3985 12.7451C14.444 10.8565 15.5233 9.01835 16.6363 7.23084H28.019Z" fill="#191718"/>
<path d="M47.2638 31.9187V16.7418H39.6753V31.9187H47.2638ZM56.7747 41.4297H30.1643V7.23084H56.7747V41.4297Z" fill="#191718"/>
<path d="M88.2068 29.0857C88.2068 30.772 87.8696 32.3741 87.195 33.8918C86.5542 35.3757 85.6773 36.6742 84.5644 37.7872C83.4514 38.9002 82.1361 39.7939 80.6184 40.4684C79.1344 41.1093 77.5492 41.4297 75.8629 41.4297H72.7769V31.9187C73.4177 31.9187 74.0754 31.9525 74.7499 32.0199C75.4582 32.0536 76.099 32.0031 76.6723 31.8682C77.2794 31.7332 77.7684 31.4634 78.1394 31.0587C78.5104 30.654 78.6959 29.9963 78.6959 29.0857V16.7418H71.1074V41.4297H61.5965V16.7418H58.7635V7.23084H88.2068V29.0857Z" fill="#191718"/>
<path d="M101.57 7.28143V5.35901H111.081V7.28143H122.463V16.7418H119.58V30.0469C119.58 30.5528 119.647 30.9407 119.782 31.2105C119.951 31.4803 120.17 31.6827 120.44 31.8176C120.71 31.9187 121.013 31.9693 121.35 31.9693C121.688 31.9693 122.059 31.9693 122.463 31.9693V41.4297H118.669C116.713 41.4297 115.162 41.0587 114.015 40.3167C112.902 39.5747 112.042 38.6303 111.435 37.4836C110.861 36.3032 110.49 34.9879 110.322 33.5376C110.187 32.0536 110.119 30.5697 110.119 29.0857H102.531V32.9305C102.531 34.111 102.295 35.224 101.823 36.2695C101.384 37.2813 100.777 38.175 100.001 38.9507C99.2257 39.7265 98.3151 40.3335 97.2696 40.772C96.224 41.2104 95.1279 41.4297 93.9812 41.4297H90.1364V31.9693C90.5411 31.9693 90.9121 31.9693 91.2493 31.9693C91.5866 31.9693 91.8902 31.9187 92.16 31.8176C92.4298 31.6827 92.6321 31.4803 92.767 31.2105C92.9357 30.9407 93.02 30.5528 93.02 30.0469V16.7418H90.1364V7.28143H101.57ZM110.119 19.6254V16.7418H102.531V19.6254H110.119Z" fill="#191718"/>
<path d="M133.783 31.9187V41.4297H124.272V31.9187H133.783Z" fill="#191718"/>
<path fill-rule="evenodd" clip-rule="evenodd" d="M15.8663 5.84479L15.4595 6.49822C14.3761 8.23815 13.3248 10.0248 12.3054 11.858V5.84479H0.0224609V42.8157H12.3054V36.9728C12.5303 37.2185 12.7628 37.4549 13.0031 37.6818C14.3205 38.926 15.7888 39.9361 17.405 40.7075C19.0052 41.4712 20.709 42.0139 22.5119 42.3384L22.5166 42.3393C24.318 42.6572 26.1524 42.8157 28.0188 42.8157H58.1605V18.1278H60.2103V42.8157H75.8627C77.7297 42.8157 79.5026 42.4599 81.1676 41.7409L81.1744 41.738L81.1811 41.735C82.8455 40.9952 84.3044 40.007 85.5442 38.7672C86.7826 37.5288 87.7563 36.0855 88.4643 34.4481C88.5666 34.2177 88.6618 33.9856 88.7501 33.7518V42.8157H93.981C95.3096 42.8157 96.5881 42.5606 97.8054 42.0502C99.0112 41.5445 100.074 40.838 100.981 39.9308C101.879 39.0335 102.583 37.9972 103.09 36.8301C103.643 35.6029 103.917 34.2982 103.917 32.9305V30.4717H108.752C108.782 31.5356 108.845 32.5994 108.941 33.6631L108.943 33.6804L108.945 33.6977C109.129 35.2854 109.539 36.7538 110.188 38.0892L110.198 38.1108L110.21 38.1321C110.928 39.4888 111.947 40.6043 113.246 41.4699L113.254 41.4752L113.262 41.4803C114.71 42.4174 116.556 42.8157 118.669 42.8157H135.169V30.5327H122.886V30.5833H121.35C121.207 30.5833 121.098 30.568 121.014 30.5468C121.012 30.5452 121.01 30.5435 121.008 30.5417C121.004 30.5253 121 30.5048 120.996 30.4797C120.979 30.3827 120.966 30.2415 120.966 30.0469V18.1278H123.849V5.89538H112.466V3.97296H100.183V5.89538H89.5927V5.84479H15.8663ZM89.5927 18.1278V29.0857C89.5927 29.591 89.5654 30.0903 89.5107 30.5833H91.2491C91.3695 30.5833 91.4665 30.5724 91.5443 30.5563L91.5566 30.5317L91.5842 30.4875C91.5873 30.4794 91.5943 30.4589 91.6022 30.4228C91.6185 30.3477 91.6338 30.2264 91.6338 30.0469V18.1278H89.5927ZM93.0198 16.7417V30.0469C93.0198 30.5528 92.9355 30.9407 92.7668 31.2105C92.6319 31.4803 92.4296 31.6826 92.1598 31.8175C91.8899 31.9187 91.5864 31.9693 91.2491 31.9693H90.1362V41.4296H93.981C95.1277 41.4296 96.2238 41.2104 97.2694 40.772C98.3149 40.3335 99.2255 39.7264 100.001 38.9507C100.777 38.175 101.384 37.2813 101.822 36.2695C102.295 35.2239 102.531 34.111 102.531 32.9305V29.0857H110.119C110.119 30.5697 110.187 32.0536 110.322 33.5376C110.49 34.9878 110.861 36.3032 111.435 37.4836C112.042 38.6303 112.902 39.5747 114.015 40.3167C115.161 41.0586 116.713 41.4296 118.669 41.4296H122.463V31.9693H121.35C121.013 31.9693 120.709 31.9187 120.44 31.8175C120.17 31.6826 119.951 31.4803 119.782 31.2105C119.647 30.9407 119.58 30.5528 119.58 30.0469V16.7417H122.463V7.28141H111.08V5.35899H101.569V7.28141H90.1362V16.7417H93.0198ZM72.4933 30.5327H72.7767C73.454 30.5327 74.1451 30.5677 74.8496 30.637C75.4395 30.6625 75.9373 30.6172 76.3547 30.519L76.363 30.517L76.3715 30.5151C76.7394 30.4333 76.9634 30.2903 77.1175 30.1221C77.1416 30.0959 77.3097 29.8632 77.3097 29.0857V18.1278H72.4933V30.5327ZM71.1072 16.7417H78.6957V29.0857C78.6957 29.9963 78.5102 30.654 78.1392 31.0587C77.7682 31.4634 77.2792 31.7332 76.6721 31.8681C76.175 32.0128 75.5438 32.0321 75.2488 32.0321C74.6754 32.0321 74.3569 31.9834 74.1627 31.9694C73.6923 31.9356 73.2303 31.9187 72.7767 31.9187V41.4296H75.8627C77.549 41.4296 79.1342 41.1092 80.6181 40.4684C82.1358 39.7939 83.4512 38.9001 84.5642 37.7872C85.6771 36.6742 86.554 35.3757 87.1948 33.8917C87.8694 32.374 88.2066 30.772 88.2066 29.0857V7.23082H58.7633V16.7417H61.5963V41.4296H71.1072V16.7417ZM28.7781 30.5327V8.56732C28.0954 9.55367 27.3169 10.6955 26.4422 11.9933C25.4545 13.5083 24.4979 15.1079 23.5728 16.7924C22.6908 18.4593 21.9418 20.1214 21.3244 21.7787C20.7251 23.3874 20.4504 24.7892 20.4504 25.9997C20.4504 27.0764 20.6734 27.7931 20.9932 28.2673C21.4356 28.8315 21.9766 29.281 22.6284 29.6216C23.353 29.9825 24.1591 30.2253 25.0571 30.3414C26.0825 30.4695 27.0695 30.5327 28.0188 30.5327H28.7781ZM24.8822 31.7164C23.8367 31.5815 22.8755 31.2948 21.9986 30.8563C21.1554 30.4179 20.4472 29.8277 19.8738 29.0857C19.3342 28.31 19.0644 27.2813 19.0644 25.9997C19.0644 24.5832 19.3848 23.0149 20.0256 21.2948C20.6664 19.5748 21.4421 17.8547 22.3527 16.1347C23.2971 14.4146 24.2752 12.7789 25.287 11.2274C25.9291 10.2745 26.5204 9.40434 27.0608 8.61684C27.4002 8.12221 27.7195 7.6602 28.0188 7.23082H16.6361C15.5231 9.01833 14.4438 10.8564 13.3983 12.7451C13.0061 13.4772 12.6419 14.2193 12.3054 14.9716C11.7738 16.1603 11.3118 17.3743 10.9194 18.6136V7.23082H1.40849V41.4296H10.9194V32.374C11.3295 33.2454 11.7915 34.0433 12.3054 34.7675C12.806 35.4729 13.3557 36.1084 13.9548 36.6742C15.169 37.8209 16.518 38.7484 18.002 39.4566C19.486 40.1649 21.0711 40.6708 22.7575 40.9743C24.0307 41.199 25.3225 41.3406 26.6328 41.3989C27.0925 41.4194 27.5545 41.4296 28.0188 41.4296V31.9187C27.007 31.9187 25.9615 31.8513 24.8822 31.7164ZM47.2636 16.7417V31.9187H39.6751V16.7417H47.2636ZM41.0611 18.1278V30.5327H45.8775V18.1278H41.0611ZM110.119 16.7417V19.6254H102.531V16.7417H110.119ZM103.917 18.1278V18.2393H108.733V18.1278H103.917ZM56.7745 41.4296V7.23082H30.1641V41.4296H56.7745ZM133.783 31.9187H124.272V41.4296H133.783V31.9187Z" fill="white"/>
<path d="M2.7947 46.9728L0.0224609 42.8156H5.54363L7.27617 45.5877L2.7947 46.9728Z" fill="white"/>
<path d="M70.341 31.7275L72.8788 31.93L73.4596 41.4297H70.341V31.7275Z" fill="#191718"/>
<path d="M29.4529 7.47211C28.6444 8.16512 26.958 9.68975 26.6808 10.2442L28.7599 11.6302L29.4529 7.47211Z" fill="white"/>
<path d="M88.7511 42.8131L91.5242 46.9728L92.8636 45.2413L91.7282 42.5485L88.7511 42.8131Z" fill="white"/>
<path d="M122.663 32.0741L124.049 33.4601H123.703V36.2322L122.663 32.0741Z" fill="white"/>
<path d="M123.834 5.8987L126.603 10.0527L123.418 10.2834L123.834 5.8987Z" fill="white"/>
<path d="M61.0677 42.8158L60.9078 42.4693L64.1035 42.8158L63.7465 44.1452L64.3729 45.2413L62.9868 46.9739L60.2148 42.8158H61.0677Z" fill="white"/>
<path d="M14.5864 9.16922L12.3054 5.8445L11.5046 10.8358H13.3537L14.5864 9.16922Z" fill="white"/>
<path d="M114.847 7.11478L112.466 3.97278L111.765 6.70388L113.717 7.01206L114.847 7.11478Z" fill="white"/>
<path d="M71.1089 31.0562H75.2823V32.0321H71.1089V31.0562Z" fill="white"/>
<path d="M113.577 43.2652C111.68 40.8421 110.236 38.182 110.236 38.182L112.913 40.2136L115.305 42.8048C115.305 42.8048 114.007 43.8152 113.577 43.2652Z" fill="white"/>
<path d="M137.942 34.6922L135.166 30.5325L134.605 35.1926L136.684 36.5786L137.942 34.6922Z" fill="white"/>
<path d="M123.754 9.65962H126.026V21.8162H123.754V9.65962Z" fill="white"/>
<path d="M2.49196 44.4588H14.6209V46.4711H2.49196V44.4588Z" fill="white"/>
<path d="M14.0476 37.5673V45.7489H12.0353V37.5673H14.0476Z" fill="white"/>
<path d="M26.0553 43.72H60.4409V46.4711H26.0553V43.72Z" fill="white"/>
<path d="M58.7318 45.0376V17.2843H60.4299V45.0376H58.7318Z" fill="white"/>
<path d="M72.6857 19.6771H74.6318V31.0562H72.6857V19.6771Z" fill="white"/>
<path d="M41.3984 19.6771H43.3446V31.0562H41.3984V19.6771Z" fill="white"/>
<path d="M77.7633 19.6771V21.6618H73.7938V19.6771H77.7633Z" fill="white"/>
<path d="M46.476 19.6771V21.6618H42.5065V19.6771H46.476Z" fill="white"/>
<path d="M63.3905 41.6856H80.6026V46.4711H63.3905V41.6856Z" fill="white"/>
<path d="M117.271 41.9778H137.449V46.5042H119.534C118.284 46.5042 117.271 45.4909 117.271 44.241V41.9778Z" fill="white"/>
<path d="M120.865 18.409H123.49V31.58H120.865V18.409Z" fill="white"/>
<path d="M10.8799 22.7742C10.8799 22.8492 12.1076 12.9977 17.3463 7.22278L15.95 6.99921L13.4263 9.4547L10.9178 7.22278C10.9178 13.9938 10.8799 16.1883 10.8799 22.7742Z" fill="white"/>
<rect x="102.529" y="19.2198" width="7.58625" height="1.65973" rx="0.0303147" fill="white"/>
</svg>
