<svg xmlns="http://www.w3.org/2000/svg" xmlns:xlink="http://www.w3.org/1999/xlink" width="306" height="306" version="1.1" viewBox="0 0 306 306"><title>Untitled 2</title><g id="Page-1" fill="none" fill-rule="evenodd" stroke="none" stroke-width="1"><g id="kodadot_logo_2x" transform="translate(3.000000, 3.000000)"><circle id="magenta-circle" cx="150" cy="150" r="150" stroke="#FC007B" stroke-width="6"/><circle id="green-circle" cx="150" cy="150" r="115" stroke="#00BB7F" stroke-width="12"/><path id="I" fill="#FC007B" fill-rule="nonzero" d="M104,80 C112.284271,80 119,86.715729 119,95 L119,205 C119,213.284271 112.284271,220 104,220 C95.715729,220 89,213.284271 89,205 L89,95 C89,86.715729 95.715729,80 104,80 Z M104,196 C99.029437,196 95,200.029437 95,205 C95,209.970563 99.029437,214 104,214 C108.970563,214 113,209.970563 113,205 C113,200.029437 108.970563,196 104,196 Z M104,86 C99.029437,86 95,90.029437 95,95 C95,99.970563 99.029437,104 104,104 C108.970563,104 113,99.970563 113,95 C113,90.029437 108.970563,86 104,86 Z"/><path id="Combined-Shape" fill="#FC007B" fill-rule="nonzero" d="M206.170207,84.032951 C212.215875,89.605349 212.629442,98.911989 207.16471,104.984289 L206.919804,105.250064 L164.70037,149.999532 L206.919804,194.749936 C212.640388,200.813479 212.304782,210.312704 206.170207,215.967049 C200.035631,221.621394 190.425126,221.289674 184.704542,215.226131 L134.295444,161.794922 C133.566986,161.022793 132.936732,160.194952 132.404151,159.326433 C130.275949,156.743495 129,153.446626 129,149.855194 C129,145.813218 130.616164,142.144346 133.244603,139.445476 C133.460516,139.160721 133.688204,138.881768 133.927593,138.609161 L134.295444,138.205078 L184.704542,84.773869 C190.425126,78.710326 200.035631,78.378606 206.170207,84.032951 Z M196,196 C191.029437,196 187,200.029437 187,205 C187,209.970563 191.029437,214 196,214 C200.970563,214 205,209.970563 205,205 C205,200.029437 200.970563,196 196,196 Z M195.826185,85.303984 C190.793401,85.303984 186.713523,89.33662 186.713523,94.31113 C186.713523,99.285639 190.793401,103.318275 195.826185,103.318275 C200.858969,103.318275 204.938846,99.285639 204.938846,94.31113 C204.938846,89.33662 200.858969,85.303984 195.826185,85.303984 Z"/></g></g></svg>