<svg width="1576" height="419" viewBox="0 0 1576 419" fill="none" xmlns="http://www.w3.org/2000/svg">
<path fill-rule="evenodd" clip-rule="evenodd" d="M974.943 0.138304H1094.5L1094.5 0.136719L1094.5 0.138304H1094.5V0.142423L1108.68 18.8507H1205.3V19.1108L1232.1 59.3167L1231.99 59.3247H1232.28V178.392H1204.21V258.664H1209.3L1209.3 258.662L1209.3 258.664H1209.42V258.841L1236.31 299.138H1236.4V418.698H1181.86C1161.29 418.698 1143.32 414.821 1129.23 405.7L1129.15 405.65L1129.07 405.598C1119.65 399.318 1111.74 391.688 1105.43 382.741C1105.39 382.695 1105.35 382.647 1105.31 382.599C1090 363.033 1077.71 341.879 1073.97 335.237C1073.65 334.677 1073.33 334.112 1073.02 333.543C1072.87 333.265 1072.79 333.121 1072.79 333.121L1072.8 333.125C1072.71 332.962 1072.62 332.799 1072.53 332.635L1072.42 332.428L1072.32 332.217C1067.26 321.801 1063.7 310.554 1061.56 298.545H1038.26V322.478C1038.26 335.79 1035.6 348.49 1030.22 360.435C1025.28 371.796 1018.43 381.883 1009.69 390.617C1000.86 399.448 990.515 406.324 978.778 411.246C966.93 416.215 954.485 418.698 941.553 418.698H890.637V418.66L863.679 378.224H863.653V374.872C862.283 376.374 860.876 377.847 859.431 379.291C847.363 391.359 833.163 400.978 816.961 408.179L816.896 408.208L816.83 408.236C800.624 415.234 783.366 418.698 765.193 418.698H612.881L612.88 418.699L612.879 418.698H612.837V418.634L592.885 388.706V418.698H299.493C281.326 418.698 263.47 417.155 245.936 414.06L245.89 414.052C228.341 410.894 211.756 405.611 196.181 398.177C180.449 390.669 166.157 380.837 153.334 368.726C150.995 366.517 148.731 364.216 146.543 361.824V418.698H26.9833V418.687L0 378.224V18.3582H119.559L119.559 18.3556L137.877 45.0556C141.956 38.2053 146.084 31.4263 150.26 24.7186L154.22 18.3582H871.854V18.8507H974.943V0.138304ZM592.885 378.224H594.199L594.2 378.225H592.885V378.224ZM320.381 378.224V387.026H320.375V378.224H320.381ZM106.068 58.8323V31.8495H13.4912V364.732H26.9833V58.8323H106.068ZM40.4807 364.732H40.4745V72.3235H40.4807V364.732ZM320.381 364.732H320.375V72.3235L320.381 72.3235V364.732ZM599.345 178.392V364.732H612.837V178.392H599.345ZM626.328 364.732V164.9L626.334 164.9V364.732H626.328ZM858.363 58.8323H571.769V31.8495H858.363V58.8323ZM898.838 269.954C900.49 268.738 901.795 267.174 902.751 265.261C904.392 262.635 905.213 258.86 905.213 253.936V178.392H918.705V294.41C918.705 296.157 918.556 297.338 918.398 298.068C918.321 298.42 918.253 298.619 918.223 298.699L917.954 299.129L917.834 299.368C917.077 299.525 916.133 299.631 914.961 299.631H898.04C898.572 294.832 898.838 289.972 898.838 285.053V269.954ZM877.145 357.356V364.732H890.637V330.472C889.777 332.748 888.85 335.008 887.855 337.25C884.794 344.327 881.224 351.032 877.145 357.356ZM904.134 364.732H904.128V313.122L904.134 313.122V364.732ZM1075.28 298.545C1077.25 308.529 1080.31 317.788 1084.46 326.323C1085.37 328.05 1086.35 329.73 1087.38 331.363C1087.32 330.892 1087.26 330.419 1087.21 329.945L1087.19 329.777L1087.17 329.609C1086.23 319.255 1085.62 308.901 1085.33 298.545H1075.28ZM1105.19 350.766C1103.05 343.714 1101.52 336.255 1100.61 328.387C1099.29 313.943 1098.64 299.498 1098.64 285.053L1098.64 285.053C1098.64 299.498 1099.3 313.943 1100.61 328.387C1101.53 336.257 1103.06 343.719 1105.2 350.772L1105.19 350.766ZM1191.81 59.3247H1121.49V40.6124H1001.93V59.3247H898.838V58.8323H877.145V32.3419H988.434V13.6295H1081.01V32.3419H1191.81V59.3247ZM932.196 164.9L932.203 164.9V294.41C932.203 299.334 931.382 303.109 929.74 305.735C928.427 308.362 926.458 310.331 923.831 311.645C922.904 311.992 921.935 312.279 920.926 312.504C921.933 312.279 922.899 311.992 923.825 311.645C926.451 310.331 928.421 308.362 929.734 305.735C931.376 303.109 932.196 299.334 932.196 294.41V164.9ZM904.128 124.426V72.816L904.134 72.8159V124.426H904.128ZM735.161 364.732H735.155V312.63L735.161 312.629V364.732ZM732.396 273.259V299.138H735.155C741.747 299.138 748.474 299.479 755.333 300.153C761.074 300.402 765.92 299.96 769.982 299.004L770.064 298.985L770.146 298.967C773.727 298.171 775.907 296.779 777.408 295.142C777.642 294.887 779.278 292.622 779.278 285.053V178.392H765.786V244.579C765.786 253.443 763.981 259.845 760.369 263.784C756.758 267.724 751.998 270.35 746.089 271.663C741.339 273.045 735.331 273.252 732.396 273.259ZM732.396 259.741V178.392H752.295V244.579C752.295 252.148 750.658 254.413 750.424 254.668C748.924 256.305 746.744 257.697 743.162 258.493L743.08 258.511L742.999 258.53C739.928 259.253 736.41 259.682 732.396 259.741ZM792.769 164.9V285.053C792.769 293.917 790.964 300.319 787.353 304.258C783.742 308.198 778.981 310.824 773.072 312.137C771.681 312.464 770.249 312.741 768.777 312.967C770.251 312.741 771.685 312.465 773.078 312.137C778.988 310.824 783.748 308.198 787.359 304.258C790.97 300.319 792.776 293.917 792.776 285.053V164.9L792.769 164.9ZM598.752 124.426V72.3235L598.758 72.3235V124.426H598.752ZM552.41 58.8323H293.392V31.8495H552.41V58.8323ZM293.392 105.018C298.251 97.8694 302.748 91.308 306.884 85.3327V299.138H299.493C297.477 299.138 295.443 299.109 293.392 299.05V105.018ZM225.868 252.364C226.238 241.199 228.93 228.428 234.331 213.929C240.341 197.797 247.631 181.619 256.217 165.393C263.889 151.422 271.785 138.051 279.9 125.278V258.664H272.51C263.269 258.664 253.662 258.049 243.681 256.802C237.276 255.974 231.352 254.484 225.868 252.364ZM227.002 267.01C231.779 268.455 236.772 269.514 241.979 270.186C252.484 271.499 262.661 272.155 272.51 272.155V297.5C271.896 297.428 271.281 297.353 270.664 297.276C261.923 296.146 254.077 293.782 247.024 290.27C240.679 286.955 235.414 282.58 231.107 277.087C229.378 274.523 227.939 271.229 227.002 267.01ZM168.24 79.8893C160.849 92.1499 153.617 104.641 146.543 117.364V68.1052L168.24 79.8893ZM180.107 86.3348C172.288 99.291 164.646 112.512 157.18 125.998C153.363 133.124 149.817 140.348 146.543 147.671C141.371 159.235 136.876 171.045 133.058 183.101V183.12C139.295 163.423 147.338 144.382 157.187 125.998C164.652 112.513 172.293 99.2927 180.112 86.3373L180.107 86.3348ZM174.198 31.8495H272.51C269.597 36.0289 266.488 40.526 263.184 45.3407C260.268 49.5905 257.2 54.0876 253.979 58.8323H223.879L174.198 31.8495ZM426.443 272.155V299.138H473.325V178.392H459.833V272.155H426.443ZM426.443 258.664H446.342V178.392H426.443V258.664ZM486.816 164.9V312.63L486.823 312.629V164.9L486.816 164.9ZM1015.42 54.1036L1015.42 54.1036V72.8159L1015.42 72.816V54.1036ZM1098.64 164.9V192.969L1098.64 192.969V164.9H1024.78L1098.64 164.9ZM1038.26 178.392V179.478H1085.15V178.392H1038.26Z" fill="white"/>
<path fill-rule="evenodd" clip-rule="evenodd" d="M988.441 32.342V13.6297H1081.02V32.342H1191.81V124.426H1163.75V253.936C1163.75 258.86 1164.4 262.635 1165.72 265.261C1167.36 267.888 1169.49 269.858 1172.12 271.171C1174.74 272.156 1177.7 272.648 1180.98 272.648H1191.81V364.732H1154.88C1135.84 364.732 1120.74 361.121 1109.58 353.899C1098.74 346.677 1090.37 337.485 1084.46 326.323C1078.88 314.833 1075.27 302.03 1073.63 287.913C1072.32 273.469 1071.66 259.024 1071.66 244.579H997.797V282.004C997.797 293.494 995.499 304.328 990.903 314.505C986.635 324.353 980.726 333.053 973.175 340.603C965.625 348.154 956.761 354.063 946.584 358.331C936.407 362.599 925.738 364.732 914.576 364.732H877.151V272.648H887.985C891.268 272.648 894.222 272.156 896.849 271.171C899.475 269.858 901.445 267.888 902.758 265.261C904.399 262.635 905.22 258.86 905.22 253.936V124.426H877.151V32.342H988.441ZM1071.66 152.495V124.426H997.797V148.731C997.782 148.766 997.775 148.803 997.775 148.843V164.409C997.775 164.571 997.907 164.704 998.07 164.704H1071.32C1071.49 164.704 1071.62 164.571 1071.62 164.409V152.495H1071.66Z" fill="black"/>
<path d="M272.516 31.8496C264.966 42.6831 256.102 55.6504 245.925 70.7516C236.076 85.8528 226.556 101.775 217.364 118.517C208.5 135.26 200.95 152.003 194.712 168.745C188.475 185.488 185.356 200.753 185.356 214.541C185.356 227.016 187.982 237.029 193.235 244.579C198.816 251.802 205.71 257.547 213.917 261.814C222.453 266.082 231.809 268.873 241.986 270.186C252.491 271.499 262.668 272.156 272.516 272.156V364.732C255.117 364.732 238.046 363.255 221.304 360.301C204.889 357.346 189.46 352.422 175.015 345.528C160.57 338.634 147.439 329.606 135.621 318.444C123.802 307.282 113.954 293.33 106.075 276.587V364.732H13.498V31.8496H106.056C106.056 64.9884 105.963 86.8619 105.87 108.584V108.585C105.778 130.024 105.687 151.316 105.687 183.146C105.687 183.181 105.714 182.996 105.772 182.605C106.916 174.821 120.057 85.389 168.559 31.8496H272.516Z" fill="black"/>
<path fill-rule="evenodd" clip-rule="evenodd" d="M552.417 364.732H293.398V31.8496H552.417V364.732ZM459.84 272.156V124.426H385.975V272.156H459.84Z" fill="black"/>
<path fill-rule="evenodd" clip-rule="evenodd" d="M848.521 291.36C855.087 276.587 858.37 260.994 858.37 244.579V31.8496H571.775V124.426H599.352V364.732H684.463V364.733H714.818V364.732H738.217C754.631 364.732 770.061 361.614 784.505 355.376C799.278 348.81 812.081 340.111 822.915 329.277C833.748 318.444 842.284 305.805 848.521 291.36ZM710.213 273.259H732.561V273.231C737.436 273.162 741.947 272.639 746.096 271.663C752.005 270.35 756.765 267.724 760.376 263.784C763.987 259.845 765.793 253.443 765.793 244.579V124.426H691.928V273.255H710.213L710.213 273.259Z" fill="black"/>
<path d="M1325.88 111V32.3095H1353.9C1363.19 32.3095 1369.99 34.2569 1374.28 38.1517C1378.58 42.0465 1380.72 47.3323 1380.72 54.009C1380.72 57.9833 1379.57 61.5999 1377.26 64.8588C1374.96 68.0382 1371.7 70.0651 1367.49 70.9394V71.0586C1372.18 71.933 1375.87 74.0791 1378.58 77.4969C1381.36 80.8353 1382.75 84.6506 1382.75 88.9428C1382.75 95.6196 1380.24 100.985 1375.24 105.039C1370.23 109.013 1363.08 111 1353.78 111H1325.88ZM1335.41 102.058H1356.04C1361.68 102.058 1365.86 100.905 1368.56 98.6003C1371.34 96.2952 1372.73 93.0761 1372.73 88.9428C1372.73 84.7301 1371.34 81.511 1368.56 79.2854C1365.86 76.9803 1361.68 75.8278 1356.04 75.8278H1335.41V102.058ZM1335.41 66.8857H1354.01C1365.14 66.8857 1370.71 62.5935 1370.71 54.009C1370.71 45.5041 1365.14 41.2516 1354.01 41.2516H1335.41V66.8857ZM1426.9 112.192C1421.26 112.192 1416.21 110.96 1411.76 108.496C1407.39 106.032 1403.97 102.495 1401.51 97.8849C1399.04 93.1953 1397.81 87.6313 1397.81 81.193C1397.81 74.7547 1399.04 69.2305 1401.51 64.6203C1403.97 59.9307 1407.35 56.3539 1411.64 53.8898C1415.93 51.4258 1420.82 50.1937 1426.3 50.1937C1431.87 50.1937 1436.6 51.386 1440.49 53.7706C1444.47 56.1551 1447.49 59.414 1449.55 63.5473C1451.62 67.601 1452.65 72.1714 1452.65 77.2585C1452.65 78.6097 1452.61 79.8418 1452.53 80.9546C1452.46 82.0673 1452.34 83.0609 1452.18 83.9353H1404.01V75.4701H1448L1443.12 76.4239C1443.12 70.701 1441.53 66.2895 1438.35 63.1896C1435.25 60.0897 1431.15 58.5397 1426.07 58.5397C1422.17 58.5397 1418.79 59.4538 1415.93 61.2819C1413.15 63.0306 1410.96 65.6139 1409.37 69.0318C1407.86 72.3701 1407.11 76.4239 1407.11 81.193C1407.11 85.8826 1407.9 89.9364 1409.49 93.3543C1411.08 96.7721 1413.31 99.3951 1416.17 101.223C1419.11 102.972 1422.61 103.846 1426.66 103.846C1431.03 103.846 1434.57 103.012 1437.27 101.343C1440.06 99.6733 1442.28 97.408 1443.95 94.5465L1451.46 98.958C1449.95 101.66 1448 104.005 1445.62 105.992C1443.31 107.98 1440.57 109.53 1437.39 110.642C1434.29 111.676 1430.8 112.192 1426.9 112.192ZM1483.12 34.4557V94.5465C1483.12 97.4875 1483.95 99.6733 1485.62 101.104C1487.29 102.535 1489.44 103.25 1492.06 103.25C1494.36 103.25 1496.35 102.853 1498.02 102.058C1499.69 101.263 1501.2 100.19 1502.55 98.8387L1505.89 106.827C1504.06 108.496 1501.88 109.808 1499.33 110.762C1496.87 111.715 1494.01 112.192 1490.75 112.192C1487.73 112.192 1484.91 111.676 1482.28 110.642C1479.66 109.53 1477.55 107.821 1475.96 105.516C1474.45 103.131 1473.66 100.031 1473.58 96.2157V37.0787L1483.12 34.4557ZM1504.82 51.386V59.6128H1461.66V51.386H1504.82ZM1553.81 72.4894C1553.81 68.0382 1552.62 64.6203 1550.24 62.2358C1547.85 59.7717 1544.47 58.5397 1540.1 58.5397C1535.97 58.5397 1532.47 59.4538 1529.61 61.2819C1526.75 63.0306 1524.64 65.8921 1523.29 69.8664L1515.54 65.0972C1517.13 60.6461 1520.07 57.0692 1524.36 54.3667C1528.66 51.5847 1533.98 50.1937 1540.34 50.1937C1544.63 50.1937 1548.53 50.9489 1552.02 52.4591C1555.52 53.8898 1558.26 56.1154 1560.25 59.1358C1562.32 62.0768 1563.35 65.8921 1563.35 70.5817V99.4349C1563.35 102.296 1564.86 103.727 1567.88 103.727C1569.39 103.727 1570.86 103.528 1572.29 103.131L1571.82 110.642C1570.23 111.437 1568.16 111.835 1565.62 111.835C1563.31 111.835 1561.24 111.397 1559.42 110.523C1557.59 109.649 1556.16 108.337 1555.12 106.589C1554.09 104.76 1553.57 102.495 1553.57 99.7926V98.6003L1555.96 98.958C1555 102.058 1553.38 104.601 1551.07 106.589C1548.77 108.496 1546.18 109.927 1543.32 110.881C1540.46 111.755 1537.64 112.192 1534.86 112.192C1531.36 112.192 1528.1 111.596 1525.08 110.404C1522.06 109.212 1519.63 107.423 1517.81 105.039C1516.06 102.575 1515.18 99.5541 1515.18 95.9773C1515.18 91.5261 1516.65 87.8698 1519.59 85.0083C1522.61 82.0673 1526.79 80.0802 1532.11 79.0469L1555.72 74.397V82.2661L1536.52 86.2006C1532.63 86.9954 1529.73 88.1082 1527.82 89.539C1525.91 90.9697 1524.96 92.9568 1524.96 95.5004C1524.96 97.9644 1525.91 99.9913 1527.82 101.581C1529.81 103.091 1532.59 103.846 1536.17 103.846C1538.47 103.846 1540.66 103.568 1542.72 103.012C1544.87 102.376 1546.78 101.462 1548.45 100.269C1550.12 98.9977 1551.43 97.4478 1552.38 95.6196C1553.34 93.7119 1553.81 91.4864 1553.81 88.9428V72.4894Z" fill="#999999"/>
</svg>
