<svg width="147" height="99" viewBox="0 0 147 99" fill="none" xmlns="http://www.w3.org/2000/svg">
<g filter="url(#filter0_f_4287_10673)">
<path fill-rule="evenodd" clip-rule="evenodd" d="M113 34H34V39.4063C38.0265 39.7691 41.1818 43.1531 41.1818 47.2741V52.4461C41.1818 56.5671 38.0265 59.951 34 60.3139V64.7684H113V60.3461C108.637 60.346 105.1 56.8091 105.1 52.4461V47.2741C105.1 42.9111 108.637 39.3741 113 39.3741V34Z" fill="#FF7AC3"/>
</g>
<mask id="path-2-inside-1_4287_10673" fill="white">
<path fill-rule="evenodd" clip-rule="evenodd" d="M113 30H36V36.4943C39.9245 36.848 42.9999 40.1463 42.9999 44.1629V53.9824C42.9999 57.999 39.9245 61.2973 36 61.651V67H113L113 61.6824C108.747 61.6824 105.3 58.235 105.3 53.9824V44.1629C105.3 39.9103 108.747 36.4629 113 36.4629L113 30Z"/>
</mask>
<path fill-rule="evenodd" clip-rule="evenodd" d="M113 30H36V36.4943C39.9245 36.848 42.9999 40.1463 42.9999 44.1629V53.9824C42.9999 57.999 39.9245 61.2973 36 61.651V67H113L113 61.6824C108.747 61.6824 105.3 58.235 105.3 53.9824V44.1629C105.3 39.9103 108.747 36.4629 113 36.4629L113 30Z" fill="#FF7AC3"/>
<path d="M36 30V29H35V30H36ZM113 30L114 30L114 29H113V30ZM36 36.4943H35V37.4082L35.9102 37.4903L36 36.4943ZM36 61.651L35.9102 60.655L35 60.7371V61.651H36ZM36 67H35V68H36V67ZM113 67V68H114L114 67L113 67ZM113 61.6824L114 61.6824L114 60.6824H113V61.6824ZM113 36.4629V37.4629H114L114 36.4629L113 36.4629ZM36 31H113V29H36V31ZM37 36.4943V30H35V36.4943H37ZM43.9999 44.1629C43.9999 39.6241 40.525 35.8981 36.0898 35.4983L35.9102 37.4903C39.324 37.7979 41.9999 40.6685 41.9999 44.1629H43.9999ZM43.9999 53.9824V44.1629H41.9999V53.9824H43.9999ZM36.0898 62.647C40.525 62.2472 43.9999 58.5212 43.9999 53.9824H41.9999C41.9999 57.4768 39.324 60.3474 35.9102 60.655L36.0898 62.647ZM37 67V61.651H35V67H37ZM113 66H36V68H113V66ZM112 61.6824L112 67L114 67L114 61.6824L112 61.6824ZM104.3 53.9824C104.3 58.7873 108.195 62.6824 113 62.6824V60.6824C109.3 60.6824 106.3 57.6827 106.3 53.9824H104.3ZM104.3 44.1629V53.9824H106.3V44.1629H104.3ZM113 35.4629C108.195 35.4629 104.3 39.358 104.3 44.1629H106.3C106.3 40.4626 109.3 37.4629 113 37.4629V35.4629ZM112 30L112 36.4629L114 36.4629L114 30L112 30Z" fill="black" mask="url(#path-2-inside-1_4287_10673)"/>
<path d="M62.34 54.98C61.42 54.98 60.6067 54.8533 59.9 54.6C59.1933 54.3467 58.5867 54.0067 58.08 53.58C57.5733 53.1533 57.16 52.6733 56.84 52.14L58.2 51.04C58.4533 51.52 58.7733 51.9467 59.16 52.32C59.5467 52.6933 60.0133 52.9867 60.56 53.2C61.1067 53.4133 61.7333 53.52 62.44 53.52C63.4267 53.52 64.2067 53.34 64.78 52.98C65.3667 52.62 65.66 52.0933 65.66 51.4C65.66 50.9867 65.52 50.62 65.24 50.3C64.9733 49.9667 64.4667 49.7133 63.72 49.54L60.72 48.86C59.92 48.6733 59.28 48.4267 58.8 48.12C58.32 47.8 57.9733 47.4267 57.76 47C57.5467 46.56 57.44 46.0867 57.44 45.58C57.44 44.8867 57.6267 44.2533 58 43.68C58.3867 43.1067 58.9333 42.6467 59.64 42.3C60.36 41.9533 61.22 41.78 62.22 41.78C63.34 41.78 64.3067 42.0067 65.12 42.46C65.9467 42.9133 66.6267 43.5933 67.16 44.5L65.86 45.5C65.3933 44.6733 64.8533 44.0867 64.24 43.74C63.64 43.3933 62.9133 43.22 62.06 43.22C61.3667 43.22 60.8 43.32 60.36 43.52C59.92 43.7067 59.5933 43.96 59.38 44.28C59.1667 44.6 59.06 44.96 59.06 45.36C59.06 45.6667 59.12 45.9467 59.24 46.2C59.36 46.4533 59.5733 46.68 59.88 46.88C60.2 47.0667 60.64 47.2267 61.2 47.36L63.98 47.98C65.2067 48.2467 66.06 48.66 66.54 49.22C67.0333 49.7667 67.28 50.4467 67.28 51.26C67.28 51.9933 67.0733 52.64 66.66 53.2C66.26 53.76 65.6867 54.2 64.94 54.52C64.2067 54.8267 63.34 54.98 62.34 54.98ZM61.58 57V39.8H62.96V57H61.58ZM69.9214 55V53.7C71.2414 52.7267 72.3414 51.8733 73.2214 51.14C74.1147 50.4067 74.8281 49.74 75.3614 49.14C75.8947 48.54 76.2747 47.9733 76.5014 47.44C76.7281 46.8933 76.8414 46.3267 76.8414 45.74C76.8414 44.9533 76.5881 44.32 76.0814 43.84C75.5881 43.3467 74.9081 43.1 74.0414 43.1C73.1347 43.1 72.4081 43.4 71.8614 44C71.3147 44.5867 70.9947 45.3733 70.9014 46.36L69.5014 45.52C69.6214 44.7467 69.8681 44.0667 70.2414 43.48C70.6281 42.8933 71.1414 42.4333 71.7814 42.1C72.4347 41.7667 73.2081 41.6 74.1014 41.6C74.7814 41.6 75.3881 41.7 75.9214 41.9C76.4681 42.1 76.9347 42.3867 77.3214 42.76C77.7081 43.12 78.0014 43.5533 78.2014 44.06C78.4147 44.5667 78.5214 45.1267 78.5214 45.74C78.5214 46.5667 78.3214 47.38 77.9214 48.18C77.5214 48.9667 76.8614 49.7933 75.9414 50.66C75.0214 51.5267 73.7747 52.4867 72.2014 53.54V53.56C72.3481 53.5467 72.5481 53.54 72.8014 53.54C73.0681 53.5267 73.3281 53.52 73.5814 53.52C73.8481 53.5067 74.0481 53.5 74.1814 53.5H78.8014V55H69.9214ZM86.3216 55.2C84.8282 55.2 83.6349 54.62 82.7416 53.46C81.8482 52.3 81.4016 50.6133 81.4016 48.4C81.4016 46.1867 81.8482 44.5 82.7416 43.34C83.6349 42.18 84.8282 41.6 86.3216 41.6C87.8282 41.6 89.0216 42.18 89.9016 43.34C90.7949 44.5 91.2416 46.1867 91.2416 48.4C91.2416 50.6133 90.7949 52.3 89.9016 53.46C89.0216 54.62 87.8282 55.2 86.3216 55.2ZM86.3216 53.76C87.0282 53.76 87.6216 53.56 88.1016 53.16C88.5949 52.7467 88.9616 52.14 89.2016 51.34C89.4549 50.54 89.5816 49.56 89.5816 48.4C89.5816 47.24 89.4549 46.26 89.2016 45.46C88.9616 44.66 88.5949 44.06 88.1016 43.66C87.6216 43.2467 87.0282 43.04 86.3216 43.04C85.6149 43.04 85.0149 43.2467 84.5216 43.66C84.0416 44.06 83.6749 44.66 83.4216 45.46C83.1816 46.26 83.0616 47.24 83.0616 48.4C83.0616 49.56 83.1816 50.54 83.4216 51.34C83.6749 52.14 84.0416 52.7467 84.5216 53.16C85.0149 53.56 85.6149 53.76 86.3216 53.76Z" fill="black"/>
<defs>
<filter id="filter0_f_4287_10673" x="0" y="0" width="147" height="98.7684" filterUnits="userSpaceOnUse" color-interpolation-filters="sRGB">
<feFlood flood-opacity="0" result="BackgroundImageFix"/>
<feBlend mode="normal" in="SourceGraphic" in2="BackgroundImageFix" result="shape"/>
<feGaussianBlur stdDeviation="17" result="effect1_foregroundBlur_4287_10673"/>
</filter>
</defs>
</svg>
