<svg width="77" height="37" viewBox="0 0 77 37" fill="none" xmlns="http://www.w3.org/2000/svg">
<mask id="path-1-inside-1_4287_11186" fill="white">
<path fill-rule="evenodd" clip-rule="evenodd" d="M77 0H0V6.49429C3.9245 6.848 6.99989 10.1463 6.99989 14.1629V23.9824C6.99989 27.999 3.9245 31.2973 0 31.651V37H77L77 31.6824C72.7475 31.6824 69.3 28.235 69.3 23.9824V14.1629C69.3 9.91031 72.7475 6.46289 77 6.46289L77 0Z"/>
</mask>
<path fill-rule="evenodd" clip-rule="evenodd" d="M77 0H0V6.49429C3.9245 6.848 6.99989 10.1463 6.99989 14.1629V23.9824C6.99989 27.999 3.9245 31.2973 0 31.651V37H77L77 31.6824C72.7475 31.6824 69.3 28.235 69.3 23.9824V14.1629C69.3 9.91031 72.7475 6.46289 77 6.46289L77 0Z" fill="#FF7AC3"/>
<path d="M0 0V-1H-1V0H0ZM77 0L78 -5.90246e-06L78 -1H77V0ZM0 6.49429H-1V7.40821L-0.0897652 7.49025L0 6.49429ZM0 31.651L-0.0897654 30.655L-1 30.7371V31.651H0ZM0 37H-1V38H0V37ZM77 37V38H78L78 37L77 37ZM77 31.6824L78 31.6824L78 30.6824H77V31.6824ZM77 6.46289V7.46289H78L78 6.46288L77 6.46289ZM0 1H77V-1H0V1ZM1 6.49429V0H-1V6.49429H1ZM7.99989 14.1629C7.99989 9.62411 4.525 5.89807 0.0897652 5.49833L-0.0897652 7.49025C3.324 7.79793 5.99989 10.6685 5.99989 14.1629H7.99989ZM7.99989 23.9824V14.1629H5.99989V23.9824H7.99989ZM0.0897654 32.647C4.525 32.2472 7.99989 28.5212 7.99989 23.9824H5.99989C5.99989 27.4768 3.324 30.3474 -0.0897654 30.655L0.0897654 32.647ZM1 37V31.651H-1V37H1ZM77 36H0V38H77V36ZM76 31.6824L76 37L78 37L78 31.6824L76 31.6824ZM68.3 23.9824C68.3 28.7873 72.1952 32.6824 77 32.6824V30.6824C73.2997 30.6824 70.3 27.6827 70.3 23.9824H68.3ZM68.3 14.1629V23.9824H70.3V14.1629H68.3ZM77 5.46289C72.1952 5.46289 68.3 9.35802 68.3 14.1629H70.3C70.3 10.4626 73.2997 7.46289 77 7.46289V5.46289ZM76 5.90246e-06L76 6.4629L78 6.46288L78 -5.90246e-06L76 5.90246e-06Z" fill="white" mask="url(#path-1-inside-1_4287_11186)"/>
<path d="M26.34 24.98C25.42 24.98 24.6067 24.8533 23.9 24.6C23.1933 24.3467 22.5867 24.0067 22.08 23.58C21.5733 23.1533 21.16 22.6733 20.84 22.14L22.2 21.04C22.4533 21.52 22.7733 21.9467 23.16 22.32C23.5467 22.6933 24.0133 22.9867 24.56 23.2C25.1067 23.4133 25.7333 23.52 26.44 23.52C27.4267 23.52 28.2067 23.34 28.78 22.98C29.3667 22.62 29.66 22.0933 29.66 21.4C29.66 20.9867 29.52 20.62 29.24 20.3C28.9733 19.9667 28.4667 19.7133 27.72 19.54L24.72 18.86C23.92 18.6733 23.28 18.4267 22.8 18.12C22.32 17.8 21.9733 17.4267 21.76 17C21.5467 16.56 21.44 16.0867 21.44 15.58C21.44 14.8867 21.6267 14.2533 22 13.68C22.3867 13.1067 22.9333 12.6467 23.64 12.3C24.36 11.9533 25.22 11.78 26.22 11.78C27.34 11.78 28.3067 12.0067 29.12 12.46C29.9467 12.9133 30.6267 13.5933 31.16 14.5L29.86 15.5C29.3933 14.6733 28.8533 14.0867 28.24 13.74C27.64 13.3933 26.9133 13.22 26.06 13.22C25.3667 13.22 24.8 13.32 24.36 13.52C23.92 13.7067 23.5933 13.96 23.38 14.28C23.1667 14.6 23.06 14.96 23.06 15.36C23.06 15.6667 23.12 15.9467 23.24 16.2C23.36 16.4533 23.5733 16.68 23.88 16.88C24.2 17.0667 24.64 17.2267 25.2 17.36L27.98 17.98C29.2067 18.2467 30.06 18.66 30.54 19.22C31.0333 19.7667 31.28 20.4467 31.28 21.26C31.28 21.9933 31.0733 22.64 30.66 23.2C30.26 23.76 29.6867 24.2 28.94 24.52C28.2067 24.8267 27.34 24.98 26.34 24.98ZM25.58 27V9.8H26.96V27H25.58ZM33.9214 25V23.7C35.2414 22.7267 36.3414 21.8733 37.2214 21.14C38.1147 20.4067 38.8281 19.74 39.3614 19.14C39.8947 18.54 40.2747 17.9733 40.5014 17.44C40.7281 16.8933 40.8414 16.3267 40.8414 15.74C40.8414 14.9533 40.5881 14.32 40.0814 13.84C39.5881 13.3467 38.9081 13.1 38.0414 13.1C37.1347 13.1 36.4081 13.4 35.8614 14C35.3147 14.5867 34.9947 15.3733 34.9014 16.36L33.5014 15.52C33.6214 14.7467 33.8681 14.0667 34.2414 13.48C34.6281 12.8933 35.1414 12.4333 35.7814 12.1C36.4347 11.7667 37.2081 11.6 38.1014 11.6C38.7814 11.6 39.3881 11.7 39.9214 11.9C40.4681 12.1 40.9347 12.3867 41.3214 12.76C41.7081 13.12 42.0014 13.5533 42.2014 14.06C42.4147 14.5667 42.5214 15.1267 42.5214 15.74C42.5214 16.5667 42.3214 17.38 41.9214 18.18C41.5214 18.9667 40.8614 19.7933 39.9414 20.66C39.0214 21.5267 37.7747 22.4867 36.2014 23.54V23.56C36.3481 23.5467 36.5481 23.54 36.8014 23.54C37.0681 23.5267 37.3281 23.52 37.5814 23.52C37.8481 23.5067 38.0481 23.5 38.1814 23.5H42.8014V25H33.9214ZM50.3216 25.2C48.8282 25.2 47.6349 24.62 46.7416 23.46C45.8482 22.3 45.4016 20.6133 45.4016 18.4C45.4016 16.1867 45.8482 14.5 46.7416 13.34C47.6349 12.18 48.8282 11.6 50.3216 11.6C51.8282 11.6 53.0216 12.18 53.9016 13.34C54.7949 14.5 55.2416 16.1867 55.2416 18.4C55.2416 20.6133 54.7949 22.3 53.9016 23.46C53.0216 24.62 51.8282 25.2 50.3216 25.2ZM50.3216 23.76C51.0282 23.76 51.6216 23.56 52.1016 23.16C52.5949 22.7467 52.9616 22.14 53.2016 21.34C53.4549 20.54 53.5816 19.56 53.5816 18.4C53.5816 17.24 53.4549 16.26 53.2016 15.46C52.9616 14.66 52.5949 14.06 52.1016 13.66C51.6216 13.2467 51.0282 13.04 50.3216 13.04C49.6149 13.04 49.0149 13.2467 48.5216 13.66C48.0416 14.06 47.6749 14.66 47.4216 15.46C47.1816 16.26 47.0616 17.24 47.0616 18.4C47.0616 19.56 47.1816 20.54 47.4216 21.34C47.6749 22.14 48.0416 22.7467 48.5216 23.16C49.0149 23.56 49.6149 23.76 50.3216 23.76Z" fill="black"/>
</svg>
