<svg width="24" height="24" viewBox="0 0 24 24" fill="none" xmlns="http://www.w3.org/2000/svg">
<rect x="0.705731" y="0.705731" width="22.5834" height="22.5885" rx="11.2917" fill="#CCCCCC"/>
<path d="M11.0834 16.1133C10.5806 16.1133 10.1502 15.9343 9.79222 15.5763C9.4342 15.2183 9.25519 14.7879 9.25519 14.2851C9.25519 13.7824 9.4342 13.352 9.79222 12.994C10.1502 12.6359 10.5806 12.4569 11.0834 12.4569C11.2586 12.4569 11.4204 12.4778 11.5688 12.5196C11.7174 12.5616 11.8604 12.6245 11.9975 12.7083V7.88647H14.7397V9.71466H12.9116V14.2851C12.9116 14.7879 12.7325 15.2183 12.3745 15.5763C12.0165 15.9343 11.5861 16.1133 11.0834 16.1133Z" fill="black"/>
<rect x="0.705731" y="0.705731" width="22.5834" height="22.5885" rx="11.2917" stroke="#999999" stroke-width="1.41146"/>
</svg>
