<svg width="20" height="21" viewBox="0 0 20 21" fill="none" xmlns="http://www.w3.org/2000/svg">
<path d="M12.5 1.33325H7.5V2.99992H12.5V1.33325ZM9.16667 12.1666H10.8333V7.16659H9.16667V12.1666ZM15.8583 6.65825L17.0417 5.47492C16.6833 5.04992 16.2917 4.64992 15.8667 4.29992L14.6833 5.48325C13.3561 4.41519 11.7036 3.83299 10 3.83325C5.85833 3.83325 2.5 7.19159 2.5 11.3333C2.5 15.4749 5.85 18.8333 10 18.8333C11.4119 18.834 12.7953 18.4359 13.9909 17.6849C15.1865 16.9338 16.1457 15.8603 16.7579 14.588C17.3701 13.3157 17.6104 11.8964 17.4513 10.4935C17.2921 9.09054 16.74 7.76109 15.8583 6.65825ZM10 17.1666C6.775 17.1666 4.16667 14.5583 4.16667 11.3333C4.16667 8.10825 6.775 5.49992 10 5.49992C13.225 5.49992 15.8333 8.10825 15.8333 11.3333C15.8333 14.5583 13.225 17.1666 10 17.1666Z" fill="#6188E7"/>
</svg>
