<svg width="25" height="28" viewBox="0 0 25 28" fill="none" xmlns="http://www.w3.org/2000/svg">
<path d="M24.0201 7.23389L24.0043 21.0232L12.276 26.9991L12.2918 13.2098L24.0201 7.23389Z" fill="white"/>
<mask id="mask0_184_6740" style="mask-type:luminance" maskUnits="userSpaceOnUse" x="12" y="7" width="13" height="20">
<path d="M24.0187 7.23352L24.0029 21.0228L12.2746 26.9987L12.2904 13.2094L24.0187 7.23352Z" fill="white"/>
</mask>
<g mask="url(#mask0_184_6740)">
<path d="M18.0185 19.5777C17.3375 19.9247 16.9169 20.5659 16.9164 21.2861C16.9155 21.9934 17.3351 22.1934 18.0161 21.8464C18.6975 21.4995 19.1177 20.8712 19.1181 20.1639C19.1191 19.4433 18.6999 19.2303 18.0185 19.5773M18.1965 12.7123C16.1422 13.7588 15.233 15.236 15.0616 16.6563L16.9217 16.5486C16.9796 15.626 17.3997 14.9585 18.0582 14.623C18.7167 14.2876 19.0339 14.4723 19.033 15.0461C19.032 15.7533 18.5209 16.4673 17.0796 17.3349L17.1791 19.3112L18.8363 18.4666L18.9511 17.2612C20.1656 16.4821 21.1084 15.3351 21.1103 13.6406C21.1122 11.9591 19.8986 11.8442 18.196 12.7118" fill="#6B6B6B"/>
</g>
<path d="M12.2766 26.9981L1 20.7643L1.01579 6.97498L12.2924 13.2088L12.2766 26.9981Z" fill="#CCCCCC"/>
<mask id="mask1_184_6740" style="mask-type:luminance" maskUnits="userSpaceOnUse" x="1" y="6" width="12" height="21">
<path d="M12.2766 26.9963L1 20.7625L1.01579 6.97314L12.2924 13.207L12.2766 26.9963Z" fill="white"/>
</mask>
<g mask="url(#mask1_184_6740)">
<path d="M6.5392 19.6167C5.88745 19.2564 5.485 19.4593 5.48405 20.1766C5.48309 20.8939 5.88505 21.515 6.53681 21.8754C7.18905 22.2357 7.59101 22.0457 7.59197 21.3418C7.59293 20.6245 7.19144 19.977 6.53968 19.6167M6.71052 12.9589C4.74424 11.8717 3.87379 12.401 3.70966 13.6389L5.48979 15.4607C5.5453 14.6012 5.94774 14.3715 6.57797 14.7199C7.20819 15.0683 7.51206 15.5813 7.5111 16.1526C7.51014 16.8565 7.02061 17.0379 5.641 16.4082L5.73623 18.4816L7.32256 19.3588L7.43262 18.2763C8.59497 18.7597 9.49748 18.5941 9.49939 16.9068C9.50131 15.2195 8.33991 13.86 6.71004 12.9589" fill="#6B6B6B"/>
</g>
<path d="M12.2925 13.2097L1.01596 6.97588L12.7438 1L24.0208 7.23381L12.2925 13.2097Z" fill="white"/>
<path d="M1 6.98163L12.2933 13.2025M1 6.98163V20.7633L12.2933 26.9842M1 6.98163L12.7479 1L24.0173 7.24482M12.2933 13.2025L24.0173 7.24482M12.2933 13.2025V26.9842M24.0173 7.24482V21.0504L12.2933 26.9842" stroke="#6B6B6B" stroke-width="0.88541"/>
</svg>
