<svg width="448" height="217" viewBox="0 0 448 217" fill="none" xmlns="http://www.w3.org/2000/svg">
<g clip-path="url(#clip0_9134_18834)">
<rect x="19.5738" y="5.74232" width="82" height="16" rx="7.5" transform="rotate(-9.24114 19.5738 5.74232)" fill="#F5F5F5" stroke="#D9D9D9"/>
<rect x="22.9469" y="26.4699" width="82" height="16" rx="7.5" transform="rotate(-9.24114 22.9469 26.4699)" fill="#F5F5F5" stroke="#D9D9D9"/>
<rect x="26.3199" y="47.1974" width="82" height="16" rx="7.5" transform="rotate(-9.24114 26.3199 47.1974)" fill="#F5F5F5" stroke="#D9D9D9"/>
<g filter="url(#filter0_d_9134_18834)">
<rect x="171" y="42.3876" width="435" height="135" transform="rotate(-14.0206 171 42.3876)" fill="white" shape-rendering="crispEdges"/>
<rect x="171.606" y="42.7516" width="434" height="134" transform="rotate(-14.0206 171.606 42.7516)" stroke="black" shape-rendering="crispEdges"/>
<mask id="mask0_9134_18834" style="mask-type:alpha" maskUnits="userSpaceOnUse" x="171" y="-63" width="455" height="237">
<rect x="171" y="42.3876" width="435" height="135" transform="rotate(-14.0206 171 42.3876)" fill="#D9D9D9"/>
</mask>
<g mask="url(#mask0_9134_18834)">
<g filter="url(#filter1_f_9134_18834)">
<circle cx="401.778" cy="46.7652" r="61.1579" transform="rotate(-14.0206 401.778 46.7652)" fill="#6188E7"/>
</g>
<g filter="url(#filter2_f_9134_18834)">
<path d="M504.642 12.0709C478.535 -31.2632 444.242 37.5417 431.527 69.6221C428.958 76.1043 418.714 80.3915 412.428 77.3723C393.624 68.3394 367.41 57.6078 352.547 57.7868C328.562 58.0756 357.294 142.11 380.841 151.499C404.389 160.889 470.603 137.84 506.726 135.538C542.849 133.236 537.373 66.4003 504.642 12.0709Z" fill="#FF7AC3"/>
</g>
</g>
</g>
<rect x="284.089" y="28.3429" width="65.6667" height="25.6667" rx="12.8333" transform="rotate(1.66732 284.089 28.3429)" fill="#F5F5F5"/>
<rect x="284.089" y="28.3429" width="65.6667" height="25.6667" rx="12.8333" transform="rotate(1.66732 284.089 28.3429)" stroke="#D9D9D9" stroke-width="0.666667"/>
<path d="M298.211 39.0757L298.057 44.3641L297.258 44.3408L297.412 39.0524L298.211 39.0757ZM300.332 41.3784L300.308 42.178L295.127 42.0272L295.15 41.2275L300.332 41.3784ZM310.739 39.2162L306.666 39.0977L306.6 41.3687L309.777 41.4612L309.754 42.2609L306.576 42.1684L306.484 45.335L305.631 45.3102L305.836 38.2732L310.762 38.4166L310.739 39.2162ZM313.761 40.1046C314.266 40.1192 314.707 40.2424 315.084 40.4739C315.469 40.7056 315.765 41.0344 315.973 41.4602C316.182 41.8788 316.277 42.3761 316.261 42.9518C316.244 43.5276 316.119 44.0219 315.887 44.4349C315.654 44.8408 315.34 45.1482 314.942 45.3571C314.552 45.5663 314.104 45.6636 313.6 45.6489C313.102 45.6344 312.661 45.5113 312.277 45.2796C311.892 45.0478 311.596 44.7226 311.387 44.3039C311.179 43.8781 311.083 43.3774 311.1 42.8016C311.117 42.2259 311.242 41.735 311.474 41.3292C311.706 40.9162 312.021 40.6053 312.419 40.3963C312.816 40.1873 313.264 40.0901 313.761 40.1046ZM313.74 40.8402C313.377 40.8297 313.066 40.9024 312.805 41.0585C312.544 41.2145 312.338 41.4433 312.187 41.7448C312.044 42.0394 311.966 42.4 311.953 42.8264C311.941 43.2458 311.998 43.6103 312.124 43.9199C312.257 44.2297 312.45 44.47 312.701 44.641C312.952 44.8119 313.259 44.9026 313.621 44.9132C313.984 44.9237 314.295 44.851 314.556 44.695C314.817 44.5389 315.019 44.31 315.163 44.0083C315.314 43.7068 315.396 43.3464 315.408 42.927C315.42 42.5005 315.36 42.1359 315.226 41.8332C315.1 41.5237 314.911 41.2834 314.66 41.1125C314.409 40.9415 314.102 40.8508 313.74 40.8402ZM318.826 37.9043L318.639 44.3336C318.631 44.6037 318.675 44.7935 318.771 44.903C318.868 45.0054 319.027 45.0599 319.247 45.0663C319.389 45.0704 319.507 45.0632 319.6 45.0445C319.693 45.0259 319.818 44.9904 319.976 44.9381L319.816 45.6804C319.701 45.7269 319.575 45.7588 319.44 45.7762C319.304 45.8007 319.165 45.8109 319.023 45.8067C318.589 45.7941 318.269 45.6674 318.063 45.4266C317.863 45.1861 317.771 44.8241 317.785 44.3408L317.973 37.8795L318.826 37.9043ZM322.085 37.9992L321.898 44.4285C321.89 44.6986 321.934 44.8884 322.031 44.9979C322.127 45.1003 322.286 45.1547 322.506 45.1611C322.648 45.1653 322.766 45.158 322.859 45.1394C322.952 45.1208 323.077 45.0853 323.235 45.033L323.075 45.7753C322.96 45.8217 322.834 45.8537 322.699 45.8711C322.563 45.8956 322.424 45.9057 322.282 45.9016C321.848 45.889 321.528 45.7623 321.322 45.5215C321.122 45.2809 321.03 44.919 321.044 44.4356L321.232 37.9744L322.085 37.9992ZM326.672 40.4804C327.177 40.4951 327.618 40.6182 327.995 40.8497C328.38 41.0814 328.676 41.4102 328.885 41.836C329.093 42.2547 329.189 42.7519 329.172 43.3277C329.155 43.9034 329.03 44.3978 328.798 44.8107C328.566 45.2166 328.251 45.524 327.853 45.733C327.463 45.9421 327.016 46.0394 326.511 46.0247C326.013 46.0102 325.572 45.8871 325.188 45.6554C324.803 45.4237 324.507 45.0984 324.298 44.6798C324.09 44.254 323.995 43.7532 324.011 43.1774C324.028 42.6017 324.153 42.1109 324.385 41.705C324.618 41.2921 324.933 40.9811 325.33 40.7721C325.727 40.5631 326.175 40.4659 326.672 40.4804ZM326.651 41.2161C326.288 41.2055 325.977 41.2783 325.716 41.4343C325.456 41.5903 325.25 41.8191 325.099 42.1206C324.955 42.4152 324.877 42.7758 324.864 43.2023C324.852 43.6216 324.909 43.9861 325.035 44.2957C325.169 44.6055 325.361 44.8458 325.612 45.0168C325.863 45.1877 326.17 45.2785 326.532 45.289C326.895 45.2996 327.206 45.2268 327.467 45.0708C327.728 44.9147 327.93 44.6859 328.074 44.3842C328.225 44.0826 328.307 43.7222 328.319 43.3028C328.331 42.8763 328.271 42.5118 328.137 42.2091C328.011 41.8995 327.823 41.6592 327.571 41.4883C327.32 41.3174 327.013 41.2266 326.651 41.2161ZM337.374 40.8986L338.323 40.9262L336.312 46.2033L335.459 46.1785L334.08 41.8912L332.538 46.0934L331.685 46.0686L329.985 40.6835L330.934 40.7111L332.151 45.0897L333.727 40.7925L334.58 40.8173L335.904 45.199L337.374 40.8986Z" fill="#999999"/>
<g clip-path="url(#clip1_9134_18834)">
<path fill-rule="evenodd" clip-rule="evenodd" d="M394.359 169.602L393.969 169.05C393.775 168.774 393.396 168.707 393.107 168.883L387.005 160.232L387.542 159.853L386.641 157.157L383.549 159.338L382.03 157.184L371.127 164.874L372.647 167.028L369.753 169.069L371.991 170.823L372.528 170.444L378.629 179.095C378.366 179.31 378.301 179.686 378.497 179.963L378.886 180.515C378.806 180.559 378.736 180.62 378.681 180.693C378.626 180.765 378.586 180.849 378.565 180.938C378.544 181.027 378.542 181.119 378.558 181.209C378.575 181.299 378.61 181.384 378.661 181.46L379.101 182.083L384.736 178.108L384.297 177.486C384.244 177.412 384.175 177.35 384.096 177.304C384.017 177.258 383.929 177.229 383.838 177.219C383.747 177.209 383.655 177.219 383.568 177.246C383.481 177.274 383.4 177.319 383.332 177.38L382.942 176.828C382.735 176.553 382.274 176.606 381.992 176.736L378.635 171.954C377.465 169.928 378.036 167.292 380.013 165.898C381.988 164.505 384.664 164.851 386.18 166.632L389.563 171.406C389.382 171.626 389.355 171.943 389.525 172.184L389.915 172.737C389.834 172.781 389.764 172.841 389.709 172.914C389.654 172.987 389.614 173.07 389.593 173.159C389.571 173.248 389.569 173.341 389.586 173.431C389.602 173.521 389.637 173.606 389.689 173.682L390.128 174.305L395.764 170.331L395.325 169.708C395.271 169.634 395.202 169.572 395.123 169.526C395.044 169.48 394.956 169.452 394.865 169.442C394.774 169.432 394.682 169.441 394.595 169.468C394.508 169.496 394.427 169.541 394.359 169.602Z" fill="#D9D9D9"/>
</g>
<path d="M125.655 80.7903C125.14 78.9687 124.803 76.7304 125.105 74.1494L121.407 72.569C121.648 75.7519 123.146 78.7328 125.655 80.7903ZM128.175 79.6498C128.376 80.4751 128.623 81.1963 128.861 81.791C129.404 81.5302 130.095 81.2096 130.831 80.785C131.961 80.1591 133.18 79.3248 134.324 78.0891L127.709 75.2623C127.659 76.9655 127.846 78.4007 128.175 79.6498ZM129.013 69.9061C128.612 70.8436 128.33 71.6471 128.152 72.4951L136.069 75.8784C136.507 75.1416 136.945 74.4049 137.346 73.4674C137.724 72.582 137.976 71.7041 138.206 70.8783L130.289 67.4951C129.799 68.2096 129.391 69.0207 129.013 69.9061ZM127.737 66.4044L123.675 64.6683C123.11 65.4126 122.702 66.2237 122.346 67.057C121.967 67.9425 121.715 68.8203 121.538 69.6684L125.6 71.4045C125.83 70.5787 126.134 69.7231 126.513 68.8377C126.869 68.0044 127.277 67.1933 127.737 66.4044ZM131.983 65.2622L138.597 68.0889C138.677 66.4601 138.46 64.9506 138.132 63.7014C137.908 62.9282 137.662 62.207 137.475 61.6345C136.88 61.8731 136.189 62.1937 135.475 62.5663C134.346 63.1922 133.157 64.1007 131.983 65.2622ZM140.706 71.9467C140.454 72.8246 140.202 73.7024 139.846 74.5358C139.468 75.4212 139.007 76.21 138.569 76.9468L142.632 78.6829C143.174 77.9907 143.634 77.2019 144.013 76.3164C144.369 75.4831 144.621 74.6052 144.769 73.6829L140.706 71.9467ZM144.899 70.7822C144.636 67.6514 143.138 64.6705 140.629 62.613C141.145 64.4346 141.482 66.6729 141.202 69.2019L144.899 70.7822ZM129.378 64.1493C131.013 62.199 132.863 60.8956 134.536 60.0088C131.315 59.618 128.125 60.5955 125.681 62.5689L129.378 64.1493ZM131.748 83.3945C134.969 83.7853 138.159 82.8078 140.626 80.7823L136.928 79.202C135.272 81.2043 133.421 82.5077 131.748 83.3945ZM127.481 85.0202C122.689 82.9725 119.383 78.6028 118.768 73.4122C118.13 68.2737 120.289 63.2215 124.466 60.0787C128.62 56.9879 134.086 56.3055 138.877 58.3533C143.617 60.3787 146.901 64.8005 147.539 69.939C148.154 75.1296 145.995 80.1818 141.841 83.2725C137.664 86.4154 132.221 87.0457 127.481 85.0202Z" fill="#D9D9D9"/>
<rect x="189.786" y="123.549" width="94" height="12" rx="6" transform="rotate(5.86893 189.786 123.549)" fill="#F5F5F5" stroke="#D9D9D9"/>
<rect x="187.638" y="144.438" width="125" height="40" rx="7.5" transform="rotate(5.86893 187.638 144.438)" fill="#F5F5F5" stroke="#D9D9D9"/>
<g filter="url(#filter3_d_9134_18834)">
<rect x="48.1406" y="93" width="101" height="101" rx="50.5" transform="rotate(15 48.1406 93)" fill="white" shape-rendering="crispEdges"/>
<rect x="48.4942" y="93.6124" width="100" height="100" rx="50" transform="rotate(15 48.4942 93.6124)" stroke="black" shape-rendering="crispEdges"/>
<circle cx="40.7258" cy="40.7258" r="40.7258" transform="matrix(-0.965926 -0.258819 -0.258819 0.965926 133.729 126.052)" fill="#F5F5F5"/>
<g clip-path="url(#clip2_9134_18834)">
<g filter="url(#filter4_d_9134_18834)">
<rect x="49.7949" y="160.231" width="61.2439" height="49.3903" rx="24.6951" transform="rotate(15 49.7949 160.231)" fill="#F5F5F5"/>
<rect x="51.3859" y="162.987" width="56.7439" height="44.8903" rx="22.4451" transform="rotate(15 51.3859 162.987)" stroke="#D9D9D9" stroke-width="4.5"/>
</g>
<circle cx="86.922" cy="149.208" r="15.2069" transform="rotate(15 86.922 149.208)" fill="white" stroke="#D9D9D9" stroke-width="4.5"/>
<circle cx="85.3641" cy="146.753" r="15.0366" transform="rotate(15 85.3641 146.753)" fill="#F5F5F5" stroke="#D9D9D9" stroke-width="4.5"/>
</g>
</g>
</g>
<defs>
<filter id="filter0_d_9134_18834" x="171" y="-63" width="458.747" height="240.366" filterUnits="userSpaceOnUse" color-interpolation-filters="sRGB">
<feFlood flood-opacity="0" result="BackgroundImageFix"/>
<feColorMatrix in="SourceAlpha" type="matrix" values="0 0 0 0 0 0 0 0 0 0 0 0 0 0 0 0 0 0 127 0" result="hardAlpha"/>
<feOffset dx="4" dy="4"/>
<feComposite in2="hardAlpha" operator="out"/>
<feColorMatrix type="matrix" values="0 0 0 0 0 0 0 0 0 0 0 0 0 0 0 0 0 0 1 0"/>
<feBlend mode="normal" in2="BackgroundImageFix" result="effect1_dropShadow_9134_18834"/>
<feBlend mode="normal" in="SourceGraphic" in2="effect1_dropShadow_9134_18834" result="shape"/>
</filter>
<filter id="filter1_f_9134_18834" x="157.794" y="-197.218" width="487.967" height="487.967" filterUnits="userSpaceOnUse" color-interpolation-filters="sRGB">
<feFlood flood-opacity="0" result="BackgroundImageFix"/>
<feBlend mode="normal" in="SourceGraphic" in2="BackgroundImageFix" result="shape"/>
<feGaussianBlur stdDeviation="91.4056" result="effect1_foregroundBlur_9134_18834"/>
</filter>
<filter id="filter2_f_9134_18834" x="190.308" y="-155.046" width="494.473" height="461.983" filterUnits="userSpaceOnUse" color-interpolation-filters="sRGB">
<feFlood flood-opacity="0" result="BackgroundImageFix"/>
<feBlend mode="normal" in="SourceGraphic" in2="BackgroundImageFix" result="shape"/>
<feGaussianBlur stdDeviation="76.6" result="effect1_foregroundBlur_9134_18834"/>
</filter>
<filter id="filter3_d_9134_18834" x="22" y="93" width="127.699" height="127.699" filterUnits="userSpaceOnUse" color-interpolation-filters="sRGB">
<feFlood flood-opacity="0" result="BackgroundImageFix"/>
<feColorMatrix in="SourceAlpha" type="matrix" values="0 0 0 0 0 0 0 0 0 0 0 0 0 0 0 0 0 0 127 0" result="hardAlpha"/>
<feOffset dx="4" dy="4"/>
<feComposite in2="hardAlpha" operator="out"/>
<feColorMatrix type="matrix" values="0 0 0 0 0 0 0 0 0 0 0 0 0 0 0 0 0 0 1 0"/>
<feBlend mode="normal" in2="BackgroundImageFix" result="effect1_dropShadow_9134_18834"/>
<feBlend mode="normal" in="SourceGraphic" in2="effect1_dropShadow_9134_18834" result="shape"/>
</filter>
<filter id="filter4_d_9134_18834" x="42.5557" y="165.775" width="63.3838" height="55.0017" filterUnits="userSpaceOnUse" color-interpolation-filters="sRGB">
<feFlood flood-opacity="0" result="BackgroundImageFix"/>
<feColorMatrix in="SourceAlpha" type="matrix" values="0 0 0 0 0 0 0 0 0 0 0 0 0 0 0 0 0 0 127 0" result="hardAlpha"/>
<feOffset dx="2.53125" dy="2.53125"/>
<feComposite in2="hardAlpha" operator="out"/>
<feColorMatrix type="matrix" values="0 0 0 0 0.85098 0 0 0 0 0.85098 0 0 0 0 0.85098 0 0 0 1 0"/>
<feBlend mode="normal" in2="BackgroundImageFix" result="effect1_dropShadow_9134_18834"/>
<feBlend mode="normal" in="SourceGraphic" in2="effect1_dropShadow_9134_18834" result="shape"/>
</filter>
<clipPath id="clip0_9134_18834">
<rect width="448" height="217" fill="white"/>
</clipPath>
<clipPath id="clip1_9134_18834">
<rect width="26.4078" height="26.4078" fill="white" transform="translate(363 165.221) rotate(-35.1964)"/>
</clipPath>
<clipPath id="clip2_9134_18834">
<rect x="55.2109" y="105.247" width="81" height="81" rx="40.5" transform="rotate(15 55.2109 105.247)" fill="white"/>
</clipPath>
</defs>
</svg>
