<svg width="34" height="25" viewBox="0 0 34 25" fill="none" xmlns="http://www.w3.org/2000/svg">
<path d="M18.41 2.72L20.0508 3.86358C20.4768 3.25237 20.5277 2.45504 20.183 1.79457C19.8383 1.13411 19.155 0.719998 18.41 0.719998V2.72ZM16.79 5.09L15.1315 3.97229C15.1258 3.98064 15.1203 3.98903 15.1148 3.99746L16.79 5.09ZM15.05 8L13.2968 7.03748C13.292 7.04636 13.2872 7.05527 13.2824 7.06422L15.05 8ZM13.67 11.06L15.5442 11.7582L15.5442 11.7582L13.67 11.06ZM13.58 15.68L11.9382 16.8221C11.9573 16.8495 11.977 16.8765 11.9974 16.9029L13.58 15.68ZM14.84 16.73L13.9173 18.5044C13.9267 18.5093 13.9361 18.5141 13.9456 18.5189L14.84 16.73ZM16.55 17.24L16.2941 19.2236L16.3019 19.2246L16.55 17.24ZM18.41 17.36H20.41C20.41 16.2554 19.5146 15.36 18.41 15.36V17.36ZM18.41 23V25C19.5146 25 20.41 24.1046 20.41 23H18.41ZM15.29 22.73L14.9357 24.6984L14.9424 24.6996L15.29 22.73ZM12.47 21.83L11.6085 23.635L11.6085 23.635L12.47 21.83ZM10.07 20.18L11.4432 18.726L11.4432 18.726L10.07 20.18ZM8.27 17.63L10.0796 16.7784C9.6809 15.9311 8.7476 15.4739 7.83369 15.6782C6.91979 15.8825 6.27 16.6935 6.27 17.63H8.27ZM8.27 23V25C9.37457 25 10.27 24.1046 10.27 23H8.27ZM2.63 23H0.63C0.63 24.1046 1.52543 25 2.63 25L2.63 23ZM2.63 2.72V0.719998C1.52543 0.719998 0.63 1.61543 0.63 2.72H2.63ZM8.27 2.72H10.27C10.27 1.61543 9.37457 0.719998 8.27 0.719998V2.72ZM8.27 9.47H6.27C6.27 10.4566 6.98948 11.2958 7.96452 11.4465C8.93957 11.5972 9.87883 11.0144 10.1767 10.0738L8.27 9.47ZM9.74 5.99L7.99021 5.02137C7.98577 5.0294 7.98138 5.03746 7.97704 5.04556L9.74 5.99ZM11.66 2.72V0.719998C10.9692 0.719998 10.3273 1.07647 9.96221 1.66288L11.66 2.72ZM16.7692 1.57641C16.3015 2.24751 15.7553 3.0466 15.1315 3.97229L18.4485 6.20771C19.0647 5.2934 19.5985 4.51249 20.0508 3.86358L16.7692 1.57641ZM15.1148 3.99746C14.4856 4.96221 13.8797 5.97577 13.2968 7.03748L16.8032 8.96252C17.3403 7.98423 17.8944 7.05779 18.4652 6.18254L15.1148 3.99746ZM13.2824 7.06422C12.7042 8.15643 12.2079 9.25565 11.7958 10.3618L15.5442 11.7582C15.8921 10.8243 16.3158 9.88356 16.8176 8.93578L13.2824 7.06422ZM11.7958 10.3618C11.356 11.5424 11.1 12.7128 11.1 13.85H15.1C15.1 13.3072 15.224 12.6176 15.5442 11.7582L11.7958 10.3618ZM11.1 13.85C11.1 14.876 11.3151 15.9265 11.9382 16.8221L15.2218 14.5379C15.2049 14.5135 15.1 14.344 15.1 13.85H11.1ZM11.9974 16.9029C12.5172 17.5756 13.1635 18.1125 13.9173 18.5044L15.7627 14.9556C15.5165 14.8275 15.3228 14.6644 15.1626 14.4571L11.9974 16.9029ZM13.9456 18.5189C14.6806 18.8864 15.4686 19.117 16.2941 19.2236L16.8059 15.2564C16.3914 15.203 16.0394 15.0936 15.7344 14.9411L13.9456 18.5189ZM16.3019 19.2246C17.0181 19.3141 17.7212 19.36 18.41 19.36V15.36C17.8988 15.36 17.3619 15.3259 16.7981 15.2554L16.3019 19.2246ZM16.41 17.36V23H20.41V17.36H16.41ZM18.41 21C17.4638 21 16.5402 20.9197 15.6376 20.7604L14.9424 24.6996C16.0798 24.9003 17.2362 25 18.41 25V21ZM15.6443 20.7616C14.8125 20.6119 14.0438 20.365 13.3315 20.025L11.6085 23.635C12.6562 24.135 13.7675 24.4881 14.9357 24.6984L15.6443 20.7616ZM13.3315 20.025C12.6422 19.6961 12.0144 19.2653 11.4432 18.726L8.69675 21.634C9.56565 22.4547 10.5378 23.1239 11.6085 23.635L13.3315 20.025ZM11.4432 18.726C10.9285 18.2398 10.4677 17.6031 10.0796 16.7784L6.46036 18.4816C7.03227 19.6969 7.77153 20.7602 8.69675 21.634L11.4432 18.726ZM6.27 17.63V23H10.27V17.63H6.27ZM8.27 21H2.63V25H8.27V21ZM4.63 23V2.72H0.63V23H4.63ZM2.63 4.72H8.27V0.719998H2.63V4.72ZM6.27 2.72V9.47H10.27V2.72H6.27ZM10.1767 10.0738C10.519 8.99264 10.9607 7.9466 11.503 6.93444L7.97704 5.04556C7.31927 6.2734 6.78095 7.54736 6.36332 8.86622L10.1767 10.0738ZM11.4898 6.95863C12.0936 5.86782 12.7163 4.80735 13.3578 3.77712L9.96221 1.66288C9.28367 2.75265 8.62637 3.87218 7.99021 5.02137L11.4898 6.95863ZM11.66 4.72H18.41V0.719998H11.66V4.72Z" fill="#E6007E"/>
<path d="M31.15 17.36H33.15C33.15 16.2554 32.2546 15.36 31.15 15.36V17.36ZM31.15 23V25C32.2546 25 33.15 24.1046 33.15 23H31.15ZM25.51 23H23.51C23.51 24.1046 24.4054 25 25.51 25V23ZM25.51 17.36V15.36C24.4054 15.36 23.51 16.2554 23.51 17.36H25.51ZM29.15 17.36V23H33.15V17.36H29.15ZM31.15 21H25.51V25H31.15V21ZM27.51 23V17.36H23.51V23H27.51ZM25.51 19.36H31.15V15.36H25.51V19.36Z" fill="white"/>
</svg>
