<svg width="742" height="1092" viewBox="0 0 742 1092" fill="none" xmlns="http://www.w3.org/2000/svg">
<g clip-path="url(#clip0_3457_3924)">
<g filter="url(#filter0_f_3457_3924)">
<path d="M974.351 204.543C817.916 168.496 959.792 465.76 968.934 473.925C923.266 488.358 823.605 526.043 790.306 561.319C748.682 605.415 952.171 700.96 1010.65 674.677C1069.12 648.394 1143.52 487.54 1202.81 417.848C1262.1 348.156 1130.79 240.59 974.351 204.543Z" fill="#FF7AC3"/>
<path d="M974.351 204.543C817.916 168.496 959.792 465.76 968.934 473.925C923.266 488.358 823.605 526.043 790.306 561.319C748.682 605.415 952.171 700.96 1010.65 674.677C1069.12 648.394 1143.52 487.54 1202.81 417.848C1262.1 348.156 1130.79 240.59 974.351 204.543Z" stroke="#FF7AC3"/>
</g>
<g filter="url(#filter1_f_3457_3924)">
<circle cx="623.293" cy="479.815" r="141.5" transform="rotate(-60 623.293 479.815)" fill="#6188E7"/>
</g>
<mask id="mask0_3457_3924" style="mask-type:alpha" maskUnits="userSpaceOnUse" x="0" y="0" width="741" height="1092">
<rect width="741" height="1092" fill="url(#paint0_linear_3457_3924)"/>
</mask>
<g mask="url(#mask0_3457_3924)">
</g>
</g>
<defs>
<filter id="filter0_f_3457_3924" x="409.238" y="-173.987" width="1183.6" height="1228.66" filterUnits="userSpaceOnUse" color-interpolation-filters="sRGB">
<feFlood flood-opacity="0" result="BackgroundImageFix"/>
<feBlend mode="normal" in="SourceGraphic" in2="BackgroundImageFix" result="shape"/>
<feGaussianBlur stdDeviation="187.5" result="effect1_foregroundBlur_3457_3924"/>
</filter>
<filter id="filter1_f_3457_3924" x="-18.231" y="-161.709" width="1283.05" height="1283.05" filterUnits="userSpaceOnUse" color-interpolation-filters="sRGB">
<feFlood flood-opacity="0" result="BackgroundImageFix"/>
<feBlend mode="normal" in="SourceGraphic" in2="BackgroundImageFix" result="shape"/>
<feGaussianBlur stdDeviation="250" result="effect1_foregroundBlur_3457_3924"/>
</filter>
<linearGradient id="paint0_linear_3457_3924" x1="370.5" y1="0" x2="370.5" y2="1092" gradientUnits="userSpaceOnUse">
<stop offset="0.887209" stop-color="#D9D9D9"/>
<stop offset="1" stop-color="#D9D9D9" stop-opacity="0"/>
</linearGradient>
<clipPath id="clip0_3457_3924">
<rect width="742" height="1092" fill="white"/>
</clipPath>
</defs>
</svg>
