<svg width="22" height="22" viewBox="0 0 22 22" fill="none" xmlns="http://www.w3.org/2000/svg">
<path d="M6.41663 20.1667C5.91246 20.1667 5.48071 19.987 5.12138 19.6277C4.76204 19.2683 4.58268 18.8369 4.58329 18.3333C4.58329 17.8292 4.76296 17.3974 5.12229 17.0381C5.48163 16.6787 5.91307 16.4994 6.41663 16.5C6.92079 16.5 7.35254 16.6797 7.71188 17.039C8.07121 17.3983 8.25057 17.8298 8.24996 18.3333C8.24996 18.8375 8.07029 19.2692 7.71096 19.6286C7.35163 19.9879 6.92018 20.1673 6.41663 20.1667ZM15.5833 20.1667C15.0791 20.1667 14.6474 19.987 14.288 19.6277C13.9287 19.2683 13.7493 18.8369 13.75 18.3333C13.75 17.8292 13.9296 17.3974 14.289 17.0381C14.6483 16.6787 15.0797 16.4994 15.5833 16.5C16.0875 16.5 16.5192 16.6797 16.8785 17.039C17.2379 17.3983 17.4172 17.8298 17.4166 18.3333C17.4166 18.8375 17.237 19.2692 16.8776 19.6286C16.5183 19.9879 16.0868 20.1673 15.5833 20.1667ZM5.63746 5.5L7.83746 10.0833H14.2541L16.775 5.5H5.63746ZM3.32288 15.5833L6.04996 10.6333L2.74996 3.66667H0.916626V1.83333H3.89579L4.76663 3.66667H19.8916L15.3312 11.9167H7.42496L6.41663 13.75H17.4166V15.5833H3.32288Z" fill="#191718"/>
</svg>
