<svg width="25" height="28" viewBox="0 0 25 28" fill="none" xmlns="http://www.w3.org/2000/svg">
<path d="M24.0219 7.23401L24.0061 21.0233L12.2778 26.9992L12.2936 13.2099L24.0219 7.23401Z" fill="#191718"/>
<mask id="mask0_184_5752" style="mask-type:luminance" maskUnits="userSpaceOnUse" x="12" y="7" width="13" height="21">
<path d="M24.0219 7.23486L24.0061 21.0242L12.2778 27.0001L12.2936 13.2107L24.0219 7.23486Z" fill="white"/>
</mask>
<g mask="url(#mask0_184_5752)">
<path d="M18.0209 19.5786C17.3399 19.9255 16.9193 20.5668 16.9188 21.2869C16.9179 21.9942 17.3375 22.1942 18.0185 21.8473C18.6999 21.5004 19.12 20.8721 19.1205 20.1648C19.1215 19.4441 18.7023 19.2312 18.0209 19.5781M18.1989 12.7131C16.1445 13.7597 15.2353 15.2369 15.064 16.6572L16.9241 16.5495C16.982 15.6269 17.4021 14.9593 18.0606 14.6239C18.719 14.2884 19.0363 14.4732 19.0353 15.0469C19.0344 15.7542 18.5233 16.4681 17.082 17.3357L17.1815 19.312L18.8387 18.4674L18.9535 17.262C20.168 16.483 21.1107 15.3359 21.1126 13.6415C21.1146 11.9599 19.901 11.8451 18.1984 12.7126" fill="#CCCCCC"/>
</g>
<path d="M12.2774 26.9986L1.00089 20.7648L1.01668 6.97546L12.2932 13.2093L12.2774 26.9986Z" fill="#6B6B6B"/>
<mask id="mask1_184_5752" style="mask-type:luminance" maskUnits="userSpaceOnUse" x="1" y="6" width="12" height="21">
<path d="M12.2766 26.9969L1 20.7631L1.01579 6.97375L12.2924 13.2076L12.2766 26.9969Z" fill="white"/>
</mask>
<g mask="url(#mask1_184_5752)">
<path d="M6.53951 19.6179C5.88775 19.2576 5.48531 19.4605 5.48435 20.1778C5.48339 20.8951 5.88536 21.5163 6.53712 21.8766C7.18935 22.2369 7.59132 22.0469 7.59228 21.343C7.59323 20.6257 7.19175 19.9783 6.53999 19.6179M6.71082 12.9601C4.74454 11.8729 3.8741 12.4022 3.70996 13.6401L5.49009 15.4619C5.5456 14.6025 5.94805 14.3728 6.57827 14.7211C7.20849 15.0695 7.51236 15.5825 7.5114 16.1539C7.51045 16.8578 7.02091 17.0391 5.64131 16.4094L5.73654 18.4829L7.32286 19.36L7.43293 18.2776C8.59528 18.7609 9.49778 18.5953 9.4997 16.908C9.50161 15.2207 8.34022 13.8612 6.71035 12.9601" fill="#CCCCCC"/>
</g>
<path d="M12.2936 13.2097L1.01706 6.97588L12.7449 1L24.0219 7.23381L12.2936 13.2097Z" fill="#191718"/>
<path d="M1.00174 6.98163L12.2951 13.2025M1.00174 6.98163V20.7633L12.2951 26.9842M1.00174 6.98163L12.7497 1L24.019 7.24482M12.2951 13.2025L24.019 7.24482M12.2951 13.2025V26.9842M24.019 7.24482V21.0504L12.2951 26.9842" stroke="#CCCCCC" stroke-width="1.11456"/>
</svg>
