<svg width="127" height="35" viewBox="0 0 127 35" fill="none" xmlns="http://www.w3.org/2000/svg">
<path fill-rule="evenodd" clip-rule="evenodd" d="M35.5451 9.47145C39.4412 9.47145 42.6004 12.5321 42.6004 18.488V18.7536C42.6004 24.743 39.4412 27.7368 35.5117 27.7368C32.991 27.7368 31.1705 26.5055 30.3403 24.7764V33.1615H24.6271V9.93583H30.3438V12.5303C31.3007 10.8681 33.0245 9.4697 35.5468 9.4697L35.5451 9.47145ZM66.7495 9.93758L70.1988 19.2197L73.3914 9.93758H78.8513L69.9121 33.1615H64.4505L67.2279 25.575L60.5543 9.93758H66.7495ZM52.5914 9.47145C57.1894 9.47145 60.1269 11.4345 60.1269 16.0589V27.3375H54.572V25.3094C53.7734 26.5723 52.3029 27.7368 49.6222 27.7368C46.6214 27.7368 43.9706 26.2064 43.9706 22.5126C43.9706 18.4212 47.2916 16.824 52.8465 16.824H54.4436V16.4265C54.4436 14.7642 54.0602 13.6649 52.2396 13.6649C50.6759 13.6649 50.1007 14.6323 49.974 15.7282H44.6091C44.8642 11.5365 48.0251 9.47145 52.5914 9.47145ZM86.0209 2.286V12.5321C86.9778 10.8698 88.7033 9.47145 91.2257 9.47145C95.1201 9.47145 98.281 12.5321 98.281 18.488V18.7536C98.281 24.743 95.1201 27.7368 91.1923 27.7368C88.7033 27.7368 86.8511 26.5055 86.0209 24.6427V27.3392H80.3042V2.28424L86.0209 2.286ZM114.777 9.47145C118.896 9.47145 121.769 10.9349 122.152 15.0949H116.981C116.757 13.9305 116.151 13.3641 114.842 13.3641C113.596 13.3641 112.958 13.9305 112.958 14.7291C112.958 15.5611 113.723 15.8935 115.767 16.1591C120.397 16.7572 122.632 18.0236 122.632 21.7492C122.632 25.874 119.695 27.7368 115.065 27.7368C110.307 27.7368 107.53 25.6752 107.401 21.816H112.67C112.863 23.079 113.405 23.779 115.032 23.779C116.439 23.779 117.076 23.2126 117.076 22.3472C117.076 21.5152 116.277 21.1159 113.98 20.7835C109.509 20.1854 107.627 18.8205 107.627 15.1952C107.627 11.336 110.914 9.47145 114.777 9.47145ZM105.711 9.93758V27.3392H99.9943V9.93583L105.711 9.93758ZM54.4419 20.1854H52.9414C50.6425 20.1854 49.6205 20.6516 49.6205 22.0816C49.6205 23.079 50.259 23.7122 51.5993 23.7122C53.2282 23.7122 54.4419 22.7465 54.4419 21.2496V20.1854ZM33.5012 13.9639C31.4255 13.9639 30.1802 15.5276 30.1802 18.4546V18.722C30.1802 21.6823 31.4255 23.1792 33.5012 23.1792C35.6401 23.1792 36.7905 21.6155 36.7905 18.7536V18.4898C36.7905 15.4291 35.5134 13.9639 33.5012 13.9639ZM89.1818 13.9639C87.1062 13.9639 85.8608 15.5276 85.8608 18.4546V18.722C85.8608 21.6823 87.1062 23.1792 89.1818 23.1792C91.3207 23.1792 92.4711 21.6155 92.4711 18.7536V18.4898C92.4711 15.4291 91.1941 13.9639 89.1818 13.9639ZM102.837 2.1189C104.626 2.1189 105.998 3.45045 105.998 5.21471C105.998 6.97721 104.626 8.27534 102.837 8.27534C101.05 8.27534 99.7093 6.97721 99.7093 5.21471C99.7093 3.45045 101.05 2.1189 102.837 2.1189Z" fill="black"/>
<path d="M15.1483 1.87085V33.4042C6.94441 33.4042 -5.43594e-05 26.1835 -5.43594e-05 17.6349C-5.43594e-05 9.08621 6.94441 1.87085 15.1483 1.87085Z" fill="black"/>
</svg>
