<svg width="114" height="30" viewBox="0 0 114 30" fill="none" xmlns="http://www.w3.org/2000/svg">
<path fill-rule="evenodd" clip-rule="evenodd" d="M31.9071 7.71475C35.4045 7.71475 38.2402 10.4621 38.2402 15.8084V16.0469C38.2402 21.4232 35.4045 24.1105 31.8771 24.1105C29.6145 24.1105 27.9802 23.0053 27.235 21.4532V28.98H22.1066V8.13159H27.2381V10.4605C28.0971 8.96843 29.6445 7.71317 31.9087 7.71317L31.9071 7.71475ZM59.9176 8.13317L63.0139 16.4653L65.8797 8.13317H70.7808L62.7565 28.98H57.8539L60.3471 22.17L54.3565 8.13317H59.9176ZM47.2087 7.71475C51.336 7.71475 53.9729 9.47685 53.9729 13.6279V23.7521H48.9866V21.9316C48.2697 23.0653 46.9497 24.1105 44.5434 24.1105C41.8497 24.1105 39.4702 22.7369 39.4702 19.4211C39.4702 15.7484 42.4513 14.3147 47.4376 14.3147H48.8713V13.9579C48.8713 12.4658 48.5271 11.479 46.8929 11.479C45.4892 11.479 44.9729 12.3474 44.8592 13.3311H40.0434C40.2723 9.56843 43.1097 7.71475 47.2087 7.71475ZM77.2165 1.26475V10.4621C78.0755 8.97001 79.6244 7.71475 81.8886 7.71475C85.3844 7.71475 88.2218 10.4621 88.2218 15.8084V16.0469C88.2218 21.4232 85.3844 24.1105 81.8586 24.1105C79.6244 24.1105 77.9618 23.0053 77.2165 21.3332V23.7537H72.085V1.26317L77.2165 1.26475ZM103.029 7.71475C106.727 7.71475 109.305 9.02843 109.65 12.7626H105.008C104.807 11.7174 104.262 11.209 103.088 11.209C101.97 11.209 101.397 11.7174 101.397 12.4342C101.397 13.1811 102.083 13.4795 103.918 13.7179C108.074 14.2547 110.081 15.3916 110.081 18.7358C110.081 22.4384 107.444 24.1105 103.288 24.1105C99.0171 24.1105 96.5239 22.26 96.4086 18.7958H101.138C101.311 19.9295 101.798 20.5579 103.258 20.5579C104.521 20.5579 105.093 20.0495 105.093 19.2726C105.093 18.5258 104.376 18.1674 102.314 17.869C98.3002 17.3321 96.6107 16.1069 96.6107 12.8526C96.6107 9.38843 99.5618 7.71475 103.029 7.71475ZM94.8913 8.13317V23.7537H89.7597V8.13159L94.8913 8.13317ZM48.8697 17.3321H47.5229C45.4592 17.3321 44.5418 17.7505 44.5418 19.0342C44.5418 19.9295 45.115 20.4979 46.3181 20.4979C47.7802 20.4979 48.8697 19.6311 48.8697 18.2874V17.3321ZM30.0724 11.7474C28.2092 11.7474 27.0913 13.1511 27.0913 15.7784V16.0184C27.0913 18.6758 28.2092 20.0195 30.0724 20.0195C31.9924 20.0195 33.025 18.6158 33.025 16.0469V15.81C33.025 13.0626 31.8787 11.7474 30.0724 11.7474ZM80.0539 11.7474C78.1907 11.7474 77.0729 13.1511 77.0729 15.7784V16.0184C77.0729 18.6758 78.1907 20.0195 80.0539 20.0195C81.9739 20.0195 83.0065 18.6158 83.0065 16.0469V15.81C83.0065 13.0626 81.8602 11.7474 80.0539 11.7474ZM92.3113 1.11475C93.917 1.11475 95.1486 2.31001 95.1486 3.89369C95.1486 5.4758 93.917 6.64106 92.3113 6.64106C90.7071 6.64106 89.5039 5.4758 89.5039 3.89369C89.5039 2.31001 90.7071 1.11475 92.3113 1.11475Z" fill="white"/>
<path d="M13.5979 0.89209V29.1979C6.23369 29.1979 1.43051e-05 22.7163 1.43051e-05 15.0426C1.43051e-05 7.36893 6.23369 0.89209 13.5979 0.89209Z" fill="white"/>
</svg>
