<svg width="129" height="31" viewBox="0 0 129 31" fill="none" xmlns="http://www.w3.org/2000/svg">
<g clip-path="url(#clip0_3446_2345)">
<path d="M32.2901 18.5308L26.61 24.2318C26.3788 24.4644 26.249 24.779 26.249 25.107C26.249 25.4349 26.3788 25.7495 26.61 25.9821L30.9505 30.3288C31.31 30.6799 31.7925 30.8765 32.295 30.8765C32.7976 30.8765 33.2801 30.6799 33.6396 30.3288L46.9436 17.1979C47.1193 17.0245 47.2588 16.8179 47.3541 16.5901C47.4493 16.3623 47.4983 16.1178 47.4983 15.8709C47.4983 15.624 47.4493 15.3796 47.3541 15.1518C47.2588 14.924 47.1193 14.7173 46.9436 14.5439L33.6408 1.42468C33.2813 1.07354 32.7988 0.876953 32.2963 0.876953C31.7938 0.876953 31.3112 1.07354 30.9518 1.42468L26.6112 5.77135C26.38 6.00394 26.2503 6.31857 26.2503 6.64652C26.2503 6.97447 26.38 7.2891 26.6112 7.52168L32.2914 13.2227C32.6428 13.5696 32.9219 13.9829 33.1123 14.4386C33.3027 14.8942 33.4007 15.3832 33.4005 15.877C33.4004 16.3708 33.3022 16.8597 33.1116 17.3153C32.921 17.7709 32.6418 18.184 32.2901 18.5308Z" fill="#0A6E5C"/>
<path d="M15.2093 18.5308L20.8895 24.2318C21.1207 24.4644 21.2504 24.779 21.2504 25.107C21.2504 25.4349 21.1207 25.7495 20.8895 25.9821L16.5489 30.3288C16.1895 30.6799 15.7069 30.8765 15.2044 30.8765C14.7019 30.8765 14.2193 30.6799 13.8599 30.3288L0.552815 17.1979C0.377086 17.0245 0.237555 16.8179 0.142321 16.5901C0.0470869 16.3623 -0.00195312 16.1178 -0.00195312 15.8709C-0.00195312 15.624 0.0470869 15.3796 0.142321 15.1518C0.237555 14.924 0.377086 14.7173 0.552815 14.5439L13.8593 1.42468C14.2187 1.07354 14.7013 0.876953 15.2038 0.876953C15.7063 0.876953 16.1889 1.07354 16.5483 1.42468L20.8888 5.77135C21.12 6.00394 21.2498 6.31857 21.2498 6.64652C21.2498 6.97447 21.12 7.2891 20.8888 7.52168L15.2093 13.2233C14.8579 13.5701 14.5788 13.9833 14.3884 14.4389C14.1979 14.8944 14.0998 15.3833 14.0998 15.8771C14.0998 16.3708 14.1979 16.8597 14.3884 17.3152C14.5788 17.7708 14.8579 18.184 15.2093 18.5308Z" fill="#21BF73"/>
<path d="M16.6993 16.9617C16.4118 16.6739 16.2502 16.2837 16.2502 15.8768C16.2502 15.47 16.4118 15.0798 16.6993 14.792L22.6655 8.82578C22.9533 8.53823 23.3435 8.37671 23.7504 8.37671C24.1572 8.37671 24.5474 8.53823 24.8352 8.82578L30.8014 14.792C31.089 15.0798 31.2505 15.47 31.2505 15.8768C31.2505 16.2837 31.089 16.6739 30.8014 16.9617L24.8346 22.9273C24.5468 23.2148 24.1566 23.3764 23.7498 23.3764C23.3429 23.3764 22.9527 23.2148 22.6649 22.9273L16.6993 16.9617Z" fill="#21BF73"/>
<path d="M72.9423 24.8771H68.7031L66.3652 18.7604C66.2165 18.3239 65.9029 17.9628 65.4916 17.7542C65.0404 17.5493 64.5478 17.4519 64.0525 17.4699H61.4574V24.8771H57.5V6.50195H65.6451C67.7689 6.50195 69.3791 6.9665 70.4755 7.89559C71.0343 8.39462 71.4726 9.01391 71.7574 9.70684C72.0421 10.3998 72.166 11.1483 72.1197 11.896C72.1491 13.0244 71.806 14.131 71.1435 15.0449C70.459 15.9579 69.4928 16.6201 68.3943 16.929C68.9489 17.0608 69.4581 17.3384 69.8693 17.7331C70.2805 18.1279 70.5786 18.6255 70.7328 19.1742L72.9423 24.8771ZM65.0545 14.399C65.9314 14.4657 66.8082 14.2679 67.5716 13.8311C67.844 13.6139 68.0592 13.3334 68.1983 13.014C68.3374 12.6945 68.3963 12.3459 68.3697 11.9985C68.3982 11.6547 68.3401 11.3091 68.2007 10.9935C68.0613 10.6779 67.845 10.4022 67.5716 10.1917C66.8147 9.73693 65.9348 9.52941 65.0545 9.59803H61.4059V14.3984L65.0545 14.399Z" fill="#22272F"/>
<path d="M88.4866 11.7924V24.8772H84.6581V22.9415C84.2623 23.6142 83.6831 24.1603 82.9882 24.5156C82.2335 24.9026 81.3951 25.0976 80.5472 25.0835C79.4858 25.1033 78.4413 24.8166 77.5389 24.2578C76.658 23.6782 75.9559 22.8649 75.511 21.9089C75.0133 20.789 74.7676 19.5734 74.7915 18.348C74.7694 17.1144 75.0149 15.8905 75.511 14.7608C75.9541 13.7743 76.6671 12.9331 77.5677 12.3345C78.4496 11.7471 79.4889 11.4412 80.5484 11.4572C81.3994 11.4433 82.2398 11.6477 82.9894 12.0509C83.6822 12.4211 84.2598 12.9745 84.6593 13.6508V11.7924H88.4866ZM81.678 22.1158C82.098 22.1396 82.5176 22.0629 82.902 21.8921C83.2864 21.7212 83.6245 21.4612 83.8882 21.1335C84.455 20.2998 84.7264 19.3005 84.6593 18.2946C84.7261 17.2889 84.4545 16.2898 83.8876 15.4564C83.6279 15.1226 83.2912 14.8567 82.9063 14.6814C82.5214 14.5062 82.0997 14.4268 81.6774 14.4502C81.2493 14.4294 80.8224 14.5125 80.4332 14.6921C80.044 14.8718 79.704 15.1429 79.4421 15.4822C78.8654 16.322 78.5846 17.3298 78.644 18.3468C78.579 19.3444 78.8505 20.3349 79.4151 21.1599C79.6938 21.4819 80.0429 21.7356 80.4352 21.9013C80.8276 22.0671 81.2528 22.1404 81.678 22.1158Z" fill="#22272F"/>
<path d="M107.549 11.4571C108.17 11.4085 108.794 11.5071 109.37 11.7447C109.946 11.9824 110.458 12.3525 110.864 12.825C111.601 13.7197 111.969 15.0962 111.969 16.9543V24.8772H108.09V17.0802C108.146 16.3972 107.994 15.7132 107.653 15.1187C107.484 14.9034 107.264 14.7339 107.012 14.6256C106.761 14.5174 106.486 14.474 106.214 14.4992C105.866 14.4807 105.518 14.5461 105.201 14.6898C104.883 14.8335 104.605 15.0513 104.389 15.3249C103.922 16.0059 103.696 16.8234 103.747 17.6475V24.8735H99.8669V17.0765C99.9208 16.3905 99.7592 15.7047 99.4046 15.115C99.24 14.9016 99.0244 14.7331 98.7777 14.6249C98.5309 14.5166 98.2609 14.4721 97.9925 14.4955C97.641 14.4789 97.2905 14.5449 96.9691 14.6883C96.6477 14.8317 96.3645 15.0485 96.1421 15.3213C95.6756 16.0024 95.4496 16.8197 95.4999 17.6438V24.8698H91.6186V15.5343C91.6268 14.2829 91.5582 13.0322 91.413 11.7893H95.061L95.2924 13.7508C95.663 13.0352 96.2344 12.4433 96.9365 12.0478C97.6946 11.6425 98.5439 11.4381 99.4033 11.4541C101.339 11.4541 102.624 12.2626 103.258 13.8797C103.68 13.1457 104.292 12.5393 105.031 12.1245C105.795 11.6803 106.665 11.4498 107.549 11.4571Z" fill="#22272F"/>
<path d="M122.994 11.4574C124.053 11.4413 125.093 11.7472 125.975 12.3347C126.872 12.9303 127.577 13.7728 128.005 14.7603C128.517 15.8856 128.771 17.1113 128.749 18.3476C128.773 19.5729 128.528 20.7885 128.03 21.9084C127.596 22.8716 126.89 23.6875 126 24.2567C125.098 24.8155 124.053 25.1022 122.992 25.0825C122.144 25.0967 121.306 24.9016 120.552 24.5146C119.86 24.1633 119.288 23.6157 118.907 22.9404V30.8768H115.027V15.5345C115.036 14.2832 114.967 13.0325 114.822 11.7895H118.471L118.728 13.9573C119.066 13.1869 119.642 12.5448 120.372 12.1247C121.17 11.6713 122.076 11.4409 122.994 11.4574ZM121.889 22.1159C122.306 22.1406 122.723 22.0671 123.107 21.9013C123.491 21.7355 123.831 21.482 124.099 21.1612C124.663 20.3362 124.934 19.3457 124.869 18.3482C124.929 17.3312 124.648 16.3232 124.071 15.4836C123.82 15.1455 123.49 14.8744 123.109 14.6944C122.728 14.5144 122.309 14.431 121.888 14.4515C121.462 14.4301 121.038 14.5102 120.649 14.6851C120.26 14.8601 119.918 15.1249 119.652 15.4578C119.086 16.2915 118.814 17.2909 118.882 18.2966C118.814 19.3024 119.086 20.3017 119.652 21.1355C119.923 21.462 120.266 21.7207 120.654 21.891C121.043 22.0612 121.466 22.1382 121.889 22.1159H121.889Z" fill="#22272F"/>
</g>
<defs>
<clipPath id="clip0_3446_2345">
<rect width="128.749" height="30" fill="white" transform="translate(0 0.876953)"/>
</clipPath>
</defs>
</svg>
