<svg width="122" height="39" viewBox="0 0 122 39" fill="none" xmlns="http://www.w3.org/2000/svg">
<g clip-path="url(#clip0_3446_2365)">
<path d="M19.4385 38.877C30.1741 38.877 38.877 30.1741 38.877 19.4385C38.877 8.70291 30.1741 0 19.4385 0C8.70291 0 0 8.70291 0 19.4385C0 30.1741 8.70291 38.877 19.4385 38.877Z" fill="url(#paint0_linear_3446_2365)"/>
<path d="M31.7129 18.2501L26.2224 12.7596L26.2125 12.7497L26.1907 12.7307C26.1552 12.6985 26.118 12.6683 26.0793 12.6401C26.0521 12.6183 26.025 12.5975 25.996 12.5785C25.9833 12.5694 25.9706 12.5622 25.957 12.554C25.644 12.349 25.2654 12.2692 24.8962 12.3305C24.5271 12.3917 24.1945 12.5895 23.9645 12.8846L15.4254 21.4246V13.8166C15.4254 13.4167 15.2665 13.0331 14.9837 12.7503C14.7009 12.4675 14.3173 12.3086 13.9174 12.3086C13.5174 12.3086 13.1338 12.4675 12.851 12.7503C12.5682 13.0331 12.4093 13.4167 12.4093 13.8166V21.4246L9.29186 18.3072C9.0069 18.0354 8.62697 17.8859 8.23326 17.8906C7.83954 17.8953 7.46327 18.0538 7.18485 18.3322C6.90643 18.6106 6.74795 18.9869 6.74327 19.3806C6.73859 19.7743 6.88808 20.1543 7.1598 20.4392L12.8513 26.1307C12.8871 26.167 12.9249 26.2011 12.9645 26.2331C13.0026 26.2639 13.0424 26.2938 13.0823 26.3237C13.2879 26.4569 13.5229 26.5381 13.767 26.5601H13.7733C13.8223 26.5646 13.8712 26.5673 13.9201 26.5673H13.9427C13.9838 26.5673 14.0245 26.5655 14.065 26.5619H14.0949C14.1338 26.5573 14.1728 26.5528 14.2108 26.5447H14.228C14.2706 26.5356 14.3131 26.5256 14.3548 26.513H14.3621C14.4075 26.4993 14.4523 26.4832 14.4961 26.4649C14.5586 26.4391 14.6191 26.4089 14.6772 26.3744L14.7117 26.3545C14.7686 26.3196 14.8231 26.2809 14.8747 26.2385L14.8901 26.2249C14.9218 26.1978 14.9535 26.1706 14.9807 26.1398L23.6393 17.4757V25.0602C23.6393 25.4601 23.7982 25.8437 24.081 26.1265C24.3638 26.4093 24.7474 26.5682 25.1473 26.5682C25.5473 26.5682 25.9309 26.4093 26.2137 26.1265C26.4965 25.8437 26.6553 25.4601 26.6553 25.0602V17.4522L29.5808 20.3831C29.8648 20.6603 30.2466 20.8144 30.6435 20.8119C31.0403 20.8095 31.4202 20.6507 31.7008 20.37C31.9813 20.0894 32.1399 19.7094 32.1422 19.3126C32.1445 18.9157 31.9902 18.534 31.7129 18.2501Z" fill="white"/>
<path d="M45.668 14.9009H50.1422V26.5882H52.8222V14.9009H57.2965V12.3975H45.668V14.9009Z" fill="#1461DB"/>
<path d="M63.1689 15.9208C62.8516 15.9428 62.5377 15.999 62.2324 16.0884C61.9385 16.1739 61.6571 16.2979 61.3955 16.457C61.0665 16.649 60.7785 16.9038 60.5478 17.2069C60.4389 17.3508 60.3403 17.5021 60.2525 17.6598V15.9453H57.8877V26.5884H60.5922V21.1486C60.585 20.7754 60.6398 20.4035 60.7543 20.0482C60.858 19.7337 61.0265 19.4445 61.249 19.1992C61.4715 18.954 61.7429 18.7581 62.0458 18.6244C62.3787 18.4686 62.7378 18.3764 63.1046 18.3527C63.4508 18.3184 63.8004 18.3491 64.1353 18.4432V15.9453C63.8148 15.9055 63.4911 15.8973 63.1689 15.9208Z" fill="#1461DB"/>
<path d="M74.3042 17.5803C73.9555 16.8944 73.366 16.3613 72.6485 16.0832C71.9197 15.7934 71.0853 15.6484 70.1451 15.6484C68.8644 15.6484 67.8528 15.9247 67.1101 16.4772C66.3824 17.0075 65.8493 17.7624 65.593 18.6255L68.0167 19.3936C68.1882 18.9069 68.4871 18.5688 68.9133 18.3792C69.2991 18.1977 69.7189 18.1001 70.1451 18.093C70.8552 18.093 71.3612 18.2409 71.6631 18.5368C71.8995 18.7677 72.0408 19.1056 72.0915 19.5421C71.6386 19.61 71.2084 19.6744 70.8054 19.7332C70.1164 19.8353 69.499 19.9421 68.9532 20.0538C68.4748 20.1476 68.0038 20.2759 67.5439 20.4379C67.0421 20.6091 66.5785 20.8765 66.179 21.2249C65.8514 21.521 65.5996 21.8912 65.4445 22.3046C65.2894 22.7374 65.2128 23.1944 65.218 23.6541C65.2117 24.2208 65.3528 24.7795 65.6274 25.2753C65.9072 25.7746 66.3243 26.1832 66.8293 26.4527C67.3582 26.7456 68.0037 26.8917 68.7657 26.8911C69.6859 26.8911 70.4464 26.7317 71.0472 26.4129C71.5632 26.1253 72.0197 25.742 72.3922 25.2835V26.5958H74.738V20.0828C74.7401 19.6422 74.7202 19.2018 74.6782 18.7632C74.6327 18.3481 74.5056 17.9461 74.3042 17.5803ZM71.8008 23.3552C71.6903 23.5597 71.5529 23.7486 71.3923 23.9167C71.1616 24.163 70.8878 24.365 70.5844 24.5127C70.1955 24.698 69.7678 24.7874 69.3372 24.7735C69.0648 24.7803 68.7937 24.7335 68.5393 24.6359C68.3316 24.5566 68.1518 24.418 68.0221 24.2374C67.8976 24.0529 67.8343 23.8339 67.841 23.6115C67.8387 23.4436 67.8779 23.2778 67.9551 23.1288C68.0419 22.9709 68.1629 22.8344 68.3092 22.7293C68.505 22.5891 68.7181 22.4749 68.9432 22.3897C69.2042 22.2949 69.4707 22.216 69.7412 22.1533C70.0431 22.0808 70.4407 22.0002 70.934 21.9115C71.2483 21.8553 71.6323 21.7883 72.0707 21.714C72.0652 21.9033 72.0571 22.1071 72.0426 22.348C72.0281 22.6963 71.946 23.0383 71.8008 23.3552Z" fill="#1461DB"/>
<path d="M87.0066 18.4832C86.8759 17.9985 86.6646 17.5392 86.3816 17.1246C86.0663 16.6718 85.645 16.303 85.1544 16.0504C84.6291 15.7684 83.9492 15.6274 83.1147 15.6274C82.0701 15.6274 81.2046 15.8539 80.518 16.3067C80.2032 16.5148 79.9167 16.763 79.6658 17.0449V15.9453H77.281V26.5884H79.9982V21.1885C79.9982 20.5244 80.0718 19.9921 80.2191 19.5918C80.3665 19.1914 80.5567 18.8877 80.7898 18.6806C80.9997 18.4847 81.2529 18.341 81.5288 18.2613C81.7692 18.192 82.0178 18.1555 82.2679 18.1526C82.8391 18.1526 83.2808 18.2809 83.5929 18.5375C83.9016 18.788 84.1353 19.1186 84.2686 19.493C84.4033 19.8592 84.4862 20.2424 84.515 20.6315C84.5415 21.0089 84.5545 21.3193 84.5539 21.5626V26.5884H87.2711V20.6161C87.2711 20.435 87.2584 20.1569 87.2321 19.7684C87.198 19.3338 87.1225 18.9034 87.0066 18.4832Z" fill="#1461DB"/>
<path d="M97.0432 20.954C96.5529 20.6763 95.9041 20.4317 95.0968 20.2204C94.269 20.0103 93.6531 19.8394 93.2491 19.7078C92.8452 19.5761 92.5792 19.4481 92.4512 19.3238C92.3885 19.2642 92.3389 19.1922 92.3057 19.1123C92.2724 19.0324 92.2563 18.9465 92.2583 18.86C92.2583 18.5512 92.4077 18.3166 92.7066 18.1508C93.0055 17.9851 93.4022 17.9217 93.894 17.9543C94.4 17.9936 94.8009 18.1282 95.0968 18.3583C95.2422 18.4706 95.3628 18.6118 95.451 18.7729C95.5393 18.9341 95.5932 19.1118 95.6094 19.2948L98.3492 18.8012C98.2685 18.1842 98.0137 17.603 97.6147 17.1256C97.1935 16.6363 96.6564 16.2604 96.0523 16.0324C95.3444 15.7645 94.592 15.6338 93.8352 15.6474C92.9747 15.6474 92.2275 15.7839 91.5935 16.0568C91.0007 16.2964 90.4887 16.7005 90.1181 17.2216C89.7638 17.746 89.5814 18.3677 89.5964 19.0004C89.5819 19.4877 89.7009 19.9697 89.9406 20.3943C90.1706 20.7795 90.5453 21.1098 91.0646 21.3852C91.5838 21.6605 92.2782 21.9102 93.1477 22.1342C93.9158 22.3383 94.4821 22.5025 94.8468 22.6269C95.2091 22.7519 95.4464 22.8778 95.5515 23.0064C95.6622 23.1516 95.7181 23.3312 95.7091 23.5136C95.7151 23.6669 95.6821 23.8192 95.6132 23.9562C95.5443 24.0932 95.4417 24.2105 95.3151 24.297C95.0506 24.4836 94.6769 24.5769 94.1938 24.5769C93.6021 24.5769 93.1142 24.4356 92.7302 24.153C92.3434 23.8677 92.078 23.4474 91.9866 22.9756L89.2432 23.3995C89.4207 24.5099 89.9216 25.3691 90.7458 25.9772C91.57 26.5852 92.6523 26.8889 93.9927 26.8883C95.3857 26.8883 96.4762 26.5761 97.2642 25.9518C98.0522 25.3274 98.4477 24.4688 98.4507 23.3759C98.4651 22.8831 98.3495 22.3952 98.1156 21.9612C97.8903 21.5711 97.5329 21.2354 97.0432 20.954Z" fill="#1461DB"/>
<path d="M109.11 17.5803C108.761 16.8946 108.172 16.3615 107.454 16.0832C106.725 15.7934 105.89 15.6484 104.951 15.6484C103.67 15.6484 102.658 15.9247 101.916 16.4772C101.188 17.0077 100.655 17.7625 100.398 18.6255L102.822 19.3936C102.994 18.9069 103.293 18.5688 103.719 18.3792C104.105 18.1977 104.525 18.1001 104.951 18.093C105.661 18.093 106.167 18.2409 106.469 18.5368C106.705 18.7677 106.846 19.1056 106.897 19.5421C106.444 19.61 106.014 19.6744 105.611 19.7332C104.922 19.8353 104.305 19.9421 103.759 20.0538C103.28 20.1476 102.809 20.2759 102.35 20.4379C101.778 20.6492 101.323 20.9104 100.985 21.2213C100.657 21.5174 100.405 21.8876 100.25 22.3009C100.095 22.7336 100.018 23.1907 100.024 23.6505C100.017 24.2172 100.159 24.7759 100.433 25.2717C100.713 25.7712 101.13 26.1798 101.635 26.4491C102.164 26.742 102.809 26.8881 103.571 26.8875C104.492 26.8875 105.252 26.7281 105.853 26.4093C106.369 26.1216 106.825 25.7383 107.198 25.2798V26.5922H109.544V20.0828C109.546 19.6422 109.526 19.2018 109.484 18.7632C109.438 18.3481 109.311 17.9461 109.11 17.5803ZM106.606 23.3552C106.496 23.5597 106.359 23.7486 106.198 23.9167C105.967 24.163 105.693 24.365 105.39 24.5127C105.001 24.698 104.574 24.7874 104.143 24.7735C103.871 24.7803 103.599 24.7335 103.345 24.6359C103.137 24.5566 102.957 24.418 102.828 24.2374C102.703 24.0529 102.64 23.8339 102.647 23.6115C102.644 23.4436 102.684 23.2778 102.761 23.1288C102.847 22.9707 102.968 22.8342 103.115 22.7293C103.311 22.5891 103.524 22.4749 103.749 22.3897C104.01 22.2948 104.276 22.2159 104.547 22.1533C104.849 22.0808 105.246 22.0002 105.74 21.9115C106.054 21.8553 106.438 21.7883 106.876 21.714C106.871 21.9033 106.862 22.1071 106.848 22.348C106.833 22.6961 106.751 23.0381 106.606 23.3552Z" fill="#1461DB"/>
<path d="M117.9 21.2662L121.743 15.9452H118.431L114.825 21.0697V12.3975H112.105L112.085 26.5882H114.825V21.4637L118.51 26.5882H121.999L117.9 21.2662Z" fill="#1461DB"/>
</g>
<defs>
<linearGradient id="paint0_linear_3446_2365" x1="2.60122" y1="9.71744" x2="36.2758" y2="29.1586" gradientUnits="userSpaceOnUse">
<stop offset="0.13" stop-color="#348BED"/>
<stop offset="0.31" stop-color="#2B80E8"/>
<stop offset="0.64" stop-color="#1461DB"/>
<stop offset="0.72" stop-color="#0E57D7"/>
</linearGradient>
<clipPath id="clip0_3446_2365">
<rect width="122" height="38.877" fill="white"/>
</clipPath>
</defs>
</svg>
