<svg width="741" height="856" viewBox="0 0 741 856" fill="none" xmlns="http://www.w3.org/2000/svg">
<g clip-path="url(#clip0_3433_3808)">
<g filter="url(#filter0_f_3433_3808)">
<path d="M-79.6488 177.543C-236.084 141.496 -94.2078 438.76 -85.0655 446.925C-130.734 461.358 -230.395 499.043 -263.694 534.319C-305.318 578.415 -101.829 673.96 -43.3528 647.677C15.1231 621.394 89.5167 460.54 148.806 390.848C208.096 321.156 76.7861 213.59 -79.6488 177.543Z" fill="#FF7AC3"/>
<path d="M-79.6488 177.543C-236.084 141.496 -94.2078 438.76 -85.0655 446.925C-130.734 461.358 -230.395 499.043 -263.694 534.319C-305.318 578.415 -101.829 673.96 -43.3528 647.677C15.1231 621.394 89.5167 460.54 148.806 390.848C208.096 321.156 76.7861 213.59 -79.6488 177.543Z" stroke="#FF7AC3"/>
</g>
<g filter="url(#filter1_f_3433_3808)">
<circle cx="-430.707" cy="452.815" r="141.5" transform="rotate(-60 -430.707 452.815)" fill="#6188E7"/>
</g>
<g clip-path="url(#clip1_3433_3808)">
<path d="M233.079 393.012L309.42 393.012L309.42 545.693L233.079 545.693C190.918 545.693 156.739 511.514 156.739 469.352C156.739 427.191 190.918 393.012 233.079 393.012Z" stroke="white" stroke-width="2.16568"/>
<path d="M153.763 544.891L2.14295 468.811L153.763 392.731L153.763 544.891Z" stroke="white" stroke-width="2.16568"/>
<mask id="path-5-inside-1_3433_3808" fill="white">
<path d="M233.079 391.929C243.247 391.929 253.314 393.932 262.708 397.823C272.101 401.714 280.636 407.417 287.826 414.606C295.015 421.795 300.718 430.33 304.609 439.724C308.5 449.117 310.502 459.185 310.502 469.352L233.079 469.352L233.079 391.929Z"/>
</mask>
<path d="M233.079 391.929C243.247 391.929 253.314 393.932 262.708 397.823C272.101 401.714 280.636 407.417 287.826 414.606C295.015 421.795 300.718 430.33 304.609 439.724C308.5 449.117 310.502 459.185 310.502 469.352L233.079 469.352L233.079 391.929Z" stroke="white" stroke-width="4.33136" mask="url(#path-5-inside-1_3433_3808)"/>
<mask id="path-6-inside-2_3433_3808" fill="white">
<path d="M-0.27218 314.507C-0.272178 299.194 4.26861 284.225 12.776 271.493C21.2833 258.76 33.3752 248.837 47.5224 242.977C61.6696 237.117 77.2368 235.584 92.2554 238.571C107.274 241.559 121.069 248.932 131.897 259.76C142.725 270.588 150.099 284.384 153.086 299.402C156.074 314.421 154.54 329.988 148.68 344.135C142.821 358.282 132.897 370.374 120.165 378.882C107.433 387.389 92.4637 391.93 77.1509 391.93L77.1509 314.507L-0.27218 314.507Z"/>
</mask>
<path d="M-0.27218 314.507C-0.272178 299.194 4.26861 284.225 12.776 271.493C21.2833 258.76 33.3752 248.837 47.5224 242.977C61.6696 237.117 77.2368 235.584 92.2554 238.571C107.274 241.559 121.069 248.932 131.897 259.76C142.725 270.588 150.099 284.384 153.086 299.402C156.074 314.421 154.54 329.988 148.68 344.135C142.821 358.282 132.897 370.374 120.165 378.882C107.433 387.389 92.4637 391.93 77.1509 391.93L77.1509 314.507L-0.27218 314.507Z" stroke="white" stroke-width="4.33136" mask="url(#path-6-inside-2_3433_3808)"/>
<line x1="232.538" y1="390.846" x2="232.538" y2="313.964" stroke="white" stroke-width="2.16568"/>
<line x1="153.49" y1="312.882" x2="233.62" y2="312.882" stroke="white" stroke-width="2.16568"/>
<rect x="234.704" y="237.083" width="75.7988" height="75.7988" stroke="white" stroke-width="2.16568"/>
</g>
</g>
<defs>
<filter id="filter0_f_3433_3808" x="-644.762" y="-200.987" width="1183.6" height="1228.66" filterUnits="userSpaceOnUse" color-interpolation-filters="sRGB">
<feFlood flood-opacity="0" result="BackgroundImageFix"/>
<feBlend mode="normal" in="SourceGraphic" in2="BackgroundImageFix" result="shape"/>
<feGaussianBlur stdDeviation="187.5" result="effect1_foregroundBlur_3433_3808"/>
</filter>
<filter id="filter1_f_3433_3808" x="-1072.23" y="-188.709" width="1283.05" height="1283.05" filterUnits="userSpaceOnUse" color-interpolation-filters="sRGB">
<feFlood flood-opacity="0" result="BackgroundImageFix"/>
<feBlend mode="normal" in="SourceGraphic" in2="BackgroundImageFix" result="shape"/>
<feGaussianBlur stdDeviation="250" result="effect1_foregroundBlur_3433_3808"/>
</filter>
<clipPath id="clip0_3433_3808">
<rect width="741" height="856" fill="white"/>
</clipPath>
<clipPath id="clip1_3433_3808">
<rect width="312" height="362" fill="white" transform="translate(0 236)"/>
</clipPath>
</defs>
</svg>
