<svg width="741" height="852" viewBox="0 0 741 852" fill="none" xmlns="http://www.w3.org/2000/svg">
<g clip-path="url(#clip0_3433_3808)">
<g filter="url(#filter0_f_3433_3808)">
<path d="M-79.6488 173.543C-236.084 137.496 -94.2078 434.76 -85.0655 442.925C-130.734 457.358 -230.395 495.043 -263.694 530.319C-305.318 574.415 -101.829 669.96 -43.3528 643.677C15.1231 617.394 89.5167 456.54 148.806 386.848C208.096 317.156 76.7861 209.59 -79.6488 173.543Z" fill="#FF7AC3"/>
<path d="M-79.6488 173.543C-236.084 137.496 -94.2078 434.76 -85.0655 442.925C-130.734 457.358 -230.395 495.043 -263.694 530.319C-305.318 574.415 -101.829 669.96 -43.3528 643.677C15.1231 617.394 89.5167 456.54 148.806 386.848C208.096 317.156 76.7861 209.59 -79.6488 173.543Z" stroke="#FF7AC3"/>
</g>
<g filter="url(#filter1_f_3433_3808)">
<circle cx="-430.707" cy="448.815" r="141.5" transform="rotate(-60 -430.707 448.815)" fill="#6188E7"/>
</g>
<g clip-path="url(#clip1_3433_3808)">
<path d="M233.079 389.012L309.42 389.012L309.42 541.693L233.079 541.693C190.918 541.693 156.739 507.514 156.739 465.352C156.739 423.191 190.918 389.012 233.079 389.012Z" stroke="#191718" stroke-width="2.16568"/>
<path d="M153.763 540.891L2.14295 464.811L153.763 388.731L153.763 540.891Z" stroke="#191718" stroke-width="2.16568"/>
<mask id="path-5-inside-1_3433_3808" fill="white">
<path d="M233.079 387.929C243.247 387.929 253.314 389.932 262.708 393.823C272.101 397.714 280.636 403.417 287.826 410.606C295.015 417.795 300.718 426.33 304.609 435.724C308.5 445.117 310.502 455.185 310.502 465.352L233.079 465.352L233.079 387.929Z"/>
</mask>
<path d="M233.079 387.929C243.247 387.929 253.314 389.932 262.708 393.823C272.101 397.714 280.636 403.417 287.826 410.606C295.015 417.795 300.718 426.33 304.609 435.724C308.5 445.117 310.502 455.185 310.502 465.352L233.079 465.352L233.079 387.929Z" stroke="#191718" stroke-width="4.33136" mask="url(#path-5-inside-1_3433_3808)"/>
<mask id="path-6-inside-2_3433_3808" fill="white">
<path d="M-0.27218 310.507C-0.272178 295.194 4.26861 280.225 12.776 267.493C21.2833 254.76 33.3752 244.837 47.5224 238.977C61.6696 233.117 77.2368 231.584 92.2554 234.571C107.274 237.559 121.069 244.932 131.897 255.76C142.725 266.588 150.099 280.384 153.086 295.402C156.074 310.421 154.54 325.988 148.68 340.135C142.821 354.282 132.897 366.374 120.165 374.882C107.433 383.389 92.4637 387.93 77.1509 387.93L77.1509 310.507L-0.27218 310.507Z"/>
</mask>
<path d="M-0.27218 310.507C-0.272178 295.194 4.26861 280.225 12.776 267.493C21.2833 254.76 33.3752 244.837 47.5224 238.977C61.6696 233.117 77.2368 231.584 92.2554 234.571C107.274 237.559 121.069 244.932 131.897 255.76C142.725 266.588 150.099 280.384 153.086 295.402C156.074 310.421 154.54 325.988 148.68 340.135C142.821 354.282 132.897 366.374 120.165 374.882C107.433 383.389 92.4637 387.93 77.1509 387.93L77.1509 310.507L-0.27218 310.507Z" stroke="#191718" stroke-width="4.33136" mask="url(#path-6-inside-2_3433_3808)"/>
<line x1="232.538" y1="386.846" x2="232.538" y2="309.964" stroke="#191718" stroke-width="2.16568"/>
<line x1="153.49" y1="308.882" x2="233.62" y2="308.882" stroke="#191718" stroke-width="2.16568"/>
<rect x="234.704" y="233.083" width="75.7988" height="75.7988" stroke="#191718" stroke-width="2.16568"/>
</g>
</g>
<defs>
<filter id="filter0_f_3433_3808" x="-644.762" y="-204.987" width="1183.6" height="1228.66" filterUnits="userSpaceOnUse" color-interpolation-filters="sRGB">
<feFlood flood-opacity="0" result="BackgroundImageFix"/>
<feBlend mode="normal" in="SourceGraphic" in2="BackgroundImageFix" result="shape"/>
<feGaussianBlur stdDeviation="187.5" result="effect1_foregroundBlur_3433_3808"/>
</filter>
<filter id="filter1_f_3433_3808" x="-1072.23" y="-192.709" width="1283.05" height="1283.05" filterUnits="userSpaceOnUse" color-interpolation-filters="sRGB">
<feFlood flood-opacity="0" result="BackgroundImageFix"/>
<feBlend mode="normal" in="SourceGraphic" in2="BackgroundImageFix" result="shape"/>
<feGaussianBlur stdDeviation="250" result="effect1_foregroundBlur_3433_3808"/>
</filter>
<clipPath id="clip0_3433_3808">
<rect width="741" height="852" fill="white"/>
</clipPath>
<clipPath id="clip1_3433_3808">
<rect width="312" height="362" fill="white" transform="translate(0 232)"/>
</clipPath>
</defs>
</svg>
