<svg width="742" height="856" viewBox="0 0 742 856" fill="none" xmlns="http://www.w3.org/2000/svg">
<g clip-path="url(#clip0_3433_3770)">
<g filter="url(#filter0_f_3433_3770)">
<path d="M974.351 173.543C817.916 137.496 959.792 434.76 968.934 442.925C923.266 457.358 823.605 495.043 790.306 530.319C748.682 574.415 952.171 669.96 1010.65 643.677C1069.12 617.394 1143.52 456.54 1202.81 386.848C1262.1 317.156 1130.79 209.59 974.351 173.543Z" fill="#FF7AC3"/>
<path d="M974.351 173.543C817.916 137.496 959.792 434.76 968.934 442.925C923.266 457.358 823.605 495.043 790.306 530.319C748.682 574.415 952.171 669.96 1010.65 643.677C1069.12 617.394 1143.52 456.54 1202.81 386.848C1262.1 317.156 1130.79 209.59 974.351 173.543Z" stroke="#FF7AC3"/>
</g>
<g filter="url(#filter1_f_3433_3770)">
<circle cx="623.293" cy="448.815" r="141.5" transform="rotate(-60 623.293 448.815)" fill="#6188E7"/>
</g>
<g clip-path="url(#clip1_3433_3770)">
<rect x="433.995" y="237.083" width="152.68" height="152.68" stroke="white" stroke-width="2.16568"/>
<rect x="666.805" y="391.929" width="152.68" height="152.68" stroke="white" stroke-width="2.16568"/>
<path d="M434.796 544.88L510.876 393.26L586.956 544.88H434.796Z" stroke="white" stroke-width="2.16568"/>
<circle cx="588.298" cy="313.423" r="76.3402" stroke="white" stroke-width="2.16568"/>
<line x1="665.723" y1="312.882" x2="820.569" y2="312.882" stroke="white" stroke-width="2.16568"/>
</g>
</g>
<defs>
<filter id="filter0_f_3433_3770" x="409.238" y="-204.987" width="1183.6" height="1228.66" filterUnits="userSpaceOnUse" color-interpolation-filters="sRGB">
<feFlood flood-opacity="0" result="BackgroundImageFix"/>
<feBlend mode="normal" in="SourceGraphic" in2="BackgroundImageFix" result="shape"/>
<feGaussianBlur stdDeviation="187.5" result="effect1_foregroundBlur_3433_3770"/>
</filter>
<filter id="filter1_f_3433_3770" x="-18.2311" y="-192.709" width="1283.05" height="1283.05" filterUnits="userSpaceOnUse" color-interpolation-filters="sRGB">
<feFlood flood-opacity="0" result="BackgroundImageFix"/>
<feBlend mode="normal" in="SourceGraphic" in2="BackgroundImageFix" result="shape"/>
<feGaussianBlur stdDeviation="250" result="effect1_foregroundBlur_3433_3770"/>
</filter>
<clipPath id="clip0_3433_3770">
<rect width="742" height="856" fill="white"/>
</clipPath>
<clipPath id="clip1_3433_3770">
<rect width="309" height="362" fill="white" transform="translate(433 236)"/>
</clipPath>
</defs>
</svg>
