<svg width="485" height="181" viewBox="0 0 485 181" fill="none" xmlns="http://www.w3.org/2000/svg">
<g filter="url(#filter0_d_3272_4099)">
<path d="M45.6411 66.5247C45.6411 71.6657 41.4733 75.8335 36.3322 75.8335C31.1912 75.8335 27.0234 71.6657 27.0234 66.5247C27.0234 61.3836 31.1912 57.2159 36.3322 57.2159C41.4733 57.2159 45.6411 61.3843 45.6411 66.5247ZM157.214 119.786C152.678 119.786 149 123.464 149 128C149 132.536 152.678 136.214 157.214 136.214C161.751 136.214 165.428 132.536 165.428 128C165.428 123.464 161.751 119.786 157.214 119.786ZM441.714 26.2861C437.177 26.2861 433.5 29.9636 433.5 34.5C433.5 39.0365 437.177 42.7139 441.714 42.7139C446.25 42.7139 449.928 39.0365 449.928 34.5C449.928 29.9636 446.25 26.2861 441.714 26.2861Z" fill="#6188E7"/>
<path d="M-50.4923 165.06C-50.4923 170.999 -55.3071 175.813 -61.2461 175.813C-67.1851 175.813 -72 170.999 -72 165.06C-72 159.121 -67.1851 154.306 -61.2461 154.306C-55.3065 154.305 -50.4923 159.12 -50.4923 165.06ZM117.212 7.70751C113.284 3.68195 107.772 0.9699 101.689 0.0709772C98.1403 -0.455222 94.8243 2.00104 94.2981 5.5582C93.7726 9.11469 96.2288 12.4234 99.7853 12.9489C103.018 13.4266 105.973 14.8298 107.894 16.7977C108.755 17.68 110.153 19.4639 109.852 21.501C109.551 23.538 107.696 24.8409 106.617 25.4362C104.209 26.7656 100.975 27.2519 97.7416 26.7749C84.5282 24.8242 72.4628 32.11 70.8484 43.0226C69.2352 53.9346 78.6742 64.4021 91.8897 66.3561C91.9588 66.366 92.0265 66.3634 92.0956 66.3714C98.5083 67.3972 102.438 71.6513 101.96 74.8862C101.659 76.9226 99.8039 78.2261 98.7249 78.8214C96.3165 80.1502 93.0829 80.6392 89.8493 80.1602C76.6365 78.2082 64.5705 85.4952 62.956 96.4079C61.3429 107.32 70.7819 117.787 83.9974 119.741C84.3196 119.789 84.6405 119.812 84.9574 119.812C88.1305 119.812 90.9097 117.488 91.388 114.254C91.9136 110.698 89.4573 107.39 85.9008 106.863C79.3659 105.897 75.3503 101.581 75.834 98.312C76.3176 95.0419 81.4082 92.0674 87.9452 93.0381C89.4008 93.2533 90.8565 93.3596 92.2956 93.3596C96.8653 93.3596 101.269 92.286 105.014 90.2191C110.438 87.226 114.019 82.3314 114.838 76.7897C116.451 65.8777 107.012 55.4102 93.7965 53.4562C93.7094 53.4436 93.6237 53.4403 93.5367 53.431C87.1565 52.3899 83.2493 48.1517 83.7256 44.9268C84.2093 41.6566 89.3012 38.6835 95.8368 39.6528C97.2932 39.8681 98.7482 39.9744 100.187 39.9744C104.758 39.9744 109.161 38.9007 112.906 36.8338C118.33 33.8407 121.91 28.9461 122.729 23.4044C123.549 17.8627 121.538 12.1417 117.212 7.70751Z" fill="#FF7AC3"/>
<path d="M447.535 153.132C447.535 159.071 442.72 163.886 436.781 163.886C430.842 163.886 426.027 159.071 426.027 153.132C426.027 147.193 430.842 142.378 436.781 142.378C442.72 142.378 447.535 147.192 447.535 153.132ZM292.167 22.0528C287.987 17.9873 282.21 15.3271 275.9 14.5631C275.812 14.5524 275.725 14.5518 275.637 14.5445C269.954 13.7598 266.104 10.1442 266.441 7.3584C266.937 3.26773 264.022 -0.450209 259.932 -0.945847C255.845 -1.4375 252.123 1.47321 251.628 5.56321C250.215 17.2293 260.086 27.6988 274.102 29.3976C274.181 29.4069 274.257 29.4049 274.335 29.4116C277.286 29.8135 279.984 31.0187 281.763 32.7488C282.519 33.485 283.76 34.9652 283.562 36.603C283.364 38.2394 281.805 39.3801 280.894 39.9143C278.698 41.2019 275.695 41.7301 272.652 41.3607C266.341 40.5946 260.097 41.7985 255.067 44.7484C249.465 48.0332 245.845 53.2779 245.135 59.1358C243.721 70.8026 253.592 81.2714 267.608 82.9709C267.913 83.0081 268.216 83.026 268.516 83.026C272.235 83.026 275.454 80.2476 275.913 76.4625C276.409 72.3718 273.494 68.6539 269.404 68.1583C263.576 67.452 259.604 63.76 259.947 60.9317C260.146 59.2946 261.704 58.1539 262.615 57.6197C264.811 56.3321 267.816 55.8039 270.857 56.1733C272.097 56.3241 273.334 56.3979 274.561 56.3979C279.575 56.3979 284.401 55.1561 288.442 52.7856C294.045 49.5008 297.664 44.2561 298.374 38.3981C299.085 32.5389 296.822 26.5813 292.167 22.0528ZM507.987 151.909C511.433 149.65 512.394 145.025 510.134 141.579C485.13 103.452 504.301 76.5768 515.753 60.5197C517.147 58.5671 518.462 56.7221 519.535 55.0677C521.777 51.6109 520.793 46.9907 517.336 44.7484C513.879 42.5061 509.259 43.4907 507.017 46.9476C506.122 48.3262 504.956 49.9612 503.605 51.8554C491.742 68.4885 467.054 103.099 497.656 149.762C498.335 150.799 499.262 151.65 500.352 152.238C501.443 152.826 502.663 153.134 503.902 153.132C505.354 153.133 506.775 152.708 507.987 151.909Z" fill="#B6CBFF"/>
<path d="M400.437 90.1452C400.437 94.2598 397.101 97.595 392.987 97.595C388.872 97.595 385.537 94.2598 385.537 90.1452C385.537 86.0306 388.872 82.6954 392.987 82.6954C397.101 82.6954 400.437 86.0306 400.437 90.1452ZM193.768 46.7681C189.774 46.7681 186.536 50.0063 186.536 54C186.536 57.9936 189.774 61.2319 193.768 61.2319C197.762 61.2319 201 57.9936 201 54C201 50.0063 197.762 46.7681 193.768 46.7681ZM315.544 154.498C316.668 153.282 318.015 151.915 319.442 150.468C326.682 143.124 336.598 133.067 340.889 119.313C346.043 102.789 341.618 85.2295 327.734 67.1202C325.324 63.9762 320.823 63.3836 317.68 65.792C314.538 68.2018 313.943 72.7024 316.352 75.8456C327.388 90.2397 330.936 103.061 327.199 115.041C323.944 125.474 315.785 133.75 309.23 140.399C307.719 141.932 306.292 143.379 305.01 144.767C302.323 147.676 302.503 152.213 305.412 154.9C306.735 156.126 308.472 156.806 310.276 156.803C311.266 156.805 312.245 156.601 313.152 156.204C314.059 155.807 314.874 155.226 315.544 154.498Z" fill="#FF7AC3"/>
<path d="M43.3446 158.146L22.9999 158.421L27.3998 142L43.8206 146.4L43.3446 158.146Z" fill="#FF7AC3"/>
<path d="M220.58 140.469L201 146L201 129L218 129L220.58 140.469Z" fill="#B6CBFF"/>
</g>
<defs>
<filter id="filter0_d_3272_4099" x="-95" y="-75" width="741" height="260" filterUnits="userSpaceOnUse" color-interpolation-filters="sRGB">
<feFlood flood-opacity="0" result="BackgroundImageFix"/>
<feColorMatrix in="SourceAlpha" type="matrix" values="0 0 0 0 0 0 0 0 0 0 0 0 0 0 0 0 0 0 127 0" result="hardAlpha"/>
<feOffset dx="4" dy="4"/>
<feComposite in2="hardAlpha" operator="out"/>
<feColorMatrix type="matrix" values="0 0 0 0 0 0 0 0 0 0 0 0 0 0 0 0 0 0 1 0"/>
<feBlend mode="normal" in2="BackgroundImageFix" result="effect1_dropShadow_3272_4099"/>
<feBlend mode="normal" in="SourceGraphic" in2="effect1_dropShadow_3272_4099" result="shape"/>
</filter>
</defs>
</svg>
