<svg width="16" height="16" viewBox="0 0 16 16" fill="none" xmlns="http://www.w3.org/2000/svg">
<path d="M9.84182 3.17327C9.59369 3.52928 9.30242 3.9554 8.96799 4.45165C8.64434 4.9479 8.33149 5.47112 8.02942 6.02131C7.73815 6.5715 7.49002 7.12169 7.28505 7.67187C7.08007 8.22206 6.97759 8.72371 6.97759 9.1768C6.97759 9.58675 7.06389 9.91578 7.2365 10.1639C7.4199 10.4012 7.64645 10.59 7.91615 10.7303C8.19664 10.8705 8.5041 10.9622 8.83853 11.0054C9.18375 11.0485 9.51818 11.0701 9.84182 11.0701V14.1123C9.27005 14.1123 8.70907 14.0638 8.15888 13.9667C7.61948 13.8696 7.11244 13.7078 6.63776 13.4812C6.16309 13.2547 5.73156 12.958 5.34319 12.5912C4.95482 12.2244 4.63118 11.7659 4.37227 11.2157V14.1123H1.33003V3.17327H4.37227V6.81423C4.57724 6.16695 4.84155 5.54124 5.16519 4.93711C5.49962 4.33298 5.84484 3.74504 6.20085 3.17327H9.84182Z" fill="#6B6B6B"/>
<path d="M15.5566 11.0701V14.1123H12.5144V11.0701H15.5566Z" fill="#6B6B6B"/>
<path fill-rule="evenodd" clip-rule="evenodd" d="M10.6912 2.72993L10.2056 3.42677C9.95961 3.77965 9.67033 4.20284 9.33754 4.69663C9.02159 5.18124 8.71562 5.69288 8.41971 6.23169C8.13758 6.76489 7.89801 7.29653 7.70052 7.82665C7.50881 8.34123 7.42095 8.78959 7.42095 9.1768C7.42095 9.52121 7.49229 9.75046 7.59457 9.90212C7.73609 10.0826 7.90913 10.2264 8.11763 10.3353C8.34941 10.4508 8.60723 10.5284 8.89447 10.5656C9.22246 10.6065 9.53817 10.6268 9.84184 10.6268H10.2852V14.5557H9.84184C9.24485 14.5557 8.65807 14.505 8.08185 14.4033L8.08036 14.403C7.50367 14.2992 6.95866 14.1256 6.44682 13.8813C5.92986 13.6346 5.46018 13.3115 5.0388 12.9135C4.96193 12.8409 4.88755 12.7653 4.81563 12.6867V14.5557H0.886704V2.72993H4.81563V4.65336C5.14169 4.06696 5.47798 3.49548 5.82451 2.93894L5.95465 2.72993H10.6912ZM4.81563 5.64929C4.6456 6.02951 4.4978 6.41782 4.37227 6.81423V3.17327H1.33003V14.1123H4.37227V11.2157C4.50344 11.4945 4.65124 11.7497 4.81563 11.9813C4.97574 12.2069 5.15158 12.4102 5.34319 12.5912C5.73156 12.958 6.16309 13.2547 6.63776 13.4812C7.11244 13.7078 7.61948 13.8696 8.15888 13.9667C8.56617 14.0386 8.97939 14.0838 9.3985 14.1025C9.54555 14.109 9.69331 14.1123 9.84182 14.1123V11.0701C9.51818 11.0701 9.18375 11.0485 8.83853 11.0054C8.5041 10.9622 8.19664 10.8705 7.91615 10.7303C7.64645 10.59 7.4199 10.4012 7.2365 10.1639C7.06389 9.91578 6.97759 9.58675 6.97759 9.1768C6.97759 8.72371 7.08007 8.22206 7.28505 7.67187C7.49002 7.12169 7.73815 6.5715 8.02942 6.02131C8.33149 5.47112 8.64434 4.9479 8.96799 4.45165C9.1734 4.14685 9.36255 3.86851 9.5354 3.61661C9.64397 3.4584 9.7461 3.31062 9.84182 3.17327H6.20085C5.84484 3.74504 5.49962 4.33298 5.16519 4.93711C5.03975 5.17126 4.92324 5.40866 4.81563 5.64929ZM16 10.6268V14.5557H12.0711V10.6268H16ZM15.5566 11.0701H12.5144V14.1123H15.5566V11.0701Z" fill="#6B6B6B"/>
<path d="M8.95512 1.84325C8.70699 2.19925 8.41571 2.62538 8.08128 3.12163C7.75764 3.61787 7.44479 4.14109 7.14272 4.69128C6.85144 5.24147 6.60332 5.79166 6.39834 6.34185C6.19337 6.89204 6.09088 7.39368 6.09088 7.84678C6.09088 8.25672 6.17719 8.58576 6.3498 8.83388C6.53319 9.07122 6.75974 9.26001 7.02945 9.40025C7.30994 9.54049 7.61739 9.63219 7.95183 9.67535C8.29704 9.7185 8.63147 9.74007 8.95512 9.74007V12.7823C8.38335 12.7823 7.82237 12.7337 7.27218 12.6367C6.73277 12.5396 6.22573 12.3777 5.75106 12.1512C5.27638 11.9246 4.84486 11.628 4.45649 11.2612C4.06812 10.8944 3.74448 10.4359 3.48556 9.88571V12.7823H0.443325V1.84325H3.48556V5.4842C3.69054 4.83692 3.95484 4.21121 4.27849 3.60709C4.61292 3.00296 4.95813 2.41501 5.31414 1.84325H8.95512Z" fill="white"/>
<path d="M14.6699 9.74007V12.7823H11.6277V9.74007H14.6699Z" fill="white"/>
<path fill-rule="evenodd" clip-rule="evenodd" d="M9.80454 1.3999L9.31886 2.09675C9.07291 2.44963 8.78362 2.87281 8.45083 3.3666C8.13489 3.85121 7.82891 4.36285 7.533 4.90167C7.25087 5.43486 7.01131 5.9665 6.81381 6.49662C6.62211 7.0112 6.53425 7.45957 6.53425 7.84678C6.53425 8.19118 6.60558 8.42044 6.70787 8.5721C6.84939 8.75259 7.02242 8.89636 7.23092 9.0053C7.46271 9.12073 7.72052 9.19839 8.00776 9.23554C8.33575 9.2765 8.65147 9.29673 8.95514 9.29673H9.39848V13.2256H8.95514C8.35814 13.2256 7.77137 13.1749 7.19515 13.0733L7.19366 13.073C6.61697 12.9692 6.07196 12.7956 5.56012 12.5513C5.04315 12.3046 4.57347 11.9815 4.1521 11.5835C4.07522 11.5109 4.00084 11.4353 3.92893 11.3567V13.2256H0V1.3999H3.92893V3.32333C4.25499 2.73694 4.59128 2.16546 4.93781 1.60891L5.06795 1.3999H9.80454ZM3.92893 4.31927C3.75889 4.69949 3.61109 5.0878 3.48556 5.4842V1.84325H0.443325V12.7823H3.48556V9.88571C3.61673 10.1644 3.76453 10.4196 3.92893 10.6513C4.08903 10.8769 4.26487 11.0802 4.45649 11.2612C4.84486 11.628 5.27638 11.9246 5.75106 12.1512C6.22573 12.3777 6.73277 12.5396 7.27218 12.6367C7.67946 12.7085 8.09268 12.7538 8.51179 12.7725C8.65885 12.779 8.80661 12.7823 8.95512 12.7823V9.74007C8.63147 9.74007 8.29704 9.7185 7.95183 9.67535C7.61739 9.63219 7.30994 9.54049 7.02945 9.40025C6.75974 9.26001 6.53319 9.07122 6.3498 8.83388C6.17719 8.58576 6.09088 8.25672 6.09088 7.84678C6.09088 7.39368 6.19337 6.89204 6.39834 6.34185C6.60332 5.79166 6.85144 5.24147 7.14272 4.69128C7.44479 4.14109 7.75764 3.61787 8.08128 3.12163C8.28669 2.81683 8.47584 2.53848 8.64869 2.28659C8.75726 2.12837 8.85939 1.98059 8.95512 1.84325H5.31414C4.95813 2.41501 4.61292 3.00296 4.27849 3.60709C4.15305 3.84124 4.03654 4.07863 3.92893 4.31927ZM15.1133 9.29673V13.2256H11.1844V9.29673H15.1133ZM14.6699 9.74007H11.6277V12.7823H14.6699V9.74007Z" fill="#6B6B6B"/>
<path d="M0.886704 14.5557L0 13.2256L0.0651563 13.1301L1.24454 12.9906L1.36099 14.1229L0.886704 14.5557Z" fill="#6B6B6B"/>
<path d="M12.0711 14.5557L11.1844 13.2256L11.2499 13.1301L12.4293 12.9906L12.5457 14.1229L12.0711 14.5557Z" fill="#6B6B6B"/>
<path d="M16 10.6268L15.1133 9.29673L14.9358 9.74577L14.9798 10.7968L16 10.6268Z" fill="#6B6B6B"/>
<path d="M10.284 10.6273L9.39721 9.29716L9.2203 9.74577L9.26435 10.7968L10.284 10.6273Z" fill="#6B6B6B"/>
<path d="M4.76926 2.68368L3.92578 1.40204L3.74887 1.85065L3.79291 2.90164L4.76926 2.68368Z" fill="#6B6B6B"/>
<path d="M10.6912 2.72993L9.80454 1.3999L9.25316 1.77153L8.67242 2.9218L10.6766 2.74788L10.6912 2.72993Z" fill="#6B6B6B"/>
<path d="M3.47266 10.4513C3.47266 10.4753 3.8658 7.32072 5.5433 5.47149L5.0962 5.3999L4.28807 6.18619L3.4848 5.47149C3.4848 7.63968 3.47266 8.3424 3.47266 10.4513Z" fill="#6B6B6B"/>
<path d="M9.84182 3.17327C9.59369 3.52928 9.30242 3.9554 8.96799 4.45165C8.64434 4.9479 8.33149 5.47112 8.02942 6.02131C7.73815 6.5715 7.49002 7.12169 7.28505 7.67187C7.08007 8.22206 6.97759 8.72371 6.97759 9.1768C6.97759 9.58675 7.06389 9.91578 7.2365 10.1639C7.4199 10.4012 7.64645 10.59 7.91615 10.7303C8.19664 10.8705 8.5041 10.9622 8.83853 11.0054C9.18375 11.0485 9.51818 11.0701 9.84182 11.0701V14.1123C9.27005 14.1123 8.70907 14.0638 8.15888 13.9667C7.61948 13.8696 7.11244 13.7078 6.63776 13.4812C6.16309 13.2547 5.73156 12.958 5.34319 12.5912C4.95482 12.2244 4.63118 11.7659 4.37227 11.2157V14.1123H1.33003V3.17327H4.37227V6.81423C4.57724 6.16695 4.84155 5.54124 5.16519 4.93711C5.49962 4.33298 5.84484 3.74504 6.20085 3.17327H9.84182Z" fill="black"/>
<path d="M15.5566 11.0701V14.1123H12.5144V11.0701H15.5566Z" fill="black"/>
<path fill-rule="evenodd" clip-rule="evenodd" d="M10.6912 2.72993L10.2056 3.42677C9.95961 3.77965 9.67033 4.20284 9.33754 4.69663C9.02159 5.18124 8.71562 5.69288 8.41971 6.23169C8.13758 6.76489 7.89801 7.29653 7.70052 7.82665C7.50881 8.34123 7.42095 8.78959 7.42095 9.1768C7.42095 9.52121 7.49229 9.75046 7.59457 9.90212C7.73609 10.0826 7.90913 10.2264 8.11763 10.3353C8.34941 10.4508 8.60723 10.5284 8.89447 10.5656C9.22246 10.6065 9.53817 10.6268 9.84184 10.6268H10.2852V14.5557H9.84184C9.24485 14.5557 8.65807 14.505 8.08185 14.4033L8.08036 14.403C7.50367 14.2992 6.95866 14.1256 6.44682 13.8813C5.92986 13.6346 5.46018 13.3115 5.0388 12.9135C4.96193 12.8409 4.88755 12.7653 4.81563 12.6867V14.5557H0.886704V2.72993H4.81563V4.65336C5.14169 4.06696 5.47798 3.49548 5.82451 2.93894L5.95465 2.72993H10.6912ZM4.81563 5.64929C4.6456 6.02951 4.4978 6.41782 4.37227 6.81423V3.17327H1.33003V14.1123H4.37227V11.2157C4.50344 11.4945 4.65124 11.7497 4.81563 11.9813C4.97574 12.2069 5.15158 12.4102 5.34319 12.5912C5.73156 12.958 6.16309 13.2547 6.63776 13.4812C7.11244 13.7078 7.61948 13.8696 8.15888 13.9667C8.56617 14.0386 8.97939 14.0838 9.3985 14.1025C9.54555 14.109 9.69331 14.1123 9.84182 14.1123V11.0701C9.51818 11.0701 9.18375 11.0485 8.83853 11.0054C8.5041 10.9622 8.19664 10.8705 7.91615 10.7303C7.64645 10.59 7.4199 10.4012 7.2365 10.1639C7.06389 9.91578 6.97759 9.58675 6.97759 9.1768C6.97759 8.72371 7.08007 8.22206 7.28505 7.67187C7.49002 7.12169 7.73815 6.5715 8.02942 6.02131C8.33149 5.47112 8.64434 4.9479 8.96799 4.45165C9.1734 4.14685 9.36255 3.86851 9.5354 3.61661C9.64397 3.4584 9.7461 3.31062 9.84182 3.17327H6.20085C5.84484 3.74504 5.49962 4.33298 5.16519 4.93711C5.03975 5.17126 4.92324 5.40866 4.81563 5.64929ZM16 10.6268V14.5557H12.0711V10.6268H16ZM15.5566 11.0701H12.5144V14.1123H15.5566V11.0701Z" fill="black"/>
<path d="M8.95512 1.84325C8.70699 2.19925 8.41571 2.62538 8.08128 3.12163C7.75764 3.61787 7.44479 4.14109 7.14272 4.69128C6.85144 5.24147 6.60332 5.79166 6.39834 6.34185C6.19337 6.89204 6.09088 7.39368 6.09088 7.84678C6.09088 8.25672 6.17719 8.58576 6.3498 8.83388C6.53319 9.07122 6.75974 9.26001 7.02945 9.40025C7.30994 9.54049 7.61739 9.63219 7.95183 9.67535C8.29704 9.7185 8.63147 9.74007 8.95512 9.74007V12.7823C8.38335 12.7823 7.82237 12.7337 7.27218 12.6367C6.73277 12.5396 6.22573 12.3777 5.75106 12.1512C5.27638 11.9246 4.84486 11.628 4.45649 11.2612C4.06812 10.8944 3.74448 10.4359 3.48556 9.88571V12.7823H0.443325V1.84325H3.48556V5.4842C3.69054 4.83692 3.95484 4.21121 4.27849 3.60709C4.61292 3.00296 4.95813 2.41501 5.31414 1.84325H8.95512Z" fill="white"/>
<path d="M14.6699 9.74007V12.7823H11.6277V9.74007H14.6699Z" fill="white"/>
<path fill-rule="evenodd" clip-rule="evenodd" d="M9.80454 1.3999L9.31886 2.09675C9.07291 2.44963 8.78362 2.87281 8.45083 3.3666C8.13489 3.85121 7.82891 4.36285 7.533 4.90167C7.25087 5.43486 7.01131 5.9665 6.81381 6.49662C6.62211 7.0112 6.53425 7.45957 6.53425 7.84678C6.53425 8.19118 6.60558 8.42044 6.70787 8.5721C6.84939 8.75259 7.02242 8.89636 7.23092 9.0053C7.46271 9.12073 7.72052 9.19839 8.00776 9.23554C8.33575 9.2765 8.65147 9.29673 8.95514 9.29673H9.39848V13.2256H8.95514C8.35814 13.2256 7.77137 13.1749 7.19515 13.0733L7.19366 13.073C6.61697 12.9692 6.07196 12.7956 5.56012 12.5513C5.04315 12.3046 4.57347 11.9815 4.1521 11.5835C4.07522 11.5109 4.00084 11.4353 3.92893 11.3567V13.2256H0V1.3999H3.92893V3.32333C4.25499 2.73694 4.59128 2.16546 4.93781 1.60891L5.06795 1.3999H9.80454ZM3.92893 4.31927C3.75889 4.69949 3.61109 5.0878 3.48556 5.4842V1.84325H0.443325V12.7823H3.48556V9.88571C3.61673 10.1644 3.76453 10.4196 3.92893 10.6513C4.08903 10.8769 4.26487 11.0802 4.45649 11.2612C4.84486 11.628 5.27638 11.9246 5.75106 12.1512C6.22573 12.3777 6.73277 12.5396 7.27218 12.6367C7.67946 12.7085 8.09268 12.7538 8.51179 12.7725C8.65885 12.779 8.80661 12.7823 8.95512 12.7823V9.74007C8.63147 9.74007 8.29704 9.7185 7.95183 9.67535C7.61739 9.63219 7.30994 9.54049 7.02945 9.40025C6.75974 9.26001 6.53319 9.07122 6.3498 8.83388C6.17719 8.58576 6.09088 8.25672 6.09088 7.84678C6.09088 7.39368 6.19337 6.89204 6.39834 6.34185C6.60332 5.79166 6.85144 5.24147 7.14272 4.69128C7.44479 4.14109 7.75764 3.61787 8.08128 3.12163C8.28669 2.81683 8.47584 2.53848 8.64869 2.28659C8.75726 2.12837 8.85939 1.98059 8.95512 1.84325H5.31414C4.95813 2.41501 4.61292 3.00296 4.27849 3.60709C4.15305 3.84124 4.03654 4.07863 3.92893 4.31927ZM15.1133 9.29673V13.2256H11.1844V9.29673H15.1133ZM14.6699 9.74007H11.6277V12.7823H14.6699V9.74007Z" fill="black"/>
<path d="M0.886704 14.5557L0 13.2256L0.0651563 13.1301L1.24454 12.9906L1.36099 14.1229L0.886704 14.5557Z" fill="black"/>
<path d="M12.0711 14.5557L11.1844 13.2256L11.2499 13.1301L12.4293 12.9906L12.5457 14.1229L12.0711 14.5557Z" fill="black"/>
<path d="M16 10.6268L15.1133 9.29673L14.9358 9.74577L14.9798 10.7968L16 10.6268Z" fill="black"/>
<path d="M10.284 10.6273L9.39721 9.29716L9.2203 9.74577L9.26435 10.7968L10.284 10.6273Z" fill="black"/>
<path d="M4.76926 2.68368L3.92578 1.40204L3.74887 1.85065L3.79291 2.90164L4.76926 2.68368Z" fill="black"/>
<path d="M10.6912 2.72993L9.80454 1.3999L9.25316 1.77153L8.67242 2.9218L10.6766 2.74788L10.6912 2.72993Z" fill="black"/>
<path d="M3.47266 6.82141C3.47266 6.84541 3.8658 3.69083 5.5433 1.84161L5.0962 1.77002L4.28807 2.5563L3.4848 1.84161C3.4848 4.0098 3.47266 4.71252 3.47266 6.82141Z" fill="black"/>
</svg>
