<svg width="35" height="23" viewBox="0 0 35 23" fill="none" xmlns="http://www.w3.org/2000/svg">
<path d="M29.8492 0L29.868 0.0125005V0H29.8492Z" fill="black"/>
<path d="M0.54895 19.5572L5.33764 22.6918H34.0429L29.522 19.4387L0.54895 19.5572Z" fill="#8D8D8D"/>
<path d="M29.8493 0.356567L34.5102 3.54768L34.4308 22.5463L29.5223 19.4387L29.8493 0.356567Z" fill="#CCCCCC"/>
<path d="M29.8694 0.013459L29.8493 0H0V19.7079L5.22746 23H34.8587V3.44818L29.8694 0.013459ZM0.815612 0.538358H29.0538V19.1696H0.815612V0.538358ZM5.56662 22.4616L1.18304 19.7079H29.2921L33.4643 22.4616H5.56662ZM34.0431 22.0808L29.8708 19.3271V0.752355L34.0431 3.6716V22.0808Z" fill="#8D8D8D"/>
<path d="M20.5885 5.2019V10.9839H9.70422" stroke="#8D8D8D" stroke-width="1.34589" stroke-miterlimit="10"/>
<path d="M12.7226 7.72937L9.28247 11.0672L12.7212 14.506" stroke="#8D8D8D" stroke-width="1.34589" stroke-miterlimit="10"/>
</svg>
