<svg width="288" height="334" viewBox="0 0 288 334" fill="none" xmlns="http://www.w3.org/2000/svg">
<path d="M215.5 286.5C176.288 286.5 144.5 254.712 144.5 215.5C144.5 176.288 176.288 144.5 215.5 144.5L286.5 144.5L286.5 286.5L215.5 286.5Z" stroke="black"/>
<path d="M142.75 286.07L1.11485 215L142.75 143.93L142.75 286.07Z" fill="#FFE5F3" stroke="black"/>
<mask id="path-3-inside-1_829_4461" fill="white">
<path d="M215.5 144C224.89 144 234.187 145.849 242.862 149.443C251.537 153.036 259.419 158.302 266.058 164.942C272.698 171.581 277.964 179.463 281.557 188.138C285.151 196.813 287 206.11 287 215.5L215.5 215.5L215.5 144Z"/>
</mask>
<path d="M215.5 144C224.89 144 234.187 145.849 242.862 149.443C251.537 153.036 259.419 158.302 266.058 164.942C272.698 171.581 277.964 179.463 281.557 188.138C285.151 196.813 287 206.11 287 215.5L215.5 215.5L215.5 144Z" fill="#FF7AC3" stroke="black" stroke-width="2" mask="url(#path-3-inside-1_829_4461)"/>
<mask id="path-4-inside-2_829_4461" fill="white">
<path d="M6.25073e-06 72.5C7.48701e-06 58.3586 4.19341 44.5348 12.0499 32.7767C19.9065 21.0186 31.0732 11.8543 44.1381 6.4426C57.2031 1.03094 71.5793 -0.385001 85.449 2.37385C99.3186 5.13269 112.059 11.9424 122.058 21.9419C132.058 31.9413 138.867 44.6814 141.626 58.551C144.385 72.4207 142.969 86.7969 137.557 99.8619C132.146 112.927 122.981 124.094 111.223 131.95C99.4652 139.807 85.6414 144 71.5 144L71.5 72.5L6.25073e-06 72.5Z"/>
</mask>
<path d="M6.25073e-06 72.5C7.48701e-06 58.3586 4.19341 44.5348 12.0499 32.7767C19.9065 21.0186 31.0732 11.8543 44.1381 6.4426C57.2031 1.03094 71.5793 -0.385001 85.449 2.37385C99.3186 5.13269 112.059 11.9424 122.058 21.9419C132.058 31.9413 138.867 44.6814 141.626 58.551C144.385 72.4207 142.969 86.7969 137.557 99.8619C132.146 112.927 122.981 124.094 111.223 131.95C99.4652 139.807 85.6414 144 71.5 144L71.5 72.5L6.25073e-06 72.5Z" fill="#6188E7" stroke="black" stroke-width="2" mask="url(#path-4-inside-2_829_4461)"/>
<line x1="215.5" y1="143" x2="215.5" y2="72" stroke="black"/>
<line x1="142" y1="71.5" x2="216" y2="71.5" stroke="black"/>
<rect x="216.5" y="0.5" width="71" height="71" fill="#FFE5F3" stroke="black"/>
</svg>
