<svg width="312" height="311" viewBox="0 0 312 311" fill="none" xmlns="http://www.w3.org/2000/svg">
<g clip-path="url(#clip0_3457_3966)">
<path d="M233.079 157.012L309.42 157.012L309.42 309.693L233.079 309.693C190.918 309.693 156.739 275.514 156.739 233.352C156.739 191.191 190.918 157.012 233.079 157.012Z" stroke="#191718" stroke-width="2.16568"/>
<path d="M153.763 308.891L2.14295 232.811L153.763 156.731L153.763 308.891Z" stroke="#191718" stroke-width="2.16568"/>
<mask id="path-3-inside-1_3457_3966" fill="white">
<path d="M233.079 155.929C243.247 155.929 253.314 157.932 262.708 161.823C272.101 165.714 280.636 171.417 287.826 178.606C295.015 185.795 300.718 194.33 304.609 203.724C308.5 213.117 310.502 223.185 310.502 233.352L233.079 233.352L233.079 155.929Z"/>
</mask>
<path d="M233.079 155.929C243.247 155.929 253.314 157.932 262.708 161.823C272.101 165.714 280.636 171.417 287.826 178.606C295.015 185.795 300.718 194.33 304.609 203.724C308.5 213.117 310.502 223.185 310.502 233.352L233.079 233.352L233.079 155.929Z" stroke="#191718" stroke-width="4.33136" mask="url(#path-3-inside-1_3457_3966)"/>
<mask id="path-4-inside-2_3457_3966" fill="white">
<path d="M-0.27218 78.5066C-0.272178 63.1938 4.26861 48.2248 12.776 35.4926C21.2833 22.7605 33.3752 12.837 47.5224 6.977C61.6696 1.11703 77.2368 -0.416204 92.2554 2.57118C107.274 5.55857 121.069 12.9324 131.897 23.7602C142.725 34.588 150.099 48.3835 153.086 63.4021C156.074 78.4207 154.54 93.9879 148.68 108.135C142.821 122.282 132.897 134.374 120.165 142.882C107.433 151.389 92.4637 155.93 77.1509 155.93L77.1509 78.5066L-0.27218 78.5066Z"/>
</mask>
<path d="M-0.27218 78.5066C-0.272178 63.1938 4.26861 48.2248 12.776 35.4926C21.2833 22.7605 33.3752 12.837 47.5224 6.977C61.6696 1.11703 77.2368 -0.416204 92.2554 2.57118C107.274 5.55857 121.069 12.9324 131.897 23.7602C142.725 34.588 150.099 48.3835 153.086 63.4021C156.074 78.4207 154.54 93.9879 148.68 108.135C142.821 122.282 132.897 134.374 120.165 142.882C107.433 151.389 92.4637 155.93 77.1509 155.93L77.1509 78.5066L-0.27218 78.5066Z" stroke="#191718" stroke-width="4.33136" mask="url(#path-4-inside-2_3457_3966)"/>
<line x1="232.538" y1="154.846" x2="232.538" y2="77.964" stroke="#191718" stroke-width="2.16568"/>
<line x1="153.49" y1="76.882" x2="233.62" y2="76.882" stroke="#191718" stroke-width="2.16568"/>
<rect x="234.704" y="1.08284" width="75.7988" height="75.7988" stroke="#191718" stroke-width="2.16568"/>
</g>
<defs>
<clipPath id="clip0_3457_3966">
<rect width="312" height="311" fill="white"/>
</clipPath>
</defs>
</svg>
