<svg width="287" height="334" viewBox="0 0 287 334" fill="none" xmlns="http://www.w3.org/2000/svg">
<path d="M214.5 144.5L285.5 144.5L285.5 286.5L214.5 286.5C175.288 286.5 143.5 254.712 143.5 215.5C143.5 176.288 175.288 144.5 214.5 144.5Z" stroke="white"/>
<path d="M142.75 286.07L1.11485 215L142.75 143.93L142.75 286.07Z" stroke="white"/>
<mask id="path-3-inside-1_1076_5322" fill="white">
<path d="M214.5 144C223.89 144 233.187 145.849 241.862 149.443C250.537 153.036 258.419 158.302 265.058 164.942C271.698 171.581 276.964 179.463 280.557 188.138C284.151 196.813 286 206.11 286 215.5L214.5 215.5L214.5 144Z"/>
</mask>
<path d="M214.5 144C223.89 144 233.187 145.849 241.862 149.443C250.537 153.036 258.419 158.302 265.058 164.942C271.698 171.581 276.964 179.463 280.557 188.138C284.151 196.813 286 206.11 286 215.5L214.5 215.5L214.5 144Z" stroke="white" stroke-width="2" mask="url(#path-3-inside-1_1076_5322)"/>
<mask id="path-4-inside-2_1076_5322" fill="white">
<path d="M6.25073e-06 72.5C7.48701e-06 58.3586 4.19341 44.5348 12.0499 32.7767C19.9065 21.0186 31.0732 11.8543 44.1381 6.4426C57.2031 1.03094 71.5793 -0.384997 85.449 2.37385C99.3186 5.13269 112.059 11.9424 122.058 21.9419C132.058 31.9413 138.867 44.6814 141.626 58.551C144.385 72.4207 142.969 86.7969 137.557 99.8619C132.146 112.927 122.981 124.094 111.223 131.95C99.4652 139.807 85.6414 144 71.5 144L71.5 72.5L6.25073e-06 72.5Z"/>
</mask>
<path d="M6.25073e-06 72.5C7.48701e-06 58.3586 4.19341 44.5348 12.0499 32.7767C19.9065 21.0186 31.0732 11.8543 44.1381 6.4426C57.2031 1.03094 71.5793 -0.384997 85.449 2.37385C99.3186 5.13269 112.059 11.9424 122.058 21.9419C132.058 31.9413 138.867 44.6814 141.626 58.551C144.385 72.4207 142.969 86.7969 137.557 99.8619C132.146 112.927 122.981 124.094 111.223 131.95C99.4652 139.807 85.6414 144 71.5 144L71.5 72.5L6.25073e-06 72.5Z" stroke="white" stroke-width="2" mask="url(#path-4-inside-2_1076_5322)"/>
<line x1="215.5" y1="145" x2="215.5" y2="72" stroke="white"/>
<line x1="142" y1="71.5" x2="216" y2="71.5" stroke="white"/>
<rect x="215.5" y="0.5" width="71" height="71" stroke="white"/>
</svg>
