<svg width="23" height="23" viewBox="0 0 23 23" fill="none" xmlns="http://www.w3.org/2000/svg">
<g clip-path="url(#clip0_1720_256)">
<path d="M19.6953 0L19.7088 0.0134582V0H19.6953Z" fill="black"/>
<path d="M0.363037 19.5559L3.52301 22.6903H22.4627L19.479 19.4375L0.363037 19.5559Z" fill="#8D8D8D"/>
<path d="M19.6952 0.356934L22.7704 3.54786L22.7179 22.5454L19.4785 19.4379L19.6952 0.356934Z" fill="#CCCCCC"/>
<path d="M13.85 5.86712L9.89331 10.1468L9.73181 10.1603L7.43047 12.6366L7.29589 11.062L12.087 5.86712H13.85ZM8.00917 5.86712V14.7495H6.56914V5.86712H8.00917ZM10.1894 9.04325L13.9308 14.7495H12.235L9.04545 9.85074L10.1894 9.04325Z" fill="#8D8D8D"/>
<path d="M19.7091 0.0134582L19.6957 0H0.000976562V19.7068L3.4503 22.9987H23.001V3.44798L19.7091 0.0134582ZM0.539303 0.538327H19.1708V19.1685H0.539303V0.538327ZM3.67371 22.4603L0.78155 19.7068H19.3282L22.0818 22.4603H3.67371ZM22.4626 22.0795L19.7091 19.3259V0.752311L22.4626 3.67139V22.0795Z" fill="#8D8D8D"/>
</g>
<defs>
<clipPath id="clip0_1720_256">
<rect width="23" height="22.9987" fill="white" transform="translate(0.000976562)"/>
</clipPath>
</defs>
</svg>
