<svg width="22" height="22" viewBox="0 0 22 22" fill="none" xmlns="http://www.w3.org/2000/svg">
<path fill-rule="evenodd" clip-rule="evenodd" d="M17.748 19.1623L20 21.4142L21.4142 20L1.41421 0L0 1.41421L5.62562 7.03983L7.05033 10.0475L4.32324 14.9975H13.5833L15.169 16.5832C14.8899 16.9151 14.7503 17.3032 14.7503 17.7475C14.7497 18.2511 14.9291 18.6825 15.2884 19.0419C15.6477 19.4012 16.0795 19.5809 16.5837 19.5809C17.0279 19.5814 17.416 19.4419 17.748 19.1623ZM11.75 13.1642L9.91667 11.3309H8.42533L7.41699 13.1642H11.75ZM6.90931 3.08088L8.74264 4.91422H17.7753L15.2545 9.49755H13.326L15.1593 11.3309H16.3316L20.892 3.08088H6.90931ZM7.41699 19.5809C6.91283 19.5809 6.48108 19.4012 6.12174 19.0419C5.76241 18.6825 5.58305 18.2511 5.58366 17.7475C5.58366 17.2434 5.76333 16.8116 6.12266 16.4523C6.48199 16.093 6.91344 15.9136 7.41699 15.9142C7.92116 15.9142 8.35291 16.0939 8.71224 16.4532C9.07158 16.8125 9.25094 17.244 9.25033 17.7475C9.25033 18.2517 9.07066 18.6835 8.71132 19.0428C8.35199 19.4021 7.92055 19.5815 7.41699 19.5809Z" fill="white"/>
</svg>
