<svg width="142" height="135" viewBox="0 0 142 135" fill="none" xmlns="http://www.w3.org/2000/svg">
<path d="M59.6308 114.883L49.3142 115.194C49.2542 115.195 49.1964 115.217 49.1505 115.256C49.1045 115.294 49.0732 115.348 49.0617 115.407L48.5885 117.733C48.5804 117.774 48.5824 117.818 48.5944 117.859C48.6064 117.9 48.6281 117.938 48.6576 117.969C53.4159 122.964 52.1213 130.997 45.5023 133.618C41.7702 135.096 38.2906 134.54 35.0635 131.949C30.284 128.11 30.1298 120.885 34.8668 116.927C34.9063 116.894 34.9356 116.851 34.9512 116.803C34.9668 116.754 34.9679 116.702 34.9545 116.653L34.686 115.683C34.6728 115.633 34.6447 115.587 34.6054 115.553C34.5662 115.518 34.5174 115.496 34.4654 115.489L24.3561 114.186C24.0141 114.142 23.9494 114.256 24.1621 114.529C26.9196 118.049 27.3785 121.71 25.5391 125.513C21.1955 134.485 7.3568 131.351 6.5487 121.616C6.27756 118.339 7.30541 115.6 9.63224 113.397C9.6612 113.37 9.68364 113.336 9.6979 113.298C9.71216 113.26 9.71788 113.22 9.71464 113.179L9.65085 112.48C9.64554 112.418 9.6187 112.36 9.57499 112.316C9.53128 112.271 9.47347 112.244 9.4116 112.238C6.67363 111.964 3.7549 111.714 2.76339 108.697C2.46744 107.797 2.48693 106.899 2.82187 106.004C3.71237 103.625 6.06224 102.631 8.53439 102.543C30.6827 101.758 52.8691 101.018 75.0937 100.324C75.1351 100.322 75.1755 100.311 75.2119 100.291C75.2484 100.271 75.2797 100.243 75.3037 100.21C75.9151 99.3376 75.4818 98.58 75.0325 97.6842C72.0606 91.7617 69.0967 85.8338 66.1408 79.9007C66.12 79.858 66.088 79.8219 66.0481 79.7961C66.0083 79.7704 65.9622 79.756 65.9148 79.7545C55.6674 79.3212 45.4226 78.8533 35.1725 78.537C34.8269 78.5264 34.4813 78.4041 34.1676 78.3695C26.6644 77.5419 19.1602 76.717 11.6551 75.8947C7.35945 75.4242 5.78578 73.9861 5.16642 69.6931C3.81604 60.306 2.51883 50.9101 1.27478 41.5053C1.26615 41.442 1.23402 41.3834 1.1844 41.3405C0.473769 40.7238 0.0847784 40.0521 0.0174367 39.3255C-0.179272 37.2495 1.31465 36.561 3.1701 36.1144C29.2863 29.8162 55.398 23.4985 81.5053 17.1613C81.5464 17.1514 81.5846 17.1317 81.6165 17.104C81.6485 17.0762 81.6732 17.0411 81.6887 17.0018L84.2672 10.4546C84.2895 10.3961 84.2914 10.3323 84.2725 10.2738C82.8823 6.0871 84.6633 2.26722 88.6187 0.605832C91.4072 -0.566445 95.4211 -0.0985926 97.4174 2.54634C97.4422 2.57935 97.4743 2.60615 97.5112 2.62461C97.5481 2.64306 97.5888 2.65267 97.6301 2.65267L126.942 2.62608C127.003 2.62603 127.061 2.60639 127.107 2.57026C130.831 -0.316568 136.512 -0.473403 139.59 3.30925C145.25 10.2605 137.36 19.1975 129.683 15.1915C129.649 15.1737 129.612 15.1633 129.574 15.1611C129.536 15.1589 129.498 15.165 129.462 15.1789C129.427 15.1927 129.394 15.2141 129.368 15.2415C129.341 15.2689 129.321 15.3017 129.308 15.3377C122.971 33.419 117.168 51.6358 110.873 69.709C110.737 70.1007 110.662 70.9832 110.65 72.3566C110.608 76.647 110.448 78.6752 112.112 81.8385C115.597 88.4548 118.952 95.1536 122.365 101.81C124.335 105.654 122.992 110.834 118.925 112.716C117.126 113.551 114.871 113.546 112.801 113.471C112.738 113.469 112.676 113.49 112.627 113.53C112.578 113.57 112.544 113.626 112.532 113.689L112.019 116.377C112.007 116.442 112.019 116.509 112.054 116.566C115.504 122.305 112.96 129.583 106.089 130.79C103.576 131.231 101.177 130.657 98.8927 129.067C94.2036 125.806 93.2786 119.301 97.0772 114.947C97.2721 114.723 97.4662 114.499 97.6593 114.274C97.9234 113.969 97.8543 113.823 97.452 113.836L79.1687 114.354C79.1287 114.355 79.0896 114.365 79.054 114.384C79.0185 114.402 78.9875 114.428 78.9632 114.459C78.939 114.491 78.9223 114.527 78.9141 114.566C78.906 114.605 78.9067 114.645 78.9162 114.684C79.6339 117.624 79.2511 120.227 77.7678 122.493C74.2404 127.879 66.8 128.147 62.406 123.714C60.1571 121.447 59.3224 118.607 59.9019 115.194C59.9087 115.155 59.9066 115.115 59.896 115.077C59.8853 115.039 59.8663 115.004 59.8404 114.974C59.8144 114.944 59.7821 114.92 59.7458 114.905C59.7096 114.889 59.6703 114.882 59.6308 114.883ZM88.9537 8.51937C88.9925 8.51987 89.0309 8.51187 89.0663 8.49593C89.1016 8.48 89.1331 8.45652 89.1584 8.42713C89.1837 8.39775 89.2023 8.36317 89.2129 8.32584C89.2234 8.2885 89.2257 8.24931 89.2195 8.21102C89.1149 7.53406 89.1982 6.84912 89.4693 6.15621C90.1676 4.36456 91.4169 3.23836 93.2174 2.7776C93.7828 2.63406 93.781 2.49672 93.2121 2.36558C90.5539 1.75419 88.4247 2.57913 86.8244 4.84039C86.0872 5.88419 85.8329 7.02545 86.0615 8.26418C86.072 8.32454 86.1032 8.37934 86.1498 8.41913C86.1964 8.45892 86.2554 8.4812 86.3167 8.48215L88.9537 8.51937ZM127.269 9.8219C128.96 9.96544 131.102 10.8373 130.595 13.0065C130.581 13.0674 130.589 13.1314 130.617 13.1873C130.646 13.2432 130.693 13.2874 130.752 13.3121C133.525 14.4729 135.885 14.1061 137.83 12.2116C139.287 10.7921 139.75 8.59646 139.032 6.68254C136.403 -0.345808 126.031 2.38419 126.11 9.47367C126.111 9.53917 126.136 9.60207 126.179 9.65054C126.223 9.69901 126.282 9.7297 126.347 9.73683C126.669 9.76873 126.977 9.79709 127.269 9.8219ZM92.3748 9.36734C92.7186 9.61899 93.1262 9.74481 93.5976 9.74481L123.776 9.77671C123.813 9.77686 123.85 9.76927 123.884 9.75445C123.918 9.73962 123.948 9.71787 123.973 9.69059C123.998 9.66332 124.017 9.63111 124.029 9.59605C124.041 9.56098 124.046 9.52383 124.042 9.48696C123.9 7.91152 124.232 6.4557 125.036 5.1195C125.199 4.85191 125.124 4.71723 124.81 4.71545C109.591 4.6871 99.5688 4.6871 94.7433 4.71545C92.4439 4.72874 89.7431 7.42684 92.3748 9.36734ZM85.0726 16.9725C85.6185 17.0186 86.1616 17.0257 86.7021 16.9938C86.7533 16.9915 86.8028 16.9739 86.8444 16.9432C86.886 16.9124 86.9179 16.8699 86.9361 16.821L89.0148 11.1643C89.0289 11.1261 89.0341 11.0853 89.0301 11.0448C89.026 11.0044 89.0128 10.9655 88.9915 10.9311C88.9702 10.8967 88.9413 10.8677 88.9071 10.8464C88.8729 10.825 88.8343 10.8119 88.7942 10.8081L86.7659 10.5928C86.7113 10.5874 86.6563 10.5991 86.6083 10.6262C86.5603 10.6533 86.5216 10.6945 86.4974 10.7443C85.6078 12.6405 84.8458 14.5872 84.2114 16.5844C84.1991 16.6234 84.1958 16.6646 84.2018 16.705C84.2079 16.7454 84.223 16.7838 84.2462 16.8172C84.2693 16.8506 84.2998 16.8782 84.3353 16.8978C84.3707 16.9173 84.4102 16.9283 84.4506 16.93C84.658 16.9406 84.8653 16.9548 85.0726 16.9725ZM115.528 111.289C119.085 111.422 121.575 108.126 121.068 104.829C120.945 104.043 120.501 102.912 119.733 101.438C116.467 95.1624 113.243 88.8651 110.06 82.5456C108.053 78.5556 108.497 75.5173 108.625 70.0121C109.631 66.9675 110.662 63.9292 111.716 60.897C117.317 44.7829 122.32 28.4667 128.216 12.4535C128.229 12.4171 128.235 12.3781 128.232 12.3394C128.229 12.3006 128.217 12.2631 128.198 12.2293C128.179 12.1956 128.153 12.1666 128.122 12.1442C128.09 12.1219 128.054 12.1068 128.016 12.1L126.241 11.7757C126.179 11.7639 126.116 11.7745 126.061 11.8057C126.006 11.8368 125.965 11.8865 125.943 11.9458L123.519 18.6445C123.505 18.6804 123.5 18.7188 123.503 18.7569C123.506 18.7951 123.518 18.832 123.537 18.8652C124.413 20.4016 124.25 21.7458 123.048 22.8977C122.633 23.2938 121.985 23.4985 121.448 23.7404C121.411 23.757 121.379 23.7814 121.353 23.8117C121.328 23.8421 121.309 23.8776 121.299 23.9158C120.822 25.7004 120.296 27.4716 119.72 29.2296C114.619 44.8041 109.409 60.3441 104.544 75.9957C104.528 76.0453 104.528 76.0985 104.543 76.1487C104.557 76.1988 104.586 76.2437 104.627 76.2775C106.009 77.4471 106.206 78.778 105.219 80.2702C105.193 80.3103 105.178 80.3568 105.176 80.4046C105.174 80.4524 105.186 80.4997 105.209 80.5413C109.136 87.8869 113.058 95.2209 116.974 102.543C117.604 103.721 118.032 104.954 117.71 106.273C116.937 109.434 114.14 109.54 111.408 109.585C87.7158 109.978 64.0266 110.533 40.34 111.249C37.3814 111.339 35.0342 111.116 32.2404 110.664C21.7883 108.967 14.3134 107.731 9.81566 106.959C8.6868 106.766 7.56679 106.532 6.45566 106.257C6.41135 106.245 6.37148 106.222 6.33604 106.191C6.13047 105.996 5.8868 105.903 5.60503 105.911C5.54181 105.913 5.48134 105.938 5.4349 105.981C4.00212 107.291 4.98566 109.516 6.67363 109.776C13.9589 110.9 22.7727 112.037 33.115 113.187C35.4303 113.442 37.5702 113.458 39.819 113.397C61.0476 112.812 82.2753 112.204 103.502 111.573C107.184 111.464 111.517 111.454 115.528 111.289ZM89.3524 17.2224C98.2876 17.6318 107.218 18.1032 116.145 18.6366C118.141 18.7562 119.611 18.3415 121.421 17.9268C121.464 17.917 121.503 17.8966 121.536 17.8673C121.569 17.8381 121.594 17.801 121.61 17.7594L123.649 12.2967C123.664 12.2566 123.669 12.2135 123.664 12.1711C123.658 12.1286 123.643 12.0881 123.619 12.0529C123.594 12.0176 123.562 11.9888 123.524 11.9688C123.486 11.9487 123.444 11.9381 123.402 11.9378L97.032 11.8608C96.9817 11.8607 96.9321 11.8745 96.8885 11.9006C95.3095 12.8895 93.5993 13.2129 91.7581 12.8709C91.6411 12.8496 91.3833 12.7389 90.9845 12.5386C90.9508 12.5217 90.914 12.5122 90.8763 12.5107C90.8387 12.5092 90.8012 12.5157 90.7662 12.5298C90.7313 12.5438 90.6997 12.5652 90.6737 12.5924C90.6476 12.6195 90.6276 12.652 90.615 12.6875L89.1158 16.8662C89.1016 16.9053 89.0968 16.9472 89.1017 16.9885C89.1067 17.0298 89.1212 17.0693 89.1442 17.104C89.1672 17.1386 89.1981 17.1674 89.2342 17.188C89.2704 17.2085 89.3109 17.2203 89.3524 17.2224ZM10.3287 37.09C12.0246 37.3363 13.6851 37.5445 15.3102 37.7146C16.8254 37.8741 17.8382 37.6641 19.2843 37.3186C31.0407 34.5079 51.9893 29.5495 82.13 22.4432C82.9035 22.2597 84.0864 22.0816 84.6925 22.1162C89.651 22.398 94.613 22.6239 99.5786 22.794C100.617 22.8295 101.52 22.7524 102.287 22.5628C104.637 21.9797 106.994 21.4109 109.358 20.8562C110.312 20.6329 110.299 20.4929 109.321 20.4362C100.935 19.9595 92.5485 19.5023 84.1609 19.0645C83.4414 19.0273 82.7325 19.0929 82.0343 19.2613C58.0536 25.058 34.1446 30.8617 10.3074 36.6726C9.59857 36.8445 9.60565 36.9836 10.3287 37.09ZM2.3487 39.5408C2.75807 40.123 3.52364 40.1071 4.21478 40.1868C12.8416 41.2093 21.4675 42.2354 30.0926 43.265C31.5759 43.4405 32.6578 43.4405 33.9842 43.1108C62.0471 36.1809 88.5682 29.5539 118.237 22.3661C118.843 22.2199 123.962 21.5952 121.535 20.1969C121.481 20.1644 121.416 20.1531 121.352 20.1651C120.92 20.2501 120.489 20.3431 120.06 20.4442C91.6198 27.2173 63.2646 34.3201 34.8721 41.2846C33.4898 41.6222 31.9135 41.9226 30.7306 41.7817C21.7599 40.7078 12.5518 39.5639 3.10629 38.35C3.05764 38.343 3.00695 38.3504 2.96009 38.3712C2.2406 38.7044 2.03681 39.0943 2.3487 39.5408ZM82.4011 24.3092C82.3828 24.3099 82.3651 24.316 82.3504 24.327C82.3357 24.3379 82.3246 24.353 82.3187 24.3704L81.189 27.4566C81.1832 27.472 81.1817 27.4887 81.1847 27.5049C81.1877 27.5211 81.195 27.5362 81.206 27.5485C81.2169 27.5608 81.231 27.5699 81.2468 27.5748C81.2625 27.5797 81.2793 27.5802 81.2953 27.5762L85.9392 26.4597C85.955 26.456 85.9695 26.4482 85.9812 26.4369C85.9929 26.4257 86.0013 26.4115 86.0057 26.3959L86.6251 24.3331C86.6293 24.3193 86.6302 24.3046 86.6276 24.2904C86.625 24.2761 86.6191 24.2627 86.6102 24.2512C86.6013 24.2397 86.5899 24.2306 86.5767 24.2245C86.5636 24.2184 86.5491 24.2155 86.5347 24.2162L82.4011 24.3092ZM116.873 24.7425C116.857 24.7457 116.843 24.7531 116.831 24.7639C116.82 24.7746 116.811 24.7884 116.807 24.8036L111.211 42.2868C111.206 42.3007 111.205 42.3156 111.208 42.33C111.211 42.3444 111.217 42.3579 111.226 42.3693C111.236 42.3806 111.248 42.3895 111.261 42.3951C111.275 42.4006 111.289 42.4027 111.304 42.4011L113.167 42.2257C113.185 42.2243 113.202 42.2178 113.215 42.2069C113.229 42.196 113.239 42.1812 113.244 42.1645L118.962 24.4794C118.967 24.4647 118.968 24.449 118.965 24.4338C118.962 24.4186 118.955 24.4044 118.945 24.3928C118.935 24.3812 118.922 24.3725 118.907 24.3676C118.892 24.3627 118.876 24.3619 118.861 24.365L116.873 24.7425ZM91.8857 24.5804C90.7781 24.4545 89.6661 24.4102 88.5496 24.4474C88.4896 24.4488 88.4318 24.4706 88.3858 24.5093C88.3399 24.5479 88.3086 24.6012 88.2971 24.6601L88.1136 25.5931C88.1051 25.6372 88.1078 25.6827 88.1215 25.7254C88.1352 25.7681 88.1595 25.8066 88.1922 25.8374C88.2248 25.8682 88.2647 25.8902 88.3082 25.9014C88.3516 25.9126 88.3971 25.9126 88.4406 25.9015L91.9149 24.9977C92.6539 24.8045 92.6441 24.6654 91.8857 24.5804ZM65.0775 28.6581C65.0605 28.6621 65.0452 28.6711 65.0333 28.6838C65.0215 28.6966 65.0137 28.7126 65.011 28.7299L64.5618 31.6698C64.5597 31.684 64.5611 31.6984 64.5658 31.7118C64.5706 31.7253 64.5785 31.7374 64.589 31.7471C64.5995 31.7568 64.6122 31.7638 64.6259 31.7674C64.6397 31.7711 64.6542 31.7714 64.6681 31.7682L78.5281 28.254C78.5418 28.2507 78.5545 28.2442 78.5652 28.2349C78.5758 28.2257 78.5841 28.214 78.5892 28.2009L79.6711 25.3486C79.6768 25.3338 79.6783 25.3177 79.6756 25.3021C79.6729 25.2865 79.6659 25.2719 79.6556 25.2599C79.6452 25.2479 79.6318 25.239 79.6168 25.234C79.6017 25.229 79.5856 25.2282 79.5701 25.2316L65.0775 28.6581ZM109.451 26.6857L104.191 43.2092C104.177 43.2528 104.175 43.2993 104.184 43.3441C104.193 43.3889 104.213 43.4305 104.243 43.4652C104.272 43.4998 104.31 43.5262 104.353 43.5419C104.395 43.5575 104.441 43.562 104.486 43.5548L108.603 42.8982C108.651 42.8909 108.696 42.8701 108.733 42.8382C108.77 42.8063 108.798 42.7644 108.813 42.7174L114.223 25.843C114.318 25.5453 114.214 25.4319 113.909 25.5028L109.645 26.5076C109.601 26.5181 109.559 26.5399 109.525 26.5711C109.491 26.6023 109.466 26.6417 109.451 26.6857ZM96.511 29.8118C96.4963 29.8155 96.4828 29.8232 96.4721 29.834C96.4613 29.8447 96.4536 29.8582 96.4498 29.8729L92.2233 45.4767C92.2195 45.4904 92.2193 45.5049 92.2226 45.5187C92.2259 45.5326 92.2326 45.5453 92.2421 45.5559C92.2516 45.5665 92.2637 45.5745 92.2771 45.5793C92.2905 45.584 92.3049 45.5853 92.319 45.583L102.2 43.8977C102.215 43.8952 102.229 43.8887 102.24 43.8789C102.252 43.8691 102.261 43.8563 102.266 43.8419L107.676 27.1748C107.68 27.1604 107.681 27.145 107.678 27.1302C107.674 27.1154 107.667 27.1017 107.657 27.0906C107.647 27.0795 107.634 27.0714 107.619 27.067C107.605 27.0626 107.589 27.0622 107.575 27.0658L96.511 29.8118ZM53.4557 31.3907C53.4372 31.3954 53.4207 31.4059 53.4087 31.4208C53.3967 31.4357 53.3899 31.454 53.3893 31.4731L53.2245 34.445C53.2236 34.4588 53.226 34.4726 53.2315 34.4852C53.237 34.4979 53.2454 34.5091 53.256 34.5179C53.2666 34.5267 53.2792 34.5329 53.2926 34.5359C53.3061 34.5389 53.3201 34.5388 53.3334 34.5354L62.6505 32.1988C62.6663 32.1948 62.6806 32.1864 62.6919 32.1747C62.7031 32.1629 62.7109 32.1483 62.7143 32.1324L63.339 29.2004C63.3421 29.1858 63.3415 29.1708 63.3372 29.1566C63.3329 29.1424 63.3251 29.1295 63.3145 29.1192C63.3038 29.1088 63.2908 29.1013 63.2765 29.0974C63.2622 29.0934 63.2471 29.0932 63.2327 29.0967L53.4557 31.3907ZM83.0072 33.1505C82.9849 33.1559 82.9646 33.1676 82.9487 33.184C82.9327 33.2005 82.9216 33.2211 82.9168 33.2435L79.7482 47.5368C79.744 47.5564 79.7446 47.5768 79.7501 47.596C79.7556 47.6153 79.7658 47.633 79.7797 47.6474C79.7936 47.6619 79.8109 47.6727 79.83 47.6789C79.849 47.6851 79.8693 47.6865 79.8891 47.683L90.3093 45.8727C90.3324 45.869 90.3539 45.8588 90.3714 45.8433C90.3888 45.8277 90.4014 45.8075 90.4077 45.785L94.6609 30.4019C94.6667 30.3811 94.667 30.3592 94.6617 30.3383C94.6563 30.3174 94.6455 30.2983 94.6304 30.2829C94.6153 30.2675 94.5964 30.2564 94.5756 30.2507C94.5548 30.245 94.5329 30.2449 94.512 30.2504L83.0072 33.1505ZM42.2992 34.033C42.2809 34.0377 42.2647 34.0484 42.2532 34.0633C42.2416 34.0782 42.2354 34.0965 42.2354 34.1154L42.2088 37.1803C42.2088 37.1933 42.2117 37.2062 42.2174 37.2178C42.2232 37.2295 42.2315 37.2397 42.2417 37.2476C42.252 37.2556 42.264 37.2611 42.2767 37.2637C42.2894 37.2663 42.3025 37.266 42.3151 37.2628L51.4248 34.9847C51.4415 34.9805 51.4565 34.9714 51.4678 34.9586C51.4792 34.9458 51.4865 34.9299 51.4886 34.9129L51.8023 31.9011C51.8039 31.8875 51.8023 31.8738 51.7975 31.861C51.7927 31.8482 51.7848 31.8368 51.7747 31.8276C51.7645 31.8185 51.7523 31.812 51.739 31.8086C51.7258 31.8052 51.712 31.805 51.6986 31.8081L42.2992 34.033ZM69.0329 36.5663C69.0161 36.5706 69.0009 36.5797 68.9891 36.5924C68.9773 36.6051 68.9695 36.621 68.9665 36.6381L66.598 49.8362C66.5952 49.8505 66.5959 49.8653 66.6001 49.8792C66.6043 49.8932 66.6118 49.906 66.622 49.9164C66.6322 49.9269 66.6448 49.9347 66.6586 49.9393C66.6725 49.9438 66.6873 49.9449 66.7017 49.9425L77.9008 47.9621C77.9182 47.9589 77.9343 47.9506 77.947 47.9383C77.9598 47.926 77.9686 47.9103 77.9725 47.893L81.1837 33.7007C81.1873 33.6857 81.187 33.67 81.1828 33.6551C81.1786 33.6402 81.1706 33.6267 81.1597 33.6157C81.1488 33.6048 81.1352 33.5968 81.1203 33.5926C81.1054 33.5884 81.0897 33.5881 81.0747 33.5917L69.0329 36.5663ZM40.4065 37.704C40.4265 37.6993 40.4443 37.6882 40.4573 37.6723C40.4703 37.6565 40.4776 37.6368 40.4783 37.6163L40.5607 34.562C40.5611 34.5478 40.5582 34.5336 40.5522 34.5207C40.5463 34.5078 40.5374 34.4963 40.5264 34.4874C40.5154 34.4784 40.5024 34.472 40.4885 34.4688C40.4747 34.4657 40.4602 34.4657 40.4464 34.469L31.6157 36.5344C31.5934 36.5401 31.574 36.5538 31.5613 36.573C31.5485 36.5921 31.5433 36.6153 31.5466 36.6381L31.9959 39.6844C31.9977 39.6972 32.0023 39.7096 32.0092 39.7206C32.0161 39.7316 32.0252 39.741 32.0359 39.7483C32.0467 39.7555 32.0589 39.7605 32.0717 39.7627C32.0845 39.765 32.0976 39.7646 32.1102 39.7615L40.4065 37.704ZM22.9366 38.8231C25.2918 39.0588 27.6479 39.3087 30.0049 39.5728C30.045 39.5772 30.0857 39.5724 30.1237 39.5587C30.1618 39.5451 30.1962 39.5229 30.2244 39.4939C30.2526 39.465 30.2738 39.43 30.2864 39.3916C30.2991 39.3532 30.3028 39.3124 30.2973 39.2724L30.0075 37.2255C30.0026 37.1891 29.9901 37.1542 29.9708 37.1229C29.9515 37.0916 29.9259 37.0647 29.8956 37.0439C29.8653 37.0231 29.831 37.0089 29.7949 37.0022C29.7588 36.9955 29.7216 36.9964 29.6859 37.0049L22.4794 38.6716C22.4688 38.6734 22.4289 38.6707 22.3598 38.6636C22.3173 38.6601 22.2951 38.6778 22.2934 38.7168C22.2927 38.7351 22.2996 38.753 22.3125 38.7664C22.3255 38.7799 22.3435 38.7879 22.3625 38.7886C22.5556 38.7921 22.747 38.8036 22.9366 38.8231ZM55.6541 39.8758C55.6382 39.8799 55.6238 39.8887 55.6129 39.901C55.602 39.9133 55.5951 39.9286 55.5929 39.9449L54.1894 52C54.188 52.0126 54.1895 52.0255 54.1939 52.0375C54.1983 52.0494 54.2054 52.0602 54.2147 52.069C54.224 52.0778 54.2352 52.0842 54.2474 52.0879C54.2596 52.0916 54.2725 52.0925 54.2851 52.0903L64.7931 50.2455C64.8096 50.2425 64.8248 50.2346 64.8367 50.2227C64.8486 50.2108 64.8565 50.1956 64.8595 50.1791L67.228 37.1165C67.2301 37.1031 67.2289 37.0894 67.2245 37.0765C67.22 37.0637 67.2124 37.0521 67.2024 37.0429C67.1924 37.0337 67.1803 37.0271 67.1671 37.0237C67.154 37.0203 67.1402 37.0203 67.127 37.0235L55.6541 39.8758ZM42.7962 44.5596C42.6757 47.6378 42.6013 50.7337 42.573 53.8474C42.5728 53.8866 42.5812 53.9253 42.5976 53.9609C42.614 53.9965 42.638 54.0281 42.6679 54.0534C42.6977 54.0787 42.7328 54.0972 42.7706 54.1076C42.8084 54.1179 42.848 54.1198 42.8866 54.1132L52.2834 52.4146C52.3394 52.4048 52.3908 52.3774 52.4301 52.3362C52.4693 52.2951 52.4943 52.2424 52.5014 52.186L53.8943 40.7051C53.8999 40.6627 53.8951 40.6194 53.8801 40.5792C53.8652 40.5391 53.8407 40.5031 53.8088 40.4746C53.7768 40.446 53.7383 40.4257 53.6967 40.4154C53.6551 40.4051 53.6116 40.4051 53.57 40.4154L43.0408 42.9779C42.9836 42.9914 42.9324 43.0236 42.8954 43.0693C42.8583 43.115 42.8375 43.1717 42.8361 43.2305C42.8255 43.6717 42.8122 44.1148 42.7962 44.5596ZM7.39136 70.3497C7.58807 71.8489 8.71249 73.4678 10.3287 73.6432C17.9117 74.469 25.4992 75.309 33.0911 76.1632C33.1293 76.1675 33.1679 76.1634 33.2044 76.1513C33.2409 76.1392 33.2743 76.1193 33.3023 76.093C33.3304 76.0667 33.3524 76.0347 33.3669 75.9991C33.3813 75.9635 33.3879 75.9251 33.3861 75.8868C33.3276 74.3698 34.0135 73.3446 35.4436 72.8112C35.5001 72.7901 35.5478 72.7502 35.5787 72.698C35.6096 72.6458 35.622 72.5845 35.6137 72.5241L31.8258 45.7265C31.8174 45.668 31.7899 45.6138 31.7476 45.5725C31.7053 45.5312 31.6506 45.5049 31.5918 45.4979L3.83996 42.2575C3.79958 42.2527 3.75863 42.2572 3.72024 42.2706C3.68186 42.2841 3.64708 42.3062 3.61858 42.3352C3.59008 42.3642 3.56861 42.3994 3.55584 42.438C3.54307 42.4766 3.53933 42.5176 3.54491 42.5579C3.94896 45.4253 4.33617 48.2935 4.70655 51.1626C5.5306 57.5663 6.55667 63.9434 7.39136 70.3497ZM40.8106 54.4242C40.8336 54.4199 40.8543 54.4078 40.8694 54.3898C40.8844 54.3719 40.8927 54.3493 40.893 54.3259L41.1694 43.5468C41.1699 43.5312 41.1667 43.5158 41.1602 43.5017C41.1537 43.4876 41.144 43.4751 41.1319 43.4654C41.1199 43.4556 41.1057 43.4487 41.0905 43.4453C41.0753 43.4419 41.0596 43.4421 41.0445 43.4458L33.939 45.2241C33.9151 45.2304 33.8943 45.2452 33.8806 45.2658C33.8669 45.2864 33.8612 45.3113 33.8646 45.3358L35.324 55.3546C35.3259 55.3682 35.3306 55.3813 35.3377 55.393C35.3448 55.4048 35.3543 55.415 35.3655 55.4229C35.3767 55.4309 35.3894 55.4365 35.4028 55.4394C35.4162 55.4422 35.4301 55.4423 35.4436 55.4397L40.8106 54.4242ZM110.613 44.3363C110.597 44.3377 110.582 44.3437 110.57 44.3537C110.557 44.3636 110.548 44.377 110.544 44.3921L105.339 60.5568C105.335 60.5686 105.334 60.5811 105.336 60.5933C105.338 60.6056 105.343 60.6172 105.35 60.6272C105.357 60.6373 105.367 60.6455 105.378 60.6513C105.389 60.657 105.401 60.6602 105.413 60.6604H107.08C107.097 60.6607 107.114 60.6553 107.128 60.6453C107.142 60.6352 107.152 60.621 107.157 60.6046L112.564 44.2991C112.569 44.2864 112.57 44.2729 112.568 44.2596C112.566 44.2464 112.56 44.2339 112.552 44.2233C112.544 44.2127 112.533 44.2043 112.521 44.199C112.508 44.1937 112.495 44.1915 112.482 44.1927L110.613 44.3363ZM103.497 45.3384C103.482 45.3406 103.467 45.347 103.456 45.3569C103.444 45.3667 103.435 45.3797 103.43 45.3943L98.5153 60.9954C98.5108 61.0084 98.5096 61.0223 98.5119 61.0358C98.5142 61.0494 98.5198 61.0621 98.5282 61.073C98.5367 61.0838 98.5477 61.0923 98.5603 61.0978C98.5729 61.1033 98.5867 61.1056 98.6003 61.1044L102.891 60.788C102.907 60.7866 102.923 60.7803 102.936 60.7698C102.948 60.7594 102.958 60.7454 102.962 60.7296L108.205 44.7563C108.209 44.7428 108.21 44.7284 108.208 44.7143C108.205 44.7003 108.199 44.6871 108.19 44.6761C108.181 44.6651 108.169 44.6567 108.156 44.6516C108.143 44.6466 108.128 44.6451 108.114 44.6473L103.497 45.3384ZM91.7288 47.3401C91.7111 47.3432 91.6946 47.3513 91.6814 47.3636C91.6681 47.3759 91.6588 47.3917 91.6544 47.4092L87.6671 61.8061C87.6631 61.8206 87.6628 61.8359 87.666 61.8505C87.6693 61.8652 87.676 61.8788 87.6857 61.8903C87.6953 61.9018 87.7076 61.9108 87.7215 61.9165C87.7354 61.9222 87.7505 61.9245 87.7654 61.9231L96.6598 61.2266C96.6779 61.2249 96.6951 61.218 96.7093 61.2067C96.7234 61.1953 96.734 61.1801 96.7396 61.1628L101.604 45.8355C101.609 45.8204 101.61 45.8043 101.606 45.7888C101.603 45.7732 101.596 45.7588 101.586 45.7468C101.575 45.7348 101.562 45.7257 101.547 45.7203C101.532 45.7149 101.516 45.7134 101.5 45.7159L91.7288 47.3401ZM79.3016 49.4454C79.2825 49.4485 79.2647 49.4573 79.2505 49.4705C79.2363 49.4838 79.2263 49.5009 79.2219 49.5198L76.2713 62.6621C76.2679 62.6771 76.2681 62.6927 76.2719 62.7076C76.2756 62.7226 76.2828 62.7364 76.2929 62.7481C76.303 62.7597 76.3157 62.7688 76.3299 62.7747C76.3442 62.7805 76.3596 62.7829 76.3749 62.7817L85.8435 62.072C85.8638 62.0705 85.8831 62.0628 85.8988 62.05C85.9145 62.0371 85.9258 62.0197 85.9312 62.0002L89.8601 47.8212C89.8643 47.8053 89.8645 47.7885 89.8606 47.7725C89.8567 47.7565 89.8488 47.7417 89.8377 47.7296C89.8266 47.7174 89.8126 47.7082 89.797 47.7029C89.7814 47.6975 89.7647 47.6962 89.7485 47.6989L79.3016 49.4454ZM66.2896 51.6756C66.2684 51.6792 66.2487 51.6893 66.2335 51.7046C66.2183 51.7198 66.2081 51.7394 66.2046 51.7607L64.0753 63.619C64.0725 63.6346 64.0732 63.6506 64.0774 63.6658C64.0817 63.681 64.0894 63.6951 64.0999 63.7069C64.1104 63.7187 64.1235 63.7279 64.1381 63.7339C64.1527 63.7399 64.1685 63.7424 64.1843 63.7413L74.4743 62.9146C74.4963 62.9129 74.5171 62.9043 74.5339 62.89C74.5506 62.8756 74.5623 62.8563 74.5673 62.8349L77.4648 49.9345C77.4685 49.918 77.468 49.9009 77.4636 49.8847C77.4592 49.8684 77.4508 49.8535 77.4393 49.8412C77.4278 49.8289 77.4134 49.8196 77.3975 49.8141C77.3815 49.8085 77.3645 49.807 77.3478 49.8096L66.2896 51.6756ZM53.9634 53.8075C53.9464 53.8103 53.9307 53.8185 53.9187 53.831C53.9067 53.8435 53.8991 53.8595 53.897 53.8767L52.5945 64.5973C52.5928 64.6093 52.5938 64.6216 52.5976 64.6331C52.6014 64.6447 52.6077 64.6552 52.6162 64.6639C52.6247 64.6726 52.635 64.6793 52.6464 64.6834C52.6579 64.6875 52.6701 64.689 52.6822 64.6877L62.3262 63.8716C62.3439 63.87 62.3605 63.8627 62.3735 63.8507C62.3865 63.8386 62.3951 63.8226 62.398 63.8051L64.4794 52.1089C64.4818 52.0962 64.481 52.0831 64.4772 52.0707C64.4733 52.0583 64.4665 52.0471 64.4574 52.0379C64.4482 52.0287 64.437 52.0219 64.4246 52.0181C64.4122 52.0143 64.3991 52.0135 64.3863 52.0159L53.9634 53.8075ZM42.4108 57.3217C42.3098 59.9534 42.2495 62.585 42.23 65.2166C42.2295 65.2533 42.2367 65.2896 42.2512 65.3233C42.2657 65.357 42.2872 65.3874 42.3142 65.4124C42.3412 65.4374 42.3732 65.4566 42.4082 65.4687C42.4431 65.4807 42.4802 65.4854 42.5171 65.4825L50.7337 64.8179C50.7951 64.8129 50.853 64.7869 50.8975 64.7443C50.942 64.7017 50.9705 64.6451 50.9783 64.584L52.1878 54.4641C52.1925 54.4229 52.1876 54.3811 52.1735 54.3421C52.1593 54.3031 52.1364 54.268 52.1064 54.2395C52.0764 54.2111 52.0403 54.1902 52.0009 54.1784C51.9614 54.1666 51.9198 54.1643 51.8794 54.1717L42.65 55.7826C42.5875 55.7939 42.531 55.8269 42.4906 55.8755C42.4502 55.9242 42.4285 55.9855 42.4294 56.0484C42.433 56.4773 42.4268 56.9017 42.4108 57.3217ZM40.4623 65.6287C40.4823 65.6267 40.5009 65.6176 40.5146 65.6029C40.5283 65.5882 40.5362 65.569 40.5368 65.5489L40.8212 56.1441C40.8214 56.1318 40.8189 56.1196 40.8138 56.1084C40.8087 56.0972 40.8012 56.0873 40.7917 56.0794C40.7823 56.0715 40.7712 56.0658 40.7593 56.0627C40.7474 56.0597 40.7349 56.0593 40.7228 56.0617L35.6244 56.9921C35.6039 56.996 35.5857 57.0075 35.5734 57.0242C35.561 57.041 35.5555 57.0618 35.5579 57.0825L36.7887 65.9423C36.7913 65.9637 36.8023 65.9833 36.8192 65.9967C36.8361 66.0101 36.8576 66.0164 36.879 66.0141L40.4623 65.6287ZM102.016 75.698C102.022 75.6984 102.027 75.6993 102.032 75.7007L102.216 75.7512C102.237 75.757 102.259 75.7545 102.279 75.7441C102.298 75.7337 102.312 75.7162 102.319 75.6954L106.572 62.5265C106.576 62.514 106.578 62.5008 106.576 62.4877C106.574 62.4747 106.569 62.4623 106.562 62.4515C106.554 62.4407 106.544 62.4318 106.533 62.4254C106.521 62.419 106.508 62.4154 106.495 62.4149L104.733 62.3218C104.714 62.3211 104.695 62.3267 104.68 62.3377C104.664 62.3488 104.653 62.3647 104.648 62.383L100.466 75.5013C100.463 75.5134 100.462 75.5262 100.464 75.5387C100.466 75.5512 100.471 75.5631 100.478 75.5735C100.485 75.5839 100.494 75.5927 100.505 75.599C100.516 75.6054 100.528 75.6092 100.541 75.6103L102.016 75.698ZM94.1159 75.2169C94.1123 75.2292 94.1115 75.2422 94.1136 75.2548C94.1157 75.2675 94.1207 75.2795 94.1281 75.29C94.1355 75.3005 94.1452 75.3092 94.1564 75.3154C94.1677 75.3216 94.1802 75.3252 94.193 75.3259L98.0474 75.5438C98.0665 75.5454 98.0855 75.5404 98.1014 75.5298C98.1174 75.5192 98.1292 75.5036 98.1352 75.4854L102.359 62.6063C102.363 62.5931 102.364 62.5792 102.362 62.5655C102.36 62.5519 102.354 62.539 102.346 62.528C102.338 62.517 102.327 62.5082 102.314 62.5024C102.302 62.4966 102.288 62.4939 102.274 62.4946L98.0288 62.787C98.012 62.7883 97.996 62.7945 97.9827 62.8049C97.9695 62.8154 97.9596 62.8295 97.9544 62.8455L94.1159 75.2169ZM84.1662 74.7251C84.163 74.7375 84.1626 74.7504 84.1651 74.7629C84.1676 74.7754 84.1728 74.7872 84.1805 74.7974C84.1881 74.8077 84.198 74.816 84.2093 74.8219C84.2207 74.8278 84.2332 74.831 84.2459 74.8314L92.2871 75.2302C92.306 75.2309 92.3247 75.2253 92.3401 75.2142C92.3555 75.2032 92.3668 75.1873 92.3721 75.169L96.1734 63.0821C96.1773 63.0689 96.1779 63.0549 96.1753 63.0415C96.1726 63.028 96.1667 63.0153 96.1581 63.0046C96.1495 62.9939 96.1384 62.9854 96.1258 62.9799C96.1131 62.9744 96.0994 62.9721 96.0857 62.9731L87.1859 63.6536C87.168 63.6547 87.1509 63.6615 87.137 63.673C87.1232 63.6844 87.1133 63.7 87.1088 63.7174L84.1662 74.7251ZM73.8416 74.1297C73.8377 74.1468 73.8376 74.1646 73.8413 74.1817C73.8451 74.1989 73.8525 74.215 73.8632 74.229C73.8738 74.2429 73.8874 74.2543 73.903 74.2624C73.9186 74.2705 73.9357 74.2751 73.9533 74.2759L82.3799 74.7038C82.4072 74.7054 82.4343 74.6976 82.4565 74.6816C82.4788 74.6656 82.4949 74.6425 82.5021 74.6161L85.4155 63.938C85.4202 63.9196 85.4205 63.9004 85.4163 63.8819C85.4121 63.8633 85.4035 63.8461 85.3913 63.8316C85.3791 63.817 85.3636 63.8056 85.3461 63.7982C85.3286 63.7908 85.3096 63.7877 85.2906 63.7892L75.9709 64.4856C75.9447 64.4874 75.9199 64.4978 75.9002 64.5151C75.8805 64.5324 75.8671 64.5556 75.8619 64.5813L73.8416 74.1297ZM63.145 73.7097C66.0548 73.8833 68.978 74.0295 71.9144 74.1483C71.9763 74.1503 72.037 74.1304 72.086 74.092C72.135 74.0537 72.1693 73.9993 72.1829 73.9383L74.1341 64.9774C74.1428 64.937 74.1421 64.8951 74.1319 64.855C74.1216 64.815 74.1022 64.7779 74.0751 64.7467C74.048 64.7154 74.014 64.6909 73.9758 64.6752C73.9375 64.6594 73.8962 64.6527 73.8549 64.6558L63.9504 65.4399C63.8912 65.4444 63.8353 65.4686 63.7914 65.5086C63.7476 65.5486 63.7184 65.6021 63.7085 65.6606L62.4193 73.3721C62.4132 73.4092 62.4151 73.4472 62.4247 73.4836C62.4343 73.5199 62.4514 73.5539 62.475 73.5832C62.4985 73.6125 62.528 73.6366 62.5614 73.6538C62.5949 73.671 62.6316 73.681 62.6691 73.6831C62.8322 73.6902 62.9908 73.699 63.145 73.7097ZM51.6189 72.9733C51.6167 72.9925 51.6184 73.0119 51.624 73.0303C51.6296 73.0487 51.6389 73.0658 51.6514 73.0806C51.6638 73.0953 51.6792 73.1072 51.6964 73.1158C51.7137 73.1243 51.7326 73.1292 51.7518 73.1302L60.5798 73.5582C60.6142 73.5599 60.6482 73.549 60.6751 73.5275C60.7021 73.5059 60.7202 73.4752 60.726 73.4412L62.087 65.7828C62.0907 65.7618 62.0895 65.7401 62.0836 65.7195C62.0776 65.699 62.0671 65.68 62.0527 65.6641C62.0384 65.6482 62.0206 65.6358 62.0008 65.6278C61.9809 65.6199 61.9595 65.6165 61.9381 65.618L52.4615 66.3304C52.4286 66.3327 52.3976 66.3465 52.3738 66.3693C52.35 66.3921 52.335 66.4226 52.3313 66.4554L51.6189 72.9733ZM42.0812 72.5347C42.0812 72.5634 42.0922 72.5911 42.112 72.6119C42.1318 72.6326 42.1588 72.645 42.1875 72.6464L49.8485 72.992C49.8769 72.9935 49.9047 72.9842 49.9265 72.9659C49.9482 72.9476 49.9621 72.9218 49.9655 72.8936L50.7364 66.6361C50.7384 66.6197 50.7367 66.603 50.7315 66.5873C50.7263 66.5716 50.7176 66.5572 50.7062 66.5453C50.6947 66.5333 50.6808 66.524 50.6653 66.5182C50.6498 66.5123 50.6332 66.5099 50.6167 66.5112L42.2008 67.189C42.1731 67.1917 42.1473 67.2046 42.1286 67.2253C42.11 67.2459 42.0997 67.2728 42.0998 67.3007L42.0812 72.5347ZM37.6659 72.3885C37.6696 72.4134 37.6821 72.4362 37.7011 72.4527C37.7201 72.4693 37.7444 72.4786 37.7695 72.4789L40.3161 72.4949C40.3439 72.4949 40.3705 72.484 40.3904 72.4647C40.4102 72.4453 40.4218 72.4189 40.4224 72.3912L40.5182 67.4362C40.5182 67.4216 40.5152 67.4071 40.5094 67.3936C40.5035 67.3802 40.495 67.3681 40.4842 67.3581C40.4735 67.3481 40.4608 67.3405 40.447 67.3356C40.4332 67.3308 40.4185 67.3288 40.4038 67.3299L37.0864 67.5984C37.0721 67.5997 37.0583 67.6039 37.0457 67.6107C37.0331 67.6174 37.022 67.6267 37.0131 67.6379C37.0042 67.649 36.9976 67.6619 36.9937 67.6757C36.9899 67.6894 36.9888 67.7038 36.9907 67.718L37.6659 72.3885ZM35.3506 76.3413C38.3995 76.6842 41.6054 76.5806 44.6862 76.7135C63.7386 77.5304 82.7892 78.3802 101.838 79.2627C102.435 79.2893 103.033 79.2831 103.632 79.2441C103.68 79.2408 103.726 79.225 103.765 79.1984C103.804 79.1718 103.835 79.1352 103.856 79.0926C104.217 78.3306 103.982 77.9292 103.151 77.8884C80.6653 76.8251 61.8132 75.8336 41.1614 74.6826C39.6569 74.5975 38.155 74.6188 36.6451 74.6135C35.5366 74.6081 34.8774 75.0494 35.2363 76.2456C35.244 76.2715 35.2591 76.2945 35.2794 76.3116C35.2998 76.3286 35.3246 76.339 35.3506 76.3413ZM74.5248 102.538C69.0462 102.7 9.66148 104.503 9.59768 104.702C9.59562 104.709 9.59623 104.717 9.59946 104.724C9.6027 104.732 9.60848 104.739 9.61647 104.746C9.62445 104.753 9.63445 104.76 9.64586 104.765C9.65726 104.77 9.66982 104.774 9.68274 104.776C13.4113 105.45 17.1453 106.091 20.8845 106.701C22.6815 106.993 24.1621 106.916 26.0282 106.86C33.8398 106.628 48.3165 106.239 69.4582 105.693C70.8795 105.656 73.2435 105.561 76.5504 105.409C78.6318 105.311 80.0885 105.305 81.1597 103.71C82.2709 102.05 82.3568 100.263 81.4176 98.3488C78.4705 92.3465 75.5668 86.3212 72.7066 80.2728C72.6866 80.2294 72.655 80.1924 72.6152 80.1656C72.5753 80.1389 72.5288 80.1236 72.4806 80.1213L70.3354 80.007L69.0143 79.8874C68.6953 79.859 68.6076 79.9875 68.7512 80.2728C71.5157 85.7364 74.2608 91.2052 76.9863 96.6794C78.3154 99.3429 78.0284 101.967 74.5248 102.538ZM79.182 88.6383C79.1886 88.6514 79.1984 88.6626 79.2105 88.671C79.2225 88.6794 79.2365 88.6845 79.2511 88.6861L108.789 92.2082C108.806 92.2104 108.822 92.2079 108.837 92.2012C108.852 92.1945 108.864 92.1838 108.873 92.1703C108.883 92.1568 108.888 92.1409 108.888 92.1246C108.889 92.1083 108.885 92.0922 108.877 92.078L103.223 81.485C103.216 81.4711 103.205 81.4594 103.192 81.451C103.179 81.4426 103.164 81.4378 103.149 81.4371L75.2 80.1771C75.1848 80.1761 75.1695 80.1791 75.1558 80.1858C75.1421 80.1925 75.1304 80.2027 75.1218 80.2153C75.1132 80.2279 75.108 80.2426 75.1068 80.2578C75.1056 80.273 75.1084 80.2883 75.1149 80.3021L79.182 88.6383ZM84.3709 102.347L97.9464 103.979C98.2849 104.02 98.3496 103.905 98.1405 103.636L89.2035 92.1577C89.1592 92.1031 89.0953 92.0678 89.0254 92.0594L80.8381 91.0838C80.5262 91.0466 80.4349 91.1715 80.5643 91.4586C81.8066 94.1948 82.6094 95.8855 82.9726 96.5305C83.9527 98.2637 84.3407 100.105 84.1369 102.054C84.1302 102.124 84.1508 102.193 84.1945 102.248C84.2382 102.303 84.3015 102.338 84.3709 102.347ZM101.158 104.388C101.172 104.405 101.192 104.416 101.213 104.417L104.595 104.776C104.611 104.778 104.628 104.775 104.642 104.767C104.657 104.76 104.669 104.748 104.677 104.733C104.684 104.718 104.688 104.702 104.686 104.685C104.684 104.669 104.677 104.653 104.666 104.641L94.2409 92.5964C94.2271 92.5812 94.2081 92.5717 94.1877 92.5698L91.9335 92.3491C91.9173 92.3472 91.9009 92.3501 91.8864 92.3575C91.8718 92.3649 91.8598 92.3765 91.8518 92.3907C91.8439 92.4049 91.8403 92.4212 91.8416 92.4375C91.8429 92.4537 91.849 92.4693 91.8591 92.482L101.158 104.388ZM107.601 104.931L115.297 105.895C115.365 105.904 115.434 105.886 115.49 105.844C115.545 105.803 115.581 105.742 115.592 105.675C115.698 105.042 115.581 104.534 115.262 103.934C113.635 100.873 112.014 97.81 110.398 94.7442C110.377 94.7064 110.348 94.6742 110.313 94.6501C110.278 94.6261 110.237 94.6109 110.196 94.606L97.8454 93.0243C97.4449 92.9729 97.3616 93.112 97.5955 93.4417C97.7373 93.6419 97.8888 93.8351 98.0501 94.0212C101.158 97.647 104.287 101.254 107.436 104.843C107.479 104.892 107.538 104.924 107.601 104.931ZM109.467 107.32C107.224 107.304 104.616 106.98 102.476 106.727C96.1388 105.981 89.7963 105.224 83.4485 104.455C83.4002 104.449 83.3514 104.457 83.3074 104.476C83.2634 104.496 83.2258 104.527 83.1986 104.566C82.0361 106.25 80.4332 107.249 78.3899 107.565C78.3501 107.571 78.3137 107.591 78.2874 107.621C78.261 107.652 78.2465 107.691 78.2463 107.732V107.833C78.246 107.869 78.2527 107.904 78.2663 107.937C78.2798 107.97 78.2998 108 78.3251 108.025C78.3504 108.05 78.3804 108.07 78.4135 108.083C78.4465 108.096 78.4819 108.102 78.5175 108.102C81.197 108.041 109.459 107.48 109.518 107.379C109.521 107.373 109.522 107.366 109.521 107.359C109.52 107.352 109.516 107.346 109.511 107.34C109.506 107.334 109.5 107.329 109.492 107.326C109.484 107.322 109.476 107.32 109.467 107.32ZM75.9026 107.87C75.9018 107.84 75.8951 107.81 75.8829 107.783C75.8707 107.755 75.8532 107.731 75.8315 107.71C75.8097 107.689 75.784 107.673 75.756 107.662C75.728 107.652 75.6981 107.647 75.6681 107.647L66.3356 107.892C66.275 107.893 66.2175 107.919 66.1758 107.963C66.134 108.007 66.1115 108.066 66.1131 108.126L66.1133 108.137C66.1141 108.167 66.1208 108.196 66.133 108.224C66.1452 108.251 66.1627 108.276 66.1845 108.297C66.2063 108.317 66.2319 108.334 66.26 108.344C66.288 108.355 66.3179 108.36 66.3479 108.359L75.6803 108.115C75.7409 108.113 75.7984 108.088 75.8402 108.044C75.8819 108 75.9045 107.941 75.9029 107.881L75.9026 107.87ZM33.6546 108.894C35.689 109.158 37.9095 109.259 40.3161 109.197C47.0893 109.022 53.8624 108.831 60.6356 108.625C61.1593 108.609 62.2146 108.66 62.6638 108.439C62.7347 108.404 62.795 108.368 62.8446 108.333C63.2238 108.064 63.1813 107.935 62.717 107.948L32.8837 108.732C32.5063 108.741 32.5036 108.777 32.8758 108.841C32.9449 108.853 33.0149 108.861 33.0857 108.865C33.4597 108.884 33.6493 108.894 33.6546 108.894ZM12.1522 112.615C11.5887 112.424 11.5063 112.571 11.905 113.057C11.9405 113.1 11.9889 113.131 12.0434 113.145C12.0979 113.159 12.1556 113.155 12.2081 113.134L12.4473 113.038C13.1526 112.762 13.1269 112.625 12.3702 112.629H12.24C12.2098 112.629 12.1806 112.624 12.1522 112.615ZM12.3729 126.733C17.1364 130.803 24.1515 127.64 24.4678 121.451C24.544 119.933 24.1541 118.465 23.2982 117.049C23.1156 116.746 22.9579 116.759 22.825 117.087L22.3253 118.32C22.2995 118.385 22.2995 118.457 22.3253 118.522C22.9898 120.109 23.4072 121.398 22.7373 122.964C21.9345 124.841 20.0259 125.986 17.9737 125.582C14.2522 124.846 13.3351 120.005 16.4399 117.873C17.7531 116.973 19.1894 116.803 20.7489 117.363C20.7841 117.376 20.8216 117.381 20.8588 117.378C20.8961 117.375 20.9324 117.364 20.9652 117.346C20.9981 117.329 21.0268 117.304 21.0496 117.274C21.0723 117.245 21.0885 117.211 21.0972 117.174L21.8308 114.099C21.8391 114.065 21.8406 114.03 21.8351 113.995C21.8297 113.961 21.8175 113.928 21.7992 113.898C21.7809 113.868 21.7569 113.843 21.7285 113.822C21.7002 113.802 21.6681 113.788 21.6341 113.78C21.2248 113.682 20.9908 113.844 20.9324 114.264C20.926 114.307 20.909 114.348 20.8829 114.384C20.8567 114.419 20.8222 114.447 20.7824 114.466C20.7426 114.485 20.6989 114.493 20.655 114.491C20.6111 114.488 20.5685 114.475 20.531 114.452C19.6396 113.906 18.6959 113.583 17.7 113.482C14.5579 113.163 11.5382 115.353 10.4643 118.203C9.32654 121.215 9.86616 124.593 12.3729 126.733ZM107.665 114.777C103.47 113.761 100.512 115.065 98.7891 118.687C98.0678 120.204 97.9836 121.888 98.5366 123.74C99.2064 126.903 102.356 128.828 105.435 128.562C110.35 128.139 112.79 122.788 110.719 118.58C110.703 118.548 110.681 118.518 110.653 118.495C110.625 118.471 110.593 118.453 110.558 118.443C110.523 118.432 110.486 118.429 110.45 118.434C110.413 118.438 110.378 118.45 110.347 118.469L109.972 118.689C109.942 118.708 109.915 118.731 109.894 118.76C109.873 118.788 109.858 118.821 109.849 118.855C109.841 118.89 109.839 118.925 109.845 118.96C109.851 118.995 109.863 119.029 109.882 119.059C111.309 121.35 110.844 124.71 108.276 125.848C106.054 126.834 103.151 125.582 102.564 123.126C101.617 119.179 105.336 116.589 108.888 118.206C108.916 118.22 108.942 118.238 108.965 118.262L109.092 118.389C109.326 118.623 109.476 118.579 109.542 118.256L110.437 113.902C110.452 113.833 110.438 113.762 110.4 113.703C110.361 113.644 110.301 113.603 110.233 113.588C110.064 113.555 109.912 113.584 109.776 113.676C109.637 113.77 109.546 113.953 109.502 114.224C109.449 114.543 109.397 114.862 109.348 115.181C109.341 115.222 109.325 115.26 109.301 115.294C109.277 115.328 109.246 115.356 109.209 115.375C109.173 115.395 109.133 115.406 109.092 115.407C109.051 115.408 109.01 115.4 108.973 115.383L107.665 114.777ZM65.5374 122.812C66.9267 124.033 68.4836 124.608 70.2079 124.535C75.301 124.32 78.3261 119.452 76.6434 114.731C76.6234 114.677 76.5867 114.63 76.5388 114.599C76.4909 114.567 76.4343 114.552 76.3776 114.556L75.5456 114.604C75.5013 114.606 75.4583 114.62 75.4205 114.643C75.3828 114.667 75.3516 114.699 75.3296 114.738C75.3077 114.776 75.2958 114.82 75.295 114.864C75.2941 114.909 75.3044 114.953 75.3249 114.992C76.0639 116.411 76.1304 117.795 75.5243 119.144C73.3924 123.889 66.3694 121.579 67.4991 116.169C67.5523 115.916 67.7003 115.54 67.943 115.042C67.9631 115.002 67.9721 114.956 67.9694 114.911C67.9667 114.865 67.9522 114.821 67.9274 114.783C67.9026 114.744 67.8682 114.713 67.8277 114.691C67.7872 114.67 67.7418 114.659 67.6958 114.66L63.6925 114.774C63.6308 114.776 63.5717 114.8 63.5252 114.841C63.4787 114.882 63.4477 114.938 63.4374 115C62.9429 118.099 63.0546 120.633 65.5374 122.812ZM61.9062 115.122C61.5412 116.834 61.6448 118.511 62.2172 120.154C62.2199 120.162 62.3023 120.245 62.3103 120.25C62.3723 120.276 62.3936 120.246 62.3741 120.159C62.0001 118.474 62.0365 116.796 62.4831 115.125C62.4923 115.089 62.4942 115.053 62.4888 115.017C62.4833 114.98 62.4705 114.946 62.4512 114.915C62.2119 114.529 61.97 114.83 61.9062 115.122ZM10.7992 115.008L10.6849 115.024C10.623 115.032 10.5658 115.061 10.5227 115.106C8.42541 117.379 7.82199 120.779 8.90123 123.605C8.90689 123.62 8.91634 123.633 8.92854 123.643C8.94074 123.653 8.95521 123.659 8.97034 123.66C9.02705 123.667 9.04831 123.647 9.03414 123.599C8.19945 120.532 9.11654 117.788 10.9959 115.348C11.205 115.077 11.1394 114.964 10.7992 115.008ZM46.4114 116.05L46.0419 117.903C45.9516 118.358 45.7221 118.469 45.3535 118.235C39.633 114.622 33.7769 120.675 34.9757 126.446C36.3314 132.967 45.069 134.115 48.3998 128.424C49.5083 126.531 49.6731 124.099 48.7347 122.012C48.5557 121.617 48.3705 121.224 48.1792 120.832C48.0002 120.467 47.838 120.475 47.6927 120.856L47.3312 121.802C47.3179 121.839 47.3126 121.878 47.3158 121.917C47.319 121.956 47.3306 121.994 47.3498 122.028C48.8809 124.769 48.1738 128.163 44.9973 129.033C39.2821 130.596 37.509 121.768 43.2508 120.702C44.0554 120.553 44.8626 120.641 45.6724 120.965C45.7067 120.979 45.7434 120.985 45.7803 120.984C45.8172 120.983 45.8534 120.974 45.8867 120.958C45.92 120.942 45.9495 120.919 45.9735 120.891C45.9975 120.863 46.0154 120.83 46.026 120.795C46.524 119.092 46.8695 117.359 47.0627 115.595C47.0696 115.526 47.0497 115.457 47.007 115.402C46.9644 115.348 46.9024 115.312 46.8341 115.303C44.8883 115.03 42.938 114.974 40.9833 115.135C39.7552 115.236 38.5218 115.334 37.2831 115.428C37.2411 115.431 37.2005 115.444 37.1646 115.466C37.1287 115.488 37.0984 115.518 37.0764 115.554C37.0543 115.589 37.0411 115.63 37.0377 115.672C37.0344 115.714 37.041 115.756 37.0571 115.795L37.1635 116.05C37.1905 116.115 37.242 116.166 37.3067 116.193C37.3714 116.22 37.4441 116.22 37.509 116.193C39.8323 115.247 42.4374 114.936 44.9069 115.47C45.3357 115.563 45.7673 115.651 46.2014 115.736C46.2711 115.75 46.3324 115.791 46.3717 115.85C46.4111 115.909 46.4254 115.981 46.4114 116.05ZM74.1454 117.006C74.1256 116.723 74.0505 116.448 73.9241 116.194C73.7978 115.941 73.6228 115.715 73.4092 115.529C73.1955 115.343 72.9474 115.202 72.6789 115.112C72.4104 115.022 72.1269 114.986 71.8444 115.006L71.1603 115.053C70.8779 115.073 70.6021 115.148 70.3487 115.275C70.0954 115.401 69.8694 115.576 69.6837 115.79C69.4979 116.003 69.3561 116.252 69.2663 116.52C69.1764 116.788 69.1404 117.072 69.1601 117.354L69.189 117.768C69.2088 118.051 69.284 118.326 69.4103 118.58C69.5366 118.833 69.7116 119.059 69.9253 119.245C70.1389 119.43 70.3871 119.572 70.6556 119.662C70.924 119.752 71.2076 119.788 71.49 119.768L72.1741 119.72C72.4566 119.701 72.7323 119.626 72.9857 119.499C73.239 119.373 73.465 119.198 73.6508 118.984C73.8365 118.771 73.9783 118.522 74.0682 118.254C74.158 117.985 74.1941 117.702 74.1743 117.419L74.1454 117.006ZM99.1001 115.502C97.04 118.065 95.9156 121.276 97.2606 124.479C97.2647 124.49 97.2701 124.499 97.2761 124.506C97.2822 124.513 97.2888 124.517 97.2952 124.519L97.3191 124.524C97.3247 124.526 97.3304 124.525 97.3357 124.523C97.341 124.52 97.3456 124.516 97.3491 124.511C97.3526 124.505 97.3549 124.498 97.3557 124.491C97.3565 124.483 97.3558 124.476 97.3536 124.468C96.5012 121.174 97.1631 118.254 99.3393 115.707C99.4333 115.597 99.4722 115.532 99.4563 115.51C99.4356 115.482 99.4089 115.46 99.3782 115.444C99.3474 115.428 99.3135 115.419 99.2791 115.418C99.2447 115.418 99.2106 115.425 99.1796 115.439C99.1486 115.454 99.1214 115.475 99.1001 115.502ZM36.0603 118.469C36.0183 118.434 35.9649 118.417 35.911 118.421C35.8571 118.424 35.8069 118.448 35.7706 118.487C33.3445 121.064 32.6985 124.077 33.8327 127.525C33.843 127.554 33.864 127.578 33.8912 127.592C34.0082 127.641 34.0418 127.571 33.9922 127.379C33.1788 124.12 34.0799 121.635 36.039 119.059C36.2287 118.809 36.2357 118.612 36.0603 118.469ZM16.9929 119.713C16.1759 120.704 16.1254 121.735 16.8413 122.807C19.1248 125.215 22.9048 122.376 20.7729 119.902C19.8088 118.782 18.5488 118.719 16.9929 119.713ZM105.094 123.87C108.359 126.079 110.73 120.728 107.317 119.734C104.403 119.046 102.795 122.113 105.094 123.87ZM41.9616 123.45C41.4423 124.079 41.313 124.792 41.5735 125.588C41.717 126.343 42.1361 126.852 42.8308 127.116C46.5922 128.554 47.8495 122.828 44.1519 122.557C43.2641 122.492 42.534 122.789 41.9616 123.45Z" fill="#2E50A2"/>
<path d="M88.9529 8.51939L86.316 8.48217C86.2547 8.48122 86.1957 8.45893 86.1491 8.41914C86.1025 8.37935 86.0713 8.32456 86.0608 8.2642C85.8322 7.02547 86.0865 5.8842 86.8237 4.84041C88.4239 2.57914 90.5532 1.75421 93.2114 2.3656C93.7803 2.49674 93.782 2.63408 93.2167 2.77762C91.4162 3.23838 90.1668 4.36458 89.4686 6.15622C89.1975 6.84913 89.1142 7.53407 89.2188 8.21103C89.225 8.24933 89.2227 8.28852 89.2122 8.32585C89.2016 8.36319 89.183 8.39777 89.1577 8.42715C89.1324 8.45654 89.1009 8.48002 89.0655 8.49595C89.0302 8.51188 88.9917 8.51989 88.9529 8.51939Z" fill="#6188E7"/>
<path d="M127.269 9.822C126.977 9.79719 126.669 9.76884 126.347 9.73694C126.282 9.7298 126.223 9.69911 126.179 9.65064C126.136 9.60217 126.111 9.53927 126.11 9.47378C126.03 2.38429 136.403 -0.345703 139.032 6.68264C139.75 8.59656 139.287 10.7923 137.83 12.2117C135.884 14.1062 133.525 14.473 130.751 13.3123C130.693 13.2875 130.646 13.2433 130.617 13.1874C130.588 13.1315 130.58 13.0675 130.595 13.0066C131.102 10.8374 128.96 9.96555 127.269 9.822Z" fill="#6188E7"/>
<path d="M92.3747 9.36746C89.7431 7.42696 92.4439 4.72886 94.7432 4.71557C99.5688 4.68722 109.591 4.68722 124.81 4.71557C125.124 4.71734 125.199 4.85202 125.036 5.11962C124.232 6.45582 123.9 7.91164 124.042 9.48708C124.046 9.52395 124.041 9.5611 124.029 9.59616C124.017 9.63123 123.998 9.66344 123.973 9.69071C123.948 9.71799 123.918 9.73974 123.884 9.75456C123.85 9.76939 123.813 9.77697 123.776 9.77682L93.5975 9.74493C93.1261 9.74493 92.7185 9.61911 92.3747 9.36746Z" fill="#6188E7"/>
<path d="M85.0729 16.9726C84.8655 16.9549 84.6582 16.9407 84.4508 16.9301C84.4104 16.9285 84.3709 16.9174 84.3355 16.8979C84.3 16.8783 84.2695 16.8507 84.2464 16.8173C84.2233 16.7839 84.2081 16.7455 84.202 16.7051C84.196 16.6648 84.1993 16.6235 84.2116 16.5845C84.846 14.5873 85.608 12.6406 86.4977 10.7444C86.5219 10.6946 86.5606 10.6534 86.6086 10.6263C86.6566 10.5992 86.7115 10.5876 86.7661 10.5929L88.7944 10.8082C88.8345 10.8121 88.8731 10.8252 88.9073 10.8465C88.9415 10.8678 88.9704 10.8968 88.9917 10.9312C89.0131 10.9656 89.0262 11.0045 89.0303 11.045C89.0343 11.0854 89.0291 11.1263 89.015 11.1644L86.9363 16.8211C86.9181 16.8701 86.8862 16.9126 86.8446 16.9433C86.803 16.974 86.7535 16.9916 86.7024 16.9939C86.1618 17.0258 85.6187 17.0187 85.0729 16.9726Z" fill="#191718"/>
<path d="M108.625 70.0121C107.528 72.1094 107.942 75.7379 107.953 78.1303C107.958 79.6349 108.24 80.7327 108.873 81.998C112.267 88.8084 115.837 95.5204 119.309 102.291C119.918 103.48 120.227 104.34 120.234 104.869C120.268 107.054 118.798 108.822 117.052 109.944C116.217 110.478 115.364 110.627 114.399 110.643C114.259 110.645 114.221 110.696 114.285 110.797C114.296 110.813 114.31 110.827 114.326 110.837C114.343 110.847 114.361 110.853 114.38 110.856C114.797 110.916 115.18 111.06 115.529 111.289C111.518 111.454 107.185 111.464 103.503 111.573C82.2762 112.204 61.0485 112.812 39.8199 113.397C37.5711 113.458 35.4312 113.442 33.1159 113.187C22.7736 112.037 13.9598 110.9 6.67453 109.776C4.98656 109.516 4.00302 107.291 5.4358 105.981C5.48224 105.938 5.54271 105.913 5.60593 105.911C5.8877 105.903 6.13137 105.996 6.33694 106.191C6.37238 106.222 6.41225 106.245 6.45656 106.257C7.56769 106.532 8.6877 106.766 9.81656 106.959C14.3143 107.731 21.7892 108.967 32.2413 110.664C35.0351 111.116 37.3823 111.34 40.3409 111.249C64.0275 110.533 87.7167 109.978 111.409 109.585C114.141 109.54 116.938 109.434 117.711 106.273C118.033 104.954 117.605 103.721 116.975 102.543C113.058 95.2209 109.137 87.8869 105.21 80.5413C105.186 80.4997 105.175 80.4525 105.177 80.4047C105.179 80.3569 105.194 80.3103 105.22 80.2702C106.207 78.778 106.01 77.4471 104.627 76.2775C104.587 76.2437 104.558 76.1988 104.543 76.1487C104.529 76.0985 104.529 76.0453 104.545 75.9958C109.41 60.3441 114.62 44.8041 119.721 29.2296C120.297 27.4716 120.823 25.7004 121.3 23.9158C121.31 23.8776 121.328 23.8421 121.354 23.8117C121.38 23.7814 121.412 23.757 121.449 23.7404C121.986 23.4985 122.634 23.2938 123.049 22.8977C124.25 21.7458 124.413 20.4016 123.538 18.8652C123.519 18.832 123.507 18.7951 123.504 18.7569C123.501 18.7188 123.506 18.6804 123.519 18.6446L125.944 11.9458C125.965 11.8865 126.007 11.8368 126.062 11.8057C126.116 11.7745 126.18 11.7639 126.241 11.7757L128.017 12.1C128.055 12.1068 128.091 12.1219 128.122 12.1442C128.154 12.1666 128.18 12.1956 128.199 12.2294C128.218 12.2631 128.229 12.3006 128.232 12.3394C128.236 12.3781 128.23 12.4171 128.217 12.4536C122.321 28.4667 117.318 44.7829 111.717 60.897C110.662 63.9292 109.632 66.9675 108.625 70.0121Z" fill="#191718"/>
<path d="M10.3283 37.0902C9.60525 36.9839 9.59816 36.8448 10.307 36.6729C34.1442 30.862 58.0532 25.0582 82.0339 19.2615C82.7321 19.0932 83.441 19.0276 84.1605 19.0648C92.548 19.5025 100.935 19.9598 109.321 20.4365C110.299 20.4932 110.311 20.6332 109.358 20.8565C106.994 21.4112 104.637 21.98 102.287 22.563C101.52 22.7527 100.617 22.8298 99.5782 22.7943C94.6126 22.6242 89.6506 22.3982 84.6921 22.1165C84.086 22.0819 82.9031 22.26 82.1296 22.4434C51.9889 29.5498 31.0403 34.5082 19.2838 37.3189C17.8378 37.6644 16.825 37.8744 15.3098 37.7149C13.6847 37.5448 12.0242 37.3366 10.3283 37.0902Z" fill="#6188E7"/>
<path d="M2.34937 39.5407C2.03747 39.0942 2.24126 38.7043 2.96075 38.3711C3.00761 38.3503 3.0583 38.3429 3.10695 38.3499C12.5525 39.5638 21.7606 40.7077 30.7312 41.7816C31.9141 41.9225 33.4905 41.6221 34.8727 41.2845C63.2652 34.32 91.6205 27.2172 120.061 20.4441C120.49 20.343 120.92 20.25 121.353 20.165C121.416 20.153 121.481 20.1643 121.536 20.1968C123.963 21.5951 118.843 22.2198 118.237 22.366C88.5689 29.5538 62.0478 36.1808 33.9849 43.1107C32.6584 43.4404 31.5765 43.4404 30.0932 43.2649C21.4682 42.2353 12.8423 41.2092 4.21544 40.1867C3.5243 40.107 2.75873 40.1229 2.34937 39.5407Z" fill="#191718"/>
<path d="M109.452 26.6856C109.466 26.6417 109.492 26.6022 109.526 26.5711C109.56 26.5399 109.601 26.518 109.646 26.5075L113.91 25.5027C114.214 25.4318 114.319 25.5452 114.223 25.843L108.814 42.7174C108.799 42.7644 108.771 42.8062 108.734 42.8381C108.697 42.8701 108.652 42.8908 108.604 42.8981L104.486 43.5547C104.441 43.5619 104.396 43.5575 104.353 43.5418C104.311 43.5261 104.273 43.4997 104.243 43.4651C104.214 43.4305 104.193 43.3888 104.184 43.344C104.175 43.2992 104.177 43.2528 104.191 43.2092L109.452 26.6856Z" fill="#191718"/>
<path d="M96.5107 29.8116L107.574 27.0657C107.589 27.0621 107.604 27.0625 107.619 27.0669C107.633 27.0712 107.646 27.0794 107.657 27.0905C107.667 27.1016 107.674 27.1153 107.677 27.1301C107.681 27.1449 107.68 27.1603 107.675 27.1747L102.266 43.8418C102.261 43.8562 102.252 43.869 102.24 43.8788C102.228 43.8886 102.214 43.8951 102.199 43.8976L92.3187 45.5829C92.3046 45.5852 92.2902 45.5839 92.2768 45.5792C92.2634 45.5744 92.2513 45.5664 92.2418 45.5558C92.2323 45.5452 92.2256 45.5324 92.2223 45.5186C92.219 45.5047 92.2192 45.4903 92.223 45.4766L96.4495 29.8728C96.4533 29.8581 96.461 29.8446 96.4718 29.8339C96.4825 29.8231 96.496 29.8154 96.5107 29.8116Z" fill="#191718"/>
<path d="M83.0077 33.1507L94.5125 30.2505C94.5334 30.245 94.5553 30.2452 94.5761 30.2509C94.5969 30.2566 94.6158 30.2677 94.6309 30.2831C94.646 30.2985 94.6568 30.3176 94.6622 30.3385C94.6675 30.3594 94.6672 30.3813 94.6614 30.4021L90.4082 45.7852C90.4019 45.8077 90.3893 45.8279 90.3719 45.8435C90.3544 45.859 90.3329 45.8692 90.3098 45.8729L79.8896 47.6832C79.8699 47.6867 79.8496 47.6853 79.8305 47.6791C79.8114 47.6729 79.7941 47.6621 79.7802 47.6476C79.7663 47.6332 79.7561 47.6155 79.7506 47.5962C79.7451 47.5769 79.7445 47.5566 79.7487 47.537L82.9173 33.2437C82.9222 33.2213 82.9332 33.2007 82.9492 33.1842C82.9651 33.1678 82.9854 33.1561 83.0077 33.1507Z" fill="#191718"/>
<path d="M69.0323 36.5662L81.074 33.5916C81.0891 33.588 81.1048 33.5883 81.1197 33.5925C81.1346 33.5967 81.1481 33.6046 81.1591 33.6156C81.17 33.6265 81.1779 33.6401 81.1821 33.655C81.1863 33.6698 81.1866 33.6856 81.183 33.7006L77.9719 47.8929C77.968 47.9101 77.9592 47.9259 77.9464 47.9382C77.9336 47.9505 77.9175 47.9588 77.9001 47.962L66.701 49.9423C66.6866 49.9448 66.6719 49.9436 66.658 49.9391C66.6441 49.9346 66.6316 49.9268 66.6214 49.9163C66.6112 49.9059 66.6037 49.8931 66.5995 49.8791C66.5953 49.8651 66.5946 49.8503 66.5974 49.836L68.9658 36.6379C68.9689 36.6209 68.9767 36.605 68.9885 36.5923C69.0003 36.5796 69.0155 36.5705 69.0323 36.5662Z" fill="#191718"/>
<path d="M55.6528 39.8758L67.1257 37.0236C67.1389 37.0203 67.1527 37.0204 67.1659 37.0238C67.179 37.0272 67.1912 37.0338 67.2012 37.043C67.2112 37.0522 67.2187 37.0637 67.2232 37.0766C67.2277 37.0894 67.2289 37.1032 67.2267 37.1166L64.8582 50.1791C64.8553 50.1957 64.8473 50.2109 64.8354 50.2228C64.8235 50.2346 64.8083 50.2426 64.7918 50.2456L54.2838 52.0904C54.2712 52.0925 54.2583 52.0917 54.2461 52.088C54.2339 52.0843 54.2227 52.0778 54.2134 52.0691C54.2042 52.0603 54.1971 52.0495 54.1927 52.0375C54.1883 52.0255 54.1867 52.0127 54.1881 52L55.5917 39.945C55.5938 39.9287 55.6008 39.9134 55.6117 39.901C55.6226 39.8887 55.6369 39.88 55.6528 39.8758Z" fill="#191718"/>
<path d="M42.7969 44.5598C42.8129 44.115 42.8261 43.6719 42.8368 43.2307C42.8381 43.1719 42.859 43.1152 42.896 43.0695C42.9331 43.0238 42.9842 42.9916 43.0415 42.9781L53.5707 40.4156C53.6123 40.4053 53.6558 40.4053 53.6974 40.4156C53.739 40.4259 53.7774 40.4462 53.8094 40.4748C53.8414 40.5033 53.8659 40.5393 53.8808 40.5794C53.8957 40.6196 53.9006 40.6629 53.895 40.7053L52.5021 52.1862C52.495 52.2426 52.47 52.2953 52.4307 52.3364C52.3915 52.3776 52.3401 52.405 52.2841 52.4148L42.8873 54.1134C42.8487 54.12 42.8091 54.1181 42.7713 54.1078C42.7335 54.0974 42.6984 54.0789 42.6685 54.0536C42.6386 54.0283 42.6146 53.9967 42.5982 53.9611C42.5819 53.9255 42.5734 53.8868 42.5736 53.8476C42.602 50.7339 42.6764 47.638 42.7969 44.5598Z" fill="#191718"/>
<path d="M10.3277 73.6432C8.71148 73.4678 7.58705 71.8489 7.39034 70.3497C6.55566 63.9433 5.52959 57.5662 4.70554 51.1626C4.33516 48.2935 3.94794 45.4252 3.54389 42.5579C3.53832 42.5176 3.54206 42.4766 3.55483 42.438C3.5676 42.3994 3.58907 42.3642 3.61757 42.3352C3.64607 42.3062 3.68085 42.2841 3.71923 42.2706C3.75761 42.2571 3.79857 42.2527 3.83895 42.2575L31.5908 45.4979C31.6495 45.5049 31.7043 45.5311 31.7466 45.5725C31.7889 45.6138 31.8164 45.668 31.8247 45.7265L35.6127 72.5241C35.621 72.5845 35.6086 72.6458 35.5777 72.698C35.5468 72.7501 35.4991 72.7901 35.4426 72.8112C34.0125 73.3446 33.3266 74.3698 33.3851 75.8867C33.3869 75.9251 33.3803 75.9635 33.3659 75.9991C33.3514 76.0347 33.3294 76.0667 33.3013 76.093C33.2733 76.1193 33.2399 76.1392 33.2034 76.1513C33.1669 76.1634 33.1283 76.1675 33.0901 76.1632C25.4982 75.309 17.9107 74.469 10.3277 73.6432ZM7.58705 67.2315C8.02034 69.9429 9.71629 71.7585 12.4038 72.0163C14.0891 72.1776 19.5783 72.8386 28.8715 73.9994C31.0592 74.2705 32.593 72.3726 32.359 70.3151C31.7051 64.5893 31.0246 58.8422 30.5594 53.1004C30.2404 49.1663 29.1931 46.5001 24.6768 46.189C22.0044 46.003 16.3122 45.3189 7.60034 44.1369C5.5349 43.8578 4.43971 46.0136 4.68959 47.8106C5.58984 54.2931 6.55566 60.7667 7.58705 67.2315Z" fill="#191718"/>
<path d="M40.8113 54.4243L35.4443 55.4398C35.4309 55.4424 35.417 55.4423 35.4035 55.4394C35.3901 55.4365 35.3774 55.431 35.3662 55.423C35.355 55.415 35.3456 55.4049 35.3384 55.3931C35.3313 55.3814 35.3266 55.3683 35.3247 55.3547L33.8653 45.3359C33.8619 45.3114 33.8676 45.2865 33.8813 45.2659C33.8951 45.2453 33.9159 45.2305 33.9398 45.2242L41.0452 43.4459C41.0603 43.4422 41.0761 43.442 41.0912 43.4454C41.1064 43.4488 41.1206 43.4557 41.1327 43.4654C41.1448 43.4752 41.1544 43.4876 41.1609 43.5018C41.1674 43.5159 41.1706 43.5313 41.1701 43.5469L40.8937 54.326C40.8935 54.3494 40.8851 54.372 40.8701 54.3899C40.8551 54.4079 40.8343 54.42 40.8113 54.4243Z" fill="#191718"/>
<path d="M12.405 72.0162C9.71758 71.7584 8.02164 69.9428 7.58835 67.2314C6.55695 60.7666 5.59113 54.2929 4.69088 47.8104C4.44101 46.0135 5.53619 43.8576 7.60163 44.1368C16.3135 45.3188 22.0057 46.0028 24.6781 46.1889C29.1944 46.4999 30.2417 49.1661 30.5607 53.1003C31.0259 58.8421 31.7064 64.5891 32.3603 70.3149C32.5943 72.3724 31.0605 74.2704 28.8727 73.9992C19.5796 72.8385 14.0904 72.1775 12.405 72.0162ZM10.4486 70.1156C10.8686 70.4789 11.3542 70.6977 11.9053 70.7722C17.4663 71.5297 23.1363 72.1305 28.8222 72.9333C31.0977 73.2549 31.2625 71.2214 31.0817 69.5494C30.4384 63.6198 29.8138 57.6884 29.2077 51.7552C29.0163 49.8732 28.0833 47.7333 25.9487 47.4728C20.012 46.7533 14.0735 46.0365 8.13328 45.3223C5.8286 45.0459 5.491 46.5504 5.76746 48.4431C6.61278 54.2256 7.4953 60.0028 8.41505 65.7747C8.72606 67.7125 9.0743 68.93 10.4486 70.1156Z" fill="#2E50A2"/>
<path d="M103.496 45.3384L108.113 44.6473C108.127 44.6451 108.142 44.6466 108.155 44.6516C108.168 44.6567 108.18 44.6651 108.189 44.6761C108.199 44.6871 108.205 44.7002 108.207 44.7143C108.21 44.7283 108.208 44.7428 108.204 44.7563L102.962 60.7295C102.957 60.7453 102.948 60.7594 102.935 60.7698C102.922 60.7802 102.906 60.7866 102.89 60.788L98.5995 61.1043C98.5858 61.1055 98.572 61.1033 98.5594 61.0978C98.5468 61.0923 98.5358 61.0838 98.5273 61.0729C98.5189 61.0621 98.5133 61.0493 98.511 61.0358C98.5088 61.0222 98.5099 61.0083 98.5144 60.9953L103.429 45.3942C103.434 45.3797 103.443 45.3667 103.455 45.3569C103.466 45.347 103.481 45.3406 103.496 45.3384Z" fill="#191718"/>
<path d="M10.4483 70.116C9.07396 68.9305 8.72573 67.713 8.41472 65.7752C7.49497 60.0033 6.61244 54.2261 5.76713 48.4435C5.49067 46.5509 5.82827 45.0463 8.13295 45.3228C14.0732 46.037 20.0117 46.7538 25.9484 47.4733C28.0829 47.7338 29.016 49.8737 29.2073 51.7557C29.8134 57.6888 30.4381 63.6202 31.0814 69.5498C31.2622 71.2219 31.0973 73.2554 28.8219 72.9338C23.136 72.131 17.466 71.5302 11.905 70.7726C11.3538 70.6982 10.8683 70.4793 10.4483 70.116Z" fill="#6188E7"/>
<path d="M91.7283 47.3401L101.5 45.7159C101.516 45.7134 101.532 45.7149 101.547 45.7203C101.561 45.7257 101.575 45.7348 101.585 45.7468C101.596 45.7588 101.603 45.7732 101.606 45.7888C101.609 45.8043 101.608 45.8204 101.604 45.8355L96.7391 61.1628C96.7335 61.1801 96.7229 61.1953 96.7087 61.2066C96.6946 61.218 96.6774 61.2249 96.6593 61.2266L87.7649 61.9231C87.75 61.9245 87.7349 61.9222 87.721 61.9165C87.7071 61.9108 87.6948 61.9018 87.6852 61.8903C87.6755 61.8788 87.6688 61.8652 87.6655 61.8505C87.6623 61.8358 87.6626 61.8206 87.6666 61.8061L91.6539 47.4092C91.6583 47.3917 91.6676 47.3758 91.6808 47.3636C91.6941 47.3513 91.7105 47.3431 91.7283 47.3401Z" fill="#191718"/>
<path d="M79.3012 49.4455L89.748 47.699C89.7643 47.6963 89.781 47.6976 89.7966 47.703C89.8121 47.7083 89.8261 47.7175 89.8373 47.7297C89.8484 47.7418 89.8563 47.7566 89.8602 47.7726C89.8641 47.7887 89.8639 47.8054 89.8597 47.8213L85.9308 62.0003C85.9254 62.0198 85.914 62.0372 85.8983 62.0501C85.8826 62.0629 85.8633 62.0706 85.8431 62.0721L76.3745 62.7818C76.3591 62.783 76.3437 62.7806 76.3295 62.7748C76.3152 62.7689 76.3025 62.7598 76.2925 62.7482C76.2824 62.7365 76.2752 62.7227 76.2714 62.7078C76.2677 62.6928 76.2674 62.6772 76.2708 62.6622L79.2214 49.5199C79.2259 49.501 79.2359 49.4839 79.2501 49.4706C79.2643 49.4574 79.282 49.4487 79.3012 49.4455Z" fill="#191718"/>
<path d="M66.29 51.6756L77.3482 49.8095C77.3649 49.8069 77.3819 49.8085 77.3978 49.814C77.4138 49.8195 77.4281 49.8288 77.4397 49.8411C77.4512 49.8534 77.4595 49.8684 77.464 49.8846C77.4684 49.9009 77.4688 49.918 77.4652 49.9344L74.5677 62.8348C74.5627 62.8563 74.551 62.8756 74.5342 62.8899C74.5175 62.9042 74.4966 62.9129 74.4747 62.9145L64.1847 63.7413C64.1689 63.7423 64.1531 63.7398 64.1385 63.7338C64.1238 63.7279 64.1108 63.7186 64.1002 63.7068C64.0897 63.695 64.0821 63.681 64.0778 63.6657C64.0735 63.6505 64.0728 63.6345 64.0757 63.619L66.2049 51.7606C66.2085 51.7394 66.2186 51.7198 66.2339 51.7045C66.2491 51.6893 66.2687 51.6792 66.29 51.6756Z" fill="#191718"/>
<path d="M53.9629 53.8078L64.3858 52.0161C64.3985 52.0138 64.4117 52.0145 64.424 52.0183C64.4364 52.0222 64.4477 52.029 64.4568 52.0381C64.466 52.0473 64.4728 52.0586 64.4766 52.0709C64.4805 52.0833 64.4812 52.0964 64.4788 52.1092L62.3974 63.8054C62.3946 63.8228 62.3859 63.8389 62.373 63.8509C62.36 63.8629 62.3433 63.8703 62.3257 63.8718L52.6816 64.6879C52.6696 64.6892 52.6573 64.6878 52.6459 64.6837C52.6345 64.6796 52.6241 64.6729 52.6157 64.6642C52.6072 64.6554 52.6008 64.6449 52.5971 64.6334C52.5933 64.6218 52.5922 64.6095 52.5939 64.5975L53.8964 53.8769C53.8985 53.8597 53.9061 53.8437 53.9181 53.8312C53.9301 53.8188 53.9458 53.8105 53.9629 53.8078Z" fill="#191718"/>
<path d="M42.4108 57.3218C42.4267 56.9018 42.4329 56.4774 42.4294 56.0485C42.4285 55.9856 42.4501 55.9243 42.4905 55.8756C42.5309 55.827 42.5874 55.794 42.65 55.7827L51.8794 54.1718C51.9198 54.1644 51.9614 54.1667 52.0008 54.1785C52.0402 54.1903 52.0764 54.2112 52.1064 54.2396C52.1363 54.2681 52.1593 54.3032 52.1734 54.3422C52.1876 54.3812 52.1925 54.423 52.1877 54.4642L50.9782 64.5841C50.9705 64.6452 50.942 64.7018 50.8974 64.7444C50.8529 64.787 50.7951 64.813 50.7337 64.818L42.5171 65.4826C42.4802 65.4855 42.4431 65.4808 42.4081 65.4688C42.3732 65.4567 42.3412 65.4375 42.3141 65.4125C42.2871 65.3875 42.2657 65.3571 42.2512 65.3234C42.2367 65.2897 42.2295 65.2534 42.23 65.2167C42.2495 62.5851 42.3098 59.9535 42.4108 57.3218Z" fill="#191718"/>
<path d="M40.4618 65.6287L36.8786 66.0142C36.8571 66.0164 36.8356 66.0102 36.8187 65.9968C36.8018 65.9833 36.7909 65.9638 36.7882 65.9424L35.5574 57.0825C35.555 57.0619 35.5606 57.0411 35.5729 57.0243C35.5852 57.0075 35.6034 56.9961 35.6239 56.9922L40.7224 56.0618C40.7344 56.0594 40.7469 56.0598 40.7588 56.0628C40.7707 56.0659 40.7818 56.0716 40.7912 56.0795C40.8007 56.0874 40.8082 56.0973 40.8133 56.1085C40.8184 56.1197 40.8209 56.1319 40.8207 56.1442L40.5363 65.549C40.5357 65.5691 40.5279 65.5883 40.5141 65.6029C40.5004 65.6176 40.4818 65.6268 40.4618 65.6287Z" fill="#191718"/>
<path d="M94.1153 75.2168L97.9538 62.8454C97.959 62.8293 97.9688 62.8152 97.9821 62.8048C97.9953 62.7944 98.0114 62.7882 98.0282 62.7869L102.273 62.4945C102.287 62.4938 102.301 62.4965 102.313 62.5023C102.326 62.5081 102.337 62.5169 102.345 62.5279C102.354 62.5389 102.359 62.5518 102.362 62.5654C102.364 62.579 102.363 62.593 102.358 62.6061L98.1345 75.4852C98.1286 75.5034 98.1167 75.5191 98.1008 75.5297C98.0849 75.5403 98.0659 75.5452 98.0468 75.5437L94.1924 75.3257C94.1795 75.3251 94.167 75.3215 94.1558 75.3153C94.1446 75.3091 94.1349 75.3004 94.1274 75.2899C94.12 75.2794 94.1151 75.2674 94.113 75.2547C94.1109 75.242 94.1117 75.2291 94.1153 75.2168Z" fill="#191718"/>
<path d="M84.1665 74.7251L87.1092 63.7174C87.1136 63.6999 87.1235 63.6844 87.1374 63.6729C87.1512 63.6615 87.1683 63.6547 87.1863 63.6536L96.086 62.9731C96.0997 62.9721 96.1135 62.9744 96.1261 62.9799C96.1387 62.9854 96.1498 62.9939 96.1584 63.0046C96.1671 63.0153 96.1729 63.0279 96.1756 63.0414C96.1783 63.0549 96.1776 63.0689 96.1737 63.082L92.3725 75.169C92.3671 75.1872 92.3559 75.2031 92.3405 75.2142C92.325 75.2253 92.3064 75.2309 92.2874 75.2301L84.2463 74.8314C84.2335 74.831 84.221 74.8278 84.2097 74.8219C84.1983 74.816 84.1885 74.8076 84.1808 74.7974C84.1732 74.7872 84.1679 74.7754 84.1654 74.7629C84.163 74.7503 84.1633 74.7374 84.1665 74.7251Z" fill="#191718"/>
<path d="M73.8422 74.1296L75.8625 64.5813C75.8677 64.5556 75.8811 64.5323 75.9008 64.5151C75.9205 64.4978 75.9453 64.4874 75.9715 64.4856L85.2912 63.7892C85.3102 63.7877 85.3292 63.7908 85.3467 63.7982C85.3642 63.8055 85.3797 63.817 85.3919 63.8315C85.4041 63.8461 85.4127 63.8633 85.4169 63.8818C85.4211 63.9003 85.4208 63.9196 85.4161 63.938L82.5027 74.6161C82.4955 74.6425 82.4794 74.6656 82.4571 74.6816C82.4349 74.6976 82.4078 74.7054 82.3805 74.7038L73.9539 74.2758C73.9363 74.2751 73.9192 74.2705 73.9036 74.2624C73.888 74.2543 73.8744 74.2429 73.8638 74.2289C73.8531 74.215 73.8457 74.1988 73.842 74.1817C73.8382 74.1645 73.8383 74.1468 73.8422 74.1296Z" fill="#191718"/>
<path d="M63.1448 73.7095C62.9906 73.6989 62.832 73.69 62.669 73.6829C62.6314 73.6808 62.5947 73.6708 62.5613 73.6536C62.5278 73.6364 62.4984 73.6123 62.4748 73.583C62.4513 73.5537 62.4341 73.5198 62.4245 73.4834C62.4149 73.447 62.4131 73.409 62.4191 73.3719L63.7083 65.6604C63.7183 65.6019 63.7475 65.5484 63.7913 65.5084C63.8351 65.4684 63.8911 65.4443 63.9502 65.4398L73.8548 64.6556C73.896 64.6526 73.9374 64.6592 73.9756 64.675C74.0138 64.6908 74.0478 64.7153 74.0749 64.7465C74.102 64.7777 74.1215 64.8148 74.1317 64.8549C74.1419 64.8949 74.1427 64.9368 74.1339 64.9772L72.1828 73.9381C72.1692 73.9991 72.1349 74.0535 72.0859 74.0919C72.0369 74.1302 71.9762 74.1501 71.9143 74.1481C68.9778 74.0294 66.0547 73.8832 63.1448 73.7095Z" fill="#191718"/>
<path d="M51.6196 72.9732L52.332 66.4553C52.3356 66.4225 52.3507 66.3921 52.3745 66.3692C52.3983 66.3464 52.4293 66.3326 52.4622 66.3303L61.9388 65.6179C61.9602 65.6164 61.9816 65.6198 62.0015 65.6277C62.0213 65.6357 62.0391 65.6481 62.0534 65.664C62.0678 65.6799 62.0783 65.6989 62.0843 65.7194C62.0902 65.74 62.0914 65.7617 62.0877 65.7828L60.7267 73.4411C60.7208 73.4751 60.7027 73.5058 60.6758 73.5274C60.6488 73.5489 60.6149 73.5599 60.5805 73.5581L51.7525 73.1301C51.7332 73.1291 51.7144 73.1242 51.6971 73.1157C51.6799 73.1071 51.6645 73.0952 51.6521 73.0805C51.6396 73.0658 51.6303 73.0487 51.6247 73.0302C51.6191 73.0118 51.6174 72.9924 51.6196 72.9732Z" fill="#191718"/>
<path d="M42.0814 72.5348L42.1 67.3007C42.0999 67.2729 42.1102 67.246 42.1289 67.2253C42.1476 67.2047 42.1733 67.1918 42.201 67.1891L50.617 66.5113C50.6335 66.51 50.6501 66.5123 50.6655 66.5182C50.681 66.5241 50.695 66.5334 50.7064 66.5453C50.7179 66.5573 50.7265 66.5717 50.7317 66.5874C50.737 66.6031 50.7386 66.6198 50.7366 66.6362L49.9657 72.8937C49.9624 72.9219 49.9484 72.9477 49.9267 72.966C49.905 72.9842 49.8771 72.9936 49.8488 72.992L42.1877 72.6464C42.1591 72.6451 42.132 72.6327 42.1122 72.6119C42.0924 72.5911 42.0814 72.5635 42.0814 72.5348Z" fill="#191718"/>
<path d="M37.6656 72.3885L36.9904 67.718C36.9885 67.7038 36.9896 67.6894 36.9934 67.6757C36.9973 67.6619 37.0039 67.649 37.0128 67.6379C37.0217 67.6267 37.0328 67.6174 37.0454 67.6107C37.058 67.6039 37.0719 67.5997 37.0861 67.5984L40.4036 67.3299C40.4182 67.3288 40.4329 67.3308 40.4467 67.3356C40.4605 67.3405 40.4732 67.3481 40.484 67.3581C40.4947 67.3681 40.5032 67.3802 40.5091 67.3936C40.5149 67.4071 40.5179 67.4216 40.5179 67.4363L40.4222 72.3912C40.4215 72.4189 40.41 72.4453 40.3901 72.4647C40.3702 72.484 40.3436 72.4949 40.3158 72.4949L37.7693 72.4789C37.7441 72.4786 37.7198 72.4693 37.7008 72.4527C37.6819 72.4362 37.6694 72.4134 37.6656 72.3885Z" fill="#191718"/>
<path d="M108.624 70.0121C108.496 75.5173 108.052 78.5556 110.059 82.5456C113.242 88.8651 116.466 95.1625 119.732 101.438C120.5 102.912 120.944 104.043 121.067 104.83C121.574 108.126 119.084 111.422 115.527 111.289C115.178 111.06 114.795 110.916 114.379 110.856C114.359 110.853 114.341 110.847 114.324 110.837C114.308 110.827 114.294 110.813 114.283 110.797C114.219 110.696 114.257 110.645 114.397 110.643C115.362 110.627 116.215 110.478 117.05 109.944C118.797 108.822 120.267 107.054 120.232 104.869C120.225 104.34 119.917 103.48 119.307 102.291C115.835 95.5204 112.265 88.8084 108.871 81.998C108.238 80.7327 107.956 79.6349 107.951 78.1303C107.94 75.7379 107.526 72.1094 108.624 70.0121Z" fill="#6188E7"/>
<path d="M44.6856 76.7134C41.6047 76.5805 38.3989 76.6842 35.3499 76.3412C35.3239 76.3389 35.2991 76.3286 35.2788 76.3115C35.2584 76.2944 35.2433 76.2715 35.2356 76.2456C34.8767 75.0494 35.5359 74.6081 36.6444 74.6134C38.1543 74.6187 39.6562 74.5975 41.1607 74.6825C61.8125 75.8335 80.6646 76.825 103.151 77.8883C103.982 77.9291 104.216 78.3305 103.855 79.0925C103.835 79.1352 103.803 79.1717 103.764 79.1983C103.725 79.225 103.679 79.2407 103.632 79.244C103.033 79.283 102.435 79.2892 101.837 79.2626C82.7885 78.3801 63.7379 77.5304 44.6856 76.7134Z" fill="#191718"/>
<path d="M70.3357 80.0068C72.7866 85.0149 75.2073 90.0371 77.598 95.0736C78.3928 96.7509 79.5836 99.7095 78.2067 101.339C77.4092 102.283 75.7638 102.634 74.525 102.774C74.3177 102.797 74.2876 102.735 74.4347 102.588C74.4559 102.567 74.4861 102.55 74.525 102.538C78.0286 101.966 78.3157 99.3427 76.9866 96.6791C74.261 91.205 71.5159 85.7361 68.7514 80.2726C68.6078 79.9873 68.6956 79.8588 69.0146 79.8871L70.3357 80.0068Z" fill="#191718"/>
<path d="M70.3345 80.0072L72.4797 80.1215C72.5279 80.1238 72.5744 80.1391 72.6142 80.1658C72.6541 80.1925 72.6857 80.2296 72.7057 80.273C75.5659 86.3213 78.4696 92.3467 81.4167 98.3489C82.3559 100.263 82.27 102.05 81.1588 103.711C80.0876 105.305 78.6309 105.311 76.5495 105.409C73.2426 105.562 70.8786 105.656 69.4573 105.694C48.3156 106.239 33.8389 106.628 26.0273 106.861C24.1612 106.916 22.6806 106.993 20.8836 106.701C17.1444 106.091 13.4104 105.45 9.68184 104.777C9.66892 104.774 9.65636 104.77 9.64495 104.765C9.63355 104.76 9.62355 104.753 9.61556 104.747C9.60758 104.74 9.60179 104.732 9.59856 104.724C9.59533 104.717 9.59472 104.709 9.59677 104.702C9.66057 104.503 69.0453 102.7 74.5239 102.538C74.4849 102.551 74.4548 102.568 74.4335 102.589C74.2864 102.736 74.3166 102.798 74.5239 102.775C75.7626 102.634 77.4081 102.283 78.2055 101.339C79.5825 99.7099 78.3916 96.7513 77.5968 95.074C75.2062 90.0375 72.7854 85.0153 70.3345 80.0072Z" fill="#6188E7"/>
<path d="M101.156 104.389L91.8578 92.4824C91.8477 92.4696 91.8416 92.454 91.8403 92.4378C91.8391 92.4215 91.8426 92.4052 91.8506 92.391C91.8586 92.3768 91.8706 92.3652 91.8851 92.3578C91.8996 92.3504 91.9161 92.3475 91.9323 92.3494L94.1864 92.5701C94.2068 92.572 94.2258 92.5815 94.2396 92.5967L104.665 104.641C104.676 104.654 104.683 104.669 104.685 104.686C104.686 104.702 104.683 104.719 104.675 104.733C104.668 104.748 104.656 104.76 104.641 104.768C104.626 104.775 104.61 104.779 104.593 104.777L101.212 104.418C101.19 104.416 101.17 104.405 101.156 104.389Z" fill="#191718"/>
<path d="M12.2409 112.629H12.3711C13.1278 112.625 13.1535 112.762 12.4482 113.038L12.209 113.134C12.1565 113.155 12.0988 113.158 12.0443 113.145C11.9898 113.131 11.9413 113.1 11.9059 113.057C11.5072 112.571 11.5896 112.424 12.1531 112.615C12.1815 112.624 12.2107 112.629 12.2409 112.629Z" fill="#6188E7"/>
<path d="M12.3728 126.733C9.86608 124.593 9.32646 121.215 10.4642 118.203C11.5381 115.353 14.5579 113.163 17.6999 113.482C18.6958 113.583 19.6395 113.907 20.5309 114.452C20.5684 114.475 20.611 114.488 20.6549 114.491C20.6988 114.493 20.7426 114.485 20.7823 114.466C20.8221 114.447 20.8566 114.419 20.8828 114.384C20.9089 114.348 20.9259 114.307 20.9323 114.264C20.9908 113.844 21.2247 113.682 21.634 113.78C21.668 113.788 21.7001 113.802 21.7285 113.822C21.7568 113.843 21.7808 113.868 21.7991 113.898C21.8174 113.928 21.8296 113.961 21.8351 113.995C21.8405 114.03 21.839 114.065 21.8307 114.099L21.0971 117.174C21.0884 117.211 21.0722 117.245 21.0495 117.275C21.0267 117.304 20.998 117.329 20.9651 117.347C20.9323 117.364 20.896 117.375 20.8588 117.378C20.8215 117.381 20.784 117.376 20.7489 117.363C19.1894 116.803 17.753 116.973 16.4399 117.873C13.3351 120.005 14.2522 124.846 17.9737 125.582C20.0258 125.986 21.9344 124.841 22.7372 122.964C23.4071 121.398 22.9897 120.109 22.3252 118.522C22.2994 118.457 22.2994 118.385 22.3252 118.32L22.8249 117.087C22.9578 116.759 23.1156 116.746 23.2981 117.049C24.154 118.465 24.5439 119.933 24.4677 121.451C24.1514 127.64 17.1363 130.803 12.3728 126.733Z" fill="#6188E7"/>
<path d="M98.5364 123.74C98.7012 123.049 98.8323 122.355 98.9298 121.659C99.48 117.754 101.551 115.47 105.551 115.034C106.255 114.956 106.959 114.87 107.665 114.777L108.973 115.383C109.01 115.4 109.051 115.408 109.092 115.407C109.133 115.406 109.173 115.395 109.209 115.375C109.246 115.356 109.277 115.328 109.301 115.294C109.325 115.26 109.341 115.222 109.347 115.181C109.397 114.862 109.448 114.543 109.502 114.224C109.546 113.953 109.637 113.77 109.775 113.676C109.912 113.584 110.064 113.555 110.233 113.588C110.301 113.603 110.361 113.644 110.4 113.703C110.438 113.762 110.451 113.833 110.437 113.902L109.541 118.256C109.476 118.579 109.326 118.623 109.092 118.389L108.965 118.261C108.942 118.238 108.916 118.22 108.888 118.206C105.336 116.589 101.617 119.179 102.564 123.126C103.151 125.582 106.054 126.834 108.276 125.848C110.844 124.71 111.309 121.35 109.882 119.059C109.863 119.029 109.85 118.995 109.845 118.96C109.839 118.925 109.841 118.89 109.849 118.855C109.857 118.821 109.873 118.788 109.894 118.76C109.915 118.731 109.942 118.707 109.972 118.689L110.347 118.469C110.378 118.45 110.413 118.438 110.449 118.434C110.486 118.429 110.523 118.432 110.558 118.443C110.593 118.453 110.625 118.471 110.653 118.495C110.681 118.518 110.703 118.548 110.719 118.58C112.79 122.788 110.35 128.139 105.434 128.562C102.356 128.828 99.2062 126.903 98.5364 123.74Z" fill="#6188E7"/>
<path d="M107.666 114.777C106.96 114.871 106.256 114.956 105.552 115.034C101.552 115.47 99.4809 117.754 98.9307 121.659C98.8332 122.355 98.7021 123.049 98.5373 123.74C97.9843 121.888 98.0685 120.204 98.7898 118.687C100.512 115.065 103.471 113.761 107.666 114.777Z" fill="#6188E7"/>
<path d="M65.5361 122.812C63.0533 120.633 62.9417 118.099 63.4361 115C63.4465 114.938 63.4775 114.882 63.524 114.841C63.5705 114.8 63.6296 114.776 63.6913 114.774L67.6946 114.66C67.7405 114.659 67.7859 114.67 67.8265 114.691C67.867 114.713 67.9013 114.744 67.9261 114.783C67.9509 114.821 67.9654 114.865 67.9682 114.911C67.9709 114.956 67.9618 115.002 67.9418 115.042C67.699 115.54 67.551 115.916 67.4979 116.17C66.3681 121.579 73.3912 123.889 75.5231 119.144C76.1291 117.795 76.0627 116.411 75.3237 114.992C75.3032 114.953 75.2929 114.909 75.2937 114.864C75.2945 114.82 75.3065 114.776 75.3284 114.738C75.3503 114.699 75.3816 114.667 75.4193 114.643C75.457 114.62 75.5 114.606 75.5443 114.604L76.3763 114.556C76.4331 114.552 76.4896 114.567 76.5376 114.599C76.5855 114.631 76.6222 114.677 76.6422 114.731C78.3248 119.452 75.2998 124.32 70.2066 124.535C68.4823 124.608 66.9255 124.033 65.5361 122.812Z" fill="#6188E7"/>
<path d="M61.9065 115.122C61.9703 114.83 62.2122 114.529 62.4514 114.915C62.4707 114.946 62.4835 114.98 62.489 115.016C62.4945 115.053 62.4926 115.089 62.4833 115.125C62.0367 116.796 62.0004 118.474 62.3743 120.159C62.3938 120.246 62.3725 120.276 62.3105 120.25C62.3025 120.244 62.2202 120.162 62.2175 120.154C61.6451 118.511 61.5414 116.834 61.9065 115.122Z" fill="#6188E7"/>
<path d="M10.7979 115.008C11.1382 114.964 11.2037 115.077 10.9946 115.348C9.11527 117.788 8.19818 120.532 9.03286 123.599C9.04704 123.647 9.02577 123.668 8.96906 123.66C8.95393 123.659 8.93946 123.653 8.92726 123.643C8.91507 123.633 8.90562 123.62 8.89995 123.605C7.82071 120.779 8.42413 117.379 10.5215 115.106C10.5646 115.062 10.6217 115.033 10.6836 115.024L10.7979 115.008Z" fill="#6188E7"/>
<path d="M46.2012 115.736C45.767 115.651 45.3355 115.563 44.9066 115.47C42.4371 114.936 39.8321 115.247 37.5088 116.194C37.4439 116.22 37.3712 116.22 37.3065 116.193C37.2418 116.166 37.1903 116.115 37.1632 116.05L37.0569 115.795C37.0408 115.756 37.0342 115.714 37.0375 115.672C37.0408 115.63 37.0541 115.589 37.0761 115.554C37.0982 115.518 37.1284 115.488 37.1644 115.466C37.2003 115.444 37.2409 115.431 37.2828 115.428C38.5216 115.334 39.755 115.237 40.9831 115.136C42.9378 114.974 44.888 115.03 46.8338 115.303C46.9021 115.312 46.9641 115.348 47.0068 115.402C47.0494 115.457 47.0694 115.526 47.0625 115.595C46.8693 117.359 46.5237 119.092 46.0258 120.795C46.0151 120.83 45.9972 120.863 45.9733 120.891C45.9493 120.919 45.9197 120.942 45.8865 120.958C45.8532 120.974 45.817 120.983 45.7801 120.984C45.7432 120.985 45.7065 120.979 45.6722 120.965C44.8623 120.641 44.0551 120.553 43.2506 120.702C37.5088 121.768 39.2818 130.596 44.997 129.033C48.1736 128.164 48.8807 124.769 47.3495 122.028C47.3304 121.994 47.3188 121.956 47.3156 121.917C47.3124 121.878 47.3176 121.839 47.3309 121.802L47.6925 120.856C47.8378 120.475 47.9999 120.467 48.1789 120.832C48.3703 121.224 48.5555 121.617 48.7345 122.012C49.6728 124.099 49.508 126.531 48.3995 128.424C45.0688 134.115 36.3312 132.967 34.9755 126.446C33.7767 120.675 39.6327 114.623 45.3532 118.235C45.7218 118.469 45.9513 118.358 46.0417 117.903L46.4112 116.05C46.4251 115.981 46.4109 115.909 46.3715 115.85C46.3321 115.792 46.2709 115.751 46.2012 115.736Z" fill="#6188E7"/>
<path d="M74.1743 117.42C74.194 117.702 74.1579 117.986 74.0681 118.254C73.9783 118.523 73.8364 118.771 73.6507 118.984C73.465 119.198 73.239 119.373 72.9856 119.499C72.7323 119.626 72.4565 119.701 72.1741 119.721L71.4899 119.768C71.2075 119.788 70.924 119.752 70.6555 119.662C70.387 119.572 70.1388 119.431 69.9252 119.245C69.7115 119.059 69.5365 118.833 69.4102 118.58C69.2839 118.326 69.2087 118.051 69.189 117.768L69.16 117.355C69.1403 117.072 69.1764 116.789 69.2662 116.52C69.356 116.252 69.4979 116.004 69.6836 115.79C69.8693 115.576 70.0953 115.401 70.3487 115.275C70.602 115.149 70.8778 115.073 71.1602 115.054L71.8444 115.006C72.1268 114.986 72.4103 115.022 72.6788 115.112C72.9473 115.202 73.1954 115.344 73.4091 115.529C73.6228 115.715 73.7978 115.941 73.9241 116.194C74.0504 116.448 74.1256 116.724 74.1453 117.006L74.1743 117.42ZM70.3221 116.212C69.8525 116.581 69.7417 117.05 69.9898 117.621C70.0146 117.677 70.0575 117.722 70.1116 117.75C70.1657 117.778 70.2278 117.787 70.2875 117.775C70.8085 117.672 70.9308 116.959 70.9654 116.576C71.0239 115.947 70.8094 115.826 70.3221 116.212Z" fill="#2E50A2"/>
<path d="M70.3227 116.212C70.8101 115.826 71.0245 115.947 70.966 116.576C70.9315 116.959 70.8092 117.671 70.2882 117.775C70.2284 117.787 70.1664 117.778 70.1123 117.75C70.0582 117.722 70.0152 117.677 69.9905 117.621C69.7424 117.05 69.8531 116.581 70.3227 116.212Z" fill="#191718"/>
<path d="M36.0602 118.469C36.2356 118.613 36.2286 118.809 36.0389 119.059C34.0798 121.635 33.1787 124.12 33.9921 127.379C34.0417 127.571 34.0081 127.642 33.8911 127.592C33.8639 127.578 33.8429 127.555 33.8326 127.526C32.6984 124.077 33.3444 121.064 35.7705 118.488C35.8068 118.448 35.857 118.424 35.9109 118.421C35.9648 118.417 36.0182 118.435 36.0602 118.469Z" fill="#6188E7"/>
<path d="M16.8424 122.807L18.0838 121.956C18.1239 121.929 18.156 121.89 18.1768 121.845C18.3895 121.375 18.4577 120.883 18.3815 120.369C18.3748 120.327 18.3586 120.288 18.3341 120.254C18.3096 120.219 18.2776 120.192 18.2406 120.173C18.0227 120.059 17.7825 120.029 17.5203 120.082C17.4757 120.092 17.4295 120.09 17.3861 120.076C17.3428 120.063 17.3038 120.038 17.273 120.005L16.9939 119.713C18.5499 118.719 19.8099 118.782 20.7739 119.902C22.9058 122.376 19.1258 125.215 16.8424 122.807Z" fill="#2E50A2"/>
<path d="M107.316 119.734C107.022 120.094 106.652 120.252 106.207 120.207C106.17 120.204 106.133 120.208 106.098 120.219C106.062 120.231 106.03 120.25 106.002 120.275C105.974 120.3 105.952 120.331 105.937 120.365C105.923 120.399 105.915 120.436 105.915 120.473C105.924 121.678 105.814 122.679 105.585 123.474C105.534 123.651 105.37 123.783 105.094 123.87C102.794 122.113 104.403 119.046 107.316 119.734Z" fill="#191718"/>
<path d="M16.9934 119.713L17.2725 120.005C17.3033 120.038 17.3423 120.063 17.3856 120.076C17.429 120.09 17.4752 120.092 17.5198 120.082C17.782 120.029 18.0222 120.059 18.2401 120.173C18.2771 120.192 18.3091 120.219 18.3336 120.253C18.3581 120.288 18.3743 120.327 18.381 120.369C18.4572 120.883 18.389 121.375 18.1763 121.845C18.1555 121.89 18.1234 121.928 18.0833 121.956L16.8419 122.807C16.126 121.735 16.1765 120.703 16.9934 119.713Z" fill="#191718"/>
<path d="M107.317 119.734C110.73 120.728 108.359 126.079 105.095 123.87C105.371 123.784 105.535 123.652 105.587 123.474C105.815 122.679 105.925 121.678 105.916 120.473C105.916 120.436 105.924 120.399 105.939 120.365C105.954 120.331 105.976 120.3 106.003 120.275C106.031 120.25 106.063 120.231 106.099 120.219C106.134 120.208 106.172 120.204 106.209 120.207C106.654 120.252 107.023 120.094 107.317 119.734Z" fill="#2E50A2"/>
<path d="M41.5737 125.588L43.6126 125.505C43.6661 125.503 43.7177 125.485 43.7608 125.453C43.8039 125.421 43.8365 125.377 43.8545 125.327C44.6307 123.094 43.1846 123.862 41.9618 123.45C42.5342 122.789 43.2644 122.492 44.1522 122.557C47.8498 122.828 46.5925 128.554 42.8311 127.116C42.1364 126.852 41.7173 126.342 41.5737 125.588Z" fill="#2E50A2"/>
<path d="M41.9625 123.45C43.1853 123.862 44.6314 123.094 43.8552 125.327C43.8372 125.378 43.8045 125.421 43.7614 125.453C43.7183 125.485 43.6667 125.503 43.6133 125.505L41.5744 125.588C41.3139 124.792 41.4433 124.08 41.9625 123.45Z" fill="#191718"/>
</svg>
