<svg width="142" height="136" viewBox="0 0 142 136" fill="none" xmlns="http://www.w3.org/2000/svg">
<path d="M59.8738 115.671L49.5572 115.982C49.4972 115.984 49.4394 116.005 49.3934 116.044C49.3475 116.083 49.3162 116.136 49.3047 116.195L48.8315 118.521C48.8233 118.563 48.8254 118.606 48.8374 118.647C48.8494 118.688 48.8711 118.726 48.9006 118.757C53.6588 123.752 52.3643 131.785 45.7453 134.406C42.0132 135.884 38.5335 135.328 35.3064 132.737C30.527 128.899 30.3728 121.674 35.1097 117.715C35.1493 117.683 35.1786 117.64 35.1942 117.591C35.2097 117.542 35.2109 117.491 35.1975 117.442L34.929 116.471C34.9157 116.421 34.8877 116.376 34.8484 116.341C34.8092 116.307 34.7604 116.284 34.7083 116.277L24.5991 114.975C24.2571 114.93 24.1924 115.045 24.4051 115.318C27.1625 118.837 27.6215 122.498 25.782 126.301C21.4385 135.273 7.59978 132.139 6.79168 122.405C6.52054 119.128 7.54839 116.388 9.87522 114.185C9.90418 114.158 9.92662 114.124 9.94088 114.086C9.95514 114.049 9.96086 114.008 9.95762 113.967L9.89383 113.268C9.88852 113.206 9.86168 113.148 9.81797 113.104C9.77426 113.06 9.71645 113.032 9.65458 113.026C6.91661 112.753 3.99789 112.503 3.00637 109.486C2.71042 108.585 2.72991 107.688 3.06485 106.793C3.95535 104.414 6.30522 103.419 8.77737 103.332C30.9257 102.547 53.1121 101.807 75.3367 101.112C75.3781 101.11 75.4185 101.099 75.4549 101.079C75.4913 101.06 75.5227 101.032 75.5466 100.998C76.158 100.126 75.7247 99.3683 75.2755 98.4725C72.3036 92.55 69.3397 86.6222 66.3838 80.689C66.363 80.6464 66.3309 80.6102 66.2911 80.5845C66.2513 80.5587 66.2052 80.5443 66.1578 80.5428C55.9103 80.1095 45.6656 79.6417 35.4154 79.3253C35.0699 79.3147 34.7243 79.1924 34.4106 79.1579C26.9073 78.3303 19.4032 77.5053 11.8981 76.6831C7.60243 76.2125 6.02876 74.7744 5.4094 70.4814C4.05902 61.0943 2.76181 51.6984 1.51776 42.2936C1.50913 42.2303 1.477 42.1717 1.42738 42.1288C0.71675 41.5121 0.327759 40.8404 0.260418 40.1139C0.063709 38.0378 1.55764 37.3493 3.41308 36.9027C29.5292 30.6045 55.641 24.2868 81.7483 17.9496C81.7894 17.9397 81.8276 17.9201 81.8595 17.8923C81.8914 17.8645 81.9162 17.8295 81.9317 17.7901L84.5102 11.2429C84.5325 11.1844 84.5344 11.1206 84.5155 11.0621C83.1252 6.87543 84.9063 3.05555 88.8617 1.39416C91.6502 0.221885 95.6641 0.689738 97.6604 3.33467C97.6852 3.36768 97.7173 3.39448 97.7542 3.41294C97.7911 3.43139 97.8318 3.441 97.8731 3.441L127.185 3.41441C127.246 3.41436 127.304 3.39472 127.35 3.35859C131.074 0.471762 136.755 0.314927 139.833 4.09758C145.493 11.0488 137.603 19.9858 129.926 15.9798C129.892 15.962 129.855 15.9516 129.817 15.9494C129.779 15.9473 129.741 15.9533 129.705 15.9672C129.67 15.9811 129.637 16.0024 129.611 16.0298C129.584 16.0573 129.564 16.0901 129.551 16.126C123.214 34.2073 117.411 52.4241 111.116 70.4974C110.98 70.889 110.905 71.7715 110.893 73.145C110.851 77.4353 110.691 79.4636 112.355 82.6268C115.84 89.2432 119.195 95.9419 122.608 102.598C124.578 106.442 123.235 111.623 119.168 113.505C117.368 114.339 115.114 114.334 113.044 114.26C112.981 114.258 112.919 114.278 112.87 114.318C112.821 114.358 112.787 114.415 112.775 114.478L112.262 117.165C112.25 117.23 112.262 117.298 112.297 117.354C115.747 123.093 113.203 130.371 106.332 131.578C103.819 132.019 101.42 131.445 99.1357 129.856C94.4466 126.594 93.5216 120.089 97.3202 115.735C97.5151 115.512 97.7092 115.288 97.9023 115.062C98.1664 114.758 98.0973 114.611 97.695 114.624L79.4117 115.142C79.3717 115.144 79.3325 115.154 79.297 115.172C79.2614 115.19 79.2304 115.216 79.2062 115.248C79.182 115.279 79.1652 115.316 79.1571 115.355C79.149 115.393 79.1497 115.433 79.1592 115.472C79.8769 118.412 79.4941 121.015 78.0108 123.282C74.4834 128.667 67.043 128.936 62.6489 124.502C60.4001 122.235 59.5654 119.395 60.1449 115.982C60.1516 115.943 60.1496 115.903 60.139 115.865C60.1283 115.827 60.1093 115.792 60.0833 115.762C60.0574 115.732 60.0251 115.709 59.9888 115.693C59.9526 115.677 59.9133 115.67 59.8738 115.671ZM89.1966 9.3077C89.2354 9.3082 89.2739 9.3002 89.3092 9.28426C89.3446 9.26833 89.3761 9.24485 89.4014 9.21546C89.4267 9.18608 89.4453 9.1515 89.4559 9.11417C89.4664 9.07683 89.4687 9.03764 89.4625 8.99935C89.3579 8.32239 89.4412 7.63745 89.7123 6.94454C90.4105 5.15289 91.6599 4.02669 93.4604 3.56593C94.0257 3.42239 94.024 3.28505 93.4551 3.15391C90.7969 2.54252 88.6676 3.36746 87.0674 5.62872C86.3302 6.67252 86.0759 7.81378 86.3045 9.05251C86.315 9.11287 86.3462 9.16767 86.3928 9.20746C86.4394 9.24725 86.4984 9.26953 86.5597 9.27048L89.1966 9.3077ZM127.512 10.6102C129.203 10.7538 131.345 11.6257 130.838 13.7948C130.824 13.8557 130.831 13.9197 130.86 13.9756C130.889 14.0315 130.936 14.0757 130.995 14.1005C133.768 15.2612 136.128 14.8944 138.073 13C139.53 11.5805 139.993 9.38479 139.275 7.47087C136.646 0.442522 126.274 3.17252 126.353 10.262C126.354 10.3275 126.379 10.3904 126.422 10.4389C126.466 10.4873 126.525 10.518 126.59 10.5252C126.912 10.5571 127.22 10.5854 127.512 10.6102ZM92.6178 10.1557C92.9616 10.4073 93.3692 10.5331 93.8405 10.5331L124.019 10.565C124.056 10.5652 124.093 10.5576 124.127 10.5428C124.161 10.5279 124.191 10.5062 124.216 10.4789C124.241 10.4516 124.26 10.4194 124.272 10.3844C124.284 10.3493 124.289 10.3122 124.285 10.2753C124.143 8.69985 124.475 7.24403 125.279 5.90783C125.442 5.64024 125.367 5.50556 125.053 5.50378C109.834 5.47543 99.8118 5.47543 94.9862 5.50378C92.6869 5.51707 89.9861 8.21517 92.6178 10.1557ZM85.3156 17.7609C85.8614 17.8069 86.4046 17.814 86.9451 17.7821C86.9963 17.7798 87.0458 17.7622 87.0874 17.7315C87.129 17.7008 87.1609 17.6583 87.179 17.6093L89.2578 11.9526C89.2719 11.9145 89.2771 11.8736 89.273 11.8332C89.269 11.7927 89.2558 11.7538 89.2345 11.7194C89.2132 11.685 89.1843 11.656 89.1501 11.6347C89.1159 11.6134 89.0772 11.6003 89.0371 11.5964L87.0089 11.3811C86.9543 11.3758 86.8993 11.3874 86.8513 11.4145C86.8033 11.4416 86.7646 11.4828 86.7404 11.5326C85.8508 13.4288 85.0888 15.3755 84.4544 17.3728C84.442 17.4117 84.4388 17.453 84.4448 17.4933C84.4508 17.5337 84.466 17.5721 84.4892 17.6055C84.5123 17.639 84.5428 17.6665 84.5782 17.6861C84.6137 17.7057 84.6532 17.7167 84.6936 17.7183C84.9009 17.729 85.1083 17.7431 85.3156 17.7609ZM115.771 112.077C119.328 112.21 121.818 108.914 121.311 105.618C121.188 104.831 120.744 103.7 119.976 102.226C116.71 95.9508 113.486 89.6534 110.303 83.3339C108.296 79.3439 108.74 76.3056 108.868 70.8004C109.874 67.7559 110.905 64.7175 111.959 61.6854C117.56 45.5712 122.563 29.255 128.459 13.2419C128.472 13.2054 128.478 13.1664 128.475 13.1277C128.472 13.0889 128.46 13.0514 128.441 13.0177C128.422 12.984 128.396 12.9549 128.365 12.9325C128.333 12.9102 128.297 12.8951 128.259 12.8883L126.484 12.564C126.422 12.5522 126.358 12.5628 126.304 12.594C126.249 12.6252 126.208 12.6748 126.186 12.7341L123.762 19.4329C123.748 19.4688 123.743 19.5071 123.746 19.5453C123.749 19.5834 123.761 19.6204 123.78 19.6535C124.656 21.19 124.493 22.5341 123.291 23.686C122.876 24.0821 122.228 24.2868 121.691 24.5287C121.654 24.5453 121.622 24.5697 121.596 24.6001C121.571 24.6304 121.552 24.6659 121.542 24.7041C121.065 26.4887 120.539 28.26 119.963 30.0179C114.862 45.5925 109.652 61.1324 104.787 76.7841C104.771 76.8336 104.771 76.8869 104.786 76.937C104.8 76.9871 104.829 77.032 104.87 77.0658C106.252 78.2355 106.449 79.5663 105.462 81.0585C105.436 81.0987 105.421 81.1452 105.419 81.193C105.417 81.2408 105.428 81.288 105.452 81.3296C109.379 88.6752 113.301 96.0092 117.217 103.332C117.847 104.509 118.275 105.743 117.953 107.061C117.18 110.222 114.383 110.328 111.651 110.373C87.9588 110.767 64.2696 111.321 40.583 112.037C37.6244 112.128 35.2772 111.905 32.4834 111.453C22.0313 109.755 14.5564 108.52 10.0586 107.747C8.92978 107.554 7.80978 107.32 6.69864 107.045C6.65433 107.033 6.61447 107.011 6.57902 106.979C6.37345 106.784 6.12978 106.691 5.84801 106.7C5.78479 106.701 5.72432 106.726 5.67788 106.769C4.2451 108.079 5.22864 110.304 6.91661 110.565C14.2019 111.688 23.0157 112.825 33.358 113.975C35.6733 114.23 37.8132 114.246 40.062 114.185C61.2906 113.6 82.5183 112.993 103.745 112.362C107.427 112.253 111.76 112.242 115.771 112.077ZM89.5954 18.0107C98.5305 18.4201 107.461 18.8915 116.388 19.4249C118.384 19.5445 119.854 19.1298 121.664 18.7152C121.707 18.7053 121.746 18.6849 121.779 18.6557C121.812 18.6264 121.837 18.5893 121.853 18.5477L123.892 13.085C123.907 13.045 123.912 13.0019 123.907 12.9594C123.901 12.917 123.886 12.8764 123.862 12.8412C123.837 12.806 123.805 12.7771 123.767 12.7571C123.729 12.7371 123.687 12.7265 123.645 12.7262L97.275 12.6491C97.2246 12.6491 97.175 12.6628 97.1314 12.689C95.5524 13.6778 93.8423 14.0012 92.0011 13.6592C91.8841 13.6379 91.6262 13.5272 91.2275 13.3269C91.1938 13.3101 91.157 13.3006 91.1193 13.299C91.0817 13.2975 91.0442 13.304 91.0092 13.3181C90.9743 13.3322 90.9427 13.3535 90.9167 13.3807C90.8906 13.4079 90.8706 13.4403 90.858 13.4758L89.3588 17.6545C89.3446 17.6936 89.3398 17.7355 89.3447 17.7768C89.3496 17.8181 89.3642 17.8577 89.3872 17.8923C89.4102 17.9269 89.441 17.9557 89.4772 17.9763C89.5133 17.9968 89.5538 18.0086 89.5954 18.0107ZM10.5717 37.8783C12.2676 38.1246 13.9281 38.3328 15.5532 38.503C17.0684 38.6625 18.0812 38.4525 19.5272 38.1069C31.2837 35.2963 52.2322 30.3378 82.373 23.2315C83.1465 23.0481 84.3294 22.87 84.9355 22.9045C89.894 23.1863 94.856 23.4122 99.8216 23.5824C100.86 23.6178 101.763 23.5407 102.53 23.3511C104.88 22.7681 107.237 22.1992 109.601 21.6445C110.555 21.4212 110.542 21.2812 109.564 21.2245C101.178 20.7478 92.7914 20.2906 84.4039 19.8529C83.6844 19.8157 82.9755 19.8812 82.2773 20.0496C58.2965 25.8463 34.3876 31.6501 10.5504 37.461C9.84155 37.6329 9.84863 37.772 10.5717 37.8783ZM2.59169 40.3292C3.00105 40.9113 3.76662 40.8954 4.45776 40.9751C13.0846 41.9977 21.7105 43.0237 30.3356 44.0533C31.8189 44.2288 32.9008 44.2288 34.2272 43.8992C62.2901 36.9692 88.8112 30.3422 118.48 23.1544C119.086 23.0082 124.205 22.3835 121.778 20.9853C121.724 20.9527 121.658 20.9414 121.595 20.9534C121.163 21.0384 120.732 21.1315 120.303 21.2325C91.8628 28.0056 63.5075 35.1084 35.1151 42.073C33.7328 42.4106 32.1565 42.7109 30.9735 42.5701C22.0029 41.4961 12.7948 40.3522 3.34927 39.1383C3.30062 39.1313 3.24993 39.1387 3.20307 39.1596C2.48358 39.4927 2.27979 39.8826 2.59169 40.3292ZM82.6441 25.0976C82.6258 25.0982 82.6081 25.1044 82.5934 25.1153C82.5787 25.1262 82.5676 25.1413 82.5617 25.1587L81.432 28.2449C81.4261 28.2603 81.4246 28.277 81.4276 28.2932C81.4306 28.3094 81.438 28.3245 81.449 28.3368C81.4599 28.3492 81.474 28.3582 81.4898 28.3631C81.5055 28.368 81.5223 28.3685 81.5383 28.3645L86.1822 27.2481C86.198 27.2444 86.2125 27.2365 86.2242 27.2253C86.2359 27.214 86.2443 27.1999 86.2487 27.1843L86.868 25.1215C86.8723 25.1076 86.8732 25.093 86.8706 25.0787C86.868 25.0644 86.862 25.051 86.8532 25.0395C86.8443 25.0281 86.8328 25.0189 86.8197 25.0128C86.8065 25.0067 86.7921 25.0039 86.7776 25.0045L82.6441 25.0976ZM117.116 25.5308C117.1 25.5341 117.086 25.5414 117.074 25.5522C117.063 25.563 117.054 25.5767 117.05 25.592L111.454 43.0751C111.449 43.0891 111.448 43.1039 111.451 43.1183C111.454 43.1327 111.46 43.1462 111.469 43.1576C111.479 43.169 111.491 43.1778 111.504 43.1834C111.518 43.189 111.532 43.191 111.547 43.1894L113.41 43.014C113.428 43.0127 113.445 43.0061 113.458 42.9952C113.472 42.9843 113.482 42.9696 113.487 42.9529L119.205 25.2677C119.21 25.253 119.211 25.2373 119.208 25.2221C119.205 25.2069 119.198 25.1927 119.188 25.1811C119.178 25.1695 119.165 25.1608 119.15 25.156C119.135 25.1511 119.119 25.1502 119.104 25.1534L117.116 25.5308ZM92.1287 25.3687C91.0211 25.2429 89.909 25.1986 88.7926 25.2358C88.7325 25.2371 88.6748 25.2589 88.6288 25.2976C88.5829 25.3363 88.5516 25.3895 88.54 25.4484L88.3566 26.3815C88.348 26.4255 88.3508 26.471 88.3645 26.5137C88.3782 26.5564 88.4025 26.595 88.4352 26.6257C88.4678 26.6565 88.5077 26.6785 88.5511 26.6897C88.5946 26.7009 88.6401 26.701 88.6836 26.6898L92.1579 25.786C92.8969 25.5929 92.8871 25.4538 92.1287 25.3687ZM65.3205 29.4464C65.3035 29.4504 65.2881 29.4594 65.2763 29.4722C65.2645 29.4849 65.2567 29.501 65.254 29.5182L64.8048 32.4582C64.8027 32.4723 64.8041 32.4867 64.8088 32.5002C64.8135 32.5136 64.8215 32.5257 64.832 32.5354C64.8425 32.5451 64.8551 32.5521 64.8689 32.5558C64.8827 32.5594 64.8972 32.5597 64.9111 32.5565L78.7711 29.0424C78.7848 29.0391 78.7975 29.0325 78.8081 29.0233C78.8188 29.014 78.827 29.0023 78.8322 28.9892L79.9141 26.1369C79.9198 26.1221 79.9213 26.1061 79.9186 26.0904C79.9158 26.0748 79.9089 26.0602 79.8986 26.0482C79.8882 26.0362 79.8748 26.0273 79.8597 26.0223C79.8447 26.0173 79.8286 26.0165 79.8131 26.02L65.3205 29.4464ZM109.694 27.474L104.434 43.9975C104.42 44.0412 104.418 44.0876 104.427 44.1324C104.436 44.1772 104.456 44.2189 104.486 44.2535C104.515 44.2881 104.553 44.3145 104.596 44.3302C104.638 44.3459 104.684 44.3503 104.729 44.3431L108.846 43.6865C108.894 43.6792 108.939 43.6584 108.976 43.6265C109.013 43.5946 109.041 43.5528 109.056 43.5058L114.466 26.6313C114.561 26.3336 114.457 26.2202 114.152 26.2911L109.888 27.2959C109.844 27.3064 109.802 27.3283 109.768 27.3594C109.734 27.3906 109.709 27.4301 109.694 27.474ZM96.754 30.6001C96.7392 30.6039 96.7258 30.6115 96.715 30.6223C96.7043 30.6331 96.6966 30.6465 96.6928 30.6612L92.4662 46.265C92.4625 46.2787 92.4623 46.2932 92.4656 46.307C92.4688 46.3209 92.4756 46.3337 92.4851 46.3443C92.4946 46.3548 92.5066 46.3629 92.5201 46.3676C92.5335 46.3723 92.5479 46.3736 92.5619 46.3713L102.443 44.686C102.458 44.6835 102.472 44.677 102.483 44.6672C102.495 44.6574 102.504 44.6446 102.509 44.6302L107.919 27.9631C107.923 27.9487 107.924 27.9333 107.921 27.9185C107.917 27.9037 107.91 27.8901 107.9 27.879C107.89 27.8678 107.877 27.8597 107.862 27.8553C107.848 27.851 107.832 27.8505 107.817 27.8541L96.754 30.6001ZM53.6987 32.1791C53.6802 32.1837 53.6636 32.1942 53.6516 32.2091C53.6396 32.224 53.6328 32.2424 53.6322 32.2615L53.4674 35.2334C53.4666 35.2471 53.469 35.2609 53.4745 35.2736C53.48 35.2862 53.4884 35.2974 53.499 35.3062C53.5096 35.315 53.5222 35.3212 53.5356 35.3242C53.5491 35.3273 53.5631 35.3271 53.5764 35.3237L62.8935 32.9872C62.9093 32.9831 62.9236 32.9747 62.9348 32.963C62.9461 32.9512 62.9539 32.9366 62.9573 32.9207L63.582 29.9887C63.5851 29.9742 63.5845 29.9591 63.5802 29.9449C63.5759 29.9307 63.5681 29.9178 63.5574 29.9075C63.5468 29.8971 63.5338 29.8896 63.5195 29.8857C63.5051 29.8818 63.4901 29.8815 63.4757 29.885L53.6987 32.1791ZM83.2502 33.9388C83.2279 33.9443 83.2076 33.9559 83.1916 33.9724C83.1757 33.9888 83.1646 34.0094 83.1598 34.0318L79.9912 48.3251C79.987 48.3447 79.9876 48.3651 79.9931 48.3844C79.9986 48.4037 80.0088 48.4213 80.0227 48.4358C80.0366 48.4502 80.0539 48.461 80.0729 48.4672C80.092 48.4734 80.1123 48.4748 80.1321 48.4713L90.5523 46.6611C90.5754 46.6574 90.5969 46.6471 90.6143 46.6316C90.6318 46.6161 90.6444 46.5958 90.6507 46.5733L94.9038 31.1902C94.9097 31.1695 94.91 31.1475 94.9046 31.1266C94.8993 31.1057 94.8885 31.0866 94.8734 31.0712C94.8583 31.0558 94.8394 31.0447 94.8186 31.039C94.7978 31.0333 94.7758 31.0332 94.755 31.0387L83.2502 33.9388ZM42.5421 34.8213C42.5239 34.826 42.5077 34.8367 42.4961 34.8516C42.4846 34.8665 42.4783 34.8849 42.4783 34.9037L42.4518 37.9687C42.4517 37.9817 42.4547 37.9945 42.4604 38.0061C42.4661 38.0178 42.4745 38.028 42.4847 38.036C42.495 38.0439 42.5069 38.0494 42.5196 38.052C42.5324 38.0547 42.5455 38.0543 42.5581 38.0511L51.6678 35.773C51.6844 35.7688 51.6994 35.7598 51.7108 35.747C51.7222 35.7341 51.7295 35.7182 51.7316 35.7012L52.0453 32.6894C52.0469 32.6759 52.0453 32.6621 52.0405 32.6493C52.0356 32.6365 52.0278 32.6251 52.0177 32.616C52.0075 32.6068 51.9953 32.6003 51.982 32.5969C51.9688 32.5935 51.9549 32.5933 51.9416 32.5964L42.5421 34.8213ZM69.2759 37.3546C69.2591 37.3589 69.2439 37.368 69.2321 37.3807C69.2203 37.3935 69.2125 37.4093 69.2094 37.4264L66.841 50.6245C66.8382 50.6388 66.8389 50.6536 66.8431 50.6676C66.8473 50.6816 66.8548 50.6943 66.865 50.7048C66.8752 50.7152 66.8877 50.723 66.9016 50.7276C66.9155 50.7321 66.9302 50.7332 66.9446 50.7308L78.1437 48.7504C78.1612 48.7472 78.1772 48.7389 78.19 48.7267C78.2028 48.7144 78.2116 48.6986 78.2155 48.6813L81.4266 34.4891C81.4303 34.474 81.4299 34.4583 81.4257 34.4434C81.4215 34.4285 81.4136 34.415 81.4027 34.404C81.3917 34.3931 81.3782 34.3852 81.3633 34.381C81.3484 34.3768 81.3327 34.3765 81.3177 34.3801L69.2759 37.3546ZM40.6495 38.4923C40.6694 38.4877 40.6873 38.4765 40.7003 38.4607C40.7132 38.4448 40.7206 38.4251 40.7213 38.4046L40.8037 35.3503C40.804 35.3361 40.8011 35.322 40.7952 35.309C40.7893 35.2961 40.7804 35.2847 40.7694 35.2757C40.7583 35.2667 40.7454 35.2604 40.7315 35.2572C40.7176 35.254 40.7032 35.254 40.6894 35.2573L31.8587 37.3227C31.8364 37.3284 31.817 37.3421 31.8043 37.3613C31.7915 37.3804 31.7863 37.4036 31.7896 37.4264L32.2389 40.4727C32.2407 40.4856 32.2452 40.4979 32.2521 40.5089C32.259 40.5199 32.2682 40.5293 32.2789 40.5366C32.2897 40.5439 32.3019 40.5488 32.3146 40.5511C32.3274 40.5533 32.3406 40.5529 32.3532 40.5498L40.6495 38.4923ZM23.1796 39.6115C25.5348 39.8472 27.8909 40.097 30.2478 40.3611C30.288 40.3655 30.3287 40.3607 30.3667 40.347C30.4048 40.3334 30.4392 40.3112 30.4674 40.2823C30.4956 40.2533 30.5168 40.2183 30.5294 40.1799C30.542 40.1415 30.5457 40.1007 30.5403 40.0607L30.2505 38.0139C30.2456 37.9775 30.2331 37.9425 30.2138 37.9112C30.1945 37.8799 30.1689 37.853 30.1386 37.8322C30.1083 37.8115 30.074 37.7973 30.0379 37.7905C30.0017 37.7838 29.9646 37.7847 29.9289 37.7932L22.7224 39.4599C22.7118 39.4617 22.6719 39.4591 22.6028 39.452C22.5603 39.4484 22.5381 39.4661 22.5363 39.5051C22.5357 39.5234 22.5425 39.5413 22.5555 39.5548C22.5685 39.5682 22.5864 39.5762 22.6055 39.5769C22.7986 39.5804 22.99 39.592 23.1796 39.6115ZM55.8971 40.6641C55.8811 40.6682 55.8668 40.677 55.8559 40.6893C55.845 40.7016 55.8381 40.7169 55.8359 40.7332L54.4324 52.7883C54.431 52.801 54.4325 52.8138 54.4369 52.8258C54.4413 52.8378 54.4484 52.8486 54.4577 52.8573C54.467 52.8661 54.4782 52.8726 54.4904 52.8763C54.5026 52.88 54.5155 52.8808 54.5281 52.8787L65.036 51.0338C65.0526 51.0309 65.0678 51.0229 65.0797 51.011C65.0915 50.9991 65.0995 50.9839 65.1025 50.9674L67.471 37.9049C67.4731 37.8914 67.4719 37.8777 67.4674 37.8649C67.463 37.852 67.4554 37.8405 67.4454 37.8313C67.4354 37.822 67.4233 37.8155 67.4101 37.8121C67.3969 37.8087 67.3832 37.8086 67.3699 37.8118L55.8971 40.6641ZM43.0392 45.3479C42.9187 48.4261 42.8443 51.5221 42.8159 54.6357C42.8158 54.6749 42.8242 54.7137 42.8406 54.7493C42.857 54.7848 42.8809 54.8164 42.9108 54.8417C42.9407 54.8671 42.9758 54.8855 43.0136 54.8959C43.0514 54.9062 43.091 54.9082 43.1296 54.9016L52.5264 53.203C52.5824 53.1932 52.6338 53.1657 52.6731 53.1245C52.7123 53.0834 52.7373 53.0308 52.7444 52.9743L54.1373 41.4935C54.1429 41.451 54.138 41.4078 54.1231 41.3676C54.1082 41.3274 54.0837 41.2915 54.0517 41.2629C54.0198 41.2343 53.9813 41.214 53.9397 41.2037C53.8981 41.1934 53.8546 41.1934 53.813 41.2037L43.2838 43.7663C43.2265 43.7798 43.1754 43.8119 43.1383 43.8576C43.1013 43.9033 43.0805 43.96 43.0791 44.0188C43.0685 44.4601 43.0552 44.9031 43.0392 45.3479ZM7.63434 71.138C7.83105 72.6372 8.95547 74.2561 10.5717 74.4315C18.1547 75.2574 25.7422 76.0974 33.334 76.9515C33.3722 76.9558 33.4109 76.9517 33.4474 76.9396C33.4839 76.9275 33.5173 76.9076 33.5453 76.8813C33.5734 76.8551 33.5954 76.823 33.6099 76.7874C33.6243 76.7518 33.6309 76.7135 33.6291 76.6751C33.5706 75.1581 34.2565 74.1329 35.6866 73.5995C35.7431 73.5784 35.7908 73.5385 35.8217 73.4863C35.8526 73.4341 35.8649 73.3728 35.8567 73.3124L32.0687 46.5149C32.0604 46.4563 32.0329 46.4022 31.9906 46.3608C31.9483 46.3195 31.8935 46.2933 31.8348 46.2863L4.08295 43.0459C4.04256 43.041 4.00161 43.0455 3.96323 43.059C3.92484 43.0724 3.89006 43.0945 3.86156 43.1235C3.83306 43.1525 3.81159 43.1877 3.79882 43.2263C3.78605 43.2649 3.78231 43.306 3.78789 43.3463C4.19194 46.2136 4.57915 49.0818 4.94953 51.9509C5.77358 58.3546 6.79966 64.7317 7.63434 71.138ZM41.0535 55.2126C41.0765 55.2083 41.0973 55.1961 41.1124 55.1782C41.1274 55.1602 41.1357 55.1376 41.1359 55.1142L41.4124 44.3351C41.4128 44.3196 41.4097 44.3041 41.4032 44.29C41.3967 44.2759 41.387 44.2635 41.3749 44.2537C41.3628 44.2439 41.3487 44.2371 41.3335 44.2337C41.3183 44.2303 41.3026 44.2304 41.2875 44.2341L34.182 46.0125C34.1581 46.0187 34.1373 46.0336 34.1236 46.0541C34.1099 46.0747 34.1042 46.0996 34.1076 46.1241L35.567 56.143C35.5689 56.1566 35.5735 56.1696 35.5807 56.1814C35.5878 56.1931 35.5973 56.2033 35.6085 56.2112C35.6196 56.2192 35.6324 56.2248 35.6458 56.2277C35.6592 56.2306 35.6731 56.2307 35.6866 56.228L41.0535 55.2126ZM110.856 45.1246C110.84 45.126 110.825 45.1321 110.813 45.142C110.8 45.1519 110.791 45.1653 110.787 45.1804L105.582 61.3451C105.578 61.3569 105.577 61.3694 105.579 61.3817C105.581 61.3939 105.586 61.4055 105.593 61.4156C105.6 61.4256 105.61 61.4338 105.621 61.4396C105.632 61.4454 105.644 61.4485 105.656 61.4488H107.323C107.34 61.449 107.357 61.4437 107.371 61.4336C107.385 61.4236 107.395 61.4093 107.4 61.393L112.807 45.0874C112.812 45.0748 112.813 45.0612 112.811 45.048C112.809 45.0347 112.803 45.0222 112.795 45.0116C112.787 45.001 112.776 44.9927 112.764 44.9873C112.751 44.982 112.738 44.9798 112.725 44.9811L110.856 45.1246ZM103.74 46.1268C103.725 46.129 103.71 46.1354 103.699 46.1452C103.687 46.1551 103.678 46.168 103.673 46.1826L98.7583 61.7837C98.7538 61.7967 98.7526 61.8106 98.7549 61.8242C98.7571 61.8377 98.7627 61.8505 98.7712 61.8613C98.7796 61.8721 98.7907 61.8807 98.8033 61.8862C98.8159 61.8916 98.8296 61.8939 98.8433 61.8927L103.134 61.5764C103.15 61.5749 103.166 61.5686 103.179 61.5582C103.191 61.5477 103.201 61.5337 103.205 61.5179L108.447 45.5446C108.452 45.5312 108.453 45.5167 108.451 45.5026C108.448 45.4886 108.442 45.4754 108.433 45.4644C108.424 45.4535 108.412 45.445 108.399 45.44C108.386 45.4349 108.371 45.4334 108.357 45.4356L103.74 46.1268ZM91.9718 48.1284C91.954 48.1315 91.9376 48.1396 91.9243 48.1519C91.9111 48.1642 91.9018 48.18 91.8974 48.1975L87.91 62.5945C87.9061 62.609 87.9058 62.6242 87.909 62.6388C87.9122 62.6535 87.919 62.6672 87.9286 62.6787C87.9383 62.6902 87.9506 62.6991 87.9645 62.7048C87.9784 62.7105 87.9935 62.7128 88.0084 62.7114L96.9028 62.015C96.9209 62.0133 96.9381 62.0063 96.9522 61.995C96.9664 61.9837 96.977 61.9684 96.9826 61.9512L101.847 46.6239C101.852 46.6087 101.853 46.5926 101.849 46.5771C101.846 46.5616 101.839 46.5471 101.829 46.5351C101.818 46.5232 101.805 46.514 101.79 46.5086C101.775 46.5032 101.759 46.5017 101.743 46.5042L91.9718 48.1284ZM79.5446 50.2337C79.5255 50.2369 79.5077 50.2456 79.4935 50.2589C79.4793 50.2721 79.4693 50.2893 79.4649 50.3082L76.5142 63.4504C76.5109 63.4654 76.5111 63.481 76.5148 63.496C76.5186 63.5109 76.5258 63.5248 76.5359 63.5364C76.546 63.548 76.5586 63.5571 76.5729 63.563C76.5871 63.5688 76.6026 63.5712 76.6179 63.57L86.0865 62.8603C86.1068 62.8588 86.126 62.8512 86.1417 62.8383C86.1574 62.8255 86.1688 62.8081 86.1742 62.7885L90.1031 48.6096C90.1073 48.5936 90.1075 48.5769 90.1036 48.5609C90.0997 48.5448 90.0918 48.5301 90.0807 48.5179C90.0696 48.5057 90.0556 48.4965 90.04 48.4912C90.0244 48.4858 90.0077 48.4845 89.9914 48.4873L79.5446 50.2337ZM66.5326 52.464C66.5114 52.4675 66.4917 52.4777 66.4765 52.4929C66.4612 52.5082 66.4511 52.5278 66.4476 52.549L64.3183 64.4074C64.3154 64.4229 64.3162 64.4389 64.3204 64.4541C64.3247 64.4694 64.3323 64.4834 64.3429 64.4952C64.3534 64.507 64.3665 64.5162 64.3811 64.5222C64.3957 64.5282 64.4115 64.5307 64.4273 64.5297L74.7173 63.7029C74.7393 63.7013 74.7601 63.6926 74.7768 63.6783C74.7936 63.664 74.8053 63.6446 74.8103 63.6232L77.7078 50.7228C77.7114 50.7064 77.711 50.6893 77.7066 50.673C77.7021 50.6568 77.6938 50.6418 77.6823 50.6295C77.6707 50.6172 77.6564 50.6079 77.6404 50.6024C77.6245 50.5969 77.6075 50.5953 77.5908 50.5979L66.5326 52.464ZM54.2064 54.5959C54.1894 54.5986 54.1736 54.6069 54.1617 54.6193C54.1497 54.6318 54.1421 54.6478 54.14 54.665L52.8374 65.3856C52.8357 65.3976 52.8368 65.4099 52.8406 65.4214C52.8444 65.433 52.8507 65.4435 52.8592 65.4522C52.8676 65.461 52.878 65.4676 52.8894 65.4718C52.9009 65.4759 52.9131 65.4773 52.9252 65.476L62.5692 64.6599C62.5868 64.6584 62.6035 64.651 62.6165 64.639C62.6295 64.6269 62.6381 64.6109 62.641 64.5935L64.7224 52.8973C64.7247 52.8845 64.724 52.8714 64.7202 52.859C64.7163 52.8466 64.7095 52.8354 64.7004 52.8262C64.6912 52.8171 64.6799 52.8103 64.6676 52.8064C64.6552 52.8026 64.6421 52.8018 64.6293 52.8042L54.2064 54.5959ZM42.6538 58.11C42.5528 60.7417 42.4925 63.3733 42.473 66.005C42.4725 66.0416 42.4797 66.0779 42.4942 66.1117C42.5087 66.1454 42.5301 66.1757 42.5572 66.2008C42.5842 66.2258 42.6162 66.2449 42.6512 66.257C42.6861 66.2691 42.7232 66.2738 42.7601 66.2708L50.9767 65.6062C51.0381 65.6012 51.0959 65.5753 51.1405 65.5327C51.185 65.4901 51.2135 65.4334 51.2212 65.3723L52.4307 55.2524C52.4355 55.2112 52.4306 55.1694 52.4165 55.1304C52.4023 55.0914 52.3794 55.0563 52.3494 55.0279C52.3194 54.9995 52.2833 54.9785 52.2438 54.9667C52.2044 54.955 52.1628 54.9527 52.1224 54.96L42.893 56.5709C42.8305 56.5823 42.774 56.6152 42.7336 56.6639C42.6931 56.7125 42.6715 56.7738 42.6724 56.8368C42.6759 57.2656 42.6697 57.69 42.6538 58.11ZM40.7053 66.417C40.7253 66.4151 40.7439 66.4059 40.7576 66.3912C40.7713 66.3765 40.7792 66.3573 40.7797 66.3372L41.0642 56.9324C41.0644 56.9201 41.0619 56.9079 41.0568 56.8967C41.0517 56.8855 41.0441 56.8756 41.0347 56.8677C41.0253 56.8598 41.0142 56.8541 41.0023 56.8511C40.9903 56.848 40.9779 56.8477 40.9658 56.85L35.8673 57.7804C35.8469 57.7843 35.8287 57.7958 35.8164 57.8126C35.804 57.8293 35.7985 57.8501 35.8009 57.8708L37.0316 66.7307C37.0343 66.7521 37.0453 66.7716 37.0622 66.785C37.0791 66.7984 37.1006 66.8047 37.122 66.8024L40.7053 66.417ZM102.259 76.4864C102.265 76.4867 102.27 76.4876 102.275 76.489L102.459 76.5395C102.48 76.5454 102.502 76.5428 102.522 76.5324C102.541 76.522 102.555 76.5046 102.562 76.4837L106.815 63.3148C106.819 63.3024 106.821 63.2891 106.819 63.2761C106.817 63.2631 106.812 63.2507 106.805 63.2398C106.797 63.229 106.787 63.2201 106.776 63.2137C106.764 63.2074 106.751 63.2038 106.738 63.2032L104.976 63.1102C104.957 63.1094 104.938 63.115 104.923 63.1261C104.907 63.1372 104.896 63.1531 104.891 63.1713L100.709 76.2896C100.706 76.3018 100.705 76.3145 100.707 76.327C100.709 76.3395 100.714 76.3514 100.721 76.3618C100.728 76.3723 100.737 76.381 100.748 76.3873C100.759 76.3937 100.771 76.3976 100.784 76.3986L102.259 76.4864ZM94.3589 76.0052C94.3553 76.0175 94.3545 76.0305 94.3566 76.0432C94.3587 76.0558 94.3636 76.0679 94.3711 76.0784C94.3785 76.0889 94.3882 76.0975 94.3994 76.1037C94.4107 76.1099 94.4232 76.1135 94.436 76.1142L98.2904 76.3322C98.3095 76.3337 98.3285 76.3288 98.3444 76.3182C98.3603 76.3076 98.3722 76.2919 98.3781 76.2737L102.602 63.3946C102.606 63.3815 102.607 63.3675 102.605 63.3539C102.603 63.3402 102.597 63.3273 102.589 63.3163C102.581 63.3053 102.57 63.2966 102.557 63.2907C102.545 63.2849 102.531 63.2823 102.517 63.283L98.2718 63.5754C98.255 63.5766 98.239 63.5829 98.2257 63.5933C98.2125 63.6037 98.2026 63.6178 98.1974 63.6338L94.3589 76.0052ZM84.4092 75.5134C84.406 75.5258 84.4056 75.5387 84.4081 75.5512C84.4105 75.5638 84.4158 75.5756 84.4235 75.5858C84.4311 75.596 84.441 75.6044 84.4523 75.6102C84.4636 75.6161 84.4762 75.6194 84.4889 75.6198L92.53 76.0185C92.549 76.0193 92.5677 76.0137 92.5831 76.0026C92.5985 75.9915 92.6098 75.9756 92.6151 75.9574L96.4164 63.8704C96.4203 63.8572 96.4209 63.8433 96.4183 63.8298C96.4156 63.8163 96.4097 63.8037 96.4011 63.7929C96.3924 63.7822 96.3813 63.7737 96.3687 63.7683C96.3561 63.7628 96.3424 63.7604 96.3286 63.7614L87.4289 64.4419C87.411 64.4431 87.3938 64.4498 87.38 64.4613C87.3661 64.4728 87.3563 64.4883 87.3518 64.5057L84.4092 75.5134ZM74.0846 74.918C74.0807 74.9351 74.0806 74.9529 74.0843 74.97C74.0881 74.9872 74.0955 75.0033 74.1062 75.0173C74.1168 75.0312 74.1304 75.0427 74.146 75.0508C74.1616 75.0589 74.1787 75.0635 74.1963 75.0642L82.6228 75.4922C82.6502 75.4938 82.6772 75.4859 82.6995 75.4699C82.7218 75.454 82.7379 75.4309 82.7451 75.4044L85.6585 64.7264C85.6632 64.708 85.6635 64.6887 85.6593 64.6702C85.655 64.6517 85.6465 64.6344 85.6343 64.6199C85.622 64.6053 85.6066 64.5939 85.5891 64.5865C85.5715 64.5792 85.5525 64.5761 85.5336 64.5775L76.2139 65.274C76.1877 65.2758 76.1629 65.2861 76.1432 65.3034C76.1235 65.3207 76.1101 65.344 76.1049 65.3697L74.0846 74.918ZM63.3879 74.498C66.2978 74.6717 69.221 74.8179 72.1574 74.9366C72.2193 74.9386 72.28 74.9187 72.329 74.8803C72.378 74.842 72.4123 74.7876 72.4259 74.7266L74.377 65.7657C74.3858 65.7253 74.3851 65.6834 74.3748 65.6434C74.3646 65.6033 74.3452 65.5662 74.3181 65.535C74.291 65.5038 74.257 65.4793 74.2187 65.4635C74.1805 65.4477 74.1391 65.4411 74.0979 65.4441L64.1934 66.2283C64.1342 66.2328 64.0783 66.2569 64.0344 66.2969C63.9906 66.3369 63.9614 66.3904 63.9515 66.4489L62.6622 74.1604C62.6562 74.1975 62.6581 74.2355 62.6677 74.2719C62.6773 74.3083 62.6944 74.3422 62.718 74.3715C62.7415 74.4008 62.771 74.4249 62.8044 74.4421C62.8379 74.4593 62.8746 74.4693 62.9121 74.4714C63.0751 74.4785 63.2338 74.4874 63.3879 74.498ZM51.8619 73.7617C51.8597 73.7808 51.8614 73.8002 51.867 73.8186C51.8726 73.8371 51.8819 73.8542 51.8944 73.8689C51.9068 73.8836 51.9221 73.8956 51.9394 73.9041C51.9567 73.9126 51.9755 73.9175 51.9948 73.9185L60.8228 74.3465C60.8572 74.3483 60.8911 74.3374 60.9181 74.3158C60.945 74.2942 60.9631 74.2635 60.9689 74.2295L62.33 66.5712C62.3336 66.5501 62.3325 66.5284 62.3266 66.5079C62.3206 66.4873 62.3101 66.4683 62.2957 66.4524C62.2814 66.4366 62.2636 66.4241 62.2437 66.4162C62.2239 66.4082 62.2025 66.4048 62.1811 66.4064L52.7045 67.1188C52.6716 67.1211 52.6406 67.1348 52.6168 67.1576C52.593 67.1805 52.5779 67.2109 52.5743 67.2437L51.8619 73.7617ZM42.3242 73.3231C42.3241 73.3518 42.3352 73.3794 42.355 73.4002C42.3748 73.421 42.4018 73.4333 42.4305 73.4347L50.0915 73.7803C50.1198 73.7818 50.1477 73.7725 50.1694 73.7542C50.1912 73.736 50.2051 73.7101 50.2085 73.6819L50.9793 67.4245C50.9814 67.408 50.9797 67.3913 50.9745 67.3756C50.9693 67.3599 50.9606 67.3456 50.9492 67.3336C50.9377 67.3217 50.9238 67.3124 50.9083 67.3065C50.8928 67.3006 50.8762 67.2982 50.8597 67.2995L42.4438 67.9774C42.416 67.98 42.3903 67.9929 42.3716 68.0136C42.3529 68.0343 42.3426 68.0611 42.3428 68.089L42.3242 73.3231ZM37.9089 73.1769C37.9126 73.2018 37.9251 73.2245 37.9441 73.2411C37.9631 73.2576 37.9873 73.2669 38.0125 73.2672L40.5591 73.2832C40.5868 73.2832 40.6135 73.2723 40.6334 73.253C40.6532 73.2336 40.6647 73.2073 40.6654 73.1795L40.7611 68.2246C40.7612 68.2099 40.7582 68.1954 40.7523 68.182C40.7465 68.1685 40.738 68.1564 40.7272 68.1464C40.7165 68.1364 40.7038 68.1288 40.69 68.1239C40.6761 68.1191 40.6614 68.1172 40.6468 68.1183L37.3294 68.3867C37.3151 68.388 37.3013 68.3922 37.2887 68.399C37.2761 68.4058 37.265 68.415 37.2561 68.4262C37.2471 68.4374 37.2405 68.4502 37.2367 68.464C37.2328 68.4778 37.2318 68.4922 37.2337 68.5064L37.9089 73.1769ZM35.5935 77.1296C38.6425 77.4725 41.8483 77.3689 44.9292 77.5018C63.9816 78.3188 83.0322 79.1685 102.081 80.051C102.678 80.0776 103.276 80.0714 103.875 80.0324C103.923 80.0291 103.969 80.0134 104.008 79.9867C104.047 79.9601 104.078 79.9236 104.099 79.8809C104.46 79.1189 104.225 78.7175 103.394 78.6767C80.9083 77.6134 62.0562 76.6219 41.4044 75.4709C39.8999 75.3858 38.398 75.4071 36.8881 75.4018C35.7796 75.3965 35.1204 75.8377 35.4792 77.0339C35.487 77.0599 35.5021 77.0828 35.5224 77.0999C35.5428 77.117 35.5676 77.1273 35.5935 77.1296ZM74.7678 103.326C69.2892 103.489 9.90446 105.291 9.84066 105.49C9.8386 105.497 9.83921 105.505 9.84245 105.512C9.84568 105.52 9.85147 105.528 9.85945 105.535C9.86743 105.542 9.87744 105.548 9.88884 105.553C9.90024 105.558 9.9128 105.562 9.92572 105.565C13.6543 106.238 17.3882 106.88 21.1275 107.489C22.9244 107.782 24.4051 107.705 26.2711 107.649C34.0828 107.417 48.5595 107.028 69.7012 106.482C71.1225 106.445 73.4865 106.35 76.7934 106.197C78.8747 106.099 80.3315 106.094 81.4027 104.499C82.5139 102.838 82.5998 101.051 81.6606 99.1371C78.7135 93.1348 75.8098 87.1095 72.9496 81.0612C72.9296 81.0178 72.898 80.9807 72.8581 80.954C72.8183 80.9272 72.7718 80.9119 72.7236 80.9096L70.5784 80.7953L69.2573 80.6757C68.9383 80.6474 68.8506 80.7758 68.9941 81.0612C71.7587 86.5247 74.5037 91.9935 77.2293 97.4677C78.5584 100.131 78.2713 102.755 74.7678 103.326ZM79.425 89.4266C79.4316 89.4397 79.4414 89.451 79.4534 89.4593C79.4655 89.4677 79.4795 89.4729 79.4941 89.4744L109.032 92.9966C109.048 92.9987 109.065 92.9963 109.08 92.9896C109.095 92.9829 109.107 92.9721 109.116 92.9586C109.126 92.9451 109.131 92.9293 109.131 92.913C109.132 92.8967 109.128 92.8805 109.12 92.8663L103.466 82.2733C103.459 82.2595 103.448 82.2477 103.435 82.2393C103.422 82.2309 103.407 82.2261 103.392 82.2254L75.443 80.9654C75.4277 80.9645 75.4125 80.9675 75.3988 80.9741C75.3851 80.9808 75.3733 80.991 75.3648 81.0036C75.3562 81.0162 75.351 81.0309 75.3498 81.0461C75.3486 81.0613 75.3514 81.0766 75.3579 81.0904L79.425 89.4266ZM84.6138 103.135L98.1894 104.767C98.5279 104.808 98.5926 104.694 98.3835 104.424L89.4465 92.9461C89.4021 92.8914 89.3383 92.8561 89.2684 92.8477L81.0811 91.8722C80.7692 91.8349 80.6779 91.9599 80.8073 92.247C82.0495 94.9832 82.8523 96.6738 83.2156 97.3189C84.1956 99.052 84.5837 100.893 84.3799 102.843C84.3731 102.912 84.3938 102.982 84.4375 103.036C84.4812 103.091 84.5444 103.126 84.6138 103.135ZM101.401 105.177C101.415 105.193 101.435 105.204 101.456 105.206L104.838 105.565C104.854 105.567 104.871 105.563 104.885 105.556C104.9 105.548 104.912 105.536 104.92 105.521C104.927 105.507 104.931 105.49 104.929 105.474C104.927 105.457 104.92 105.442 104.909 105.429L94.4838 93.3847C94.47 93.3695 94.4511 93.36 94.4307 93.3581L92.1765 93.1375C92.1603 93.1355 92.1439 93.1384 92.1293 93.1458C92.1148 93.1532 92.1028 93.1648 92.0948 93.179C92.0869 93.1933 92.0833 93.2095 92.0846 93.2258C92.0859 93.2421 92.092 93.2576 92.1021 93.2704L101.401 105.177ZM107.844 105.719L115.54 106.684C115.608 106.692 115.677 106.674 115.732 106.633C115.788 106.592 115.824 106.531 115.835 106.463C115.941 105.83 115.824 105.323 115.505 104.722C113.878 101.661 112.257 98.5983 110.641 95.5325C110.62 95.4948 110.591 95.4625 110.556 95.4384C110.521 95.4144 110.48 95.3993 110.438 95.3943L98.0884 93.8127C97.6879 93.7613 97.6046 93.9004 97.8385 94.23C97.9803 94.4303 98.1318 94.6234 98.2931 94.8095C101.401 98.4353 104.53 102.043 107.679 105.631C107.722 105.681 107.781 105.712 107.844 105.719ZM109.71 108.109C107.467 108.093 104.859 107.768 102.719 107.516C96.3818 106.77 90.0393 106.012 83.6915 105.243C83.6431 105.237 83.5944 105.245 83.5503 105.265C83.5063 105.284 83.4687 105.315 83.4416 105.355C82.279 107.038 80.6761 108.038 78.6328 108.353C78.5931 108.359 78.5567 108.379 78.5303 108.41C78.504 108.44 78.4894 108.48 78.4893 108.521V108.622C78.4889 108.657 78.4957 108.693 78.5093 108.725C78.5228 108.758 78.5428 108.788 78.5681 108.813C78.5934 108.838 78.6234 108.858 78.6565 108.871C78.6895 108.884 78.7249 108.891 78.7604 108.89C81.4399 108.829 109.702 108.268 109.761 108.167C109.764 108.161 109.765 108.154 109.764 108.147C109.763 108.141 109.759 108.134 109.754 108.128C109.749 108.122 109.743 108.117 109.735 108.114C109.727 108.111 109.719 108.109 109.71 108.109ZM76.1456 108.658C76.1448 108.628 76.1381 108.599 76.1259 108.571C76.1137 108.544 76.0962 108.519 76.0744 108.498C76.0527 108.478 76.027 108.462 75.999 108.451C75.971 108.44 75.9411 108.435 75.9111 108.436L66.5786 108.68C66.518 108.682 66.4605 108.707 66.4188 108.751C66.377 108.795 66.3545 108.854 66.356 108.915L66.3563 108.925C66.3571 108.955 66.3638 108.985 66.376 109.012C66.3882 109.04 66.4057 109.064 66.4275 109.085C66.4493 109.106 66.4749 109.122 66.5029 109.133C66.531 109.143 66.5608 109.149 66.5909 109.148L75.9233 108.903C75.9839 108.902 76.0414 108.876 76.0832 108.832C76.1249 108.788 76.1475 108.729 76.1459 108.669L76.1456 108.658ZM33.8976 109.682C35.932 109.946 38.1525 110.047 40.5591 109.985C47.3323 109.81 54.1054 109.619 60.8786 109.414C61.4022 109.398 62.4576 109.448 62.9068 109.228C62.9777 109.192 63.0379 109.157 63.0876 109.121C63.4668 108.852 63.4243 108.724 62.96 108.736L33.1267 109.52C32.7492 109.529 32.7466 109.565 33.1187 109.629C33.1878 109.641 33.2578 109.649 33.3287 109.653C33.7027 109.673 33.8923 109.682 33.8976 109.682ZM12.3952 113.404C11.8317 113.212 11.7493 113.359 12.148 113.845C12.1834 113.888 12.2319 113.919 12.2864 113.933C12.3409 113.947 12.3986 113.943 12.451 113.922L12.6903 113.826C13.3956 113.55 13.3699 113.414 12.6132 113.417H12.4829C12.4528 113.417 12.4236 113.413 12.3952 113.404ZM12.6158 127.522C17.3794 131.591 24.3944 128.428 24.7108 122.24C24.787 120.721 24.3971 119.254 23.5412 117.838C23.3586 117.535 23.2009 117.547 23.068 117.875L22.5682 119.108C22.5425 119.173 22.5425 119.245 22.5682 119.31C23.2328 120.897 23.6501 122.187 22.9803 123.752C22.1775 125.629 20.2689 126.775 18.2167 126.371C14.4952 125.634 13.5781 120.794 16.6829 118.662C17.9961 117.761 19.4324 117.591 20.9919 118.151C21.0271 118.164 21.0646 118.169 21.1018 118.166C21.1391 118.163 21.1753 118.153 21.2082 118.135C21.2411 118.117 21.2698 118.092 21.2925 118.063C21.3153 118.033 21.3315 117.999 21.3401 117.963L22.0738 114.887C22.0821 114.853 22.0836 114.818 22.0781 114.784C22.0727 114.749 22.0605 114.716 22.0422 114.686C22.0239 114.657 21.9999 114.631 21.9715 114.611C21.9432 114.59 21.9111 114.576 21.8771 114.568C21.4677 114.471 21.2338 114.632 21.1753 115.052C21.169 115.095 21.152 115.137 21.1258 115.172C21.0997 115.207 21.0652 115.235 21.0254 115.254C20.9856 115.273 20.9418 115.281 20.898 115.279C20.8541 115.277 20.8115 115.263 20.7739 115.241C19.8825 114.695 18.9389 114.371 17.9429 114.27C14.8009 113.951 11.7812 116.142 10.7072 118.991C9.56952 122.003 10.1091 125.382 12.6158 127.522ZM107.908 115.565C103.713 114.549 100.755 115.853 99.0321 119.475C98.3108 120.992 98.2266 122.677 98.7795 124.528C99.4494 127.692 102.599 129.616 105.678 129.35C110.593 128.928 113.033 123.577 110.962 119.369C110.946 119.336 110.924 119.307 110.896 119.283C110.868 119.259 110.836 119.241 110.801 119.231C110.766 119.22 110.729 119.217 110.693 119.222C110.656 119.226 110.621 119.238 110.59 119.257L110.215 119.478C110.185 119.496 110.158 119.52 110.137 119.548C110.116 119.577 110.101 119.609 110.092 119.644C110.084 119.678 110.082 119.714 110.088 119.749C110.094 119.784 110.106 119.817 110.125 119.847C111.552 122.139 111.087 125.499 108.519 126.636C106.297 127.623 103.394 126.371 102.807 123.914C101.86 119.967 105.579 117.378 109.131 118.994C109.159 119.008 109.185 119.027 109.208 119.05L109.335 119.177C109.569 119.411 109.719 119.367 109.785 119.045L110.68 114.69C110.695 114.622 110.681 114.55 110.643 114.491C110.604 114.433 110.544 114.391 110.476 114.377C110.307 114.343 110.155 114.372 110.019 114.464C109.88 114.558 109.789 114.741 109.745 115.012C109.692 115.331 109.64 115.65 109.591 115.969C109.584 116.01 109.568 116.049 109.544 116.082C109.52 116.116 109.489 116.144 109.452 116.164C109.416 116.183 109.376 116.194 109.335 116.195C109.294 116.197 109.253 116.188 109.216 116.171L107.908 115.565ZM65.7803 123.601C67.1697 124.822 68.7265 125.396 70.4508 125.323C75.544 125.108 78.569 120.241 76.8864 115.52C76.8664 115.465 76.8297 115.419 76.7818 115.387C76.7339 115.356 76.6773 115.341 76.6206 115.344L75.7886 115.392C75.7442 115.395 75.7012 115.408 75.6635 115.432C75.6258 115.455 75.5946 115.488 75.5726 115.526C75.5507 115.565 75.5388 115.608 75.5379 115.653C75.5371 115.697 75.5474 115.741 75.5679 115.78C76.3069 117.2 76.3734 118.584 75.7673 119.932C73.6354 124.677 66.6124 122.367 67.7421 116.958C67.7953 116.704 67.9432 116.329 68.186 115.831C68.206 115.79 68.2151 115.745 68.2124 115.699C68.2096 115.654 68.1952 115.61 68.1704 115.571C68.1455 115.533 68.1112 115.501 68.0707 115.48C68.0301 115.458 67.9847 115.447 67.9388 115.448L63.9355 115.562C63.8738 115.565 63.8147 115.588 63.7682 115.629C63.7217 115.671 63.6907 115.727 63.6803 115.788C63.1859 118.888 63.2976 121.421 65.7803 123.601ZM62.1492 115.91C61.7841 117.622 61.8878 119.3 62.4602 120.942C62.4629 120.95 62.5453 121.033 62.5532 121.038C62.6153 121.065 62.6365 121.035 62.6171 120.948C62.2431 119.262 62.2795 117.584 62.726 115.913C62.7353 115.878 62.7372 115.841 62.7317 115.805C62.7262 115.769 62.7135 115.734 62.6941 115.703C62.4549 115.318 62.213 115.618 62.1492 115.91ZM11.0422 115.796L10.9279 115.812C10.8659 115.821 10.8088 115.85 10.7657 115.895C8.66839 118.167 8.06497 121.567 9.14421 124.393C9.14988 124.408 9.15933 124.421 9.17152 124.431C9.18372 124.441 9.19819 124.447 9.21332 124.449C9.27003 124.456 9.2913 124.435 9.27712 124.388C8.44244 121.32 9.35952 118.577 11.2389 116.136C11.448 115.865 11.3824 115.752 11.0422 115.796ZM46.6544 116.838L46.2849 118.691C46.1945 119.146 45.965 119.257 45.5964 119.023C39.8759 115.411 34.0199 121.464 35.2187 127.235C36.5744 133.755 45.312 134.903 48.6428 129.212C49.7512 127.32 49.9161 124.887 48.9777 122.801C48.7987 122.405 48.6135 122.012 48.4221 121.62C48.2431 121.255 48.081 121.263 47.9357 121.644L47.5742 122.591C47.5608 122.627 47.5556 122.666 47.5588 122.705C47.562 122.744 47.5736 122.782 47.5928 122.817C49.1239 125.557 48.4168 128.952 45.2402 129.821C39.5251 131.384 37.752 122.556 43.4938 121.49C44.2983 121.341 45.1055 121.429 45.9154 121.753C45.9497 121.767 45.9864 121.773 46.0233 121.772C46.0602 121.771 46.0964 121.762 46.1297 121.746C46.1629 121.73 46.1925 121.707 46.2165 121.679C46.2405 121.651 46.2583 121.618 46.269 121.583C46.7669 119.88 47.1125 118.147 47.3057 116.384C47.3126 116.314 47.2926 116.245 47.25 116.191C47.2073 116.136 47.1453 116.1 47.0771 116.091C45.1312 115.818 43.181 115.762 41.2263 115.924C39.9982 116.025 38.7648 116.122 37.5261 116.216C37.4841 116.219 37.4435 116.232 37.4076 116.254C37.3717 116.276 37.3414 116.306 37.3194 116.342C37.2973 116.378 37.2841 116.418 37.2807 116.46C37.2774 116.502 37.284 116.544 37.3001 116.583L37.4065 116.838C37.4335 116.903 37.485 116.954 37.5497 116.981C37.6144 117.008 37.6871 117.008 37.752 116.982C40.0753 116.035 42.6804 115.724 45.1499 116.259C45.5787 116.351 46.0102 116.439 46.4444 116.525C46.5141 116.539 46.5754 116.58 46.6147 116.639C46.6541 116.697 46.6684 116.769 46.6544 116.838ZM74.3884 117.794C74.3686 117.512 74.2934 117.236 74.1671 116.983C74.0408 116.729 73.8658 116.503 73.6522 116.318C73.4385 116.132 73.1903 115.99 72.9219 115.9C72.6534 115.81 72.3698 115.774 72.0874 115.794L71.4033 115.842C71.1209 115.862 70.8451 115.937 70.5917 116.063C70.3384 116.189 70.1124 116.364 69.9266 116.578C69.7409 116.792 69.5991 117.04 69.5092 117.308C69.4194 117.577 69.3833 117.86 69.4031 118.143L69.432 118.556C69.4518 118.839 69.5269 119.115 69.6533 119.368C69.7796 119.621 69.9546 119.847 70.1682 120.033C70.3819 120.219 70.6301 120.361 70.8985 120.45C71.167 120.54 71.4506 120.576 71.733 120.557L72.4171 120.509C72.6995 120.489 72.9753 120.414 73.2287 120.288C73.482 120.161 73.708 119.986 73.8938 119.773C74.0795 119.559 74.2213 119.311 74.3111 119.042C74.401 118.774 74.4371 118.49 74.4173 118.208L74.3884 117.794ZM99.3431 116.291C97.283 118.853 96.1585 122.064 97.5036 125.267C97.5077 125.278 97.513 125.287 97.5191 125.294C97.5252 125.301 97.5317 125.306 97.5381 125.307L97.5621 125.313C97.5677 125.314 97.5734 125.314 97.5787 125.311C97.584 125.309 97.5886 125.305 97.5921 125.299C97.5956 125.293 97.5979 125.286 97.5987 125.279C97.5995 125.272 97.5988 125.264 97.5966 125.257C96.7442 121.962 97.4061 119.042 99.5823 116.495C99.6762 116.385 99.7152 116.32 99.6993 116.299C99.6786 116.271 99.6519 116.248 99.6211 116.232C99.5904 116.216 99.5565 116.208 99.5221 116.207C99.4877 116.206 99.4536 116.213 99.4226 116.228C99.3915 116.242 99.3643 116.264 99.3431 116.291ZM36.3033 119.257C36.2613 119.223 36.2079 119.205 36.154 119.209C36.1001 119.212 36.0498 119.236 36.0135 119.276C33.5875 121.852 32.9415 124.865 34.0757 128.314C34.086 128.343 34.107 128.367 34.1342 128.38C34.2511 128.43 34.2848 128.359 34.2352 128.168C33.4218 124.909 34.3229 122.423 36.282 119.847C36.4716 119.597 36.4787 119.401 36.3033 119.257ZM17.2358 120.501C16.4189 121.492 16.3684 122.523 17.0843 123.595C19.3677 126.004 23.1477 123.165 21.0158 120.69C20.0518 119.57 18.7918 119.507 17.2358 120.501ZM105.337 124.659C108.602 126.868 110.973 121.517 107.56 120.522C104.646 119.834 103.038 122.902 105.337 124.659ZM42.2045 124.239C41.6853 124.868 41.5559 125.58 41.8164 126.376C41.96 127.131 42.3791 127.64 43.0738 127.904C46.8352 129.342 48.0925 123.617 44.3949 123.346C43.5071 123.28 42.7769 123.578 42.2045 124.239Z" fill="#6188E7"/>
<path d="M89.196 9.30772L86.559 9.2705C86.4977 9.26955 86.4387 9.24726 86.3921 9.20747C86.3456 9.16768 86.3143 9.11289 86.3038 9.05253C86.0752 7.8138 86.3295 6.67253 87.0667 5.62874C88.667 3.36747 90.7962 2.54254 93.4544 3.15393C94.0233 3.28507 94.0251 3.42241 93.4598 3.56595C91.6593 4.02671 90.4099 5.15291 89.7117 6.94455C89.4405 7.63746 89.3572 8.3224 89.4618 8.99936C89.468 9.03766 89.4658 9.07685 89.4552 9.11418C89.4447 9.15152 89.4261 9.1861 89.4007 9.21548C89.3754 9.24487 89.3439 9.26835 89.3086 9.28428C89.2732 9.30021 89.2348 9.30822 89.196 9.30772Z" fill="#B6CBFF"/>
<path d="M127.512 10.6103C127.22 10.5855 126.912 10.5572 126.59 10.5253C126.525 10.5181 126.466 10.4874 126.422 10.439C126.379 10.3905 126.354 10.3276 126.353 10.2621C126.273 3.17262 136.646 0.442628 139.275 7.47097C139.993 9.38489 139.53 11.5806 138.073 13.0001C136.127 14.8945 133.768 15.2613 130.994 14.1006C130.936 14.0759 130.889 14.0316 130.86 13.9757C130.831 13.9198 130.823 13.8558 130.838 13.7949C131.345 11.6258 129.203 10.7539 127.512 10.6103Z" fill="#B6CBFF"/>
<path d="M92.6177 10.1558C89.9861 8.21529 92.6868 5.51719 94.9862 5.5039C99.8118 5.47555 109.834 5.47555 125.053 5.5039C125.367 5.50567 125.442 5.64035 125.279 5.90795C124.475 7.24415 124.143 8.69997 124.285 10.2754C124.288 10.3123 124.284 10.3494 124.272 10.3845C124.26 10.4196 124.241 10.4518 124.216 10.479C124.191 10.5063 124.161 10.5281 124.127 10.5429C124.093 10.5577 124.056 10.5653 124.019 10.5652L93.8405 10.5333C93.3691 10.5333 92.9615 10.4074 92.6177 10.1558Z" fill="#B6CBFF"/>
<path d="M85.3158 17.761C85.1085 17.7433 84.9012 17.7291 84.6938 17.7184C84.6534 17.7168 84.6139 17.7058 84.5785 17.6862C84.543 17.6667 84.5125 17.6391 84.4894 17.6057C84.4662 17.5722 84.4511 17.5338 84.445 17.4935C84.439 17.4531 84.4423 17.4118 84.4546 17.3729C85.089 15.3757 85.851 13.429 86.7406 11.5328C86.7648 11.483 86.8035 11.4417 86.8515 11.4146C86.8995 11.3876 86.9545 11.3759 87.0091 11.3812L89.0374 11.5966C89.0775 11.6004 89.1161 11.6135 89.1503 11.6348C89.1845 11.6561 89.2134 11.6851 89.2347 11.7195C89.256 11.7539 89.2692 11.7928 89.2733 11.8333C89.2773 11.8737 89.2721 11.9146 89.258 11.9528L87.1793 17.6095C87.1611 17.6584 87.1292 17.7009 87.0876 17.7316C87.046 17.7623 86.9965 17.78 86.9453 17.7822C86.4048 17.8141 85.8617 17.8071 85.3158 17.761Z" fill="white"/>
<path d="M108.868 70.8004C107.771 72.8978 108.185 76.5262 108.196 78.9186C108.201 80.4232 108.483 81.521 109.116 82.7864C112.51 89.5967 116.08 96.3087 119.552 103.079C120.161 104.268 120.47 105.128 120.477 105.658C120.511 107.843 119.041 109.611 117.295 110.732C116.46 111.267 115.607 111.415 114.642 111.431C114.502 111.433 114.464 111.485 114.528 111.586C114.538 111.601 114.553 111.615 114.569 111.625C114.586 111.635 114.604 111.642 114.623 111.644C115.04 111.704 115.423 111.849 115.772 112.077C111.76 112.242 107.428 112.253 103.746 112.362C82.5191 112.993 61.2914 113.6 40.0629 114.185C37.814 114.246 35.6741 114.23 33.3588 113.975C23.0165 112.825 14.2028 111.688 6.91745 110.565C5.22948 110.304 4.24594 108.079 5.67872 106.769C5.72516 106.726 5.78563 106.701 5.84885 106.7C6.13062 106.691 6.37429 106.784 6.57986 106.979C6.6153 107.011 6.65517 107.033 6.69948 107.045C7.81061 107.32 8.93062 107.554 10.0595 107.747C14.5572 108.52 22.0321 109.755 32.4843 111.453C35.278 111.905 37.6253 112.128 40.5839 112.037C64.2704 111.322 87.9596 110.767 111.651 110.373C114.384 110.328 117.181 110.222 117.954 107.061C118.276 105.743 117.848 104.509 117.218 103.332C113.301 96.0093 109.38 88.6752 105.453 81.3296C105.429 81.288 105.418 81.2408 105.42 81.193C105.422 81.1452 105.437 81.0987 105.463 81.0585C106.45 79.5664 106.253 78.2355 104.87 77.0659C104.83 77.032 104.801 76.9872 104.786 76.937C104.772 76.8869 104.772 76.8337 104.788 76.7841C109.653 61.1325 114.863 45.5925 119.964 30.0179C120.54 28.26 121.066 26.4887 121.543 24.7041C121.553 24.666 121.571 24.6304 121.597 24.6001C121.623 24.5697 121.655 24.5453 121.692 24.5287C122.229 24.2868 122.877 24.0821 123.292 23.686C124.493 22.5342 124.656 21.19 123.781 19.6535C123.762 19.6204 123.75 19.5834 123.747 19.5453C123.744 19.5071 123.749 19.4688 123.762 19.4329L126.187 12.7342C126.208 12.6749 126.25 12.6252 126.305 12.594C126.359 12.5628 126.423 12.5522 126.484 12.564L128.26 12.8883C128.298 12.8951 128.334 12.9102 128.365 12.9326C128.397 12.9549 128.423 12.984 128.442 13.0177C128.461 13.0514 128.472 13.089 128.475 13.1277C128.478 13.1664 128.473 13.2054 128.459 13.2419C122.564 29.255 117.561 45.5712 111.96 61.6854C110.905 64.7175 109.875 67.7559 108.868 70.8004Z" fill="white"/>
<path d="M10.5713 37.8786C9.84823 37.7722 9.84114 37.6331 10.55 37.4612C34.3872 31.6504 58.2961 25.8466 82.2769 20.0499C82.9751 19.8815 83.684 19.8159 84.4034 19.8532C92.791 20.2909 101.178 20.7481 109.564 21.2248C110.542 21.2815 110.554 21.4215 109.601 21.6448C107.237 22.1995 104.88 22.7683 102.53 23.3514C101.763 23.541 100.86 23.6181 99.8211 23.5826C94.8556 23.4125 89.8936 23.1866 84.9351 22.9048C84.329 22.8702 83.1461 23.0483 82.3726 23.2318C52.2318 30.3381 31.2833 35.2966 19.5268 38.1072C18.0808 38.4528 17.068 38.6627 15.5528 38.5033C13.9277 38.3331 12.2672 38.1249 10.5713 37.8786Z" fill="#B6CBFF"/>
<path d="M2.59229 40.3291C2.28039 39.8825 2.48418 39.4926 3.20367 39.1595C3.25053 39.1386 3.30122 39.1312 3.34987 39.1382C12.7954 40.3521 22.0035 41.496 30.9741 42.57C32.1571 42.7108 33.7334 42.4105 35.1157 42.0729C63.5081 35.1083 91.8634 28.0055 120.304 21.2324C120.733 21.1314 121.163 21.0383 121.596 20.9533C121.659 20.9413 121.724 20.9526 121.779 20.9852C124.206 22.3834 119.086 23.0081 118.48 23.1543C88.8118 30.3421 62.2907 36.9691 34.2278 43.8991C32.9014 44.2287 31.8195 44.2287 30.3362 44.0533C21.7111 43.0236 13.0852 41.9976 4.45836 40.975C3.76722 40.8953 3.00165 40.9112 2.59229 40.3291Z" fill="white"/>
<path d="M109.695 27.474C109.709 27.43 109.735 27.3906 109.769 27.3594C109.803 27.3282 109.844 27.3063 109.889 27.2959L114.153 26.291C114.457 26.2202 114.562 26.3336 114.466 26.6313L109.057 43.5057C109.042 43.5527 109.014 43.5945 108.977 43.6265C108.94 43.6584 108.895 43.6792 108.847 43.6865L104.729 44.343C104.684 44.3503 104.639 44.3458 104.596 44.3301C104.554 44.3145 104.516 44.2881 104.486 44.2534C104.457 44.2188 104.436 44.1771 104.427 44.1323C104.418 44.0875 104.42 44.0411 104.434 43.9975L109.695 27.474Z" fill="white"/>
<path d="M96.7537 30.6L107.817 27.854C107.832 27.8504 107.847 27.8509 107.862 27.8552C107.876 27.8596 107.889 27.8677 107.9 27.8788C107.91 27.89 107.917 27.9036 107.92 27.9184C107.924 27.9332 107.923 27.9486 107.918 27.963L102.509 44.6301C102.504 44.6445 102.495 44.6573 102.483 44.6671C102.472 44.6769 102.457 44.6834 102.442 44.6859L92.5617 46.3712C92.5477 46.3735 92.5333 46.3722 92.5198 46.3675C92.5064 46.3628 92.4944 46.3547 92.4848 46.3442C92.4753 46.3336 92.4686 46.3208 92.4653 46.3069C92.462 46.2931 92.4623 46.2786 92.466 46.2649L96.6926 30.6611C96.6964 30.6464 96.7041 30.6329 96.7148 30.6222C96.7256 30.6114 96.739 30.6038 96.7537 30.6Z" fill="white"/>
<path d="M83.2506 33.939L94.7554 31.0389C94.7763 31.0334 94.7982 31.0335 94.819 31.0392C94.8398 31.0449 94.8587 31.056 94.8738 31.0714C94.889 31.0868 94.8997 31.1059 94.9051 31.1268C94.9104 31.1477 94.9102 31.1696 94.9043 31.1904L90.6511 46.5735C90.6448 46.596 90.6322 46.6162 90.6148 46.6318C90.5974 46.6473 90.5758 46.6576 90.5528 46.6613L80.1325 48.4715C80.1128 48.475 80.0925 48.4736 80.0734 48.4674C80.0543 48.4612 80.037 48.4504 80.0231 48.436C80.0092 48.4215 79.999 48.4039 79.9935 48.3846C79.9881 48.3653 79.9874 48.3449 79.9917 48.3253L83.1602 34.032C83.1651 34.0096 83.1761 33.989 83.1921 33.9725C83.2081 33.9561 83.2283 33.9445 83.2506 33.939Z" fill="white"/>
<path d="M69.2753 37.3545L81.317 34.3799C81.3321 34.3763 81.3478 34.3766 81.3627 34.3808C81.3776 34.385 81.3911 34.393 81.402 34.4039C81.413 34.4148 81.4209 34.4284 81.4251 34.4433C81.4293 34.4582 81.4296 34.4739 81.426 34.4889L78.2149 48.6812C78.211 48.6985 78.2021 48.7142 78.1894 48.7265C78.1766 48.7388 78.1605 48.7471 78.1431 48.7503L66.944 50.7307C66.9296 50.7331 66.9149 50.732 66.901 50.7274C66.8871 50.7229 66.8745 50.7151 66.8643 50.7046C66.8542 50.6942 66.8467 50.6814 66.8425 50.6674C66.8383 50.6535 66.8376 50.6387 66.8403 50.6243L69.2088 37.4263C69.2118 37.4092 69.2197 37.3933 69.2315 37.3806C69.2433 37.3679 69.2585 37.3588 69.2753 37.3545Z" fill="white"/>
<path d="M55.8959 40.6642L67.3687 37.8119C67.3819 37.8087 67.3957 37.8087 67.4089 37.8121C67.4221 37.8155 67.4342 37.8221 67.4442 37.8313C67.4542 37.8405 67.4618 37.8521 67.4662 37.8649C67.4707 37.8778 67.4719 37.8915 67.4698 37.9049L65.1013 50.9675C65.0983 50.984 65.0903 50.9992 65.0785 51.0111C65.0666 51.023 65.0514 51.0309 65.0348 51.0339L54.5269 52.8787C54.5143 52.8809 54.5014 52.88 54.4892 52.8763C54.477 52.8726 54.4658 52.8662 54.4565 52.8574C54.4472 52.8486 54.4401 52.8378 54.4357 52.8258C54.4313 52.8139 54.4298 52.801 54.4312 52.7883L55.8347 40.7333C55.8368 40.717 55.8438 40.7017 55.8547 40.6894C55.8656 40.6771 55.8799 40.6683 55.8959 40.6642Z" fill="white"/>
<path d="M43.0399 45.3481C43.0558 44.9033 43.0691 44.4603 43.0798 44.019C43.0811 43.9602 43.102 43.9035 43.139 43.8578C43.176 43.8121 43.2272 43.78 43.2844 43.7665L53.8137 41.2039C53.8553 41.1936 53.8988 41.1936 53.9404 41.2039C53.982 41.2142 54.0204 41.2345 54.0524 41.2631C54.0844 41.2917 54.1089 41.3276 54.1238 41.3678C54.1387 41.408 54.1436 41.4512 54.138 41.4937L52.7451 52.9746C52.738 53.031 52.7129 53.0836 52.6737 53.1247C52.6345 53.1659 52.5831 53.1934 52.5271 53.2032L43.1303 54.9018C43.0916 54.9084 43.052 54.9064 43.0143 54.8961C42.9765 54.8857 42.9414 54.8673 42.9115 54.8419C42.8816 54.8166 42.8576 54.785 42.8412 54.7495C42.8248 54.7139 42.8164 54.6751 42.8166 54.6359C42.8449 51.5223 42.9194 48.4263 43.0399 45.3481Z" fill="white"/>
<path d="M10.5707 74.4315C8.95446 74.2561 7.83003 72.6372 7.63333 71.138C6.79864 64.7317 5.77257 58.3546 4.94852 51.9509C4.57814 49.0818 4.19093 46.2136 3.78688 43.3462C3.7813 43.306 3.78504 43.2649 3.79781 43.2263C3.81058 43.1877 3.83205 43.1525 3.86055 43.1235C3.88905 43.0945 3.92383 43.0724 3.96221 43.0589C4.0006 43.0455 4.04155 43.041 4.08193 43.0459L31.8338 46.2862C31.8925 46.2933 31.9473 46.3195 31.9896 46.3608C32.0319 46.4022 32.0594 46.4563 32.0677 46.5148L35.8557 73.3124C35.8639 73.3728 35.8516 73.4341 35.8207 73.4863C35.7897 73.5385 35.7421 73.5784 35.6856 73.5995C34.2554 74.1329 33.5696 75.1581 33.6281 76.6751C33.6299 76.7135 33.6233 76.7518 33.6088 76.7874C33.5944 76.823 33.5724 76.855 33.5443 76.8813C33.5163 76.9076 33.4828 76.9275 33.4464 76.9396C33.4099 76.9517 33.3712 76.9558 33.333 76.9515C25.7411 76.0973 18.1537 75.2573 10.5707 74.4315ZM7.83003 68.0199C8.26332 70.7313 9.95927 72.5468 12.6467 72.8047C14.332 72.9659 19.8213 73.627 29.1144 74.7877C31.3022 75.0589 32.8359 73.1609 32.602 71.1034C31.9481 65.3776 31.2676 59.6305 30.8024 53.8888C30.4834 49.9546 29.4361 47.2884 24.9198 46.9774C22.2474 46.7913 16.5552 46.1073 7.84332 44.9252C5.77788 44.6461 4.6827 46.8019 4.93257 48.5989C5.83282 55.0814 6.79864 61.5551 7.83003 68.0199Z" fill="white"/>
<path d="M41.0543 55.2127L35.6873 56.2281C35.6738 56.2308 35.6599 56.2306 35.6465 56.2278C35.6331 56.2249 35.6204 56.2193 35.6092 56.2113C35.598 56.2034 35.5885 56.1932 35.5814 56.1815C35.5743 56.1697 35.5696 56.1566 35.5677 56.143L34.1083 46.1242C34.1049 46.0997 34.1106 46.0748 34.1243 46.0542C34.138 46.0336 34.1588 46.0188 34.1828 46.0125L41.2882 44.2342C41.3033 44.2305 41.319 44.2303 41.3342 44.2337C41.3494 44.2371 41.3636 44.244 41.3757 44.2538C41.3877 44.2635 41.3974 44.276 41.4039 44.2901C41.4104 44.3042 41.4136 44.3197 41.4131 44.3352L41.1367 55.1143C41.1365 55.1377 41.1281 55.1603 41.1131 55.1782C41.0981 55.1962 41.0773 55.2083 41.0543 55.2127Z" fill="white"/>
<path d="M12.648 72.8045C9.96056 72.5467 8.26462 70.7311 7.83133 68.0197C6.79994 61.5549 5.83412 55.0813 4.93386 48.5988C4.68399 46.8018 5.77917 44.646 7.84461 44.9251C16.5565 46.1071 22.2487 46.7912 24.9211 46.9772C29.4374 47.2882 30.4847 49.9544 30.8037 53.8886C31.2689 59.6304 31.9494 65.3775 32.6033 71.1033C32.8372 73.1607 31.3034 75.0587 29.1157 74.7876C19.8226 73.6268 14.3333 72.9658 12.648 72.8045ZM10.6916 70.9039C11.1116 71.2672 11.5971 71.4861 12.1483 71.5605C17.7093 72.3181 23.3793 72.9188 29.0652 73.7216C31.3407 74.0433 31.5055 72.0097 31.3247 70.3377C30.6814 64.4081 30.0567 58.4767 29.4507 52.5436C29.2593 50.6615 28.3262 48.5217 26.1917 48.2612C20.255 47.5417 14.3165 46.8248 8.37626 46.1107C6.07158 45.8342 5.73399 47.3388 6.01044 49.2314C6.85576 55.0139 7.73828 60.7911 8.65803 66.563C8.96904 68.5009 9.31728 69.7183 10.6916 70.9039Z" fill="#6188E7"/>
<path d="M103.739 46.1267L108.356 45.4356C108.37 45.4334 108.385 45.4349 108.398 45.4399C108.412 45.445 108.423 45.4534 108.432 45.4644C108.442 45.4754 108.448 45.4886 108.45 45.5026C108.453 45.5167 108.451 45.5311 108.447 45.5446L103.205 61.5179C103.2 61.5337 103.191 61.5477 103.178 61.5581C103.165 61.5686 103.149 61.5749 103.133 61.5763L98.8425 61.8927C98.8288 61.8939 98.815 61.8916 98.8024 61.8861C98.7899 61.8806 98.7788 61.8721 98.7704 61.8613C98.7619 61.8504 98.7563 61.8377 98.7541 61.8241C98.7518 61.8106 98.753 61.7967 98.7574 61.7837L103.672 46.1826C103.677 46.168 103.686 46.155 103.698 46.1452C103.71 46.1353 103.724 46.1289 103.739 46.1267Z" fill="white"/>
<path d="M10.6913 70.9044C9.31701 69.7188 8.96877 68.5013 8.65776 66.5635C7.73801 60.7916 6.85549 55.0144 6.01017 49.2319C5.73372 47.3392 6.07131 45.8347 8.37599 46.1111C14.3162 46.8253 20.2547 47.5421 26.1914 48.2616C28.326 48.5221 29.259 50.662 29.4504 52.544C30.0565 58.4772 30.6812 64.4086 31.3244 70.3382C31.5052 72.0102 31.3404 74.0437 29.065 73.7221C23.379 72.9193 17.709 72.3185 12.148 71.5609C11.5969 71.4865 11.1113 71.2677 10.6913 70.9044Z" fill="#B6CBFF"/>
<path d="M91.9714 48.1284L101.743 46.5042C101.759 46.5017 101.775 46.5032 101.79 46.5086C101.805 46.514 101.818 46.5231 101.828 46.5351C101.839 46.5471 101.846 46.5616 101.849 46.5771C101.852 46.5926 101.851 46.6087 101.847 46.6238L96.9821 61.9512C96.9765 61.9684 96.966 61.9836 96.9518 61.995C96.9376 62.0063 96.9204 62.0133 96.9024 62.015L88.008 62.7114C87.993 62.7128 87.9779 62.7105 87.9641 62.7048C87.9502 62.6991 87.9379 62.6901 87.9282 62.6786C87.9185 62.6672 87.9118 62.6535 87.9086 62.6388C87.9053 62.6242 87.9057 62.6089 87.9096 62.5944L91.8969 48.1975C91.9013 48.18 91.9107 48.1642 91.9239 48.1519C91.9371 48.1396 91.9536 48.1315 91.9714 48.1284Z" fill="white"/>
<path d="M79.5442 50.2338L89.991 48.4874C90.0073 48.4846 90.0239 48.4859 90.0395 48.4913C90.0551 48.4966 90.0691 48.5058 90.0802 48.518C90.0914 48.5302 90.0992 48.545 90.1032 48.561C90.1071 48.577 90.1069 48.5937 90.1026 48.6097L86.1738 62.7886C86.1684 62.8082 86.157 62.8256 86.1413 62.8384C86.1256 62.8513 86.1063 62.8589 86.0861 62.8604L76.6175 63.5701C76.6021 63.5713 76.5867 63.5689 76.5725 63.5631C76.5582 63.5573 76.5455 63.5481 76.5354 63.5365C76.5253 63.5249 76.5181 63.511 76.5144 63.4961C76.5106 63.4812 76.5104 63.4656 76.5138 63.4505L79.4644 50.3083C79.4689 50.2894 79.4789 50.2722 79.493 50.259C79.5072 50.2457 79.525 50.237 79.5442 50.2338Z" fill="white"/>
<path d="M66.533 52.4639L77.5913 50.5978C77.6079 50.5953 77.625 50.5968 77.6409 50.6023C77.6568 50.6078 77.6712 50.6171 77.6827 50.6295C77.6942 50.6418 77.7026 50.6567 77.707 50.673C77.7115 50.6892 77.7119 50.7063 77.7082 50.7228L74.8107 63.6231C74.8057 63.6446 74.794 63.6639 74.7773 63.6782C74.7605 63.6926 74.7397 63.7012 74.7177 63.7029L64.4277 64.5296C64.412 64.5307 64.3962 64.5281 64.3815 64.5222C64.3669 64.5162 64.3538 64.5069 64.3433 64.4951C64.3328 64.4833 64.3251 64.4693 64.3208 64.4541C64.3166 64.4389 64.3159 64.4229 64.3187 64.4073L66.448 52.549C66.4516 52.5277 66.4617 52.5081 66.4769 52.4928C66.4922 52.4776 66.5118 52.4675 66.533 52.4639Z" fill="white"/>
<path d="M54.2059 54.5961L64.6288 52.8045C64.6416 52.8021 64.6547 52.8028 64.6671 52.8067C64.6795 52.8105 64.6907 52.8173 64.6999 52.8265C64.709 52.8356 64.7158 52.8469 64.7197 52.8593C64.7235 52.8716 64.7243 52.8848 64.7219 52.8975L62.6405 64.5937C62.6376 64.6112 62.629 64.6272 62.616 64.6392C62.603 64.6513 62.5864 64.6586 62.5687 64.6602L52.9247 65.4762C52.9126 65.4776 52.9004 65.4761 52.8889 65.472C52.8775 65.4679 52.8672 65.4612 52.8587 65.4525C52.8502 65.4438 52.8439 65.4332 52.8401 65.4217C52.8363 65.4101 52.8353 65.3979 52.837 65.3858L54.1395 54.6652C54.1416 54.6481 54.1492 54.632 54.1612 54.6196C54.1732 54.6071 54.1889 54.5989 54.2059 54.5961Z" fill="white"/>
<path d="M42.6538 58.1101C42.6698 57.6901 42.676 57.2657 42.6724 56.8368C42.6715 56.7739 42.6932 56.7126 42.7336 56.664C42.774 56.6153 42.8305 56.5824 42.893 56.571L52.1224 54.9601C52.1628 54.9528 52.2044 54.9551 52.2439 54.9668C52.2833 54.9786 52.3194 54.9996 52.3494 55.028C52.3794 55.0564 52.4024 55.0915 52.4165 55.1305C52.4306 55.1695 52.4355 55.2113 52.4308 55.2526L51.2213 65.3724C51.2135 65.4335 51.185 65.4902 51.1405 65.5328C51.096 65.5754 51.0381 65.6013 50.9767 65.6063L42.7601 66.2709C42.7232 66.2739 42.6861 66.2691 42.6512 66.2571C42.6162 66.245 42.5842 66.2259 42.5572 66.2009C42.5302 66.1758 42.5087 66.1455 42.4942 66.1118C42.4797 66.078 42.4725 66.0417 42.473 66.0051C42.4925 63.3734 42.5528 60.7418 42.6538 58.1101Z" fill="white"/>
<path d="M40.7048 66.4171L37.1215 66.8025C37.1001 66.8048 37.0786 66.7985 37.0617 66.7851C37.0448 66.7717 37.0338 66.7521 37.0312 66.7307L35.8004 57.8709C35.798 57.8502 35.8036 57.8294 35.8159 57.8126C35.8282 57.7959 35.8464 57.7844 35.8669 57.7805L40.9653 56.8501C40.9774 56.8477 40.9899 56.8481 41.0018 56.8511C41.0137 56.8542 41.0248 56.8599 41.0342 56.8678C41.0437 56.8757 41.0512 56.8856 41.0563 56.8968C41.0614 56.908 41.0639 56.9202 41.0637 56.9325L40.7793 66.3373C40.7787 66.3574 40.7708 66.3766 40.7571 66.3913C40.7434 66.406 40.7248 66.4151 40.7048 66.4171Z" fill="white"/>
<path d="M94.3583 76.0051L98.1967 63.6337C98.202 63.6177 98.2118 63.6036 98.2251 63.5931C98.2383 63.5827 98.2544 63.5765 98.2712 63.5752L102.516 63.2828C102.53 63.2821 102.544 63.2848 102.556 63.2906C102.569 63.2964 102.58 63.3052 102.588 63.3162C102.597 63.3272 102.602 63.3401 102.605 63.3537C102.607 63.3674 102.606 63.3813 102.601 63.3945L98.3775 76.2736C98.3716 76.2918 98.3597 76.3074 98.3438 76.318C98.3279 76.3286 98.3088 76.3336 98.2898 76.332L94.4353 76.1141C94.4225 76.1134 94.41 76.1098 94.3988 76.1036C94.3875 76.0974 94.3778 76.0887 94.3704 76.0782C94.363 76.0677 94.358 76.0557 94.3559 76.043C94.3538 76.0304 94.3546 76.0174 94.3583 76.0051Z" fill="white"/>
<path d="M84.4095 75.5134L87.3522 64.5057C87.3566 64.4883 87.3665 64.4727 87.3803 64.4613C87.3942 64.4498 87.4113 64.443 87.4293 64.4419L96.329 63.7614C96.3427 63.7604 96.3565 63.7627 96.3691 63.7682C96.3817 63.7737 96.3928 63.7822 96.4014 63.7929C96.41 63.8036 96.4159 63.8163 96.4186 63.8298C96.4213 63.8432 96.4206 63.8572 96.4167 63.8704L92.6155 75.9573C92.6101 75.9756 92.5989 75.9915 92.5834 76.0025C92.568 76.0136 92.5494 76.0192 92.5304 76.0185L84.4893 75.6197C84.4765 75.6193 84.464 75.6161 84.4527 75.6102C84.4413 75.6043 84.4315 75.596 84.4238 75.5857C84.4161 75.5755 84.4109 75.5637 84.4084 75.5512C84.4059 75.5387 84.4063 75.5258 84.4095 75.5134Z" fill="white"/>
<path d="M74.0852 74.918L76.1055 65.3696C76.1107 65.3439 76.1241 65.3207 76.1438 65.3034C76.1635 65.2861 76.1883 65.2757 76.2145 65.2739L85.5342 64.5775C85.5531 64.576 85.5722 64.5791 85.5897 64.5865C85.6072 64.5939 85.6226 64.6053 85.6349 64.6199C85.6471 64.6344 85.6556 64.6516 85.6599 64.6702C85.6641 64.6887 85.6638 64.7079 85.6591 64.7263L82.7457 75.4044C82.7385 75.4308 82.7224 75.454 82.7001 75.4699C82.6778 75.4859 82.6508 75.4937 82.6234 75.4922L74.1969 75.0642C74.1793 75.0634 74.1622 75.0589 74.1466 75.0507C74.131 75.0426 74.1174 75.0312 74.1068 75.0173C74.0961 75.0033 74.0887 74.9872 74.0849 74.97C74.0812 74.9529 74.0813 74.9351 74.0852 74.918Z" fill="white"/>
<path d="M63.3878 74.4978C63.2336 74.4872 63.075 74.4783 62.912 74.4712C62.8744 74.4691 62.8377 74.4591 62.8043 74.4419C62.7708 74.4247 62.7414 74.4007 62.7178 74.3713C62.6943 74.342 62.6771 74.3081 62.6675 74.2717C62.6579 74.2353 62.6561 74.1974 62.6621 74.1602L63.9513 66.4487C63.9612 66.3902 63.9904 66.3367 64.0343 66.2967C64.0781 66.2568 64.1341 66.2326 64.1932 66.2281L74.0978 65.4439C74.139 65.4409 74.1804 65.4475 74.2186 65.4633C74.2568 65.4791 74.2908 65.5036 74.3179 65.5348C74.345 65.566 74.3644 65.6032 74.3747 65.6432C74.3849 65.6833 74.3857 65.7252 74.3769 65.7656L72.4257 74.7264C72.4121 74.7875 72.3779 74.8418 72.3289 74.8802C72.2799 74.9185 72.2192 74.9384 72.1573 74.9364C69.2208 74.8177 66.2977 74.6715 63.3878 74.4978Z" fill="white"/>
<path d="M51.8626 73.7616L52.575 67.2436C52.5786 67.2108 52.5937 67.1804 52.6175 67.1576C52.6413 67.1347 52.6723 67.121 52.7052 67.1187L62.1818 66.4063C62.2031 66.4047 62.2246 66.4081 62.2444 66.4161C62.2643 66.4241 62.2821 66.4365 62.2964 66.4524C62.3108 66.4682 62.3213 66.4872 62.3272 66.5078C62.3332 66.5283 62.3343 66.55 62.3306 66.5711L60.9696 74.2294C60.9638 74.2634 60.9457 74.2942 60.9188 74.3157C60.8918 74.3373 60.8579 74.3482 60.8234 74.3464L51.9955 73.9184C51.9762 73.9174 51.9574 73.9125 51.9401 73.904C51.9228 73.8955 51.9075 73.8835 51.895 73.8688C51.8826 73.8541 51.8733 73.837 51.8677 73.8185C51.8621 73.8001 51.8604 73.7807 51.8626 73.7616Z" fill="white"/>
<path d="M42.3243 73.3231L42.3429 68.0891C42.3428 68.0612 42.3531 68.0343 42.3718 68.0137C42.3905 67.993 42.4162 67.9801 42.444 67.9774L50.8599 67.2996C50.8764 67.2983 50.893 67.3007 50.9085 67.3065C50.9239 67.3124 50.9379 67.3217 50.9493 67.3337C50.9608 67.3456 50.9694 67.36 50.9747 67.3757C50.9799 67.3914 50.9815 67.4081 50.9795 67.4245L50.2086 73.682C50.2053 73.7102 50.1913 73.736 50.1696 73.7543C50.1479 73.7726 50.12 73.7819 50.0917 73.7803L42.4307 73.4348C42.402 73.4334 42.3749 73.421 42.3551 73.4002C42.3353 73.3795 42.3243 73.3518 42.3243 73.3231Z" fill="white"/>
<path d="M37.9086 73.1769L37.2334 68.5064C37.2316 68.4922 37.2326 68.4778 37.2365 68.464C37.2403 68.4502 37.2469 68.4374 37.2558 68.4262C37.2648 68.415 37.2759 68.4058 37.2885 68.399C37.3011 68.3922 37.3149 68.388 37.3291 68.3867L40.6466 68.1183C40.6612 68.1172 40.6759 68.1191 40.6897 68.1239C40.7036 68.1288 40.7163 68.1364 40.727 68.1464C40.7377 68.1564 40.7463 68.1685 40.7521 68.182C40.758 68.1954 40.7609 68.2099 40.7609 68.2246L40.6652 73.1795C40.6645 73.2073 40.653 73.2336 40.6331 73.253C40.6133 73.2724 40.5866 73.2832 40.5589 73.2832L38.0123 73.2672C37.9871 73.2669 37.9629 73.2576 37.9439 73.2411C37.9249 73.2245 37.9124 73.2018 37.9086 73.1769Z" fill="white"/>
<path d="M108.867 70.8004C108.739 76.3056 108.295 79.344 110.302 83.334C113.485 89.6534 116.709 95.9508 119.975 102.226C120.743 103.7 121.187 104.831 121.31 105.618C121.817 108.914 119.327 112.21 115.77 112.077C115.421 111.849 115.038 111.704 114.622 111.644C114.602 111.642 114.584 111.635 114.567 111.625C114.551 111.615 114.537 111.601 114.526 111.586C114.462 111.485 114.5 111.433 114.64 111.431C115.605 111.415 116.458 111.267 117.293 110.732C119.04 109.611 120.51 107.843 120.475 105.658C120.468 105.128 120.16 104.268 119.55 103.079C116.078 96.3087 112.508 89.5967 109.114 82.7864C108.481 81.5211 108.199 80.4232 108.194 78.9186C108.183 76.5262 107.769 72.8978 108.867 70.8004Z" fill="#B6CBFF"/>
<path d="M44.9286 77.5017C41.8477 77.3688 38.6419 77.4725 35.5929 77.1296C35.5669 77.1272 35.5422 77.1169 35.5218 77.0998C35.5014 77.0828 35.4864 77.0598 35.4786 77.0339C35.1197 75.8377 35.779 75.3964 36.8875 75.4017C38.3973 75.407 39.8992 75.3858 41.4038 75.4708C62.0555 76.6219 80.9077 77.6134 103.394 78.6767C104.225 78.7174 104.46 79.1188 104.098 79.8808C104.078 79.9235 104.046 79.96 104.007 79.9867C103.968 80.0133 103.922 80.029 103.875 80.0323C103.276 80.0713 102.678 80.0775 102.08 80.051C83.0316 79.1684 63.981 78.3187 44.9286 77.5017Z" fill="white"/>
<path d="M70.5787 80.7951C73.0296 85.8032 75.4504 90.8255 77.841 95.8619C78.6358 97.5392 79.8267 100.498 78.4497 102.127C77.6523 103.071 76.0068 103.422 74.7681 103.563C74.5607 103.586 74.5306 103.524 74.6777 103.377C74.699 103.355 74.7291 103.339 74.7681 103.326C78.2716 102.755 78.5587 100.131 77.2296 97.4675C74.504 91.9933 71.759 86.5245 68.9944 81.0609C68.8509 80.7756 68.9386 80.6471 69.2576 80.6755L70.5787 80.7951Z" fill="white"/>
<path d="M70.5776 80.7955L72.7228 80.9098C72.7709 80.9121 72.8174 80.9274 72.8573 80.9541C72.8971 80.9809 72.9288 81.0179 72.9487 81.0613C75.809 87.1097 78.7126 93.135 81.6597 99.1373C82.599 101.051 82.513 102.838 81.4019 104.499C80.3306 106.094 78.8739 106.099 76.7925 106.197C73.4857 106.35 71.1216 106.445 69.7004 106.482C48.5586 107.028 34.0819 107.417 26.2703 107.649C24.4042 107.705 22.9236 107.782 21.1266 107.489C17.3874 106.88 13.6535 106.238 9.92488 105.565C9.91196 105.562 9.8994 105.558 9.88799 105.553C9.87659 105.548 9.86659 105.542 9.8586 105.535C9.85062 105.528 9.84483 105.52 9.8416 105.513C9.83837 105.505 9.83776 105.497 9.83982 105.49C9.90361 105.291 69.2883 103.489 74.7669 103.327C74.728 103.339 74.6978 103.356 74.6766 103.377C74.5295 103.524 74.5596 103.586 74.7669 103.563C76.0057 103.422 77.6511 103.071 78.4486 102.128C79.8255 100.498 78.6347 97.5397 77.8399 95.8623C75.4492 90.8259 73.0285 85.8036 70.5776 80.7955Z" fill="#B6CBFF"/>
<path d="M101.399 105.177L92.1009 93.2707C92.0908 93.2579 92.0847 93.2424 92.0834 93.2261C92.0821 93.2098 92.0857 93.1936 92.0936 93.1793C92.1016 93.1651 92.1136 93.1535 92.1282 93.1461C92.1427 93.1387 92.1591 93.1358 92.1753 93.1378L94.4295 93.3584C94.4499 93.3603 94.4688 93.3698 94.4826 93.385L104.908 105.429C104.919 105.442 104.926 105.457 104.928 105.474C104.929 105.49 104.926 105.507 104.919 105.522C104.911 105.536 104.899 105.548 104.884 105.556C104.869 105.564 104.853 105.567 104.836 105.565L101.455 105.206C101.433 105.204 101.413 105.194 101.399 105.177Z" fill="white"/>
<path d="M12.4839 113.417H12.6141C13.3709 113.413 13.3966 113.55 12.6912 113.826L12.452 113.922C12.3995 113.943 12.3419 113.947 12.2874 113.933C12.2329 113.919 12.1844 113.888 12.149 113.845C11.7502 113.359 11.8326 113.212 12.3962 113.404C12.4245 113.413 12.4538 113.417 12.4839 113.417Z" fill="#B6CBFF"/>
<path d="M12.6158 127.522C10.1091 125.382 9.56945 122.003 10.7072 118.991C11.7811 116.142 14.8008 113.951 17.9429 114.27C18.9388 114.371 19.8825 114.695 20.7739 115.241C20.8114 115.264 20.854 115.277 20.8979 115.279C20.9418 115.282 20.9855 115.273 21.0253 115.254C21.0651 115.236 21.0996 115.207 21.1258 115.172C21.1519 115.137 21.1689 115.095 21.1753 115.052C21.2337 114.632 21.4677 114.471 21.877 114.568C21.911 114.576 21.9431 114.59 21.9714 114.611C21.9998 114.631 22.0238 114.657 22.0421 114.687C22.0604 114.716 22.0726 114.749 22.0781 114.784C22.0835 114.818 22.082 114.853 22.0737 114.887L21.3401 117.963C21.3314 117.999 21.3152 118.033 21.2925 118.063C21.2697 118.093 21.241 118.117 21.2081 118.135C21.1753 118.153 21.139 118.163 21.1017 118.166C21.0645 118.169 21.027 118.164 20.9918 118.151C19.4323 117.591 17.996 117.762 16.6828 118.662C13.578 120.794 14.4951 125.634 18.2166 126.371C20.2688 126.775 22.1774 125.629 22.9802 123.752C23.6501 122.187 23.2327 120.897 22.5682 119.31C22.5424 119.246 22.5424 119.173 22.5682 119.108L23.0679 117.875C23.2008 117.547 23.3585 117.535 23.5411 117.838C24.397 119.254 24.7869 120.721 24.7107 122.24C24.3944 128.428 17.3793 131.591 12.6158 127.522Z" fill="#B6CBFF"/>
<path d="M98.7794 124.528C98.9442 123.837 99.0753 123.143 99.1728 122.447C99.723 118.542 101.794 116.259 105.794 115.823C106.498 115.745 107.202 115.659 107.908 115.565L109.216 116.171C109.253 116.188 109.294 116.197 109.335 116.195C109.376 116.194 109.416 116.183 109.452 116.164C109.489 116.144 109.52 116.116 109.544 116.082C109.568 116.049 109.584 116.01 109.59 115.969C109.64 115.65 109.691 115.331 109.745 115.012C109.789 114.741 109.88 114.558 110.018 114.464C110.155 114.372 110.307 114.343 110.476 114.377C110.544 114.391 110.604 114.433 110.643 114.491C110.681 114.55 110.694 114.622 110.68 114.69L109.784 119.045C109.719 119.367 109.569 119.411 109.335 119.177L109.208 119.05C109.185 119.027 109.159 119.008 109.13 118.994C105.579 117.378 101.86 119.967 102.807 123.914C103.394 126.371 106.297 127.623 108.519 126.636C111.087 125.499 111.552 122.139 110.125 119.847C110.106 119.817 110.093 119.784 110.088 119.749C110.082 119.714 110.084 119.678 110.092 119.644C110.1 119.609 110.116 119.577 110.137 119.548C110.158 119.52 110.185 119.496 110.215 119.478L110.59 119.257C110.621 119.238 110.656 119.226 110.692 119.222C110.729 119.217 110.766 119.22 110.801 119.231C110.836 119.241 110.868 119.259 110.896 119.283C110.924 119.307 110.946 119.336 110.962 119.369C113.033 123.577 110.593 128.928 105.677 129.35C102.599 129.616 99.4492 127.692 98.7794 124.528Z" fill="#B6CBFF"/>
<path d="M107.909 115.565C107.203 115.659 106.499 115.745 105.795 115.823C101.795 116.259 99.7239 118.542 99.1737 122.447C99.0762 123.144 98.945 123.837 98.7802 124.528C98.2273 122.677 98.3115 120.992 99.0328 119.475C100.755 115.853 103.714 114.549 107.909 115.565Z" fill="#B6CBFF"/>
<path d="M65.7791 123.601C63.2963 121.421 63.1847 118.888 63.6791 115.788C63.6894 115.727 63.7205 115.671 63.7669 115.629C63.8134 115.588 63.8725 115.565 63.9343 115.562L67.9376 115.448C67.9835 115.447 68.0289 115.458 68.0694 115.48C68.11 115.501 68.1443 115.533 68.1691 115.571C68.1939 115.61 68.2084 115.654 68.2111 115.699C68.2139 115.745 68.2048 115.79 68.1848 115.831C67.942 116.329 67.794 116.704 67.7409 116.958C66.6111 122.367 73.6341 124.677 75.766 119.932C76.3721 118.584 76.3057 117.2 75.5667 115.78C75.5462 115.741 75.5359 115.697 75.5367 115.653C75.5375 115.608 75.5494 115.565 75.5714 115.526C75.5933 115.488 75.6246 115.455 75.6623 115.432C75.7 115.408 75.743 115.395 75.7873 115.392L76.6193 115.344C76.6761 115.341 76.7326 115.356 76.7805 115.387C76.8284 115.419 76.8651 115.465 76.8851 115.52C78.5678 120.241 75.5428 125.108 70.4496 125.323C68.7253 125.396 67.1685 124.822 65.7791 123.601Z" fill="#B6CBFF"/>
<path d="M62.1495 115.91C62.2133 115.618 62.4552 115.318 62.6945 115.703C62.7138 115.734 62.7266 115.769 62.7321 115.805C62.7375 115.841 62.7356 115.878 62.7264 115.913C62.2798 117.584 62.2434 119.262 62.6174 120.948C62.6369 121.035 62.6156 121.065 62.5536 121.038C62.5456 121.033 62.4632 120.95 62.4605 120.942C61.8881 119.3 61.7845 117.622 62.1495 115.91Z" fill="#B6CBFF"/>
<path d="M11.041 115.796C11.3812 115.752 11.4468 115.865 11.2377 116.137C9.35831 118.577 8.44122 121.32 9.2759 124.388C9.29008 124.436 9.26882 124.456 9.21211 124.449C9.19697 124.447 9.1825 124.441 9.1703 124.431C9.15811 124.421 9.14866 124.408 9.14299 124.393C8.06375 121.567 8.66717 118.167 10.7645 115.895C10.8076 115.85 10.8647 115.821 10.9267 115.812L11.041 115.796Z" fill="#B6CBFF"/>
<path d="M46.4442 116.525C46.0101 116.44 45.5785 116.351 45.1497 116.259C42.6802 115.725 40.0751 116.036 37.7518 116.982C37.6869 117.008 37.6142 117.008 37.5495 116.981C37.4848 116.954 37.4333 116.903 37.4063 116.838L37.2999 116.583C37.2838 116.544 37.2772 116.502 37.2805 116.46C37.2839 116.418 37.2971 116.378 37.3192 116.342C37.3412 116.306 37.3715 116.276 37.4074 116.254C37.4434 116.232 37.484 116.219 37.5259 116.216C38.7646 116.122 39.998 116.025 41.2261 115.924C43.1808 115.763 45.1311 115.818 47.0769 116.091C47.1452 116.101 47.2072 116.136 47.2498 116.191C47.2925 116.245 47.3124 116.315 47.3055 116.384C47.1123 118.147 46.7668 119.88 46.2688 121.583C46.2582 121.619 46.2403 121.651 46.2163 121.679C46.1923 121.707 46.1628 121.73 46.1295 121.746C46.0962 121.762 46.06 121.771 46.0231 121.772C45.9862 121.774 45.9495 121.767 45.9152 121.753C45.1054 121.429 44.2982 121.341 43.4936 121.49C37.7518 122.556 39.5249 131.384 45.2401 129.821C48.4166 128.952 49.1237 125.557 47.5926 122.817C47.5734 122.782 47.5619 122.744 47.5586 122.705C47.5554 122.666 47.5607 122.627 47.574 122.591L47.9355 121.644C48.0808 121.263 48.243 121.255 48.422 121.62C48.6133 122.012 48.7985 122.406 48.9775 122.801C49.9159 124.887 49.7511 127.32 48.6426 129.212C45.3118 134.904 36.5742 133.755 35.2186 127.235C34.0197 121.464 39.8758 115.411 45.5963 119.023C45.9649 119.257 46.1944 119.147 46.2847 118.691L46.6542 116.838C46.6682 116.769 46.6539 116.697 46.6145 116.639C46.5752 116.58 46.5139 116.539 46.4442 116.525Z" fill="#B6CBFF"/>
<path d="M74.4173 118.208C74.437 118.49 74.401 118.774 74.3111 119.042C74.2213 119.311 74.0795 119.559 73.8937 119.773C73.708 119.986 73.482 120.161 73.2287 120.288C72.9753 120.414 72.6995 120.489 72.4171 120.509L71.733 120.557C71.4506 120.577 71.167 120.54 70.8985 120.451C70.63 120.361 70.3819 120.219 70.1682 120.033C69.9546 119.848 69.7796 119.621 69.6533 119.368C69.5269 119.115 69.4518 118.839 69.432 118.557L69.4031 118.143C69.3833 117.861 69.4194 117.577 69.5092 117.308C69.5991 117.04 69.7409 116.792 69.9266 116.578C70.1124 116.365 70.3384 116.19 70.5917 116.063C70.8451 115.937 71.1209 115.862 71.4033 115.842L72.0874 115.794C72.3698 115.774 72.6534 115.81 72.9219 115.9C73.1903 115.99 73.4385 116.132 73.6521 116.318C73.8658 116.503 74.0408 116.729 74.1671 116.983C74.2934 117.236 74.3686 117.512 74.3884 117.794L74.4173 118.208ZM70.5651 117.001C70.0955 117.369 69.9847 117.839 70.2328 118.409C70.2576 118.465 70.3006 118.511 70.3547 118.539C70.4088 118.567 70.4708 118.575 70.5306 118.564C71.0516 118.46 71.1739 117.747 71.2084 117.365C71.2669 116.736 71.0525 116.614 70.5651 117.001Z" fill="#6188E7"/>
<path d="M70.5657 117C71.053 116.614 71.2674 116.735 71.2089 117.365C71.1744 117.747 71.0521 118.46 70.5311 118.563C70.4713 118.575 70.4093 118.567 70.3552 118.539C70.3011 118.511 70.2581 118.465 70.2334 118.409C69.9853 117.839 70.096 117.369 70.5657 117Z" fill="white"/>
<path d="M36.3032 119.257C36.4787 119.401 36.4716 119.598 36.282 119.847C34.3229 122.423 33.4217 124.909 34.2351 128.168C34.2848 128.359 34.2511 128.43 34.1341 128.38C34.1069 128.367 34.086 128.343 34.0757 128.314C32.9415 124.865 33.5874 121.853 36.0135 119.276C36.0498 119.236 36.1001 119.212 36.1539 119.209C36.2078 119.206 36.2612 119.223 36.3032 119.257Z" fill="#B6CBFF"/>
<path d="M17.0854 123.595L18.3268 122.745C18.3669 122.717 18.399 122.678 18.4199 122.633C18.6325 122.163 18.7008 121.672 18.6246 121.158C18.6179 121.116 18.6016 121.076 18.5771 121.042C18.5527 121.008 18.5206 120.98 18.4837 120.961C18.2657 120.848 18.0256 120.817 17.7633 120.871C17.7187 120.88 17.6725 120.878 17.6292 120.865C17.5858 120.851 17.5469 120.827 17.5161 120.794L17.237 120.501C18.7929 119.507 20.0529 119.57 21.017 120.69C23.1489 123.165 19.3689 126.004 17.0854 123.595Z" fill="#6188E7"/>
<path d="M107.559 120.522C107.265 120.882 106.895 121.04 106.45 120.996C106.413 120.992 106.376 120.996 106.341 121.008C106.305 121.019 106.273 121.038 106.245 121.063C106.217 121.088 106.195 121.119 106.18 121.153C106.165 121.187 106.158 121.224 106.158 121.261C106.167 122.466 106.057 123.467 105.828 124.263C105.777 124.44 105.613 124.572 105.337 124.659C103.037 122.902 104.645 119.834 107.559 120.522Z" fill="white"/>
<path d="M17.2364 120.501L17.5155 120.793C17.5463 120.827 17.5853 120.851 17.6286 120.865C17.6719 120.878 17.7182 120.88 17.7627 120.871C18.025 120.817 18.2651 120.848 18.4831 120.961C18.5201 120.98 18.5521 121.008 18.5766 121.042C18.6011 121.076 18.6173 121.116 18.624 121.158C18.7002 121.672 18.632 122.163 18.4193 122.633C18.3985 122.678 18.3664 122.717 18.3263 122.745L17.0849 123.595C16.3689 122.523 16.4194 121.492 17.2364 120.501Z" fill="white"/>
<path d="M107.56 120.523C110.973 121.517 108.602 126.868 105.338 124.659C105.614 124.572 105.778 124.44 105.83 124.263C106.058 123.467 106.168 122.467 106.159 121.262C106.159 121.224 106.167 121.187 106.182 121.153C106.197 121.119 106.219 121.089 106.246 121.064C106.274 121.038 106.306 121.019 106.342 121.008C106.377 120.996 106.415 120.992 106.452 120.996C106.897 121.04 107.266 120.882 107.56 120.523Z" fill="#6188E7"/>
<path d="M41.8167 126.376L43.8556 126.293C43.909 126.291 43.9607 126.273 44.0038 126.241C44.0469 126.21 44.0795 126.166 44.0975 126.115C44.8737 123.882 43.4276 124.651 42.2048 124.239C42.7772 123.578 43.5073 123.28 44.3952 123.345C48.0928 123.617 46.8354 129.342 43.074 127.904C42.3794 127.64 41.9603 127.131 41.8167 126.376Z" fill="#6188E7"/>
<path d="M42.2054 124.239C43.4282 124.651 44.8743 123.883 44.0981 126.115C44.0801 126.166 44.0475 126.21 44.0044 126.242C43.9613 126.273 43.9097 126.291 43.8562 126.294L41.8173 126.376C41.5568 125.58 41.6862 124.868 42.2054 124.239Z" fill="white"/>
</svg>
