<svg width="512" height="512" viewBox="0 0 512 512" fill="none" xmlns="http://www.w3.org/2000/svg">
<g clip-path="url(#clip0_10_610)">
<rect opacity="0.9" x="16" y="16" width="480" height="480" rx="240" fill="#181717"/>
<path d="M311.897 127.521L320.982 146.277C315.707 153.702 309.943 162.298 303.691 172.067C297.439 181.836 291.675 191.897 286.4 202.252C281.125 212.607 276.729 222.767 273.212 232.731C269.696 242.695 267.937 251.487 267.937 259.106V260.572C273.017 264.479 279.601 267.019 287.709 268.191C295.817 269.364 303.867 269.95 311.897 269.95V272.294L319.809 285.482V356.403C300.077 356.403 281.457 353.766 263.971 348.49C246.485 343.215 232.067 334.423 220.754 322.115V356.403H149.833L141.627 342.629H140.162V126.935H212.842V129.28L220.754 142.468V145.398C222.708 142.077 224.603 138.853 226.459 135.727C228.315 132.601 230.132 129.67 231.891 126.935L311.897 127.521ZM237.166 135.727C230.718 146.082 224.525 156.73 218.566 167.671C212.607 178.612 207.762 189.944 204.069 201.666V135.727H148.974V333.837H204.069V281.379C208.758 291.343 214.62 299.647 221.653 306.289C228.687 312.932 236.502 318.305 245.098 322.408C253.695 326.511 262.916 329.441 272.783 331.2C282.649 332.958 292.75 333.837 303.105 333.837V278.742C297.244 278.742 291.246 278.351 285.091 277.569C278.937 276.788 273.369 275.127 268.387 272.587C263.405 270.047 259.302 266.57 256.078 262.174C252.854 257.778 251.252 251.878 251.252 244.453C251.252 236.248 253.108 227.163 256.821 217.198C260.533 207.234 265.065 197.27 270.438 187.306C275.811 177.342 281.477 167.866 287.436 158.879C293.395 149.892 298.611 142.174 303.105 135.727H237.166ZM154.522 264.382V269.95C154.913 271.122 154.913 272.197 154.522 273.173V277.569C154.718 277.765 154.815 277.96 154.815 278.155C154.815 278.351 154.913 278.546 155.108 278.742C155.89 276.788 157.257 275.811 159.211 275.811C161.165 275.811 162.533 276.788 163.314 278.742C164.096 276.788 165.502 275.811 167.554 275.811C169.605 275.811 171.031 276.788 171.813 278.742C172.399 276.593 173.806 275.577 176.052 275.674C178.299 275.772 179.608 276.886 179.999 279.035C180.39 276.886 181.66 275.772 183.809 275.674C185.958 275.577 187.423 276.612 188.205 278.742C188.986 276.788 190.393 275.811 192.444 275.811C194.496 275.811 195.922 276.788 196.704 278.742C197.29 276.983 198.462 276.006 200.22 275.811C201.979 275.616 203.346 276.202 204.323 277.569L206.082 276.983C207.058 276.006 208.328 275.674 209.891 275.948C211.454 276.241 212.529 277.179 213.115 278.722C213.897 276.573 215.362 275.557 217.511 275.655C219.66 275.752 220.93 276.866 221.321 279.015C221.907 276.866 223.275 275.752 225.424 275.655C227.573 275.557 229.038 276.592 229.82 278.722C230.601 276.768 232.008 275.791 234.079 275.791C236.13 275.791 237.439 276.768 238.045 278.722C238.826 276.573 240.292 275.557 242.441 275.655C244.59 275.752 245.958 276.866 246.544 279.015C246.935 276.866 248.204 275.752 250.354 275.655C252.503 275.557 253.968 276.592 254.75 278.722C255.531 276.768 256.938 275.752 259.009 275.655C261.06 275.557 262.369 276.592 262.975 278.722C263.366 277.941 263.756 277.354 264.147 276.964L260.63 275.205H260.337C258.774 275.987 257.446 275.791 256.391 274.619C255.316 273.447 254.867 272.079 255.062 270.516L253.89 269.344C254.476 270.321 254.671 271.454 254.476 272.724C254.281 273.994 253.401 274.834 251.838 275.205C250.666 275.791 249.65 275.791 248.771 275.205C247.892 274.619 247.306 273.838 247.013 272.861C246.72 271.884 246.72 270.868 247.013 269.793C247.306 268.719 248.048 267.996 249.201 267.605C250.569 267.019 251.741 267.117 252.718 267.898C252.522 267.703 252.366 267.508 252.268 267.312C252.171 267.117 251.917 266.921 251.526 266.726C249.767 267.312 248.4 266.687 247.423 264.811C246.446 262.955 246.641 261.451 248.009 260.279C247.228 258.52 246.583 256.606 246.114 254.554C245.626 252.503 245.274 250.315 245.078 247.951C244.883 248.732 244.199 249.22 243.027 249.416C242.05 249.807 241.21 249.67 240.546 248.986C239.862 248.302 239.413 247.521 239.237 246.642C239.041 245.762 239.08 244.883 239.374 244.004C239.667 243.125 240.409 242.597 241.562 242.402C242.929 242.206 244.102 242.695 245.078 243.867C245.078 242.89 245.078 242.07 245.078 241.366C245.078 240.683 245.176 239.862 245.372 238.885C245.176 239.667 244.395 240.253 243.027 240.643C242.05 241.034 241.21 240.937 240.546 240.35C239.862 239.764 239.413 239.08 239.237 238.299C239.041 237.517 239.139 236.677 239.53 235.818C239.921 234.939 240.604 234.411 241.581 234.196C242.754 233.805 243.672 233.962 244.375 234.645C245.059 235.329 245.411 236.169 245.411 237.127C245.801 234.978 246.231 232.692 246.72 230.25C247.208 227.807 247.833 225.326 248.634 222.767C247.853 221.985 247.56 221.067 247.755 219.992C247.95 218.918 248.537 218.195 249.513 217.804C249.709 217.609 250.002 217.511 250.393 217.511C250.783 216.339 251.174 215.46 251.565 214.874C250.002 215.264 248.869 214.58 248.185 212.822C247.501 211.064 247.931 209.891 249.513 209.305C251.076 208.719 252.249 209.11 253.03 210.478C254.007 208.328 254.945 206.179 255.805 204.03C256.684 201.881 257.7 199.732 258.891 197.583C257.915 197.387 257.231 196.997 256.84 196.411C256.449 195.629 256.41 194.848 256.684 194.066C256.977 193.285 257.504 192.796 258.305 192.601C259.478 192.21 260.357 192.503 260.943 193.48C261.92 191.135 262.994 188.85 264.167 186.603C265.339 184.356 266.511 182.168 267.683 179.999C266.511 180.39 265.73 179.901 265.339 178.534C264.948 177.166 265.339 176.287 266.511 175.896C267.879 175.31 268.758 175.799 269.149 177.362C269.93 176.189 270.653 174.978 271.337 173.688C272.021 172.419 272.841 171.207 273.818 170.015C273.427 169.039 273.72 168.257 274.697 167.671C274.893 167.476 275.088 167.378 275.283 167.378C277.823 163.08 280.559 158.684 283.489 154.19C282.512 153.995 282.063 153.409 282.161 152.432C282.258 151.455 282.786 150.869 283.782 150.673C284.368 150.673 284.857 150.966 285.248 151.552C286.224 149.794 287.299 148.133 288.471 146.57C289.644 145.007 290.718 143.444 291.695 141.881H240.116C239.139 143.444 238.221 144.968 237.342 146.434C236.462 147.899 235.525 149.423 234.548 150.966C235.329 151.162 235.72 151.709 235.72 152.588C235.72 153.467 235.232 154.014 234.255 154.19C233.669 154.19 233.18 154.092 232.789 153.897C231.422 156.046 230.152 158.293 228.98 160.637C227.807 162.982 226.537 165.229 225.17 167.378C226.342 166.987 227.124 167.436 227.514 168.706C227.905 169.976 227.612 170.895 226.635 171.481C225.267 172.067 224.388 171.578 223.997 170.015C221.262 174.704 218.918 179.393 216.964 184.082C218.332 183.692 219.211 184.278 219.602 185.841C219.992 187.404 219.504 188.381 218.136 188.771C216.769 189.162 215.889 188.771 215.499 187.599C213.35 192.288 211.591 196.782 210.224 201.08C211.2 201.471 211.689 202.409 211.689 203.874C211.689 205.339 210.907 206.062 209.344 206.062C208.563 206.257 207.781 205.964 207 205.183L203.19 204.597V204.89C202.799 205.867 202.018 206.316 200.846 206.199C199.673 206.101 198.892 205.574 198.501 204.597C198.306 204.401 198.208 204.108 198.208 203.718H197.915V141.881H154.542V262.037V264.382H154.522ZM155.108 281.086C154.718 281.477 154.522 281.77 154.522 281.965V286.068L155.108 286.654C155.499 286.264 155.929 285.834 156.437 285.326C156.925 284.837 157.472 284.505 158.039 284.31C156.671 283.333 155.694 282.258 155.108 281.086ZM155.108 294.86C155.499 294.469 155.89 294.079 156.281 293.688C156.671 293.297 157.062 292.906 157.453 292.516C156.476 291.929 155.694 291.148 155.108 290.171L154.522 290.757V294.274L155.108 294.86ZM157.16 301.014C156.769 300.624 156.417 300.272 156.124 299.979C155.831 299.686 155.48 299.354 155.089 298.963L154.503 299.549V302.48L155.089 303.066C155.48 302.675 155.831 302.323 156.124 302.05C156.437 301.737 156.769 301.405 157.16 301.014ZM156.867 309.513L155.108 307.755L154.522 308.341V310.685L155.108 311.272L156.867 309.513ZM156.574 318.012L155.108 316.547L154.522 317.133V318.891L155.108 319.477L156.574 318.012ZM156.281 326.511L155.108 325.339L154.522 325.925V327.097L155.108 327.683C155.304 327.488 155.499 327.351 155.694 327.234C155.89 327.136 156.085 326.902 156.281 326.511ZM158.039 267.605C159.211 267.019 160.227 267.078 161.126 267.742C162.005 268.426 162.591 269.266 162.884 270.243C163.177 271.22 163.119 272.255 162.728 273.33C162.337 274.404 161.556 275.049 160.383 275.225C159.211 275.616 158.195 275.518 157.296 274.932C156.417 274.346 155.831 273.564 155.538 272.587C155.245 271.61 155.284 270.634 155.694 269.657C156.085 268.68 156.867 267.996 158.039 267.605ZM157.453 259.399C158.625 258.813 159.641 258.774 160.52 259.243C161.399 259.732 162.083 260.415 162.572 261.295C163.06 262.174 163.158 263.151 162.865 264.225C162.572 265.3 161.849 266.042 160.676 266.413C159.504 267 158.527 267.058 157.746 266.57C156.964 266.081 156.378 265.398 155.987 264.518C155.597 263.639 155.499 262.662 155.694 261.588C155.89 260.513 156.476 259.79 157.453 259.399ZM158.625 250.901C159.797 250.705 160.716 250.959 161.399 251.643C162.083 252.327 162.513 253.108 162.708 253.988C162.904 254.867 162.747 255.746 162.279 256.625C161.79 257.504 160.95 258.051 159.778 258.227C158.605 258.423 157.668 258.188 157.003 257.504C156.32 256.821 155.87 256 155.694 255.023C155.499 254.046 155.636 253.108 156.124 252.249C156.613 251.331 157.453 250.901 158.625 250.901ZM158.332 234.196C159.504 233.805 160.579 234.098 161.556 235.075C162.533 236.052 162.826 237.127 162.435 238.299C162.044 239.667 161.165 240.487 159.797 240.78C158.43 241.073 157.355 240.624 156.574 239.471C155.792 238.494 155.597 237.478 155.987 236.384C156.378 235.329 157.16 234.587 158.332 234.196ZM158.332 242.402C159.504 242.206 160.422 242.402 161.126 242.988C161.81 243.574 162.239 244.297 162.435 245.176C162.63 246.055 162.591 246.935 162.298 247.814C162.005 248.693 161.263 249.24 160.11 249.416C158.938 249.807 158 249.67 157.316 248.986C156.632 248.302 156.183 247.521 156.007 246.642C155.812 245.762 155.851 244.883 156.144 244.004C156.437 243.125 157.16 242.597 158.332 242.402ZM158.039 225.99C159.016 225.6 159.836 225.6 160.54 225.99C161.224 226.381 161.712 226.967 162.005 227.749C162.298 228.53 162.337 229.351 162.161 230.23C161.966 231.109 161.38 231.656 160.403 231.832C159.426 232.223 158.586 232.223 157.902 231.832C157.218 231.441 156.73 230.855 156.437 230.074C156.144 229.292 156.085 228.511 156.281 227.729C156.476 226.967 157.062 226.381 158.039 225.99ZM158.039 217.785C159.016 217.394 159.954 217.452 160.833 217.921C161.712 218.41 162.142 219.25 162.142 220.422C162.337 221.399 161.888 222.239 160.833 222.903C159.758 223.587 158.723 223.646 157.746 223.04C156.769 222.649 156.281 221.77 156.281 220.403C156.281 219.055 156.867 218.175 158.039 217.785ZM158.039 209.286C158.82 208.895 159.543 208.895 160.227 209.286C160.911 209.677 161.399 210.224 161.692 210.907C161.985 211.591 162.025 212.334 161.849 213.096C161.653 213.877 161.165 214.366 160.383 214.561C159.602 214.952 158.859 214.952 158.195 214.561C157.511 214.17 157.023 213.643 156.73 212.939C156.437 212.256 156.378 211.572 156.574 210.888C156.769 210.204 157.257 209.677 158.039 209.286ZM158.625 200.787C159.602 200.592 160.422 200.943 161.126 201.803C161.81 202.682 161.946 203.62 161.556 204.597C161.165 205.574 160.422 206.121 159.367 206.199C158.293 206.297 157.55 205.867 157.179 204.89C156.593 204.108 156.437 203.268 156.749 202.409C157.003 201.51 157.648 200.982 158.625 200.787ZM158.625 192.581C160.188 192.19 161.126 192.835 161.399 194.476C161.692 196.137 161.048 197.075 159.485 197.27C157.922 197.661 157.003 197.036 156.71 195.356C156.437 193.695 157.062 192.777 158.625 192.581ZM158.625 184.082C159.993 183.887 160.872 184.571 161.263 186.134C161.653 187.697 161.067 188.576 159.504 188.771C158.137 189.162 157.257 188.576 156.867 187.013C156.476 185.45 157.062 184.473 158.625 184.082ZM158.332 175.877C159.7 175.291 160.618 175.74 161.126 177.205C161.614 178.671 161.165 179.608 159.797 179.98C158.625 180.566 157.785 180.175 157.296 178.807C156.808 177.44 157.16 176.463 158.332 175.877ZM158.332 159.465C159.504 158.684 160.325 158.938 160.833 160.208C161.321 161.478 160.97 162.318 159.797 162.689C158.82 163.08 158.078 162.747 157.609 161.673C157.101 160.598 157.355 159.856 158.332 159.465ZM158.332 167.671C159.504 167.085 160.383 167.476 160.97 168.843C161.556 170.211 161.165 171.09 159.797 171.481C158.82 171.871 158.078 171.481 157.609 170.308C157.101 169.136 157.355 168.257 158.332 167.671ZM158.625 150.966C159.602 150.576 160.286 150.927 160.676 151.982C161.067 153.057 160.676 153.799 159.504 154.171C158.527 154.561 157.902 154.229 157.609 153.155C157.296 152.08 157.648 151.357 158.625 150.966ZM158.625 142.468C159.602 142.077 160.286 142.428 160.676 143.503C161.067 144.578 160.774 145.222 159.797 145.398C158.82 145.789 158.137 145.496 157.746 144.519C157.355 143.542 157.648 142.858 158.625 142.468ZM163.314 281.086C162.728 282.454 161.849 283.528 160.676 284.31C162.044 285.091 162.923 285.873 163.314 286.654C164.486 285.482 165.463 284.701 166.245 284.31C164.877 283.333 163.9 282.258 163.314 281.086ZM163.314 290.171C162.728 291.148 161.946 291.929 160.97 292.516C161.36 292.906 161.751 293.297 162.142 293.688C162.533 294.079 162.923 294.469 163.314 294.86L165.659 292.516C165.268 292.125 164.877 291.734 164.486 291.343C164.096 290.953 163.705 290.562 163.314 290.171ZM163.314 298.963C162.728 299.744 162.044 300.428 161.263 301.014L163.314 303.066L165.365 301.014L163.314 298.963ZM163.314 307.755L161.556 309.513L163.314 311.272L165.072 309.513L163.314 307.755ZM163.314 319.477L164.779 318.012C164.193 316.644 163.451 316.39 162.591 317.27C161.692 318.149 161.946 318.891 163.314 319.477ZM163.314 327.683C163.509 327.488 163.705 327.351 163.9 327.234C164.096 327.136 164.291 326.902 164.486 326.491L163.314 325.319C163.119 325.514 162.962 325.71 162.865 325.905C162.767 326.101 162.513 326.296 162.122 326.491L163.314 327.683ZM165.952 267.605C167.124 267.019 168.14 267.019 169.019 267.605C169.898 268.191 170.582 268.973 171.07 269.95C171.559 270.927 171.657 271.962 171.363 273.037C171.07 274.111 170.328 274.854 169.175 275.225C168.003 275.811 166.987 275.811 166.088 275.225C165.209 274.639 164.525 273.857 164.037 272.88C163.548 271.904 163.451 270.888 163.744 269.813C164.056 268.719 164.779 267.996 165.952 267.605ZM165.952 259.399C167.319 258.813 168.628 258.95 169.918 259.829C171.188 260.709 171.617 261.939 171.227 263.502C171.031 265.065 170.211 266.101 168.745 266.589C167.28 267.078 166.049 266.843 165.072 265.847C164.096 265.065 163.705 263.893 163.9 262.33C164.096 260.767 164.779 259.79 165.952 259.399ZM167.124 250.901C168.296 250.705 169.214 250.959 169.918 251.643C170.602 252.327 170.934 253.167 170.934 254.144C170.934 255.121 170.68 256.039 170.191 256.918C169.703 257.797 168.882 258.227 167.71 258.227C166.538 258.423 165.659 258.13 165.072 257.348C164.486 256.567 164.135 255.687 164.056 254.71C163.959 253.734 164.154 252.854 164.643 252.073C165.111 251.291 165.952 250.901 167.124 250.901ZM166.831 242.402C168.003 242.206 168.921 242.402 169.625 242.988C170.308 243.574 170.699 244.297 170.797 245.176C170.895 246.055 170.738 246.935 170.367 247.814C169.976 248.693 169.195 249.24 168.023 249.416C167.046 249.807 166.206 249.67 165.541 248.986C164.857 248.302 164.408 247.521 164.213 246.642C164.017 245.762 164.115 244.883 164.506 244.004C164.877 243.125 165.659 242.597 166.831 242.402ZM166.538 234.196C167.515 233.805 168.394 233.864 169.175 234.352C169.957 234.841 170.445 235.525 170.641 236.404C170.836 237.283 170.777 238.162 170.484 239.041C170.191 239.921 169.566 240.468 168.589 240.643C167.612 241.034 166.733 240.995 165.952 240.507C165.17 240.018 164.682 239.334 164.486 238.455C164.291 237.576 164.33 236.756 164.623 235.974C164.916 235.173 165.561 234.587 166.538 234.196ZM166.538 225.99C167.515 225.6 168.335 225.658 169.019 226.147C169.703 226.635 170.133 227.28 170.348 228.061C170.543 228.843 170.484 229.624 170.191 230.406C169.898 231.187 169.253 231.676 168.277 231.871C167.3 232.262 166.518 232.223 165.932 231.734C165.346 231.246 164.897 230.66 164.604 229.976C164.31 229.292 164.31 228.569 164.604 227.788C164.916 226.967 165.561 226.381 166.538 225.99ZM166.538 217.785C167.515 217.198 168.491 217.296 169.468 218.078C170.445 218.859 170.738 219.836 170.348 221.008C170.152 221.985 169.566 222.728 168.589 223.197C167.612 223.685 166.635 223.548 165.659 222.747C164.682 222.161 164.35 221.282 164.623 220.11C164.916 218.957 165.561 218.175 166.538 217.785ZM167.124 200.787C168.101 200.592 168.921 200.846 169.625 201.529C170.308 202.213 170.445 203.053 170.054 204.011C169.859 205.183 169.175 205.925 168.003 206.199C166.831 206.492 165.952 206.16 165.365 205.183C164.779 204.206 164.682 203.268 165.072 202.409C165.463 201.51 166.147 200.982 167.124 200.787ZM166.538 209.286C167.319 208.895 168.042 208.895 168.726 209.286C169.41 209.677 169.84 210.224 170.035 210.907C170.23 211.591 170.23 212.334 170.035 213.096C169.84 213.877 169.253 214.366 168.277 214.561C167.495 214.952 166.811 214.952 166.225 214.561C165.639 214.17 165.248 213.643 165.053 212.939C164.857 212.256 164.857 211.572 165.053 210.888C165.268 210.204 165.756 209.677 166.538 209.286ZM167.124 192.581C168.687 192.19 169.566 192.874 169.761 194.633C169.957 196.391 169.273 197.368 167.71 197.563C166.147 197.759 165.268 197.036 165.072 195.375C164.877 193.695 165.561 192.777 167.124 192.581ZM166.831 184.375C168.394 183.789 169.371 184.278 169.761 185.841C170.152 187.404 169.566 188.381 168.003 188.771C166.635 189.162 165.756 188.615 165.365 187.15C164.975 185.684 165.463 184.766 166.831 184.375ZM166.831 175.877C168.198 175.291 169.117 175.74 169.625 177.205C170.113 178.671 169.566 179.608 168.003 179.98C166.831 180.37 165.991 179.882 165.522 178.514C165.014 177.147 165.463 176.267 166.831 175.877ZM166.538 167.671C167.71 166.889 168.628 167.182 169.312 168.55C169.996 169.918 169.644 170.895 168.277 171.481C167.3 171.871 166.518 171.481 165.932 170.308C165.365 169.136 165.561 168.257 166.538 167.671ZM166.538 159.465C167.515 158.684 168.335 158.84 169.019 159.915C169.703 160.989 169.566 161.829 168.589 162.396C167.612 163.177 166.772 163.08 166.088 162.103C165.405 161.126 165.561 160.247 166.538 159.465ZM167.124 142.468C168.101 142.077 168.687 142.468 168.882 143.64C169.078 144.812 168.687 145.398 167.71 145.398C166.733 145.789 166.147 145.457 165.952 144.382C165.756 143.288 166.147 142.663 167.124 142.468ZM167.124 150.966C168.101 150.576 168.745 150.927 169.019 151.982C169.312 153.057 168.96 153.799 168.003 154.171C167.026 154.561 166.381 154.171 166.088 152.998C165.795 151.846 166.147 151.162 167.124 150.966ZM171.813 281.086C171.422 281.672 170.973 282.258 170.484 282.844C169.996 283.431 169.351 283.919 168.589 284.31C169.566 284.701 170.641 285.482 171.813 286.654C172.204 286.264 172.633 285.834 173.122 285.326C173.61 284.837 174.04 284.407 174.431 284.017C173.474 283.431 172.594 282.454 171.813 281.086ZM171.813 290.171L169.468 292.516C169.859 292.906 170.25 293.297 170.641 293.688C171.031 294.079 171.422 294.469 171.813 294.86C172.204 294.469 172.594 294.079 172.985 293.688C173.376 293.297 173.767 292.906 174.157 292.516C173.18 291.929 172.399 291.148 171.813 290.171ZM171.52 298.963C171.129 299.354 170.836 299.705 170.641 299.979C170.445 300.272 170.152 300.624 169.761 301.014C170.152 301.405 170.445 301.757 170.641 302.05C170.836 302.343 171.129 302.695 171.52 303.066C171.911 302.675 172.301 302.382 172.692 302.187C173.083 301.991 173.474 301.698 173.864 301.307L171.52 298.963ZM171.52 307.755C171.324 308.146 170.836 308.732 170.054 309.513C170.836 310.295 171.324 310.881 171.52 311.272C172.106 310.881 172.79 310.295 173.571 309.513C173.18 309.122 172.829 308.829 172.536 308.634C172.243 308.439 171.911 308.146 171.52 307.755ZM171.52 316.547C171.324 316.937 171.129 317.191 170.934 317.289C170.738 317.387 170.445 317.641 170.054 318.032C170.445 318.422 170.738 318.676 170.934 318.774C171.129 318.872 171.324 319.126 171.52 319.516C171.911 319.126 172.204 318.891 172.399 318.774C172.594 318.676 172.887 318.442 173.278 318.032C172.887 317.641 172.594 317.406 172.399 317.289C172.204 317.172 171.911 316.937 171.52 316.547ZM170.348 326.511C170.738 326.706 170.973 326.902 171.09 327.097C171.188 327.292 171.324 327.488 171.52 327.683C171.911 327.488 172.145 327.292 172.262 327.097C172.36 326.902 172.594 326.706 173.005 326.511C172.008 325.339 171.129 325.339 170.348 326.511ZM174.45 267.605C175.818 267.019 177.127 267.273 178.417 268.348C179.686 269.422 180.116 270.751 179.726 272.294C179.53 273.857 178.651 274.893 177.088 275.381C175.525 275.87 174.255 275.635 173.278 274.639C172.106 273.662 171.657 272.353 171.95 270.673C172.243 269.031 173.083 267.996 174.45 267.605ZM174.45 259.399C175.818 258.813 177.088 259.009 178.26 259.986C179.432 260.962 179.823 262.232 179.432 263.795C179.237 265.358 178.397 266.335 176.932 266.726C175.466 267.117 174.235 266.824 173.259 265.847C172.282 264.87 171.891 263.659 172.086 262.174C172.301 260.709 173.083 259.79 174.45 259.399ZM175.33 250.901C176.502 250.705 177.42 250.959 178.104 251.643C178.788 252.327 179.178 253.167 179.276 254.144C179.374 255.121 179.178 256.039 178.69 256.918C178.202 257.797 177.361 258.227 176.189 258.227C175.017 258.423 174.138 258.13 173.552 257.348C172.966 256.567 172.575 255.726 172.379 254.867C172.184 253.988 172.321 253.108 172.829 252.229C173.317 251.331 174.157 250.901 175.33 250.901ZM175.037 242.402C176.013 242.011 176.99 242.246 177.967 243.144C178.944 244.023 179.335 245.039 179.139 246.212C179.139 247.775 178.456 248.81 177.088 249.299C175.72 249.787 174.548 249.553 173.571 248.556C172.594 247.775 172.243 246.642 172.536 245.176C172.829 243.711 173.669 242.793 175.037 242.402ZM174.743 234.196C175.916 233.805 176.834 233.903 177.518 234.489C178.202 235.075 178.631 235.818 178.827 236.677C179.022 237.557 178.983 238.397 178.69 239.159C178.397 239.94 177.655 240.429 176.502 240.624C175.525 241.015 174.685 240.917 174.001 240.331C173.317 239.745 172.868 239.022 172.673 238.143C172.477 237.264 172.536 236.443 172.829 235.661C173.122 234.88 173.767 234.391 174.743 234.196ZM174.743 217.492C175.72 217.101 176.541 217.159 177.244 217.628C177.928 218.117 178.358 218.761 178.553 219.543C178.749 220.324 178.71 221.106 178.417 221.887C178.123 222.669 177.479 223.157 176.521 223.353C174.763 223.939 173.591 223.255 173.005 221.301C172.399 219.348 172.985 218.078 174.743 217.492ZM174.743 225.99C175.72 225.6 176.541 225.658 177.244 226.147C177.928 226.635 178.417 227.319 178.71 228.198C179.003 229.077 178.944 229.917 178.553 230.699C178.163 231.48 177.479 231.969 176.502 232.164C175.525 232.555 174.743 232.457 174.157 231.871C173.571 231.285 173.18 230.601 172.985 229.82C172.79 229.038 172.79 228.257 172.985 227.475C173.18 226.674 173.767 226.186 174.743 225.99ZM174.45 209.579C176.013 208.602 177.244 208.954 178.123 210.595C179.003 212.255 178.651 213.584 177.088 214.561C176.306 214.952 175.564 214.991 174.9 214.698C174.216 214.405 173.728 213.916 173.434 213.232C173.141 212.549 173.044 211.865 173.141 211.181C173.22 210.497 173.669 209.97 174.45 209.579ZM175.33 200.787C176.893 200.396 177.869 201.139 178.26 202.975C178.651 204.831 177.967 205.867 176.209 206.062C174.646 206.453 173.708 205.769 173.415 204.011C173.122 202.252 173.767 201.178 175.33 200.787ZM175.33 192.581C176.893 192.19 177.811 192.874 178.104 194.633C178.397 196.391 177.752 197.368 176.209 197.563C175.427 197.759 174.841 197.622 174.45 197.114C174.06 196.626 173.767 196.098 173.571 195.512C173.376 194.926 173.415 194.34 173.708 193.753C174.021 193.167 174.548 192.777 175.33 192.581ZM175.037 175.877C176.209 175.291 177.088 175.681 177.674 177.049C178.26 178.417 177.967 179.393 176.795 179.98C175.623 180.566 174.685 180.175 174.021 178.807C173.317 177.44 173.669 176.463 175.037 175.877ZM175.33 184.082C176.697 183.692 177.576 184.278 177.967 185.841C178.358 187.404 177.869 188.381 176.502 188.771C175.72 188.967 175.076 188.869 174.587 188.478C174.099 188.088 173.806 187.599 173.708 187.013C173.61 186.427 173.649 185.841 173.864 185.255C174.06 184.669 174.548 184.278 175.33 184.082ZM175.037 167.671C176.209 166.889 177.088 167.222 177.674 168.687C178.26 170.152 177.869 171.09 176.502 171.461C175.33 171.852 174.489 171.422 174.001 170.152C173.513 168.882 173.864 168.062 175.037 167.671ZM175.037 159.465C176.013 158.684 176.795 158.879 177.381 160.051C177.967 161.224 177.772 162.103 176.795 162.689C175.818 163.275 175.037 163.041 174.45 161.946C173.864 160.872 174.06 160.051 175.037 159.465ZM175.33 142.468C176.306 142.077 176.951 142.428 177.244 143.503C177.537 144.578 177.186 145.222 176.209 145.398C175.232 145.789 174.587 145.496 174.314 144.519C174.021 143.542 174.353 142.858 175.33 142.468ZM175.623 150.673C176.6 150.478 177.186 151.025 177.381 152.295C177.576 153.565 177.088 154.19 175.916 154.19C174.939 154.385 174.392 153.897 174.314 152.725C174.196 151.552 174.646 150.869 175.623 150.673ZM180.019 280.5C179.432 282.258 178.456 283.431 177.088 284.017C178.651 285.189 179.628 286.166 180.019 286.947C180.605 285.97 181.484 284.994 182.656 284.017C181.484 283.235 180.605 282.063 180.019 280.5ZM180.019 290.171C179.628 290.562 179.237 290.953 178.846 291.343C178.456 291.734 178.065 292.125 177.674 292.516L180.019 294.86C180.409 294.469 180.8 294.079 181.191 293.688C181.582 293.297 181.972 292.906 182.363 292.516C181.386 291.929 180.605 291.148 180.019 290.171ZM180.019 298.963L177.967 301.014C178.358 301.405 178.71 301.757 178.983 302.05C179.276 302.343 179.608 302.695 179.999 303.066L182.05 301.014C181.66 300.624 181.308 300.272 181.015 299.979C180.741 299.686 180.409 299.354 180.019 298.963ZM180.019 307.755L178.26 309.513L180.019 311.272L181.777 309.513L180.019 307.755ZM180.019 316.547L178.553 318.012L180.019 319.477L181.191 318.305C180.8 317.524 180.409 316.937 180.019 316.547ZM180.019 327.683L181.191 326.511C180.8 326.315 180.546 326.12 180.448 325.925C180.351 325.729 180.194 325.534 179.999 325.339L178.827 326.511C179.022 326.902 179.218 327.156 179.413 327.253C179.628 327.331 179.823 327.488 180.019 327.683ZM182.656 267.605C184.024 267.019 185.333 267.156 186.603 268.035C187.873 268.914 188.322 270.145 187.931 271.708C187.931 273.271 187.15 274.404 185.587 275.069C184.024 275.752 182.754 275.616 181.777 274.639C180.605 273.662 180.116 272.392 180.312 270.829C180.507 269.266 181.289 268.191 182.656 267.605ZM182.656 259.399C183.828 258.813 184.844 258.774 185.743 259.243C186.622 259.732 187.247 260.415 187.638 261.295C188.029 262.174 188.068 263.151 187.795 264.225C187.501 265.3 186.779 266.042 185.606 266.413C184.434 267 183.457 267.058 182.676 266.57C181.894 266.081 181.308 265.398 180.917 264.518C180.527 263.639 180.429 262.662 180.624 261.588C180.8 260.513 181.484 259.79 182.656 259.399ZM183.828 250.901C185.196 250.51 186.271 250.901 187.052 252.073C187.834 253.245 188.029 254.515 187.638 255.883C187.247 257.055 186.329 257.797 184.864 258.071C183.399 258.364 182.265 257.915 181.484 256.742C180.507 255.766 180.273 254.554 180.741 253.069C181.23 251.624 182.265 250.901 183.828 250.901ZM183.242 242.402C184.415 242.206 185.333 242.402 186.036 242.988C186.72 243.574 187.15 244.297 187.345 245.176C187.541 246.055 187.501 246.935 187.208 247.814C186.915 248.693 186.173 249.24 185.02 249.416C183.848 249.807 182.91 249.709 182.226 249.123C181.543 248.537 181.093 247.755 180.917 246.778C180.722 245.801 180.761 244.864 181.054 243.984C181.347 243.125 182.07 242.597 183.242 242.402ZM183.242 234.196C184.219 234.001 185.04 234.157 185.743 234.645C186.427 235.134 186.915 235.818 187.208 236.697C187.501 237.576 187.443 238.416 187.052 239.178C186.661 239.96 185.978 240.448 185.001 240.643C184.024 241.034 183.184 240.937 182.5 240.35C181.816 239.764 181.328 239.08 181.035 238.299C180.741 237.517 180.781 236.677 181.191 235.818C181.582 234.919 182.265 234.391 183.242 234.196ZM182.949 225.99C184.121 225.404 185.235 225.658 186.329 226.733C187.404 227.807 187.638 228.921 187.072 230.113C186.681 231.285 185.841 231.969 184.59 232.164C183.32 232.36 182.402 231.969 181.797 230.992C181.015 230.015 180.761 229.038 181.054 228.061C181.347 227.065 181.972 226.381 182.949 225.99ZM182.949 217.785C184.708 217.003 185.978 217.55 186.759 219.387C187.541 221.243 187.052 222.571 185.294 223.353C184.317 223.744 183.477 223.744 182.793 223.353C182.109 222.962 181.621 222.435 181.328 221.731C181.035 221.047 180.976 220.324 181.171 219.543C181.386 218.761 181.972 218.175 182.949 217.785ZM182.949 209.286C183.731 208.895 184.454 208.895 185.137 209.286C185.821 209.677 186.31 210.224 186.603 210.907C186.896 211.591 186.935 212.334 186.759 213.096C186.564 213.877 186.075 214.366 185.294 214.561C184.512 214.952 183.77 214.991 183.106 214.698C182.422 214.405 181.933 213.916 181.64 213.232C181.347 212.549 181.289 211.826 181.484 211.044C181.679 210.263 182.168 209.677 182.949 209.286ZM183.828 200.787C184.61 200.592 185.235 200.748 185.724 201.236C186.212 201.725 186.505 202.311 186.603 202.995C186.7 203.679 186.603 204.323 186.31 204.909C186.017 205.496 185.47 205.886 184.688 206.082C182.93 206.472 181.914 205.75 181.621 203.893C181.347 201.998 182.07 200.982 183.828 200.787ZM183.828 192.581C184.805 192.19 185.587 192.386 186.173 193.167C186.759 193.949 186.857 194.828 186.466 195.805C186.075 196.782 185.333 197.368 184.278 197.563C183.203 197.759 182.461 197.368 182.09 196.391C181.699 195.61 181.66 194.828 181.933 194.047C182.207 193.265 182.852 192.777 183.828 192.581ZM183.242 184.375C184.024 183.985 184.649 183.985 185.137 184.375C185.626 184.766 185.958 185.255 186.173 185.841C186.368 186.427 186.368 187.013 186.173 187.599C185.978 188.185 185.489 188.576 184.708 188.771C183.145 189.162 182.207 188.615 181.933 187.15C181.66 185.684 182.07 184.766 183.242 184.375ZM183.242 175.877C184.805 175.291 185.821 175.779 186.329 177.342C186.818 178.905 186.271 179.784 184.708 179.98C183.34 180.37 182.461 179.882 182.07 178.514C181.679 177.147 182.07 176.267 183.242 175.877ZM183.242 167.671C184.415 167.085 185.294 167.436 185.88 168.687C186.466 169.957 186.173 170.875 185.001 171.461C183.828 171.852 182.949 171.422 182.363 170.152C181.777 168.882 182.07 168.062 183.242 167.671ZM183.242 159.172C184.415 158.586 185.235 158.938 185.743 160.188C186.232 161.458 185.88 162.298 184.708 162.669C183.731 163.06 182.988 162.669 182.519 161.497C182.011 160.344 182.265 159.563 183.242 159.172ZM183.828 142.468C184.805 142.077 185.391 142.468 185.587 143.64C185.782 144.812 185.391 145.398 184.415 145.398C183.438 145.594 182.852 145.261 182.656 144.382C182.461 143.483 182.852 142.858 183.828 142.468ZM183.828 150.673C184.805 150.478 185.43 150.927 185.724 151.982C186.017 153.057 185.665 153.799 184.688 154.171C183.711 154.561 183.086 154.171 182.793 152.998C182.5 151.846 182.852 151.064 183.828 150.673ZM188.224 281.086C187.443 282.454 186.564 283.431 185.587 284.017C185.978 284.407 186.407 284.857 186.896 285.326C187.384 285.814 187.814 286.264 188.224 286.654C189.397 285.482 190.373 284.603 191.155 284.017C189.787 283.431 188.81 282.454 188.224 281.086ZM188.224 290.171C187.638 291.148 186.857 291.929 185.88 292.516C186.271 292.906 186.661 293.297 187.052 293.688C187.443 294.079 187.834 294.469 188.224 294.86C188.615 294.469 189.006 294.079 189.397 293.688C189.787 293.297 190.178 292.906 190.569 292.516L188.224 290.171ZM188.224 298.963C187.638 299.744 186.954 300.428 186.173 301.014C187.15 301.991 187.931 302.675 188.517 303.066C188.908 302.675 189.201 302.323 189.397 302.05C189.592 301.757 189.885 301.425 190.276 301.014C189.885 300.624 189.533 300.272 189.26 299.979C188.967 299.686 188.615 299.354 188.224 298.963ZM188.224 307.755C187.443 308.536 186.954 309.122 186.759 309.513C186.954 309.904 187.443 310.49 188.224 311.272L189.983 309.513L188.224 307.755ZM188.224 316.547C187.834 316.937 187.58 317.23 187.482 317.426C187.384 317.621 187.13 317.817 186.74 318.012C187.13 318.403 187.423 318.657 187.619 318.754C187.814 318.852 188.009 319.106 188.205 319.497C188.596 319.106 188.889 318.872 189.084 318.754C189.279 318.657 189.475 318.422 189.67 318.012C189.475 317.621 189.279 317.387 189.084 317.27C188.908 317.172 188.615 316.937 188.224 316.547ZM187.052 326.511C187.638 327.097 188.127 327.488 188.517 327.683C188.713 327.488 188.85 327.292 188.967 327.097C189.064 326.902 189.201 326.706 189.397 326.511C188.615 324.948 187.834 324.948 187.052 326.511ZM191.155 267.605C192.327 267.019 193.343 267.019 194.222 267.605C195.102 268.191 195.727 269.031 196.118 270.086C196.508 271.161 196.508 272.197 196.118 273.173C195.727 274.15 194.945 274.834 193.773 275.225C192.601 275.811 191.585 275.811 190.686 275.225C189.787 274.639 189.162 273.857 188.771 272.88C188.381 271.904 188.381 270.888 188.771 269.813C189.201 268.719 189.983 267.996 191.155 267.605ZM191.155 259.399C192.327 258.813 193.343 258.813 194.222 259.399C195.102 259.986 195.688 260.767 195.981 261.744C196.274 262.721 196.215 263.756 195.824 264.811C195.434 265.886 194.652 266.531 193.48 266.726C192.308 267.117 191.331 267.019 190.549 266.433C189.768 265.847 189.24 265.124 188.947 264.245C188.654 263.366 188.654 262.447 188.947 261.47C189.24 260.474 189.983 259.79 191.155 259.399ZM191.741 250.901C192.913 250.705 193.832 250.901 194.535 251.487C195.219 252.073 195.649 252.854 195.844 253.831C196.039 254.808 195.942 255.746 195.551 256.625C195.16 257.504 194.379 258.051 193.206 258.227C192.034 258.618 191.057 258.481 190.276 257.797C189.494 257.114 189.064 256.293 188.967 255.297C188.869 254.32 189.006 253.401 189.397 252.522C189.787 251.624 190.569 251.096 191.741 250.901ZM191.741 242.402C192.913 242.206 193.832 242.402 194.535 242.988C195.219 243.574 195.61 244.356 195.707 245.332C195.805 246.309 195.649 247.228 195.277 248.107C194.887 248.986 194.105 249.416 192.933 249.416C191.761 249.611 190.881 249.377 190.295 248.673C189.709 247.99 189.318 247.208 189.123 246.329C188.928 245.45 189.064 244.629 189.553 243.848C190.022 243.086 190.764 242.597 191.741 242.402ZM191.448 234.196C192.425 233.805 193.304 233.864 194.086 234.352C194.867 234.841 195.356 235.525 195.551 236.404C195.746 237.283 195.688 238.162 195.395 239.041C195.102 239.921 194.476 240.468 193.499 240.643C192.523 241.034 191.643 240.995 190.862 240.507C190.08 240.018 189.592 239.334 189.397 238.455C189.201 237.576 189.24 236.756 189.533 235.974C189.826 235.173 190.471 234.587 191.448 234.196ZM191.448 225.99C192.425 225.6 193.245 225.658 193.929 226.147C194.613 226.635 195.102 227.28 195.395 228.061C195.688 228.843 195.688 229.624 195.395 230.406C195.102 231.187 194.476 231.676 193.499 231.871C192.523 232.262 191.682 232.223 190.999 231.734C190.315 231.246 189.826 230.66 189.533 229.976C189.24 229.292 189.24 228.569 189.533 227.788C189.826 226.967 190.471 226.381 191.448 225.99ZM191.448 217.492C192.425 217.101 193.402 217.335 194.379 218.234C195.356 219.113 195.649 220.129 195.258 221.301C195.062 222.474 194.379 223.216 193.206 223.49C192.034 223.783 191.057 223.45 190.276 222.474C189.494 221.692 189.26 220.774 189.533 219.699C189.826 218.605 190.471 217.882 191.448 217.492ZM191.448 209.286C192.425 208.895 193.402 209.09 194.379 209.872C195.356 210.653 195.649 211.63 195.258 212.803C194.867 213.779 194.125 214.424 193.07 214.717C191.995 215.01 191.057 214.678 190.276 213.701C189.69 213.115 189.494 212.334 189.69 211.357C189.885 210.36 190.471 209.677 191.448 209.286ZM192.034 200.787C192.816 200.592 193.499 200.787 194.086 201.373C194.672 201.959 195.004 202.604 195.102 203.268C195.199 203.952 195.043 204.597 194.652 205.183C194.261 205.769 193.675 206.062 192.894 206.062C191.917 206.257 191.175 206.121 190.706 205.613C190.217 205.124 189.924 204.538 189.826 203.854C189.729 203.171 189.866 202.487 190.256 201.803C190.667 201.119 191.253 200.787 192.034 200.787ZM191.741 192.581C192.523 192.386 193.148 192.484 193.656 192.874C194.144 193.265 194.476 193.812 194.672 194.476C194.867 195.16 194.828 195.844 194.535 196.528C194.242 197.212 193.695 197.544 192.913 197.544C191.35 197.739 190.373 197.055 189.983 195.492C189.592 193.949 190.178 192.972 191.741 192.581ZM191.741 184.375C193.304 183.789 194.281 184.278 194.672 185.841C195.062 187.404 194.574 188.381 193.206 188.771C191.643 189.162 190.667 188.615 190.276 187.15C189.885 185.684 190.373 184.766 191.741 184.375ZM191.741 175.877C193.109 175.486 194.027 175.974 194.535 177.342C195.023 178.71 194.476 179.589 192.913 179.98C191.741 180.37 190.901 179.882 190.432 178.514C189.924 177.147 190.373 176.267 191.741 175.877ZM191.448 159.465C192.425 158.684 193.245 158.879 193.929 160.051C194.613 161.224 194.379 162.103 193.187 162.689C192.21 163.275 191.428 163.041 190.842 161.946C190.276 160.872 190.471 160.051 191.448 159.465ZM191.448 167.671C192.62 166.889 193.539 167.182 194.222 168.55C194.906 169.918 194.652 170.797 193.48 171.188C192.308 171.969 191.428 171.735 190.842 170.445C190.276 169.175 190.471 168.257 191.448 167.671ZM192.034 150.673C193.206 150.478 193.89 150.966 194.086 152.139C194.281 153.311 193.793 153.995 192.62 154.19C191.643 154.581 191.057 154.151 190.862 152.881C190.667 151.592 191.057 150.869 192.034 150.673ZM192.327 142.468C193.304 142.077 193.832 142.468 193.929 143.64C194.027 144.812 193.578 145.398 192.62 145.398C191.643 145.789 191.096 145.457 190.999 144.382C190.901 143.288 191.35 142.663 192.327 142.468ZM193.793 284.017C194.965 284.994 195.844 285.97 196.43 286.947C196.821 286.557 197.055 286.264 197.173 286.068C197.27 285.873 197.505 285.677 197.915 285.482V282.844C197.524 282.454 197.27 282.161 197.173 281.965C197.075 281.77 196.821 281.477 196.43 281.086C195.649 282.454 194.769 283.431 193.793 284.017ZM196.723 290.171C195.551 291.343 194.672 292.125 194.086 292.516C194.476 292.906 194.906 293.297 195.395 293.688C195.883 294.079 196.313 294.469 196.723 294.86C196.919 294.665 197.055 294.469 197.153 294.274C197.251 294.079 197.485 293.883 197.895 293.688V291.636C197.505 291.246 197.251 290.953 197.153 290.757C197.055 290.562 196.919 290.366 196.723 290.171ZM196.723 298.963L194.672 301.014C195.062 301.601 195.649 302.284 196.43 303.066C196.821 302.87 197.055 302.675 197.173 302.48C197.27 302.284 197.505 302.089 197.915 301.894V300.135C197.309 299.94 196.919 299.549 196.723 298.963ZM196.723 307.755L194.965 309.513L196.723 311.272C196.919 311.076 197.055 310.881 197.153 310.685C197.251 310.49 197.485 310.295 197.895 310.099V309.22C197.505 308.829 197.251 308.536 197.153 308.341C197.055 308.146 196.919 307.95 196.723 307.755ZM197.895 318.012C197.309 317.426 196.919 316.937 196.723 316.547C196.332 316.937 196.039 317.191 195.844 317.289C195.649 317.387 195.453 317.641 195.258 318.032C195.453 318.422 195.649 318.676 195.844 318.774C196.039 318.872 196.332 319.126 196.723 319.516L197.895 318.344V318.012ZM196.723 327.683L197.895 326.511C197.505 326.315 197.251 326.12 197.153 325.925C197.055 325.729 196.899 325.534 196.723 325.339C196.332 325.534 196.078 325.729 195.981 325.925C195.883 326.12 195.727 326.315 195.551 326.511C195.746 327.097 196.137 327.488 196.723 327.683ZM199.361 267.605C200.924 267.019 202.291 267.273 203.464 268.348C204.636 269.422 205.027 270.751 204.636 272.294C204.44 273.857 203.62 274.893 202.155 275.381C200.689 275.87 199.361 275.635 198.188 274.639C197.016 273.662 196.567 272.353 196.86 270.673C197.153 269.031 197.993 267.996 199.361 267.605ZM199.068 259.399C200.435 258.813 201.744 258.95 203.034 259.829C204.304 260.709 204.831 261.939 204.655 263.502C204.46 265.065 203.639 266.14 202.174 266.726C200.709 267.312 199.478 267.117 198.501 266.14C197.329 265.163 196.84 263.952 197.036 262.467C197.212 261.002 197.895 259.986 199.068 259.399ZM200.24 250.901C201.412 250.705 202.33 250.901 203.014 251.487C203.698 252.073 204.089 252.854 204.186 253.831C204.284 254.808 204.089 255.746 203.6 256.625C203.112 257.504 202.272 258.051 201.1 258.227C199.927 258.423 199.048 258.188 198.462 257.504C197.876 256.821 197.485 256 197.29 255.023C197.094 254.046 197.231 253.108 197.739 252.249C198.228 251.331 199.068 250.901 200.24 250.901ZM199.947 242.402C201.119 242.206 202.037 242.402 202.721 242.988C203.405 243.574 203.835 244.297 204.05 245.176C204.245 246.055 204.186 246.935 203.893 247.814C203.6 248.693 202.877 249.24 201.705 249.416C200.533 249.807 199.595 249.67 198.931 248.986C198.247 248.302 197.798 247.521 197.602 246.642C197.407 245.762 197.466 244.883 197.759 244.004C198.032 243.125 198.775 242.597 199.947 242.402ZM199.947 234.196C200.924 233.805 201.744 233.903 202.428 234.489C203.112 235.075 203.6 235.759 203.893 236.541C204.186 237.322 204.128 238.143 203.737 239.022C203.346 239.901 202.663 240.448 201.686 240.624C200.709 241.015 199.869 240.917 199.204 240.331C198.521 239.745 198.032 239.061 197.739 238.279C197.446 237.498 197.485 236.658 197.876 235.798C198.286 234.919 198.97 234.391 199.947 234.196ZM199.654 225.99C200.435 225.6 201.217 225.6 201.998 225.99C202.78 226.381 203.327 226.967 203.62 227.749C203.913 228.53 203.952 229.351 203.757 230.23C203.561 231.109 202.975 231.656 201.998 231.832C201.021 232.223 200.181 232.223 199.517 231.832C198.833 231.441 198.345 230.855 198.052 230.074C197.759 229.292 197.7 228.511 197.895 227.729C198.091 226.967 198.677 226.381 199.654 225.99ZM199.654 217.785C200.631 217.394 201.549 217.492 202.428 218.078C203.307 218.664 203.737 219.445 203.737 220.422C203.932 221.399 203.542 222.239 202.565 222.903C201.588 223.587 200.611 223.744 199.634 223.353C198.462 222.962 197.876 222.024 197.876 220.559C197.876 219.094 198.482 218.175 199.654 217.785ZM199.654 209.286C200.435 208.895 201.158 208.895 201.842 209.286C202.526 209.677 203.014 210.224 203.307 210.907C203.6 211.591 203.6 212.334 203.307 213.096C203.014 213.877 202.467 214.366 201.686 214.561C200.123 215.342 198.99 214.854 198.306 213.096C197.641 211.337 198.091 210.067 199.654 209.286ZM207.566 267.605C208.739 267.019 209.813 267.019 210.79 267.605C211.767 268.191 212.412 269.031 212.705 270.086C212.998 271.161 212.998 272.197 212.705 273.173C212.412 274.15 211.689 274.834 210.517 275.225C209.344 275.811 208.328 275.811 207.43 275.225C206.551 274.639 205.906 273.857 205.535 272.88C205.144 271.904 205.105 270.888 205.378 269.813C205.652 268.719 206.394 267.996 207.566 267.605ZM207.566 259.399C208.739 258.813 209.755 258.774 210.653 259.243C211.533 259.732 212.158 260.474 212.549 261.431C212.939 262.408 212.978 263.444 212.705 264.518C212.412 265.593 211.689 266.335 210.517 266.707C209.344 267.097 208.328 267.058 207.43 266.55C206.551 266.062 205.964 265.339 205.671 264.362C205.378 263.385 205.32 262.408 205.535 261.431C205.71 260.474 206.394 259.79 207.566 259.399ZM208.739 250.901C209.911 250.705 210.829 250.959 211.513 251.643C212.197 252.327 212.549 253.167 212.549 254.144C212.549 255.121 212.295 256.039 211.806 256.918C211.318 257.797 210.497 258.227 209.305 258.227C208.133 258.423 207.195 258.13 206.531 257.348C205.847 256.567 205.495 255.687 205.495 254.71C205.495 253.734 205.73 252.854 206.238 252.073C206.726 251.291 207.566 250.901 208.739 250.901ZM208.446 242.402C209.618 242.206 210.536 242.402 211.22 242.988C211.904 243.574 212.295 244.297 212.392 245.176C212.49 246.055 212.334 246.935 211.943 247.814C211.552 248.693 210.771 249.24 209.598 249.416C208.426 249.807 207.488 249.67 206.824 248.986C206.14 248.302 205.749 247.521 205.652 246.642C205.554 245.762 205.691 244.883 206.101 244.004C206.492 243.125 207.273 242.597 208.446 242.402ZM207.86 234.196C208.836 233.805 209.716 233.864 210.497 234.352C211.279 234.841 211.767 235.525 211.962 236.404C212.158 237.283 212.119 238.162 211.806 239.041C211.513 239.921 210.868 240.468 209.911 240.643C208.934 241.034 208.094 240.995 207.41 240.507C206.726 240.018 206.238 239.334 205.945 238.455C205.652 237.576 205.652 236.756 205.945 235.974C206.257 235.173 206.883 234.587 207.86 234.196ZM207.86 225.99C208.836 225.6 209.716 225.658 210.497 226.147C211.279 226.635 211.767 227.28 211.962 228.061C212.158 228.843 212.119 229.624 211.806 230.406C211.513 231.187 210.868 231.676 209.911 231.871C208.934 232.262 208.153 232.223 207.566 231.734C206.98 231.246 206.551 230.66 206.257 229.976C205.964 229.292 205.906 228.569 206.101 227.788C206.297 226.967 206.883 226.381 207.86 225.99ZM207.86 209.286C208.836 208.895 209.813 209.051 210.79 209.735C211.767 210.419 212.158 211.259 211.962 212.216C211.767 213.389 211.122 214.229 210.048 214.698C208.973 215.186 208.035 215.049 207.273 214.248C206.492 213.662 206.14 212.783 206.238 211.611C206.336 210.458 206.883 209.677 207.86 209.286ZM207.86 217.785C208.836 217.394 209.657 217.394 210.36 217.785C211.044 218.175 211.533 218.761 211.826 219.543C212.119 220.324 212.119 221.106 211.826 221.887C211.533 222.669 210.888 223.157 209.931 223.353C208.954 223.744 208.172 223.744 207.586 223.353C207 222.962 206.609 222.376 206.414 221.594C206.218 220.813 206.218 220.09 206.414 219.406C206.59 218.703 207.078 218.175 207.86 217.785ZM213.428 281.086C213.037 281.672 212.353 282.454 211.376 283.431C212.158 284.994 212.744 286.068 213.135 286.654C214.307 285.482 215.284 284.701 216.065 284.31C214.893 283.528 214.014 282.454 213.428 281.086ZM216.065 267.605C217.433 267.019 218.742 267.273 220.012 268.348C221.282 269.422 221.712 270.751 221.321 272.294C220.93 273.857 220.012 274.893 218.547 275.381C217.081 275.87 215.85 275.635 214.873 274.639C213.701 273.662 213.213 272.353 213.408 270.673C213.623 269.031 214.502 267.996 216.065 267.605ZM216.065 259.399C217.238 258.813 218.253 258.813 219.133 259.399C220.012 259.986 220.598 260.767 220.891 261.744C221.184 262.721 221.125 263.698 220.735 264.675C220.344 265.651 219.562 266.335 218.39 266.726C217.218 267.117 216.241 267.019 215.46 266.433C214.678 265.847 214.151 265.124 213.858 264.245C213.564 263.366 213.564 262.447 213.858 261.47C214.151 260.474 214.893 259.79 216.065 259.399ZM216.944 250.901C218.117 250.705 218.996 250.901 219.582 251.487C220.168 252.073 220.559 252.796 220.754 253.675C220.95 254.554 220.852 255.433 220.461 256.313C220.07 257.192 219.289 257.739 218.117 257.915C216.944 258.305 215.968 258.169 215.186 257.465C214.405 256.781 213.975 255.961 213.877 254.984C213.779 254.007 213.975 253.069 214.463 252.21C214.932 251.33 215.772 250.901 216.944 250.901ZM216.358 242.402C217.531 242.011 218.449 242.167 219.133 242.832C219.816 243.515 220.305 244.297 220.598 245.176C220.891 246.055 220.832 246.935 220.461 247.814C220.07 248.693 219.289 249.24 218.117 249.416C216.944 249.807 216.007 249.709 215.342 249.123C214.659 248.537 214.209 247.814 214.014 246.935C213.818 246.055 213.916 245.176 214.307 244.297C214.698 243.418 215.381 242.793 216.358 242.402ZM216.358 234.196C217.335 233.805 218.156 233.903 218.84 234.489C219.523 235.075 220.012 235.759 220.305 236.541C220.598 237.322 220.539 238.143 220.168 239.022C219.777 239.901 219.094 240.448 218.117 240.624C217.14 241.015 216.3 240.917 215.635 240.331C214.952 239.745 214.502 239.061 214.326 238.279C214.131 237.498 214.17 236.658 214.463 235.798C214.737 234.919 215.381 234.391 216.358 234.196ZM216.358 217.492C217.531 217.101 218.547 217.394 219.445 218.371C220.324 219.348 220.559 220.422 220.188 221.594C219.797 222.571 219.055 223.216 218 223.509C216.925 223.802 215.987 223.47 215.206 222.493C214.424 221.712 214.19 220.793 214.463 219.719C214.737 218.605 215.381 217.882 216.358 217.492ZM216.358 225.99C217.335 225.6 218.156 225.658 218.84 226.147C219.523 226.635 220.012 227.319 220.305 228.198C220.598 229.077 220.539 229.917 220.168 230.699C219.777 231.48 219.094 231.969 218.117 232.164C217.14 232.555 216.358 232.457 215.772 231.871C215.186 231.285 214.795 230.601 214.6 229.82C214.405 229.038 214.405 228.257 214.6 227.475C214.795 226.674 215.381 226.186 216.358 225.99ZM216.944 200.787C217.921 200.396 218.742 200.65 219.445 201.529C220.129 202.409 220.266 203.346 219.875 204.323C219.484 205.3 218.801 205.925 217.824 206.218C216.847 206.511 215.968 206.179 215.186 205.202C214.6 204.421 214.502 203.542 214.893 202.565C215.284 201.568 215.968 200.982 216.944 200.787ZM216.065 209.286C216.847 208.895 217.57 208.836 218.253 209.129C218.937 209.423 219.426 209.911 219.719 210.595C220.012 211.279 220.11 212.021 220.012 212.783C219.914 213.565 219.465 214.151 218.703 214.541C217.921 214.932 217.179 214.971 216.515 214.678C215.831 214.385 215.342 213.897 215.049 213.213C214.756 212.529 214.659 211.806 214.756 211.025C214.834 210.263 215.284 209.677 216.065 209.286ZM216.944 192.581C218.507 192.19 219.484 192.777 219.875 194.34C220.266 195.903 219.68 196.879 218.117 197.27C216.554 197.856 215.577 197.329 215.186 195.649C214.795 194.007 215.381 192.972 216.944 192.581ZM221.34 281.086C220.754 282.454 219.875 283.528 218.703 284.31C220.266 285.091 221.145 285.97 221.34 286.947C222.122 285.775 223.099 284.798 224.271 284.017C223.099 283.235 222.122 282.258 221.34 281.086ZM219.289 292.516C219.68 292.906 220.07 293.297 220.461 293.688C220.852 294.079 221.243 294.469 221.633 294.86C222.024 294.469 222.415 294.079 222.806 293.688C223.196 293.297 223.587 292.906 223.978 292.516C223.001 291.929 222.22 291.148 221.633 290.171C221.243 290.562 220.852 290.953 220.461 291.343C220.07 291.734 219.68 292.125 219.289 292.516ZM224.271 259.399C225.443 258.813 226.459 258.774 227.358 259.243C228.237 259.732 228.862 260.415 229.273 261.295C229.663 262.174 229.702 263.151 229.409 264.225C229.116 265.3 228.374 266.042 227.221 266.413C226.049 267 225.033 267.058 224.154 266.57C223.275 266.081 222.63 265.398 222.239 264.518C221.848 263.639 221.79 262.662 222.083 261.588C222.376 260.513 223.099 259.79 224.271 259.399ZM224.271 267.605C225.443 267.019 226.459 267.019 227.358 267.605C228.237 268.191 228.862 268.973 229.273 269.95C229.663 270.927 229.702 271.962 229.409 273.037C229.116 274.111 228.374 274.854 227.221 275.225C226.049 275.811 225.033 275.811 224.154 275.225C223.275 274.639 222.63 273.857 222.239 272.88C221.848 271.904 221.79 270.888 222.083 269.813C222.376 268.719 223.099 267.996 224.271 267.605ZM225.15 250.901C226.322 250.705 227.241 250.959 227.925 251.643C228.608 252.327 228.999 253.108 229.097 253.988C229.194 254.867 229.038 255.746 228.667 256.625C228.276 257.504 227.495 258.051 226.322 258.227C225.15 258.423 224.212 258.188 223.529 257.504C222.845 256.821 222.395 256 222.22 255.023C222.024 254.046 222.161 253.108 222.669 252.249C223.138 251.331 223.978 250.901 225.15 250.901ZM224.857 234.196C225.834 233.805 226.811 234.001 227.788 234.782C228.765 235.564 229.155 236.541 228.96 237.713C228.96 239.08 228.276 240.018 226.909 240.507C225.541 240.995 224.369 240.761 223.392 239.764C222.415 238.787 222.122 237.713 222.513 236.541C222.903 235.368 223.685 234.587 224.857 234.196ZM225.15 242.402C226.518 242.206 227.592 242.656 228.374 243.711C229.155 244.785 229.351 245.899 228.96 247.091C228.569 248.263 227.788 249.045 226.616 249.435C225.443 249.826 224.369 249.533 223.392 248.556C222.415 247.579 222.122 246.368 222.513 244.883C222.903 243.418 223.783 242.597 225.15 242.402ZM224.564 217.785C226.322 217.003 227.592 217.55 228.374 219.387C229.155 221.243 228.667 222.571 226.909 223.353C225.932 223.744 225.092 223.744 224.427 223.353C223.744 222.962 223.255 222.435 222.962 221.731C222.669 221.047 222.61 220.324 222.806 219.543C223.001 218.761 223.587 218.175 224.564 217.785ZM224.564 225.99C225.541 225.6 226.362 225.6 227.065 225.99C227.749 226.381 228.237 226.967 228.53 227.749C228.823 228.53 228.862 229.351 228.667 230.23C228.472 231.109 227.885 231.656 226.909 231.832C225.932 232.223 225.092 232.223 224.427 231.832C223.744 231.441 223.255 230.855 222.962 230.074C222.669 229.292 222.61 228.511 222.806 227.729C223.001 226.967 223.587 226.381 224.564 225.99ZM224.564 209.286C225.346 208.895 226.068 208.895 226.752 209.286C227.436 209.677 227.925 210.224 228.218 210.907C228.511 211.591 228.55 212.334 228.354 213.096C228.159 213.877 227.671 214.366 226.889 214.561C226.108 214.952 225.365 214.991 224.701 214.698C224.017 214.405 223.529 213.916 223.236 213.232C222.942 212.549 222.884 211.826 223.099 211.044C223.294 210.263 223.783 209.677 224.564 209.286ZM225.15 200.787C226.127 200.592 226.948 200.885 227.631 201.666C228.315 202.448 228.452 203.327 228.081 204.304C227.69 205.281 226.948 205.867 225.893 206.062C224.818 206.257 223.978 205.867 223.411 204.89C223.021 204.108 222.962 203.268 223.255 202.409C223.529 201.51 224.173 200.982 225.15 200.787ZM224.857 184.375C225.639 183.985 226.264 183.985 226.752 184.375C227.241 184.766 227.573 185.255 227.788 185.841C227.983 186.427 227.983 187.013 227.788 187.599C227.592 188.185 227.104 188.576 226.322 188.771C224.759 189.162 223.783 188.615 223.392 187.15C223.001 185.684 223.49 184.766 224.857 184.375ZM225.15 192.581C226.713 192.19 227.69 192.835 228.081 194.476C228.472 196.137 227.885 197.075 226.322 197.27C224.759 197.661 223.783 197.036 223.392 195.356C223.001 193.695 223.587 192.777 225.15 192.581ZM224.857 175.877C226.42 175.291 227.397 175.779 227.788 177.342C228.179 178.905 227.69 179.784 226.322 179.98C224.955 180.37 224.076 179.882 223.685 178.514C223.294 177.147 223.685 176.267 224.857 175.877ZM229.839 281.086C229.058 282.454 228.179 283.431 227.202 284.017L229.839 286.654C231.011 285.482 231.988 284.603 232.77 284.017C231.402 283.431 230.425 282.454 229.839 281.086ZM229.839 290.171C229.253 291.148 228.472 291.929 227.495 292.516C227.885 292.906 228.276 293.297 228.667 293.688C229.058 294.079 229.448 294.469 229.839 294.86L232.184 292.516C231.207 291.929 230.425 291.148 229.839 290.171ZM227.788 301.014L229.839 303.066L231.891 301.014C231.5 300.624 231.148 300.272 230.855 299.979C230.562 299.686 230.21 299.354 229.82 298.963C229.429 299.354 229.077 299.705 228.804 299.979C228.53 300.272 228.179 300.624 227.788 301.014ZM232.477 267.605C233.649 267.019 234.724 267.019 235.7 267.605C236.677 268.191 237.322 269.031 237.615 270.086C237.908 271.161 237.908 272.197 237.615 273.173C237.322 274.15 236.599 274.834 235.427 275.225C234.255 275.811 233.239 275.811 232.34 275.225C231.461 274.639 230.816 273.857 230.445 272.88C230.054 271.904 230.015 270.888 230.289 269.813C230.562 268.719 231.305 267.996 232.477 267.605ZM232.477 259.399C233.844 258.813 235.153 258.95 236.423 259.829C237.693 260.709 238.143 261.939 237.752 263.502C237.557 265.065 236.716 266.101 235.251 266.589C233.786 267.078 232.555 266.843 231.578 265.847C230.601 265.065 230.152 263.893 230.269 262.33C230.367 260.767 231.109 259.79 232.477 259.399ZM233.356 250.901C234.528 250.705 235.446 250.901 236.13 251.487C236.814 252.073 237.244 252.854 237.439 253.831C237.635 254.808 237.537 255.746 237.146 256.625C236.756 257.504 235.974 258.051 234.802 258.227C233.629 258.618 232.653 258.481 231.871 257.797C231.09 257.114 230.64 256.293 230.543 255.297C230.445 254.32 230.582 253.401 230.992 252.522C231.402 251.624 232.184 251.096 233.356 250.901ZM233.356 242.402C234.528 242.206 235.446 242.46 236.13 243.144C236.814 243.828 237.244 244.61 237.439 245.489C237.635 246.368 237.537 247.208 237.146 247.97C236.756 248.752 235.974 249.24 234.802 249.435C233.629 249.826 232.692 249.689 232.008 249.006C231.324 248.322 230.875 247.54 230.699 246.661C230.504 245.782 230.601 244.903 230.992 244.023C231.402 243.125 232.184 242.597 233.356 242.402ZM233.063 234.196C234.04 233.805 234.919 233.864 235.7 234.352C236.482 234.841 236.97 235.525 237.166 236.404C237.361 237.283 237.322 238.162 237.029 239.041C236.736 239.921 236.091 240.468 235.134 240.643C234.157 241.034 233.278 240.995 232.496 240.507C231.715 240.018 231.226 239.334 231.031 238.455C230.836 237.576 230.875 236.756 231.187 235.974C231.461 235.173 232.086 234.587 233.063 234.196ZM233.063 225.99C234.04 225.6 234.86 225.658 235.564 226.147C236.248 226.635 236.736 227.28 237.029 228.061C237.322 228.843 237.322 229.624 237.029 230.406C236.736 231.187 236.091 231.676 235.134 231.871C234.157 232.262 233.317 232.262 232.633 231.871C231.949 231.48 231.461 230.894 231.168 230.113C230.875 229.331 230.875 228.55 231.168 227.768C231.461 226.967 232.086 226.381 233.063 225.99ZM233.063 217.492C233.844 217.101 234.567 217.159 235.251 217.628C235.935 218.117 236.423 218.703 236.716 219.387C237.009 220.07 237.009 220.852 236.716 221.731C236.423 222.61 235.876 223.157 235.114 223.353C234.137 223.744 233.356 223.704 232.77 223.197C232.184 222.708 231.754 222.122 231.461 221.438C231.168 220.754 231.109 220.031 231.305 219.25C231.5 218.468 232.086 217.882 233.063 217.492ZM232.77 209.579C233.747 208.993 234.685 208.993 235.564 209.579C236.443 210.165 236.873 210.946 236.873 211.923C236.873 212.9 236.482 213.682 235.7 214.268C234.919 214.854 234.04 214.952 233.063 214.561C231.891 214.17 231.305 213.35 231.305 212.06C231.305 210.79 231.793 209.97 232.77 209.579ZM233.649 200.787C235.407 200.592 236.384 201.373 236.58 203.131C236.775 204.89 235.994 205.867 234.235 206.062C233.454 206.257 232.809 206.121 232.34 205.613C231.852 205.124 231.559 204.538 231.461 203.854C231.363 203.171 231.5 202.487 231.891 201.803C232.281 201.119 232.868 200.787 233.649 200.787ZM233.356 192.581C234.919 192.19 235.896 192.777 236.287 194.34C236.677 195.903 236.091 196.879 234.528 197.27C232.965 197.856 231.988 197.329 231.598 195.649C231.207 194.007 231.793 192.972 233.356 192.581ZM233.356 184.082C234.919 183.692 235.896 184.278 236.287 185.841C236.677 187.404 236.091 188.381 234.528 188.771C233.942 188.967 233.395 188.869 232.926 188.478C232.438 188.088 232.086 187.599 231.891 187.013C231.695 186.427 231.695 185.841 231.891 185.255C232.086 184.669 232.574 184.278 233.356 184.082ZM233.356 175.877C234.724 175.486 235.642 175.974 236.13 177.342C236.619 178.71 236.072 179.589 234.509 179.98C233.141 180.566 232.262 180.136 231.871 178.671C231.5 177.186 231.988 176.267 233.356 175.877ZM233.063 167.671C234.235 166.889 235.114 167.182 235.7 168.55C236.287 169.918 235.994 170.797 234.821 171.188C233.844 171.969 233.004 171.735 232.32 170.445C231.637 169.175 231.891 168.257 233.063 167.671ZM233.063 159.465C234.04 158.684 234.86 158.879 235.564 160.051C236.248 161.224 235.994 162.103 234.821 162.689C233.844 163.275 233.063 163.041 232.477 161.946C231.891 160.872 232.086 160.051 233.063 159.465ZM238.045 281.086C237.263 282.454 236.384 283.431 235.407 284.017C235.798 284.407 236.228 284.857 236.716 285.326C237.205 285.814 237.635 286.264 238.045 286.654C239.217 285.482 240.194 284.603 240.976 284.017C240.194 283.626 239.217 282.649 238.045 281.086ZM238.045 290.171C237.459 291.148 236.677 291.929 235.7 292.516C236.091 292.906 236.482 293.297 236.873 293.688C237.263 294.079 237.654 294.469 238.045 294.86C239.022 294.274 239.803 293.492 240.389 292.516L238.045 290.171ZM238.045 298.963C237.459 299.744 236.775 300.428 235.994 301.014L238.045 303.066C238.826 302.48 239.51 301.796 240.096 301.014C239.706 300.624 239.354 300.272 239.08 299.979C238.787 299.686 238.436 299.354 238.045 298.963ZM238.338 311.272C238.533 310.881 239.022 310.295 239.803 309.513L238.045 307.755L236.287 309.513C237.068 310.295 237.752 310.881 238.338 311.272ZM240.683 259.399C241.855 258.813 242.871 258.774 243.75 259.243C244.629 259.732 245.254 260.415 245.665 261.295C246.055 262.174 246.153 263.151 245.958 264.225C245.762 265.3 245.078 266.042 243.906 266.413C242.734 267 241.718 267.058 240.819 266.57C239.94 266.081 239.295 265.398 238.924 264.518C238.533 263.639 238.436 262.662 238.631 261.588C238.826 260.513 239.51 259.79 240.683 259.399ZM240.976 267.605C242.148 267.019 243.164 267.078 244.043 267.742C244.922 268.426 245.508 269.266 245.801 270.243C246.094 271.22 246.094 272.255 245.801 273.33C245.508 274.404 244.766 275.049 243.613 275.225C242.441 275.616 241.425 275.518 240.526 274.932C239.647 274.346 239.061 273.564 238.768 272.587C238.475 271.61 238.475 270.634 238.768 269.657C239.061 268.68 239.803 267.996 240.976 267.605ZM241.855 250.901C243.027 250.705 243.945 250.959 244.649 251.643C245.332 252.327 245.723 253.108 245.821 253.988C245.919 254.867 245.723 255.746 245.235 256.625C244.746 257.504 243.926 258.051 242.754 258.227C241.581 258.423 240.643 258.188 239.979 257.504C239.295 256.821 238.905 256 238.807 255.023C238.709 254.046 238.905 253.108 239.393 252.249C239.842 251.331 240.683 250.901 241.855 250.901ZM240.976 225.99C241.952 225.6 242.773 225.6 243.457 225.99C244.141 226.381 244.629 226.967 244.922 227.749C245.215 228.53 245.254 229.351 245.078 230.23C244.883 231.109 244.297 231.656 243.32 231.832C242.343 232.223 241.503 232.223 240.819 231.832C240.135 231.441 239.647 230.855 239.354 230.074C239.061 229.292 239.002 228.511 239.217 227.729C239.413 226.967 239.999 226.381 240.976 225.99ZM240.976 217.785C241.757 217.198 242.539 217.101 243.32 217.492C244.102 217.882 244.649 218.468 244.942 219.25C245.235 220.031 245.274 220.813 245.098 221.594C244.903 222.376 244.317 222.962 243.34 223.353C242.558 223.744 241.816 223.744 241.151 223.353C240.468 222.962 239.979 222.435 239.686 221.731C239.393 221.047 239.334 220.324 239.549 219.543C239.706 218.761 240.194 218.175 240.976 217.785ZM240.976 209.286C241.757 208.895 242.48 208.836 243.164 209.129C243.848 209.423 244.336 209.911 244.629 210.595C244.922 211.279 245.02 212.021 244.922 212.783C244.824 213.565 244.375 214.151 243.613 214.541C242.832 214.932 242.089 214.971 241.425 214.678C240.741 214.385 240.253 213.897 239.96 213.213C239.667 212.529 239.569 211.806 239.667 211.025C239.745 210.263 240.194 209.677 240.976 209.286ZM241.855 192.581C243.418 192.19 244.356 192.835 244.649 194.476C244.942 196.137 244.297 197.075 242.734 197.27C241.171 197.661 240.253 197.036 239.96 195.356C239.647 193.695 240.292 192.777 241.855 192.581ZM241.855 200.787C243.418 200.396 244.395 201.139 244.785 202.975C245.176 204.831 244.492 205.867 242.734 206.062C241.171 206.453 240.253 205.769 239.96 204.011C239.647 202.252 240.292 201.178 241.855 200.787ZM241.562 184.375C242.929 183.789 243.848 184.278 244.356 185.841C244.844 187.404 244.395 188.381 243.027 188.771C241.659 189.358 240.722 188.869 240.253 187.306C239.745 185.743 240.194 184.766 241.562 184.375ZM241.562 175.877C242.929 175.291 243.848 175.74 244.356 177.205C244.844 178.671 244.395 179.608 243.027 179.98C241.855 180.566 240.976 180.136 240.389 178.671C239.803 177.186 240.194 176.267 241.562 175.877ZM241.562 167.671C242.734 167.085 243.613 167.476 244.199 168.843C244.785 170.211 244.395 171.09 243.027 171.481C241.855 171.871 241.015 171.442 240.546 170.172C240.038 168.882 240.389 168.062 241.562 167.671ZM241.562 159.465C242.539 158.684 243.32 158.938 243.906 160.208C244.492 161.478 244.199 162.318 243.027 162.689C242.05 163.275 241.308 162.982 240.839 161.81C240.331 160.637 240.585 159.856 241.562 159.465ZM241.855 142.468C242.832 142.077 243.476 142.428 243.75 143.503C244.043 144.578 243.691 145.222 242.734 145.398C241.757 145.789 241.112 145.496 240.819 144.519C240.526 143.542 240.878 142.858 241.855 142.468ZM242.148 150.673C243.125 150.478 243.652 151.025 243.75 152.295C243.848 153.565 243.398 154.19 242.441 154.19C241.464 154.385 240.917 153.897 240.819 152.725C240.722 151.552 241.171 150.869 242.148 150.673ZM246.544 280.793C246.153 281.965 245.176 283.138 243.613 284.31C244.981 285.091 245.958 285.97 246.544 286.947C247.13 285.775 248.009 284.896 249.181 284.31C247.618 283.138 246.739 281.965 246.544 280.793ZM248.888 292.516C247.911 291.929 247.13 291.148 246.544 290.171C246.153 290.562 245.762 290.953 245.372 291.343C244.981 291.734 244.59 292.125 244.199 292.516L246.544 294.86C246.935 294.469 247.325 294.079 247.716 293.688C248.107 293.297 248.498 292.906 248.888 292.516ZM248.595 301.014C248.204 300.624 247.853 300.272 247.579 299.979C247.286 299.686 246.935 299.354 246.544 298.963L244.492 301.014C245.078 301.796 245.762 302.48 246.544 303.066L248.595 301.014ZM248.302 309.513L246.544 307.755L244.785 309.513L246.544 311.272L248.302 309.513ZM248.009 318.012C247.618 317.621 247.325 317.387 247.13 317.27C246.935 317.172 246.641 316.937 246.251 316.527C246.251 316.723 246.192 316.82 246.114 316.82C246.016 316.82 245.958 316.918 245.958 317.113C246.739 317.524 247.423 317.817 248.009 318.012ZM250.354 200.787C251.33 200.592 252.112 200.846 252.698 201.529C253.284 202.213 253.48 203.053 253.284 204.011C252.893 205.183 252.151 205.925 251.096 206.199C250.021 206.492 249.201 206.16 248.615 205.183C247.833 204.206 247.677 203.268 248.165 202.409C248.634 201.51 249.377 200.982 250.354 200.787ZM250.061 184.375C251.428 183.789 252.346 184.278 252.835 185.841C253.323 187.404 252.776 188.381 251.233 188.771C249.67 189.162 248.693 188.615 248.302 187.15C247.911 185.684 248.498 184.766 250.061 184.375ZM250.061 192.581C251.624 191.995 252.6 192.542 252.991 194.183C253.382 195.844 252.796 196.879 251.233 197.27C249.67 197.856 248.693 197.329 248.302 195.649C247.911 194.007 248.498 192.972 250.061 192.581ZM250.061 175.877C251.428 175.291 252.307 175.74 252.698 177.205C253.089 178.671 252.6 179.608 251.233 179.98C249.865 180.37 248.986 179.882 248.595 178.514C248.204 177.147 248.693 176.267 250.061 175.877ZM249.474 167.671C250.647 167.085 251.565 167.339 252.249 168.413C252.933 169.488 252.776 170.426 251.799 171.188C250.627 171.969 249.689 171.774 249.025 170.602C248.341 169.429 248.498 168.452 249.474 167.671ZM249.474 159.465C250.451 158.684 251.33 158.84 252.112 159.915C252.893 160.989 252.796 161.829 251.819 162.396C250.842 163.177 249.963 163.041 249.181 161.946C248.4 160.872 248.498 160.051 249.474 159.465ZM250.354 150.966C251.33 150.576 251.975 150.927 252.268 151.982C252.561 153.057 252.21 153.799 251.252 154.171C250.275 154.561 249.592 154.171 249.201 152.998C248.791 151.846 249.181 151.162 250.354 150.966ZM250.354 142.468C251.33 142.077 251.917 142.468 252.112 143.64C252.307 144.812 251.917 145.398 250.94 145.398C249.963 145.789 249.377 145.457 249.181 144.382C248.986 143.288 249.377 142.663 250.354 142.468ZM254.75 281.086C254.163 282.258 253.187 283.333 251.819 284.31C253.187 285.091 254.163 285.873 254.75 286.654C255.922 285.482 256.899 284.603 257.68 284.017C256.313 283.431 255.336 282.454 254.75 281.086ZM254.75 290.171C254.163 291.148 253.382 291.929 252.405 292.516L254.75 294.86C255.14 294.469 255.57 294.079 256.078 293.688C256.567 293.297 256.996 292.906 257.387 292.516C256.801 292.125 256.313 291.734 255.922 291.343C255.531 290.953 255.14 290.562 254.75 290.171ZM254.75 298.963C254.359 299.354 254.007 299.744 253.734 300.135C253.441 300.526 253.089 300.917 252.718 301.307C253.108 301.698 253.46 301.991 253.734 302.187C254.027 302.382 254.359 302.675 254.75 303.066C255.336 302.675 256.019 302.089 256.801 301.307C256.41 300.721 255.726 299.94 254.75 298.963ZM254.75 307.755L252.991 309.513L254.75 311.272L256.508 309.513L254.75 307.755ZM254.75 319.477C255.14 319.087 255.433 318.852 255.629 318.735C255.824 318.637 256.019 318.403 256.215 317.992L254.75 316.527C253.187 317.524 253.187 318.5 254.75 319.477ZM258.266 184.082C259.243 183.887 260.064 184.141 260.767 184.825C261.451 185.509 261.588 186.251 261.197 187.013C261.002 187.99 260.415 188.576 259.439 188.771C258.462 188.967 257.68 188.674 257.094 187.892C256.703 187.306 256.606 186.622 256.801 185.841C256.996 185.059 257.485 184.473 258.266 184.082ZM257.973 175.877C259.341 175.291 260.318 175.74 260.904 177.205C261.49 178.671 261.099 179.608 259.732 179.98C258.364 180.37 257.426 179.94 256.938 178.671C256.449 177.381 256.801 176.463 257.973 175.877ZM257.973 167.671C259.145 166.889 260.025 167.222 260.611 168.687C261.197 170.152 260.904 171.09 259.732 171.461C258.559 171.852 257.719 171.422 257.231 170.152C256.742 168.882 256.996 168.062 257.973 167.671ZM257.973 159.465C258.95 158.684 259.771 158.879 260.474 160.051C261.158 161.224 261.002 162.103 260.044 162.689C259.067 163.275 258.227 163.041 257.543 161.946C256.84 160.872 256.996 160.051 257.973 159.465ZM258.852 150.673C259.829 150.478 260.357 151.025 260.474 152.295C260.572 153.565 260.044 154.19 258.852 154.19C257.876 154.19 257.387 153.663 257.387 152.588C257.387 151.513 257.876 150.869 258.852 150.673ZM258.266 142.468C259.243 142.077 259.927 142.428 260.318 143.503C260.708 144.578 260.415 145.222 259.439 145.398C258.462 145.789 257.836 145.496 257.543 144.519C257.231 143.542 257.485 142.858 258.266 142.468ZM260.318 284.31C261.099 284.701 262.076 285.482 263.248 286.654C263.834 285.873 264.714 284.994 265.886 284.017C264.909 283.431 264.03 282.454 263.248 281.086C262.076 282.649 261.099 283.724 260.318 284.31ZM263.248 290.171C262.076 291.343 261.197 292.125 260.611 292.516C261.002 292.906 261.431 293.297 261.939 293.688C262.428 294.079 262.858 294.469 263.248 294.86C263.639 294.469 263.991 294.079 264.264 293.688C264.557 293.297 264.889 292.906 265.3 292.516C264.909 292.125 264.557 291.734 264.264 291.343C263.971 290.953 263.639 290.562 263.248 290.171ZM263.248 298.963C262.858 299.354 262.506 299.705 262.232 299.979C261.939 300.272 261.588 300.624 261.197 301.014C261.588 301.405 261.881 301.757 262.076 302.05C262.271 302.343 262.565 302.695 262.955 303.066C263.737 302.48 264.421 301.796 265.007 301.014C264.225 300.233 263.639 299.549 263.248 298.963ZM263.248 307.755L261.49 309.513L263.248 311.272C263.639 310.881 263.874 310.588 263.991 310.392C264.088 310.197 264.323 309.904 264.733 309.513C263.932 308.732 263.444 308.146 263.248 307.755ZM263.248 319.477L264.421 318.305C264.225 317.914 264.03 317.621 263.834 317.426C263.639 317.23 263.444 316.937 263.248 316.547C262.858 316.937 262.565 317.191 262.369 317.289C262.174 317.387 261.978 317.641 261.783 318.032C261.978 318.422 262.174 318.676 262.369 318.774C262.565 318.852 262.858 319.087 263.248 319.477ZM266.472 167.671C267.644 167.085 268.523 167.436 269.11 168.687C269.696 169.957 269.305 170.875 267.937 171.461C266.96 171.852 266.179 171.422 265.593 170.152C265.007 168.882 265.3 168.062 266.472 167.671ZM266.472 159.172C267.644 158.586 268.484 158.938 268.973 160.188C269.461 161.458 269.012 162.298 267.664 162.669C266.687 163.06 266.003 162.669 265.612 161.497C265.202 160.344 265.495 159.563 266.472 159.172ZM266.765 150.673C267.742 150.478 268.387 150.927 268.66 151.982C268.953 153.057 268.602 153.799 267.644 154.171C266.667 154.561 266.023 154.171 265.73 152.998C265.437 151.846 265.788 151.064 266.765 150.673ZM266.765 142.468C267.742 142.077 268.328 142.468 268.523 143.64C268.719 144.812 268.328 145.398 267.351 145.398C266.374 145.594 265.827 145.261 265.73 144.382C265.632 143.483 265.984 142.858 266.765 142.468ZM274.385 284.017C272.626 283.431 271.649 282.258 271.454 280.5C270.868 282.063 269.891 283.235 268.523 284.017C270.086 285.189 271.063 286.166 271.454 286.947C271.845 286.166 272.822 285.189 274.385 284.017ZM271.454 294.86C271.845 294.469 272.236 294.079 272.626 293.688C273.017 293.297 273.408 292.906 273.799 292.516C272.822 291.929 272.04 291.148 271.454 290.171C271.063 290.562 270.673 290.953 270.282 291.343C269.891 291.734 269.5 292.125 269.11 292.516C269.5 292.906 269.891 293.297 270.282 293.688C270.673 294.079 271.063 294.469 271.454 294.86ZM273.506 301.014C272.919 300.624 272.236 299.842 271.454 298.67C270.673 299.842 269.989 300.624 269.403 301.014C269.793 301.405 270.145 301.757 270.438 302.05C270.731 302.343 271.063 302.695 271.474 303.066L273.506 301.014ZM273.212 309.513L271.454 307.755L269.696 309.513L271.454 311.272L273.212 309.513ZM272.919 318.012C272.529 317.621 272.236 317.387 272.04 317.27C271.845 317.172 271.649 316.937 271.454 316.527C270.673 317.309 270.184 317.895 269.989 318.286C270.184 318.481 270.38 318.637 270.575 318.735C270.77 318.833 271.063 319.087 271.454 319.477L272.919 318.012ZM271.454 325.339C271.454 325.534 271.356 325.632 271.161 325.632C271.552 325.632 271.845 325.729 272.04 325.925L271.454 325.339ZM274.678 159.465C275.655 158.684 276.436 158.879 277.022 160.051C277.608 161.224 277.413 162.103 276.436 162.689C275.459 163.275 274.678 163.041 274.092 161.946C273.506 160.872 273.701 160.051 274.678 159.465ZM275.264 142.468C276.241 142.272 276.827 142.663 277.022 143.64C277.218 144.617 276.827 145.203 275.85 145.398C274.873 145.789 274.287 145.457 274.092 144.382C273.896 143.288 274.287 142.663 275.264 142.468ZM275.264 150.673C276.241 150.478 276.827 150.966 277.022 152.139C277.218 153.311 276.827 153.995 275.85 154.19C274.873 154.581 274.287 154.151 274.092 152.881C273.896 151.592 274.287 150.869 275.264 150.673ZM276.729 284.017C278.292 285.189 279.269 286.068 279.66 286.654C280.832 285.482 281.809 284.603 282.59 284.017C281.809 283.626 281.321 283.235 281.125 282.844C280.734 282.844 280.344 282.805 279.953 282.688C279.562 282.591 279.171 282.532 278.781 282.532C277.999 283.333 277.315 283.821 276.729 284.017ZM279.66 290.171C279.074 291.148 278.292 291.929 277.315 292.516C277.706 292.906 278.097 293.297 278.488 293.688C278.878 294.079 279.269 294.469 279.66 294.86L282.004 292.516C281.614 292.125 281.223 291.734 280.832 291.343C280.441 290.953 280.051 290.562 279.66 290.171ZM279.66 298.963C279.269 299.354 278.917 299.705 278.644 299.979C278.351 300.272 277.999 300.624 277.628 301.014C278.019 301.405 278.37 301.757 278.644 302.05C278.937 302.343 279.269 302.695 279.66 303.066C280.051 302.675 280.402 302.323 280.695 302.05C280.988 301.757 281.321 301.425 281.731 301.014C281.34 300.624 280.988 300.272 280.695 299.979C280.383 299.686 280.051 299.354 279.66 298.963ZM279.66 307.755L277.901 309.513L279.66 311.272L281.418 309.513L279.66 307.755ZM278.195 318.305C278.976 318.696 279.464 319.087 279.66 319.477C280.051 319.087 280.344 318.852 280.539 318.735C280.734 318.637 280.93 318.5 281.125 318.286C280.93 317.895 280.441 317.309 279.66 316.527C279.464 316.937 278.976 317.524 278.195 318.305ZM279.66 325.339C279.464 325.534 279.308 325.729 279.23 325.925C279.132 326.12 278.878 326.315 278.488 326.511C278.683 326.706 278.878 326.804 279.074 326.804C279.269 326.999 279.66 327.097 280.246 327.097L280.832 326.511C280.637 326.315 280.48 326.12 280.383 325.925C280.285 325.729 280.051 325.534 279.66 325.339ZM283.47 142.468C284.447 142.077 285.072 142.428 285.365 143.503C285.658 144.578 285.306 145.222 284.329 145.398C283.352 145.789 282.727 145.496 282.434 144.519C282.141 143.542 282.493 142.858 283.47 142.468ZM287.866 286.654C289.038 285.482 289.917 284.701 290.503 284.31C289.331 284.31 287.768 284.114 285.814 283.724L285.228 284.31C286.205 284.896 287.084 285.677 287.866 286.654ZM288.159 290.171L285.814 292.516C286.205 292.906 286.596 293.297 286.986 293.688C287.377 294.079 287.768 294.469 288.159 294.86C288.549 294.469 288.94 294.079 289.331 293.688C289.722 293.297 290.112 292.906 290.503 292.516C289.526 291.929 288.745 291.148 288.159 290.171ZM287.866 298.963C287.475 299.549 286.889 300.233 286.107 301.014C286.693 301.796 287.377 302.48 288.159 303.066C288.549 302.675 288.842 302.323 289.038 302.05C289.233 301.757 289.526 301.425 289.917 301.014C289.526 300.624 289.175 300.272 288.901 299.979C288.608 299.686 288.256 299.354 287.866 298.963ZM287.866 307.755C287.67 308.146 287.182 308.732 286.4 309.513L288.159 311.272L289.917 309.513C289.136 308.732 288.452 308.146 287.866 307.755ZM286.693 318.305L287.866 319.477C288.256 319.087 288.549 318.852 288.745 318.735C288.94 318.637 289.233 318.403 289.624 317.992C289.233 317.211 288.745 316.879 288.159 316.957C287.573 317.074 287.084 317.524 286.693 318.305ZM286.986 326.511C287.182 326.902 287.475 327.292 287.866 327.683C288.256 327.488 288.745 327.097 289.331 326.511C288.94 326.315 288.686 326.12 288.588 325.925C288.491 325.729 288.237 325.534 287.846 325.339C287.651 325.534 287.494 325.729 287.397 325.925C287.319 326.12 287.182 326.315 286.986 326.511ZM296.364 290.171C295.974 290.562 295.583 290.953 295.192 291.343C294.801 291.734 294.411 292.125 294.02 292.516L296.364 294.86L296.951 294.274V290.757L296.364 290.171ZM296.364 286.654L296.951 286.068V284.896C295.778 284.896 294.899 284.798 294.313 284.603C294.704 284.994 295.055 285.345 295.348 285.638C295.642 285.931 295.974 286.264 296.364 286.654ZM296.364 298.963C295.974 299.354 295.622 299.705 295.329 299.979C295.036 300.272 294.684 300.624 294.293 301.014C294.684 301.405 295.036 301.757 295.329 302.05C295.622 302.343 295.954 302.695 296.364 303.066L296.951 302.48V299.549L296.364 298.963ZM294.606 309.513L296.364 311.272L296.951 310.685V308.341L296.364 307.755L294.606 309.513ZM295.485 317.27C295.29 317.367 295.094 317.621 294.899 318.012C295.094 318.403 295.29 318.657 295.485 318.754C295.681 318.852 295.974 319.106 296.364 319.497L296.951 318.911V317.152L296.364 316.566C295.974 316.937 295.681 317.172 295.485 317.27ZM296.364 325.339L295.192 326.511C295.388 326.902 295.583 327.156 295.778 327.253C295.974 327.351 296.169 327.507 296.364 327.703L296.951 327.116V325.944L296.364 325.339Z" fill="white"/>
<path d="M405.677 269.95V272.294L413.59 285.482V356.403H342.668L334.463 342.629H332.997V269.95H405.677ZM341.789 278.742V333.837H396.885V278.742H341.789ZM347.357 286.654C348.334 285.677 349.018 285.091 349.409 284.896C349.018 284.505 348.823 284.212 348.823 284.017H347.357V286.654ZM347.357 291.636V294.86C348.139 294.079 348.725 293.59 349.116 293.395L347.357 291.636ZM347.357 300.428V303.066C347.748 302.87 347.983 302.675 348.1 302.48C348.198 302.284 348.432 301.991 348.842 301.6C348.451 301.405 348.198 301.21 348.1 301.014C347.983 300.819 347.748 300.624 347.357 300.428ZM347.357 309.22V311.272C347.553 311.076 347.748 310.939 347.943 310.842C348.139 310.744 348.334 310.607 348.53 310.392C348.334 310.002 348.139 309.767 347.943 309.65C347.748 309.552 347.553 309.415 347.357 309.22ZM347.357 318.012V319.477C347.553 319.282 347.689 319.184 347.807 319.184C347.904 319.184 348.041 319.087 348.256 318.891L347.357 318.012ZM347.357 326.804V327.39H347.65C347.846 327.39 347.943 327.292 347.943 327.097C347.748 327.097 347.65 327.058 347.65 326.96C347.65 326.843 347.553 326.804 347.357 326.804ZM354.977 287.827C355.368 286.654 356.345 285.677 357.908 284.896L357.028 284.017H353.219L352.339 284.896C353.512 285.482 354.391 286.459 354.977 287.827ZM354.977 290.757C354.586 291.343 353.805 292.223 352.632 293.395C353.609 293.981 354.391 294.762 354.977 295.739L357.321 293.395C356.931 293.004 356.54 292.574 356.149 292.086C355.759 291.578 355.368 291.148 354.977 290.757ZM354.977 299.549C354.586 299.94 354.235 300.331 353.942 300.721C353.648 301.112 353.297 301.503 352.926 301.894C353.512 302.284 354.293 302.968 355.27 303.945C355.661 303.359 356.247 302.675 357.028 301.894C356.247 300.721 355.563 299.94 354.977 299.549ZM354.977 308.341C354.196 309.122 353.707 309.806 353.512 310.392L354.977 311.858C355.759 311.076 356.345 310.588 356.735 310.392C356.345 309.806 355.759 309.122 354.977 308.341ZM354.977 320.356C355.759 319.575 356.247 318.989 356.442 318.598C355.856 317.426 355.172 317.23 354.391 318.012C353.609 318.793 353.805 319.575 354.977 320.356ZM354.977 325.925C354.782 326.315 354.489 326.706 354.098 327.097V327.39H355.856C356.052 327.39 356.149 327.292 356.149 327.097C355.954 326.902 355.758 326.765 355.563 326.667C355.368 326.55 355.172 326.315 354.977 325.925ZM360.545 284.896C361.522 285.482 362.499 286.361 363.476 287.534C364.062 286.557 365.039 285.677 366.406 284.896C366.016 284.701 365.625 284.407 365.234 284.017H361.424L360.545 284.896ZM363.476 290.757C363.085 291.148 362.694 291.597 362.304 292.066C361.913 292.555 361.522 293.004 361.131 293.375C361.522 293.766 361.913 294.118 362.304 294.411C362.694 294.704 363.085 295.055 363.476 295.446L365.82 293.102C364.843 292.516 364.062 291.734 363.476 290.757ZM363.476 299.549L361.424 301.6C361.815 302.187 362.401 302.87 363.183 303.652C363.573 303.261 363.964 302.968 364.355 302.773C364.746 302.577 365.136 302.284 365.527 301.894C364.55 300.917 363.867 300.135 363.476 299.549ZM363.476 308.341C362.694 309.122 362.108 309.806 361.717 310.392C362.108 310.588 362.694 311.076 363.476 311.858C364.257 311.076 364.843 310.588 365.234 310.392C364.843 309.806 364.257 309.122 363.476 308.341ZM363.183 320.063C363.573 319.868 363.867 319.673 364.062 319.477C364.257 319.282 364.55 319.087 364.941 318.891C364.16 318.11 363.671 317.524 363.476 317.133L362.011 318.598C362.206 318.989 362.597 319.477 363.183 320.063ZM363.476 325.925L362.304 327.097V327.39H364.355L364.648 327.097C364.062 326.902 363.671 326.511 363.476 325.925ZM368.751 284.896C370.119 285.482 371.095 286.459 371.682 287.827C372.268 286.654 373.147 285.677 374.319 284.896C373.928 284.505 373.733 284.212 373.733 284.017H369.923C369.532 284.407 369.142 284.701 368.751 284.896ZM371.682 290.757C371.291 291.343 370.509 292.223 369.337 293.395C369.923 293.786 370.705 294.469 371.682 295.446C372.072 295.055 372.463 294.704 372.854 294.411C373.245 294.118 373.635 293.785 374.026 293.375C373.635 292.984 373.245 292.555 372.854 292.066C372.463 291.578 372.072 291.148 371.682 290.757ZM371.682 299.549C371.291 299.94 370.939 300.331 370.646 300.721C370.353 301.112 370.001 301.503 369.611 301.894C370.392 302.48 371.076 303.164 371.662 303.945C372.053 303.554 372.404 303.163 372.678 302.773C372.971 302.382 373.303 301.991 373.694 301.6C373.303 301.21 372.951 300.858 372.678 300.585C372.404 300.272 372.072 299.94 371.682 299.549ZM371.682 308.341L369.923 310.099L371.682 311.858C372.463 311.076 373.049 310.588 373.44 310.392C373.049 309.806 372.463 309.122 371.682 308.341ZM371.682 320.063C372.072 319.868 372.307 319.673 372.424 319.477C372.522 319.282 372.756 319.087 373.166 318.891C372.776 318.5 372.522 318.207 372.424 318.012C372.326 317.817 372.072 317.524 371.682 317.133C371.291 317.719 370.802 318.207 370.216 318.598C370.607 318.989 370.841 319.282 370.959 319.477C371.037 319.673 371.291 319.868 371.682 320.063ZM371.682 325.925C371.486 326.315 371.291 326.569 371.095 326.667C370.9 326.765 370.705 326.921 370.509 327.097L370.802 327.39H372.561C372.756 327.39 372.854 327.292 372.854 327.097C372.658 326.902 372.463 326.765 372.268 326.667C372.072 326.55 371.877 326.315 371.682 325.925ZM377.25 284.896C377.64 285.287 378.07 285.677 378.559 286.068C379.047 286.459 379.477 286.947 379.868 287.534C380.845 286.361 381.822 285.482 382.798 284.896L381.919 284.017H378.109L377.25 284.896ZM379.887 290.757C379.497 291.148 379.145 291.597 378.852 292.066C378.559 292.555 378.207 293.004 377.836 293.375L379.887 295.427C380.473 295.036 381.353 294.254 382.525 293.082C381.939 292.711 381.06 291.929 379.887 290.757ZM379.887 299.842C379.106 300.624 378.422 301.21 377.836 301.6L380.18 303.945C380.571 303.554 380.864 303.163 381.06 302.773C381.255 302.382 381.548 301.991 381.939 301.6C381.157 300.819 380.473 300.233 379.887 299.842ZM379.887 308.341C379.692 308.536 379.204 309.22 378.422 310.392C378.813 310.588 379.047 310.783 379.164 310.979C379.262 311.174 379.497 311.467 379.907 311.858C380.688 311.076 381.274 310.588 381.665 310.392C381.255 309.806 380.669 309.122 379.887 308.341ZM378.422 318.891C378.813 319.087 379.301 319.477 379.887 320.063C380.473 319.673 380.962 319.184 381.353 318.598C380.767 318.012 380.278 317.621 379.887 317.426C379.497 317.621 379.243 317.817 379.145 318.012C379.047 318.207 378.813 318.5 378.422 318.891ZM380.18 325.925L378.715 327.39H379.008H380.766C380.962 327.39 381.06 327.292 381.06 327.097C380.669 326.706 380.376 326.315 380.18 325.925ZM390.145 284.017H386.335L385.456 284.896C386.432 285.482 387.409 286.361 388.386 287.534C388.777 286.947 389.168 286.459 389.558 286.068C389.949 285.677 390.34 285.287 390.731 284.896V284.603L390.145 284.017ZM388.386 290.757C387.995 291.148 387.605 291.539 387.214 291.929C386.823 292.32 386.335 292.711 385.749 293.102C386.921 294.274 387.8 295.055 388.386 295.446C389.363 294.469 390.144 293.786 390.731 293.395C389.558 292.223 388.777 291.343 388.386 290.757ZM388.386 299.549C387.409 300.526 386.725 301.307 386.335 301.894L388.386 303.945C388.777 303.359 389.461 302.577 390.438 301.6C389.656 301.014 388.972 300.331 388.386 299.549ZM388.386 308.341C387.605 309.122 387.018 309.806 386.628 310.392C387.018 310.588 387.605 311.076 388.386 311.858L389.851 310.392C389.656 309.806 389.168 309.122 388.386 308.341ZM386.921 318.891C387.507 319.477 387.995 319.868 388.386 320.063C388.777 319.868 389.011 319.673 389.129 319.477C389.226 319.282 389.461 318.989 389.871 318.598C389.48 318.403 388.992 318.012 388.406 317.426C387.8 317.817 387.312 318.305 386.921 318.891ZM388.386 325.925L387.214 327.097C387.214 327.292 387.312 327.39 387.507 327.39H389.265C389.461 327.39 389.558 327.292 389.558 327.097C389.363 326.902 389.168 326.765 388.972 326.667C388.777 326.55 388.582 326.315 388.386 325.925Z" fill="white"/>
</g>
<defs>
<clipPath id="clip0_10_610">
<rect width="480" height="480" fill="white" transform="translate(16 16)"/>
</clipPath>
</defs>
</svg>
